<svg xmlns="http://www.w3.org/2000/svg" viewBox="0 0 1418.72 2527.16"><defs><style>.cls-1,.cls-3{fill:#68b2f9;}.cls-1{opacity:0.1;}.cls-2{fill:#f94261;}</style></defs><g id="Layer_2" data-name="Layer 2"><g id="Frame_Hud" data-name="Frame Hud"><rect class="cls-1" x="6.34" y="34.99" width="1386.53" height="2474.17"/><polygon class="cls-2" points="485.48 0 453.33 32.14 58.62 32.14 2.69 88.07 2.69 210 25.94 233.25 25.94 588.86 7.57 607.23 7.57 1442.57 22.81 1457.81 22.81 2308.29 0 2331.09 0 2445.43 62.31 2507.74 489.76 2507.74 509.18 2527.16 743.48 2527.16 743.48 2488.29 81.76 2488.29 40.62 2447.14 40.62 96.86 78.33 59.14 758.91 59.14 758.91 2 485.48 0"/><polygon class="cls-2" points="933.24 0 965.39 32.14 1360.1 32.14 1416.03 88.07 1416.03 210 1392.78 233.25 1392.78 588.86 1411.15 607.23 1411.15 1442.57 1395.91 1457.81 1395.91 2308.29 1418.72 2331.09 1418.72 2445.43 1356.41 2507.74 928.96 2507.74 909.54 2527.16 675.24 2527.16 675.24 2488.29 1336.96 2488.29 1378.1 2447.14 1378.1 96.86 1340.39 59.14 659.82 59.14 659.82 2 933.24 0"/><path class="cls-3" d="M1324.05,77.14l-3.43-3.43H97.19l-3.43,3.43-36,36V2436.86l32.57,32.57H1327.48l32.57-32.57V113.14Zm23.25,2354.25-24.11,24.11H1202.12l-9.21-9.21H934.05l-7.72,7.71H491.48l-7.72-7.71H224.91l-9.22,9.21H94.62l-24.11-24.11V1591.71l19.13-19.12V923.14l-16.8-16.79V121.71l37.89-37.88H311.48L324.85,97.2H1093l13.37-13.37h200.75L1345,121.71V906.35l-16.8,16.79v649.45l19.13,19.12Z"/></g></g></svg>