
<svg xmlns="http://www.w3.org/2000/svg" xmlns:xlink="http://www.w3.org/1999/xlink" viewBox="0 0 1619.33 1004.11"><defs><style>.cls-1{opacity:0.11;fill:url(#linear-gradient);}.cls-10,.cls-11,.cls-12,.cls-13,.cls-14,.cls-15,.cls-16,.cls-2{fill:none;stroke-width:8px;}.cls-2{stroke-miterlimit:10;stroke:url(#linear-gradient-2);}.cls-3{fill:url(#linear-gradient-3);}.cls-4{fill:url(#linear-gradient-4);}.cls-5{fill:url(#linear-gradient-5);}.cls-6{fill:url(#linear-gradient-6);}.cls-7{fill:url(#linear-gradient-7);}.cls-8{fill:url(#linear-gradient-8);}.cls-9{fill:url(#linear-gradient-9);}.cls-10,.cls-11,.cls-12,.cls-13,.cls-14,.cls-15,.cls-16{stroke-linecap:round;stroke-linejoin:round;}.cls-10{stroke:url(#linear-gradient-10);}.cls-11{stroke:url(#linear-gradient-11);}.cls-12{stroke:url(#linear-gradient-12);}.cls-13{stroke:url(#linear-gradient-13);}.cls-14{stroke:url(#linear-gradient-14);}.cls-15{stroke:url(#linear-gradient-15);}.cls-16{stroke:url(#linear-gradient-16);}</style><linearGradient id="linear-gradient" x1="2545.18" y1="1532" x2="-2277.5" y2="-1296.11" gradientUnits="userSpaceOnUse"><stop offset="0" stop-color="#01cae4"/><stop offset="1" stop-color="#29abe2"/></linearGradient><linearGradient id="linear-gradient-2" x1="809.67" y1="1004.11" x2="809.67" y2="26.87" gradientUnits="userSpaceOnUse"><stop offset="0" stop-color="#01bda5"/><stop offset="0.19" stop-color="#03baa7"/><stop offset="0.35" stop-color="#0aafad"/><stop offset="0.5" stop-color="#159eb7"/><stop offset="0.64" stop-color="#2585c5"/><stop offset="0.77" stop-color="#3966d7"/><stop offset="0.91" stop-color="#5240ec"/><stop offset="1" stop-color="#671fff"/></linearGradient><linearGradient id="linear-gradient-3" x1="17.38" y1="939.22" x2="536.81" y2="937.51" gradientUnits="userSpaceOnUse"><stop offset="0" stop-color="#fab717"/><stop offset="1" stop-color="#ff4c3e"/></linearGradient><linearGradient id="linear-gradient-4" x1="17.38" y1="939.52" x2="536.81" y2="937.81" xlink:href="#linear-gradient-3"/><linearGradient id="linear-gradient-5" x1="17.38" y1="939.82" x2="536.81" y2="938.11" xlink:href="#linear-gradient-3"/><linearGradient id="linear-gradient-6" x1="17.38" y1="940.12" x2="536.81" y2="938.41" xlink:href="#linear-gradient-3"/><linearGradient id="linear-gradient-7" x1="17.38" y1="940.42" x2="536.81" y2="938.71" xlink:href="#linear-gradient-3"/><linearGradient id="linear-gradient-8" x1="17.38" y1="940.72" x2="536.81" y2="939.01" xlink:href="#linear-gradient-3"/><linearGradient id="linear-gradient-9" x1="17.39" y1="941.02" x2="536.81" y2="939.31" xlink:href="#linear-gradient-3"/><linearGradient id="linear-gradient-10" x1="32" y1="790.7" x2="32" y2="668.98" xlink:href="#linear-gradient-3"/><linearGradient id="linear-gradient-11" x1="4.17" y1="819.27" x2="4.17" y2="643.93" xlink:href="#linear-gradient-3"/><linearGradient id="linear-gradient-12" x1="50.89" y1="126.96" x2="50.89" y2="26.86" xlink:href="#linear-gradient-3"/><linearGradient id="linear-gradient-13" x1="29.09" y1="84.62" x2="29.09" y2="26.86" xlink:href="#linear-gradient-3"/><linearGradient id="linear-gradient-14" x1="10.54" y1="47.49" x2="10.54" y2="26.86" xlink:href="#linear-gradient-3"/><linearGradient id="linear-gradient-15" x1="1043.68" y1="997.66" x2="1417.72" y2="997.66" xlink:href="#linear-gradient-3"/><linearGradient id="linear-gradient-16" x1="152.04" y1="205.43" x2="1605.84" y2="205.43" xlink:href="#linear-gradient-3"/></defs><g id="Layer_2" data-name="Layer 2"><g id="Hud"><rect class="cls-1" x="4" y="30.86" width="1611.33" height="966.8" rx="89.9"/><path class="cls-2" d="M129.22,41.55,14.68,156.1A36.43,36.43,0,0,0,4,181.88V598.52A36.45,36.45,0,0,0,14.68,624.3l36.94,36.94A36.48,36.48,0,0,1,62.3,687v95.52a36.49,36.49,0,0,1-10.68,25.78L18,841.92A36.48,36.48,0,0,0,7.34,867.7v95.95a36.46,36.46,0,0,0,36.46,36.46H983.26A36.45,36.45,0,0,0,1009,989.43l23.1-23.1a36.45,36.45,0,0,1,25.78-10.68h348.27A36.45,36.45,0,0,1,1432,966.33l22.36,22.36a36.45,36.45,0,0,0,25.78,10.68h98.76a36.46,36.46,0,0,0,36.46-36.46V467.26a36.45,36.45,0,0,0-10.68-25.78l-22.78-22.79a36.43,36.43,0,0,1-10.68-25.78V114.44a82.84,82.84,0,0,0-24.27-58.58h0a82.84,82.84,0,0,0-58.53-24.26L155,30.87A36.52,36.52,0,0,0,129.22,41.55Z"/><circle class="cls-3" cx="72.06" cy="939.04" r="17.94"/><circle class="cls-4" cx="162.91" cy="939.04" r="17.94"/><circle class="cls-5" cx="253.77" cy="939.04" r="17.94"/><circle class="cls-6" cx="344.63" cy="939.04" r="17.94"/><circle class="cls-7" cx="435.49" cy="939.04" r="17.94"/><circle class="cls-8" cx="526.34" cy="939.04" r="17.94"/><circle class="cls-9" cx="617.2" cy="939.04" r="17.94"/><line class="cls-10" x1="32" y1="672.98" x2="32" y2="786.7"/><line class="cls-11" x1="4.17" y1="647.93" x2="4.17" y2="815.27"/><line class="cls-12" x1="96.94" y1="30.86" x2="4.84" y2="122.96"/><line class="cls-13" x1="53.96" y1="30.86" x2="4.21" y2="80.62"/><line class="cls-14" x1="16.86" y1="30.86" x2="4.23" y2="43.49"/><line class="cls-15" x1="1047.68" y1="997.66" x2="1413.72" y2="997.66"/><path class="cls-16" d="M156,4H1494.57a107.27,107.27,0,0,1,107.27,107.27V406.86"/></g></g></svg>