<?xml version="1.0" encoding="UTF-8" standalone="no"?>
<!DOCTYPE svg PUBLIC "-//W3C//DTD SVG 1.1//EN" "http://www.w3.org/Graphics/SVG/1.1/DTD/svg11.dtd">
<svg width="100%" height="100%" viewBox="0 0 200 200" version="1.1" xmlns="http://www.w3.org/2000/svg" xmlns:xlink="http://www.w3.org/1999/xlink" xml:space="preserve" xmlns:serif="http://www.serif.com/" style="fill-rule:evenodd;clip-rule:evenodd;stroke-linecap:round;stroke-linejoin:round;">
    <g>
        <path d="M99.882,6.089C63.847,6.089 34.194,35.742 34.194,71.777C34.194,95.114 41.316,104.483 75.439,149.497C81.386,157.345 88.093,166.196 95.768,176.429C96.72,177.705 98.221,178.457 99.813,178.457C101.405,178.457 102.906,177.705 103.858,176.429C111.499,166.057 118.206,157.414 124.083,149.635C158.31,104.483 165.571,95.079 165.571,71.777C165.571,35.742 135.918,6.089 99.882,6.089Z" style="fill:none;fill-rule:nonzero;stroke:white;stroke-width:5.74px;"/>
        <path d="M99.882,36.236C80.499,36.236 64.549,52.186 64.549,71.57C64.549,90.953 80.499,106.903 99.882,106.903C119.266,106.903 135.216,90.953 135.216,71.57C135.197,52.194 119.258,36.255 99.882,36.236Z" style="fill:none;fill-rule:nonzero;stroke:white;stroke-width:5.74px;"/>
        <ellipse cx="99.882" cy="192.229" rx="19.914" ry="3.976" style="fill:white;"/>
    </g>
</svg>
