<?xml version="1.0" encoding="UTF-8" standalone="no"?>
<!DOCTYPE svg PUBLIC "-//W3C//DTD SVG 1.1//EN" "http://www.w3.org/Graphics/SVG/1.1/DTD/svg11.dtd">
<svg width="100%" height="100%" viewBox="0 0 490 303" version="1.1" xmlns="http://www.w3.org/2000/svg" xmlns:xlink="http://www.w3.org/1999/xlink" xml:space="preserve" xmlns:serif="http://www.serif.com/" style="fill-rule:evenodd;clip-rule:evenodd;">
    <path d="M363.772,234.359l-129.413,0c-8.333,0 -12.5,4.167 -16.666,8.334l-16.667,16.666c-4.167,4.167 -8.333,8.334 -16.667,8.334l-50,-0c-8.333,-0 -12.5,-4.167 -16.666,-8.334l-16.667,-16.666c-4.167,-4.167 -8.333,-8.334 -16.667,-8.334l-33.333,0c-9.143,0 -16.667,-7.523 -16.667,-16.666l0,-166.667c0,-9.143 7.524,-16.667 16.667,-16.667l33.333,0c8.334,0 12.5,4.167 16.667,8.334l16.667,16.666c4.166,4.167 8.333,8.334 16.666,8.334l50,-0c8.334,-0 12.5,-4.167 16.667,-8.334l16.667,-16.666c4.166,-4.167 8.333,-8.334 16.666,-8.334l129.413,0" style="fill:#4c97ff;stroke:#3373cc;stroke-width:16.67px;"/>
    <path d="M361.772,34.359l77.069,0c9.143,0 16.666,7.524 16.666,16.667l0,166.667c0,9.143 -7.523,16.666 -16.666,16.666l-77.069,0" style="fill:#4c97ff;stroke:#3373cc;stroke-width:16.67px;"/>
</svg>
