<svg width="201" height="333" viewBox="0 0 201 333" fill="none" xmlns="http://www.w3.org/2000/svg">
<g clip-path="url(#clip0_3_2)">
<path d="M42.45 332.66C48.2187 332.666 53.9258 331.475 59.2103 329.161C64.4948 326.848 69.2415 323.463 73.15 319.22L189.15 195.22C196.482 187.391 200.562 177.066 200.562 166.34C200.562 155.614 196.482 145.289 189.15 137.46L73.15 13.46C69.2432 9.21361 64.4973 5.82464 59.2128 3.5077C53.9282 1.19076 48.2201 -0.00368071 42.45 8.52007e-06C37.8784 0.00632797 33.3374 0.745715 29 2.19001C20.5156 4.90734 13.1235 10.2686 7.90542 17.4894C2.6873 24.7102 -0.0829641 33.4115 -2.14501e-05 42.32V290.32C-0.0643801 297.862 1.91903 305.28 5.73879 311.784C9.55855 318.288 15.0715 323.633 21.69 327.25C28.04 330.783 35.1834 332.644 42.45 332.66Z" fill="#FBE3B3"/>
<path d="M42.45 328.12C47.5954 328.122 52.6853 327.056 57.398 324.991C62.1108 322.925 66.3439 319.905 69.83 316.12L185.83 192.12C192.372 185.13 196.011 175.914 196.011 166.34C196.011 156.766 192.372 147.55 185.83 140.56L69.83 16.5601C66.3431 12.7738 62.1085 9.75227 57.3938 7.68672C52.6792 5.62117 47.5872 4.5565 42.44 4.56007C38.3416 4.57065 34.272 5.24609 30.39 6.56007C22.8317 8.9862 16.2468 13.7646 11.5964 20.1978C6.946 26.6311 4.47355 34.3823 4.53996 42.3201V290.32C4.47451 297.057 6.24004 303.686 9.64804 309.498C13.056 315.31 17.9785 320.087 23.89 323.32C29.572 326.462 35.9572 328.113 42.45 328.12Z" fill="#FFEDB1"/>
<path d="M42.45 316.76C46.0394 316.753 49.5887 316.004 52.8742 314.558C56.1596 313.112 59.1102 311.002 61.54 308.36L177.54 184.36C182.104 179.477 184.643 173.043 184.643 166.36C184.643 159.677 182.104 153.243 177.54 148.36L61.54 24.36C59.1102 21.718 56.1596 19.6076 52.8742 18.162C49.5887 16.7163 46.0394 15.9666 42.45 15.96C39.581 15.9467 36.7283 16.3924 34 17.28C28.7103 18.9691 24.1003 22.3074 20.8451 26.8061C17.5898 31.3047 15.8604 36.7274 15.91 42.28V290.28C15.8736 294.975 17.1095 299.593 19.4864 303.643C21.8633 307.692 25.2926 311.023 29.41 313.28C33.392 315.525 37.8788 316.723 42.45 316.76Z" fill="#FBE3B3"/>
<path d="M174.24 151.41L58.24 27.4101C55.2517 24.2003 51.3655 21.9655 47.0883 20.9971C42.811 20.0287 38.3412 20.3717 34.2617 21.9812C30.1823 23.5908 26.6825 26.3922 24.2187 30.0203C21.755 33.6483 20.4417 37.9346 20.45 42.3201V290.32C20.3996 294.212 21.411 298.044 23.3756 301.404C25.3402 304.764 28.1836 307.525 31.6 309.39C35.8508 311.814 40.7983 312.725 45.6337 311.973C50.4691 311.221 54.9063 308.851 58.22 305.25L174.22 181.25C178.005 177.204 180.111 171.871 180.111 166.33C180.111 160.79 178.005 155.456 174.22 151.41H174.24Z" fill="#FDF6B6"/>
<path d="M126.23 100.1L174.23 151.41C178.015 155.456 180.121 160.79 180.121 166.33C180.121 171.871 178.015 177.204 174.23 181.25L58.2299 305.25C54.9162 308.851 50.479 311.221 45.6436 311.973C40.8082 312.725 35.8607 311.814 31.6099 309.39C28.1965 307.527 25.3551 304.769 23.3907 301.413C21.4263 298.056 20.4131 294.229 20.4599 290.34V99.78C71.1899 154.51 126.23 100.1 126.23 100.1Z" fill="#FCEFAD"/>
<path d="M180.12 166.62C180.056 172.06 177.958 177.279 174.24 181.25L58.2399 305.25C54.9262 308.851 50.489 311.221 45.6536 311.973C40.8182 312.725 35.8707 311.815 31.6199 309.39C28.2066 307.527 25.3651 304.769 23.4007 301.413C21.4363 298.057 20.4231 294.229 20.4699 290.34V172.44C80.9999 231.79 180.12 166.62 180.12 166.62Z" fill="#FAECB2"/>
<path d="M52.1399 37.2599C50.6599 38.6699 63.1399 48.6999 76.7599 62.9299C90.3799 77.1599 99.7599 90.2099 101.27 88.7999C102.78 87.3899 95.6699 72.0699 82.0999 57.7999C68.5299 43.5299 53.6099 35.8499 52.1399 37.2599Z" fill="white"/>
<path opacity="0.5" d="M32.71 303.27C34.71 303.33 33.11 287.37 33.71 267.71C34.31 248.05 37 232.16 35 232.09C33 232.02 27 247.82 26.37 267.48C25.74 287.14 30.67 303.2 32.71 303.27Z" fill="white"/>
<path d="M43.0799 28.6C42.4214 29.2721 41.9768 30.1242 41.8024 31.0488C41.6279 31.9735 41.7314 32.929 42.0998 33.7948C42.4681 34.6607 43.0848 35.3979 43.8719 35.9134C44.6591 36.4289 45.5813 36.6996 46.5222 36.6912C47.4631 36.6828 48.3804 36.3958 49.1582 35.8663C49.9361 35.3369 50.5395 34.5888 50.8924 33.7166C51.2453 32.8443 51.3318 31.8871 51.1409 30.9657C50.95 30.0444 50.4903 29.2002 49.8199 28.54C48.9177 27.6551 47.7012 27.1645 46.4375 27.1757C45.1738 27.187 43.9663 27.6992 43.0799 28.6Z" fill="white"/>
</g>
<defs>
<clipPath id="clip0_3_2">
<rect width="200.58" height="332.66" fill="white"/>
</clipPath>
</defs>
</svg>
