<!--
Layer 2.svg
cml-narrative

Created by Ian Thompson on May 27th 2023
ianthompson@nicelion.com
https://www.nicelion.com

Copyright (c) 2023 Nice Lion Technologies LLC. All Rights Reserved.

-->
<svg xmlns="http://www.w3.org/2000/svg" viewBox="0 0 200.58 332.66"><defs><style>.cls-1{fill:#fda800;}.cls-2{fill:#fbc100;}.cls-3{fill:#fbe30d;}.cls-4{fill:#fed605;}.cls-5{fill:#fdcc03;}.cls-6,.cls-7{fill:#fff;}.cls-7{opacity:0.5;}</style></defs><g id="Layer_2" data-name="Layer 2"><g id="Layer_2-2" data-name="Layer 2"><path class="cls-1" d="M42.45,332.66a41.68,41.68,0,0,0,30.7-13.44l116-124a42.25,42.25,0,0,0,0-57.76l-116-124A41.68,41.68,0,0,0,42.45,0,42.76,42.76,0,0,0,29,2.19,41.73,41.73,0,0,0,0,42.32v248a41.68,41.68,0,0,0,21.69,36.93A42.89,42.89,0,0,0,42.45,332.66Z"/><path class="cls-2" d="M42.45,328.12a37.21,37.21,0,0,0,27.38-12l116-124a37.73,37.73,0,0,0,0-51.56l-116-124a37.2,37.2,0,0,0-27.39-12,37.89,37.89,0,0,0-12.05,2A37.23,37.23,0,0,0,4.54,42.32v248a37.2,37.2,0,0,0,19.35,33A38.44,38.44,0,0,0,42.45,328.12Z"/><path class="cls-1" d="M42.45,316.76a26,26,0,0,0,19.09-8.4l116-124a26.36,26.36,0,0,0,0-36l-116-124a26,26,0,0,0-19.09-8.4A26.91,26.91,0,0,0,34,17.28a26,26,0,0,0-18.09,25v248a26,26,0,0,0,13.5,23A27,27,0,0,0,42.45,316.76Z"/><path class="cls-3" d="M174.24,151.41l-116-124A21.82,21.82,0,0,0,20.45,42.32v248A21.41,21.41,0,0,0,31.6,309.39a21.62,21.62,0,0,0,26.62-4.14l116-124a21.84,21.84,0,0,0,0-29.84Z"/><path class="cls-4" d="M126.23,100.1l48,51.31a21.84,21.84,0,0,1,0,29.84l-116,124a21.62,21.62,0,0,1-26.62,4.14,21.41,21.41,0,0,1-11.15-19.05V99.78C71.19,154.51,126.23,100.1,126.23,100.1Z"/><path class="cls-5" d="M180.12,166.62a21.78,21.78,0,0,1-5.88,14.63l-116,124a21.62,21.62,0,0,1-26.62,4.14,21.41,21.41,0,0,1-11.15-19.05V172.44C81,231.79,180.12,166.62,180.12,166.62Z"/><path class="cls-6" d="M52.14,37.26c-1.48,1.41,11,11.44,24.62,25.67s23,27.28,24.51,25.87-5.6-16.73-19.17-31S53.61,35.85,52.14,37.26Z"/><path class="cls-7" d="M32.71,303.27c2,.06.4-15.9,1-35.56S37,232.16,35,232.09s-8,15.73-8.63,35.39S30.67,303.2,32.71,303.27Z"/><path class="cls-6" d="M43.08,28.6a4.76,4.76,0,1,0,6.74-.06A4.77,4.77,0,0,0,43.08,28.6Z"/></g></g></svg>