<svg xmlns="http://www.w3.org/2000/svg" xmlns:xlink="http://www.w3.org/1999/xlink" viewBox="0 0 324.98 269.2"><defs><style>.cls-1{isolation:isolate;}.cls-2{fill:url(#radial-gradient);}.cls-3{fill:url(#radial-gradient-2);}.cls-4{fill:url(#linear-gradient);}.cls-5{fill:#f56f26;}.cls-10,.cls-11,.cls-20,.cls-6,.cls-7,.cls-8,.cls-9{mix-blend-mode:screen;}.cls-10,.cls-11,.cls-12,.cls-15,.cls-16,.cls-17,.cls-18,.cls-19,.cls-20,.cls-23,.cls-24,.cls-25,.cls-26,.cls-27,.cls-31,.cls-32,.cls-33,.cls-34,.cls-38,.cls-39,.cls-40,.cls-41,.cls-6,.cls-7,.cls-8,.cls-9{opacity:0.3;}.cls-6{fill:url(#linear-gradient-2);}.cls-7{fill:url(#linear-gradient-3);}.cls-8{fill:url(#linear-gradient-4);}.cls-9{fill:url(#linear-gradient-5);}.cls-10{fill:url(#linear-gradient-6);}.cls-11{fill:url(#linear-gradient-7);}.cls-12,.cls-15,.cls-16,.cls-17,.cls-18,.cls-19,.cls-23,.cls-24,.cls-25,.cls-26,.cls-27,.cls-31,.cls-32,.cls-33,.cls-34,.cls-38,.cls-39,.cls-40,.cls-41{mix-blend-mode:multiply;}.cls-12{fill:url(#linear-gradient-8);}.cls-13{fill:url(#linear-gradient-9);}.cls-14{fill:url(#linear-gradient-10);}.cls-15{fill:url(#linear-gradient-11);}.cls-16{fill:url(#linear-gradient-12);}.cls-17{fill:url(#linear-gradient-13);}.cls-18{fill:url(#linear-gradient-14);}.cls-19{fill:url(#linear-gradient-15);}.cls-20{fill:#f78313;}.cls-21{fill:url(#linear-gradient-16);}.cls-22{fill:url(#linear-gradient-17);}.cls-23{fill:url(#linear-gradient-18);}.cls-24{fill:url(#linear-gradient-19);}.cls-25{fill:url(#linear-gradient-20);}.cls-26{fill:url(#linear-gradient-21);}.cls-27{fill:url(#linear-gradient-22);}.cls-28{fill:url(#linear-gradient-23);}.cls-29{fill:url(#linear-gradient-24);}.cls-30{fill:url(#linear-gradient-25);}.cls-31{fill:url(#linear-gradient-26);}.cls-32{fill:url(#linear-gradient-27);}.cls-33{fill:url(#linear-gradient-28);}.cls-34{fill:url(#linear-gradient-29);}.cls-35{fill:url(#linear-gradient-30);}.cls-36{fill:url(#linear-gradient-31);}.cls-37{fill:url(#linear-gradient-32);}.cls-38{fill:url(#linear-gradient-33);}.cls-39{fill:url(#linear-gradient-34);}.cls-40{fill:url(#linear-gradient-35);}.cls-41{fill:url(#linear-gradient-36);}.cls-42{fill:url(#linear-gradient-37);}</style><radialGradient id="radial-gradient" cx="158.06" cy="132.91" r="108.65" gradientUnits="userSpaceOnUse"><stop offset="0.01" stop-color="#fd0"/><stop offset="1" stop-color="#fdbb1c"/></radialGradient><radialGradient id="radial-gradient-2" cx="156.42" cy="138.85" r="62.12" gradientUnits="userSpaceOnUse"><stop offset="0" stop-color="#f78515"/><stop offset="1" stop-color="#f2580e"/></radialGradient><linearGradient id="linear-gradient" x1="128.2" y1="210.63" x2="93.7" y2="254.63" xlink:href="#radial-gradient"/><linearGradient id="linear-gradient-2" x1="87.3" y1="102.76" x2="123.07" y2="60.22" gradientUnits="userSpaceOnUse"><stop offset="0.01" stop-color="#e6e6e6"/><stop offset="1" stop-color="#bfbcc1"/></linearGradient><linearGradient id="linear-gradient-3" x1="152.71" y1="107.78" x2="207.45" y2="42.68" xlink:href="#linear-gradient-2"/><linearGradient id="linear-gradient-4" x1="45.4" y1="196.66" x2="86.35" y2="147.96" xlink:href="#linear-gradient-2"/><linearGradient id="linear-gradient-5" x1="148.96" y1="259.47" x2="237.95" y2="153.65" xlink:href="#linear-gradient-2"/><linearGradient id="linear-gradient-6" x1="133.26" y1="231.04" x2="147.66" y2="213.92" xlink:href="#linear-gradient-2"/><linearGradient id="linear-gradient-7" x1="92.98" y1="140.69" x2="126.48" y2="100.86" xlink:href="#linear-gradient-2"/><linearGradient id="linear-gradient-8" x1="129.19" y1="186.97" x2="146.13" y2="166.82" xlink:href="#radial-gradient-2"/><linearGradient id="linear-gradient-9" x1="47.79" y1="96.34" x2="30.18" y2="79.56" xlink:href="#radial-gradient-2"/><linearGradient id="linear-gradient-10" x1="37.31" y1="82.87" x2="4.64" y2="57.7" xlink:href="#radial-gradient-2"/><linearGradient id="linear-gradient-11" x1="35.88" y1="81.77" x2="17.41" y2="67.54" xlink:href="#radial-gradient-2"/><linearGradient id="linear-gradient-12" x1="18.01" y1="76.31" x2="13.63" y2="72.94" xlink:href="#radial-gradient-2"/><linearGradient id="linear-gradient-13" x1="25.68" y1="62.55" x2="21.26" y2="59.14" xlink:href="#radial-gradient-2"/><linearGradient id="linear-gradient-14" x1="31.3" y1="73.13" x2="27.6" y2="70.28" xlink:href="#radial-gradient-2"/><linearGradient id="linear-gradient-15" x1="41.52" y1="92.97" x2="7.29" y2="53.68" xlink:href="#radial-gradient-2"/><linearGradient id="linear-gradient-16" x1="984.75" y1="864.57" x2="967.14" y2="847.79" gradientTransform="translate(1107.28 1198.91) rotate(-171.18)" xlink:href="#radial-gradient-2"/><linearGradient id="linear-gradient-17" x1="974.27" y1="851.1" x2="941.61" y2="825.93" gradientTransform="translate(1107.28 1198.91) rotate(-171.18)" xlink:href="#radial-gradient-2"/><linearGradient id="linear-gradient-18" x1="972.85" y1="850" x2="954.37" y2="835.77" gradientTransform="translate(1107.28 1198.91) rotate(-171.18)" xlink:href="#radial-gradient-2"/><linearGradient id="linear-gradient-19" x1="954.98" y1="844.55" x2="950.6" y2="841.17" gradientTransform="translate(1107.28 1198.91) rotate(-171.18)" xlink:href="#radial-gradient-2"/><linearGradient id="linear-gradient-20" x1="962.65" y1="830.78" x2="958.22" y2="827.37" gradientTransform="translate(1107.28 1198.91) rotate(-171.18)" xlink:href="#radial-gradient-2"/><linearGradient id="linear-gradient-21" x1="968.26" y1="841.36" x2="964.57" y2="838.51" gradientTransform="translate(1107.28 1198.91) rotate(-171.18)" xlink:href="#radial-gradient-2"/><linearGradient id="linear-gradient-22" x1="978.49" y1="861.2" x2="944.26" y2="821.91" gradientTransform="translate(1107.28 1198.91) rotate(-171.18)" xlink:href="#radial-gradient-2"/><linearGradient id="linear-gradient-23" x1="51.24" y1="205.87" x2="15.75" y2="253.36" xlink:href="#radial-gradient-2"/><linearGradient id="linear-gradient-24" x1="65.37" y1="215.68" x2="53.63" y2="228.3" xlink:href="#radial-gradient-2"/><linearGradient id="linear-gradient-25" x1="51.08" y1="224.5" x2="29.7" y2="251.5" xlink:href="#radial-gradient-2"/><linearGradient id="linear-gradient-26" x1="52.05" y1="225.1" x2="39.67" y2="238.41" xlink:href="#radial-gradient-2"/><linearGradient id="linear-gradient-27" x1="56.62" y1="225.09" x2="50.65" y2="231.5" xlink:href="#radial-gradient-2"/><linearGradient id="linear-gradient-28" x1="46.72" y1="242.17" x2="45.04" y2="243.98" xlink:href="#radial-gradient-2"/><linearGradient id="linear-gradient-29" x1="32.82" y1="241.46" x2="30.83" y2="243.6" xlink:href="#radial-gradient-2"/><linearGradient id="linear-gradient-30" x1="262.55" y1="59.93" x2="227.04" y2="107.45" gradientTransform="matrix(-0.13, 0.99, 0.99, 0.13, 244.56, -176.63)" xlink:href="#radial-gradient-2"/><linearGradient id="linear-gradient-31" x1="276.68" y1="69.76" x2="264.93" y2="82.38" gradientTransform="matrix(-0.13, 0.99, 0.99, 0.13, 244.56, -176.63)" xlink:href="#radial-gradient-2"/><linearGradient id="linear-gradient-32" x1="262.38" y1="78.57" x2="241.01" y2="105.57" gradientTransform="matrix(-0.13, 0.99, 0.99, 0.13, 244.56, -176.63)" xlink:href="#radial-gradient-2"/><linearGradient id="linear-gradient-33" x1="263.36" y1="79.18" x2="250.97" y2="92.49" gradientTransform="matrix(-0.13, 0.99, 0.99, 0.13, 244.56, -176.63)" xlink:href="#radial-gradient-2"/><linearGradient id="linear-gradient-34" x1="267.92" y1="79.16" x2="261.95" y2="85.58" gradientTransform="matrix(-0.13, 0.99, 0.99, 0.13, 244.56, -176.63)" xlink:href="#radial-gradient-2"/><linearGradient id="linear-gradient-35" x1="258.02" y1="96.25" x2="256.34" y2="98.05" gradientTransform="matrix(-0.13, 0.99, 0.99, 0.13, 244.56, -176.63)" xlink:href="#radial-gradient-2"/><linearGradient id="linear-gradient-36" x1="244.13" y1="95.54" x2="242.14" y2="97.68" gradientTransform="matrix(-0.13, 0.99, 0.99, 0.13, 244.56, -176.63)" xlink:href="#radial-gradient-2"/><linearGradient id="linear-gradient-37" x1="166.91" y1="59.01" x2="171.41" y2="-6.99" xlink:href="#radial-gradient"/></defs><g class="cls-1"><g id="Layer_2" data-name="Layer 2"><g id="_ÎÓÈ_4" data-name="‘ÎÓÈ_4"><path class="cls-2" d="M114.65,39.33S125.3,63.49,151.92,59s38.9-36.86,38.9-36.86-1.64,17.61,9,21.71,20.89-3,20.89-3-11.06,22.24,0,41.49,43.82,13.93,43.82,13.93S233.82,110.18,229.73,136s27,54.47,27,54.47-24.58-14.75-45.87,0-21.3,50-21.3,50-9.42-14.74-19.65-12.7-18,16-18,16-2.87-28.25-26.21-37.67-48.33,8.6-48.33,8.6,6.15-7.78,2.05-11.06-12.69,1.64-12.69,1.64,26.62-23.34,18.83-43-34-31.53-34-31.53,22.53-2.87,33.58-15.16-3.68-44.23-3.68-44.23,21.29,16,30.71,5.74S114.65,39.33,114.65,39.33Z"/><path class="cls-3" d="M125.3,92.57s9.83,11.88,25.39,8.19,25.8-27,25.8-27-2.87,19,6.55,27.74,32.35,3,32.35,3-11.46,11-12.28,23.34,12.28,21.7,12.28,21.7a22.73,22.73,0,0,0-25,4.51c-11.87,11.06-9.83,29.08-9.83,29.08s-5.32-7-10.23-2.87S165.73,204,165.73,204s-3.57-18.43-24.46-7.37c0,0,8.19-16-2.87-23.34s-25,7.37-25,7.37,14.74-17.2,7.78-30.31S97.45,128.2,97.45,128.2s17.2-.82,25.8-9.83S125.3,92.57,125.3,92.57Z"/><path class="cls-4" d="M116,219.91c-4.09,3.28-29.76,45-29.76,48.89,0,5.74,39-53,39-53Z"/><path class="cls-5" d="M217.26,207.43c.27,1.64,22.11,36.86,33.58,43.41l-33.58-51.6Z"/><polygon class="cls-5" points="252.47 149.9 304.9 157.55 258.89 145.26 252.47 149.9"/><path class="cls-5" d="M251.57,62c-.27.82,0,7.65,0,7.65s35.29-27.85,42.35-37.41Z"/><path class="cls-5" d="M70.83,36.33C70.83,37.15,93,72.09,93,72.09H99.5Z"/><polygon class="cls-5" points="2.85 206.42 70.83 168.98 62.91 183.76 2.85 206.42"/><path class="cls-6" d="M90.88,81.31s14,9.34,22,0,5.66-27.1,5.66-27.1,7,25.44-4.66,33.44S90.88,81.31,90.88,81.31Z"/><path class="cls-7" d="M142.88,63s30,1.37,45.33-26.65c0,0,1.33,10,9.67,11.32S215.39,46,215.39,46,205.1,70.65,218,86.65c0,0-17.11-12.34-11.45-34.34,0,0-10.33,7.34-18.33-6.33C188.21,46,167.21,71.75,142.88,63Z"/><path class="cls-8" d="M64.88,132.91s24.33,12.74,26,31.4-13,32.34-13,32.34S104.36,175,97.45,159,64.88,132.91,64.88,132.91Z"/><path class="cls-9" d="M187.21,232.22c.2,2,1-59.57,52.67-52.91,0,0-16.34-18.26-13-40.46,0,0-6.1,18.41,1.33,31.8,0,0-4.33,0-5.33,3.33,0,0-11-3.33-21.34,9S185.54,215.46,187.21,232.22Z"/><path class="cls-10" d="M131.21,204c1,.35,19,13.35,21.33,33.69,0,0,4.34-14.67-7.33-26.34S131.21,204,131.21,204Z"/><path class="cls-11" d="M123.21,96.11C123,94.6,133.88,121.64,100.88,125,100.88,125,126.22,116.39,123.21,96.11Z"/><path class="cls-12" d="M146.21,190s6-16.33-5-21-16.45,0-16.45,0,10.78-10.74,20.12-4.2S146.21,190,146.21,190Z"/><path class="cls-13" d="M39.55,88c-.47,2.82,5.38,7.47,6.09,8C39.75,91.89,32,89.42,26.46,88.06c-4.2-1-7.16-1.42-7.16-1.42h0A10.53,10.53,0,0,0,22.35,81S29,87,34.68,79.48s.3-9.31.3-9.31.23-.14.6-.41.88-.65,1.45-1.13c.85,2.7,3,5.85,5.28,8.75a95.33,95.33,0,0,0,8.55,9.25c-.41-.25-8.15-4.94-8.15-3.15s4.85,6.3,5.16,6.58C47.51,89.83,40,85.05,39.55,88Z"/><path class="cls-14" d="M37,68.63A19.54,19.54,0,0,1,35,70.17s5.41,1.8-.3,9.31S22.35,81,22.35,81a10.53,10.53,0,0,1-3.05,5.64C15.71,90.24,10,91.66,7,88.5a4.77,4.77,0,0,1-1.58-3.78C5.71,82.39,8.23,81,8.23,81A11,11,0,0,1,3,79.9c-1.88-1-3.43-3-2.89-6.73a8.43,8.43,0,0,1,6.67-7.5,10.86,10.86,0,0,1,3-.31,23,23,0,0,1-.67-7.31s0,0,0,0c.32-3.7,1.91-7.63,7-8.73s7.59,1.4,9,4.24A17.56,17.56,0,0,1,26.56,60S32.23,53.34,37,54.19a5.21,5.21,0,0,1,3.42,2.45C43.76,61.71,39.73,66.32,37,68.63Z"/><path class="cls-15" d="M37,68.63A19.54,19.54,0,0,1,35,70.17s5.41,1.8-.3,9.31S22.35,81,22.35,81a10.53,10.53,0,0,1-3.05,5.64C15.71,90.24,10,91.66,7,88.5a4.77,4.77,0,0,1-1.58-3.78c1.22,1.76,3.69,3.47,7.93,2.84,6.35-.94,8.25-8,8.25-8C23.38,81.19,26,83,32.13,77.5s-1.5-7.86-1.5-7.86c9.68-2.4,9-10.79,6.34-15.45a5.21,5.21,0,0,1,3.42,2.45C43.76,61.71,39.73,66.32,37,68.63Z"/><path class="cls-16" d="M12.75,75.81c0,.38,2.22-2.78,6.55-2.08C19.3,73.73,13.38,69.81,12.75,75.81Z"/><path class="cls-17" d="M23.55,56.56s4.08,6.38-1.05,7.88A9.66,9.66,0,0,0,23.55,56.56Z"/><path class="cls-18" d="M30.63,66.69s3.5,6.31-3.5,9.15C27.13,75.84,32,70.94,30.63,66.69Z"/><path class="cls-19" d="M37.38,77.81a9.79,9.79,0,0,1-3.12,7.38c-3.38,2.87-6,0-6,0,.49,1.48-.65,2.36-1.8,2.87-4.2-1-7.16-1.42-7.16-1.42h0A10.53,10.53,0,0,0,22.35,81S29,87,34.68,79.48s.3-9.31.3-9.31.23-.14.6-.41.88-.65,1.45-1.13c.85,2.7,3,5.85,5.28,8.75A13,13,0,0,1,37.38,77.81Z"/><path class="cls-20" d="M3,79.9c-1.88-1-3.43-3-2.89-6.73a8.43,8.43,0,0,1,6.67-7.5C4.25,68.31,1,74.65,3,79.9Z"/><path class="cls-20" d="M25,53.54c-1.67-1.71-4-3-5.72-2.48-3,.84-1.34,3.83-1.34,3.83s-1,.84-.91,1.09c-.2-.24-2.26-3.75-4.84-2.34A7.51,7.51,0,0,0,9.08,58c.32-3.7,1.91-7.63,7-8.73S23.63,50.7,25,53.54Z"/><path class="cls-21" d="M273.54,203.1c.9-2.71-4.17-8.2-4.78-8.86,5.19,5,12.45,8.6,17.73,10.79,4,1.65,6.86,2.5,6.86,2.5h0a10.57,10.57,0,0,0-3.88,5.11s-5.62-7-12.42-.4-1.72,9.15-1.72,9.15-.25.11-.66.32-1,.5-1.6.89c-.43-2.8-2-6.23-3.88-9.46a96,96,0,0,0-7-10.45c.37.31,7.3,6.14,7.57,4.37s-3.82-7-4.09-7.3C266,200.06,272.61,205.92,273.54,203.1Z"/><path class="cls-22" d="M273.07,222.61a20.16,20.16,0,0,1,2.26-1.21s-5.07-2.61,1.72-9.15,12.42.4,12.42.4a10.57,10.57,0,0,1,3.88-5.11c4.1-3,10-3.54,12.41,0a4.74,4.74,0,0,1,1,4c-.61,2.27-3.32,3.26-3.32,3.26a11.08,11.08,0,0,1,5,1.88c1.7,1.3,2.94,3.47,1.83,7.1a8.43,8.43,0,0,1-7.74,6.38,10.7,10.7,0,0,1-3-.14,22.79,22.79,0,0,1-.46,7.32s0,0,0,0c-.88,3.61-3.06,7.25-8.21,7.56s-7.29-2.55-8.23-5.57a17.64,17.64,0,0,1-.54-6.57s-6.61,5.67-11.17,4.1a5.21,5.21,0,0,1-3-2.95C265.36,228.42,270,224.48,273.07,222.61Z"/><path class="cls-23" d="M273.07,222.61a20.16,20.16,0,0,1,2.26-1.21s-5.07-2.61,1.72-9.15,12.42.4,12.42.4a10.57,10.57,0,0,1,3.88-5.11c4.1-3,10-3.54,12.41,0a4.74,4.74,0,0,1,1,4c-.94-1.92-3.11-4-7.4-4-6.42,0-9.38,6.64-9.38,6.64-1.48-1.88-3.77-4-10.69.43s.28,8,.28,8c-9.94.89-10.53,9.29-8.64,14.3a5.21,5.21,0,0,1-3-2.95C265.36,228.42,270,224.48,273.07,222.61Z"/><path class="cls-24" d="M298.16,219.24c.09-.36-2.62,2.41-6.79,1C291.37,220.29,296.62,225.07,298.16,219.24Z"/><path class="cls-25" d="M284.54,236.6s-3.06-6.92,2.24-7.62A9.66,9.66,0,0,0,284.54,236.6Z"/><path class="cls-26" d="M279.09,225.51S276.6,218.74,284,217C284,217,278.39,221.1,279.09,225.51Z"/><path class="cls-27" d="M274.13,213.49a9.79,9.79,0,0,1,4.21-6.82c3.78-2.32,5.93.92,5.93.92-.25-1.54,1-2.23,2.22-2.56,4,1.65,6.86,2.5,6.86,2.5h0a10.57,10.57,0,0,0-3.88,5.11s-5.62-7-12.42-.4-1.72,9.15-1.72,9.15-.25.11-.66.32-1,.5-1.6.89c-.43-2.8-2-6.23-3.88-9.46A13.15,13.15,0,0,1,274.13,213.49Z"/><path class="cls-20" d="M308.42,216.69c1.7,1.3,2.94,3.47,1.83,7.1a8.43,8.43,0,0,1-7.74,6.38C305.41,228,309.57,222.18,308.42,216.69Z"/><path class="cls-20" d="M282.62,239.36c1.39,1.95,3.49,3.54,5.27,3.33,3.1-.37,1.91-3.58,1.91-3.58s1.12-.67,1.07-.94c.16.27,1.66,4.06,4.42,3.06a7.52,7.52,0,0,0,3.77-3.86c-.88,3.61-3.06,7.25-8.21,7.56S283.56,242.38,282.62,239.36Z"/><path class="cls-28" d="M34.16,227.25s1.38-.62,3.46-1.69A18.56,18.56,0,0,0,34.16,227.25Z"/><path class="cls-29" d="M66,229.43l-2.31,6.23-1.08,2.92c-3.28-7.07-9.65-4.76-9.65-4.76s1.74-6.93-5.24-8.94a16.08,16.08,0,0,0-10.09.68,92.08,92.08,0,0,0,8.73-5.07,40.56,40.56,0,0,0,8.26-6.91c-.18.38-2.26,4.88,0,5.61s6.73-4.32,7-4.62c-.24.36-4.69,7.21-3,9.32s6.25,1,6.25,1S64.13,228.31,66,229.43Z"/><path class="cls-30" d="M56.88,246.7c-.49,0-.79,0-.79,0s-.46.79-1.29,2a34.32,34.32,0,0,1-6.53,7.1c-3.89,3.06-8.87,5-14.11,1.88-8.47-5-8.92-12.57-8.54-16.27a12.75,12.75,0,0,1,.38-2.21l-.14-.13-.1-.09h0a20.89,20.89,0,0,1-2.56-3c-1.48-2.1-2.85-5-2.2-7.71,1.26-5.33,8.78-3.14,13.16-.95,0,0,1.38-.61,3.47-1.68a16.08,16.08,0,0,1,10.09-.68c7,2,5.24,8.94,5.24,8.94s6.37-2.31,9.65,4.76c.13.28.25.57.37.88C65.57,246.19,59.19,246.72,56.88,246.7Z"/><path class="cls-31" d="M56.88,246.7c3.28-4.26-.52-8.93-2.75-10.31-2.58-1.58-5.75.42-5.75.42.26-.83-1.92-1.5-1.92-1.5s-1.91-7.83-6.5-8.07-5.8,5.95-5.8,5.95c-.38-.21-4.78-6.38-8.28-4.63-2.77,1.39-3.17,4.69-2.68,7.34-1.48-2.1-2.85-5-2.2-7.71,1.26-5.33,8.78-3.14,13.16-.95,0,0,1.38-.61,3.47-1.68a16.08,16.08,0,0,1,10.09-.68c7,2,5.24,8.94,5.24,8.94s6.37-2.31,9.65,4.76c.13.28.25.57.37.88C65.57,246.19,59.19,246.72,56.88,246.7Z"/><path class="cls-32" d="M63.69,235.66l-1.08,2.92c-3.28-7.07-9.65-4.76-9.65-4.76s1.74-6.93-5.24-8.94a16.08,16.08,0,0,0-10.09.68,92.08,92.08,0,0,0,8.73-5.07,4.32,4.32,0,0,1,3.85,3.4,2.84,2.84,0,0,1,4.25.46c2,2.46,1.09,7.11,1.09,7.11S61.25,231,63.69,235.66Z"/><path class="cls-33" d="M41.38,242.31s5.16-.38,6.33,4.39c0,0,.75-3.7-2.08-4.92S41.38,242.31,41.38,242.31Z"/><path class="cls-34" d="M28.71,243.68c-.08-.2,3.31-2.79,5.45,0a3.48,3.48,0,0,0-3.62-2.33C27.79,241.65,28.71,243.68,28.71,243.68Z"/><path class="cls-20" d="M26,239.15l-.34.16a1.55,1.55,0,0,1,.1-.38h0l.1.1Z"/><path class="cls-20" d="M48.27,255.75c-3.89,3.06-8.87,5-14.11,1.88-8.47-5-8.92-12.57-8.54-16.27.14,2.79.94,7.06,2.95,8.45,2.77,1.92,4.49.16,4.63,0-.15.26-2.14,3.8,1,5.49s10.47,1.42,11.72-1A4.64,4.64,0,0,0,48.27,255.75Z"/><path class="cls-35" d="M293.89,77.2s-.79,1.29-2.11,3.22A19.09,19.09,0,0,1,293.89,77.2Z"/><path class="cls-36" d="M292,109.06l6.47-1.5,3-.7c-6.59-4.15-3.48-10.18-3.48-10.18s-7.1.85-8.2-6.33a16,16,0,0,1,2-9.92,95.32,95.32,0,0,1-6.14,8,40.67,40.67,0,0,1-7.91,7.31c.4-.13,5.13-1.62,5.56.72s-5.14,6.13-5.47,6.35c.39-.2,7.75-3.73,9.63-1.78s.23,6.33.23,6.33S291.12,107.06,292,109.06Z"/><path class="cls-37" d="M310.29,102.21c.06-.48.07-.78.07-.78s.84-.36,2.13-1a34.56,34.56,0,0,0,7.88-5.57c3.53-3.47,6.09-8.16,3.66-13.75-3.91-9-11.33-10.46-15-10.55a12.65,12.65,0,0,0-2.24.09l-.11-.15-.07-.11h0a21.15,21.15,0,0,0-2.67-2.93c-1.9-1.73-4.55-3.46-7.37-3.16-5.45.57-4.23,8.31-2.62,12.93,0,0-.78,1.29-2.11,3.23a16,16,0,0,0-2,9.92c1.1,7.18,8.2,6.33,8.2,6.33s-3.11,6,3.48,10.18c.27.17.54.32.83.48C308.68,110.77,310,104.51,310.29,102.21Z"/><path class="cls-38" d="M310.29,102.21c-4.64,2.72-8.79-1.65-9.87-4-1.24-2.76,1.15-5.65,1.15-5.65-.86.15-1.25-2.09-1.25-2.09s-7.52-2.9-7.17-7.48,6.64-5,6.64-5c-.16-.41-5.72-5.56-3.53-8.81,1.73-2.56,5.05-2.54,7.62-1.72-1.9-1.73-4.55-3.46-7.37-3.16-5.45.57-4.23,8.31-2.62,12.93,0,0-.78,1.29-2.11,3.23a16,16,0,0,0-2,9.92c1.1,7.18,8.2,6.33,8.2,6.33s-3.11,6,3.48,10.18c.27.17.54.32.83.48C308.68,110.77,310,104.51,310.29,102.21Z"/><path class="cls-39" d="M298.47,107.56l3-.7c-6.59-4.15-3.48-10.18-3.48-10.18s-7.1.85-8.2-6.33a16,16,0,0,1,2-9.92,95.32,95.32,0,0,1-6.14,8,4.32,4.32,0,0,0,2.88,4.25,2.84,2.84,0,0,0-.09,4.27c2.19,2.3,6.92,2,6.92,2S294.11,104.54,298.47,107.56Z"/><path class="cls-40" d="M307.92,86.28s-1.05,5.08,3.54,6.84c0,0-3.76.28-4.61-2.69S307.92,86.28,307.92,86.28Z"/><path class="cls-41" d="M310.89,73.89c-.19-.1-3.19,2.93-.69,5.41a3.48,3.48,0,0,1-1.86-3.89C309,72.73,310.89,73.89,310.89,73.89Z"/><path class="cls-20" d="M306.74,70.62l.21-.31a1.54,1.54,0,0,0-.39,0h0l.08.11Z"/><path class="cls-20" d="M320.37,94.83c3.53-3.47,6.09-8.16,3.66-13.75-3.91-9-11.33-10.46-15-10.55,2.75.49,6.89,1.83,8,4,1.55,3-.42,4.48-.58,4.6.27-.12,4-1.64,5.32,1.65s.07,10.57-2.49,11.5A4.68,4.68,0,0,1,320.37,94.83Z"/><path class="cls-42" d="M162.38,53.54s10.5-31.85,10-53.54c0,0,3.17,30.31,0,40.81Z"/></g></g></g></svg>