<!--
Asset 2.svg
cml-narrative

Created by Ian Thompson on May 27th 2023
ianthompson@nicelion.com
https://www.nicelion.com

Copyright (c) 2023 Nice Lion Technologies LLC. All Rights Reserved.

-->
<svg xmlns="http://www.w3.org/2000/svg" xmlns:xlink="http://www.w3.org/1999/xlink" viewBox="0 0 127.26 128.65"><defs><style>.cls-1{fill:url(#linear-gradient);}.cls-2{fill:url(#linear-gradient-2);}.cls-3{fill:url(#radial-gradient);}.cls-4{fill:url(#linear-gradient-3);}.cls-5{fill:#fff;}</style><linearGradient id="linear-gradient" x1="63.63" y1="101.98" x2="63.63" y2="127.97" gradientUnits="userSpaceOnUse"><stop offset="0" stop-color="#00bdff"/><stop offset="1" stop-color="#29f2ff"/></linearGradient><linearGradient id="linear-gradient-2" x1="64.33" y1="133.22" x2="64.33" y2="-5.09" gradientTransform="translate(-0.76 -0.29) rotate(-0.05)" gradientUnits="userSpaceOnUse"><stop offset="0" stop-color="#00d1ff"/><stop offset="0.3" stop-color="#00b0ef"/><stop offset="0.77" stop-color="#0082d9"/><stop offset="1" stop-color="#0070d1"/></linearGradient><radialGradient id="radial-gradient" cx="62.83" cy="93.51" r="120.05" gradientUnits="userSpaceOnUse"><stop offset="0.33" stop-color="#1640a3"/><stop offset="1" stop-color="#0082de"/></radialGradient><linearGradient id="linear-gradient-3" x1="63.63" y1="107.58" x2="63.63" y2="21.82" gradientUnits="userSpaceOnUse"><stop offset="0" stop-color="#f9f8f7"/><stop offset="1" stop-color="#e1dcd0"/></linearGradient></defs><g id="Layer_2" data-name="Layer 2"><g id="Layer_1-2" data-name="Layer 1"><path class="cls-1" d="M115.79,16.85a16.74,16.74,0,0,0-1.87-2.26c-17.78-17.78-82.8-17.78-100.59,0a16,16,0,0,0-1.76,2.13c-16,20.19-15.41,81.42,1.76,98.59,17.79,17.79,82.81,17.79,100.59,0C131.06,98.18,131.68,37.17,115.79,16.85Z"/><path class="cls-2" d="M115.75,15.55a16.06,16.06,0,0,0-1.87-2.25C96.08-4.47,31.06-4.42,13.29,13.38a14.86,14.86,0,0,0-1.76,2.13c-16,20.2-15.34,81.43,1.85,98.59C31.17,131.87,96.2,131.81,114,114,131.08,96.87,131.66,35.86,115.75,15.55Z"/><path class="cls-3" d="M115.75,15.55a16.06,16.06,0,0,0-1.87-2.25C96.08-4.47,31.06-4.42,13.29,13.38a14.86,14.86,0,0,0-1.76,2.13c-.57.73-1.12,1.53-1.66,2.36L24,68.31l4.11.22,4.6,20.85L47,87.54s9,5.13,16.23,5.13c6,0,15.82-4.92,15.82-4.92L94.6,89.31,99.26,68.2l4,.11L117.46,18C116.91,17.15,116.34,16.32,115.75,15.55Z"/><path class="cls-4" d="M63.63,41.18A23.15,23.15,0,1,0,86.77,64.32,23.15,23.15,0,0,0,63.63,41.18Zm0,36.37A13.23,13.23,0,1,1,76.85,64.32,13.22,13.22,0,0,1,63.63,77.55ZM93.87,57.44c-.27,0-.73,0-1.29.1a29.52,29.52,0,0,0-3.7-8.9,11.8,11.8,0,0,0,1-.84C91,46.64,95.59,40.18,94.42,39L89,33.56c-1.17-1.17-7.31,3-8.48,4.18-.23.24-.64.73-1.14,1.35a29.49,29.49,0,0,0-8.95-3.72c.06-.56.1-1,.1-1.28,0-1.65-1.34-9.44-3-9.44H59.79c-1.65,0-3,7.3-3,9,0,.33.05,1,.14,1.76A29.86,29.86,0,0,0,48,39.06c-.35-.44-.65-.8-.84-1-1.17-1.17-7.63-5.72-8.79-4.55L32.87,39c-1.16,1.17,3,7.3,4.19,8.47.23.23.72.64,1.35,1.14a29.51,29.51,0,0,0-3.73,8.95c-.56-.06-1-.1-1.29-.1-1.65,0-9.44,1.34-9.44,3v7.72c0,1.65,7.31,3,9,3,.33,0,1-.05,1.75-.14a29.62,29.62,0,0,0,3.74,9c-.63.5-1.12.91-1.35,1.14-1.17,1.17-5.36,7.3-4.19,8.48l5.45,5.45c1.17,1.17,7.63-3.38,8.8-4.55.19-.19.48-.55.84-1a29.72,29.72,0,0,0,8.95,3.71c-.09.8-.14,1.43-.14,1.76,0,1.65,1.38,9,3,9H67.5c1.66,0,3-7.78,3-9.44,0-.26,0-.72-.1-1.28a29.56,29.56,0,0,0,9-3.73c.51.62.92,1.11,1.14,1.34,1.18,1.17,7.31,5.36,8.48,4.19l5.46-5.45c1.17-1.17-3.39-7.63-4.56-8.79-.19-.19-.54-.49-1-.85A29.22,29.22,0,0,0,92.6,71c.79.09,1.42.14,1.75.14,1.65,0,9-1.38,9-3V60.43C103.31,58.78,95.52,57.44,93.87,57.44ZM63.63,90.78A26.45,26.45,0,1,1,90.08,64.32,26.46,26.46,0,0,1,63.63,90.78Z"/><path class="cls-5" d="M89.87,47.8c1.1-1.1,5.22-6.92,4.69-8.54-.41,2.2-3.72,6.82-4.69,7.79a11.8,11.8,0,0,1-1,.84c.1.17.19.34.3.51C89.47,48.16,89.73,47.94,89.87,47.8ZM70.5,34.09a2.82,2.82,0,0,0,0-.39c0,.25,0,.56-.08.92l.07,0C70.49,34.41,70.5,34.23,70.5,34.09Zm-6.87,17A13.22,13.22,0,0,1,76.84,64c0-.13,0-.25,0-.38a13.22,13.22,0,1,0-26.44,0c0,.13,0,.25,0,.38A13.22,13.22,0,0,1,63.63,51.1ZM37.2,64a26.43,26.43,0,0,1,52.86,0c0-.13,0-.25,0-.38a26.45,26.45,0,1,0-52.9,0C37.18,63.7,37.2,63.82,37.2,64Zm3.31,0c0,.13,0,.25,0,.37a23.14,23.14,0,1,0,46.28,0c0-.12,0-.24,0-.37a23.12,23.12,0,0,1-46.24,0ZM56.9,34.61c-.06-.56-.1-1-.12-1.38,0,.15,0,.27,0,.37s0,.59.07,1Zm10.6,68.64H59.79c-1.55,0-2.86-6.42-3-8.58,0,.15,0,.28,0,.38,0,1.65,1.38,9,3,9H67.5c1.66,0,3-7.78,3-9.44,0-.09,0-.22,0-.36C70.33,96.42,69.05,103.25,67.5,103.25ZM94.44,88.88,89,94.33c-1.17,1.17-7.3-3-8.48-4.19-.22-.23-.63-.72-1.14-1.34a29.56,29.56,0,0,1-9,3.73c0,.27,0,.52.07.73a29.38,29.38,0,0,0,8.89-3.71c.51.62.92,1.11,1.14,1.34,1.18,1.17,7.31,5.36,8.48,4.19l5.46-5.45a1.13,1.13,0,0,0,.13-1A.66.66,0,0,1,94.44,88.88ZM38.12,48.36c.1-.17.18-.35.29-.52-.63-.5-1.12-.91-1.35-1.14-1-1-4-5.3-4.34-7.45-.5,1.64,3.25,7.1,4.34,8.2C37.25,47.64,37.63,48,38.12,48.36ZM94.35,70.43c-.33,0-1-.06-1.75-.14a29.22,29.22,0,0,1-3.71,8.95l.29.24A29.58,29.58,0,0,0,92.6,71c.79.09,1.42.14,1.75.14,1.65,0,9-1.38,9-3V67.4C103.31,69.05,96,70.43,94.35,70.43ZM56.9,92.54A29.72,29.72,0,0,1,48,88.83c-.36.44-.65.8-.84,1-1.17,1.16-7.63,5.72-8.8,4.55l-5.45-5.45a.85.85,0,0,1-.16-.28,1.15,1.15,0,0,0,.16,1l5.45,5.45c1.17,1.17,7.63-3.38,8.8-4.55.19-.19.48-.55.84-1a29.64,29.64,0,0,0,8.88,3.69C56.85,93,56.87,92.8,56.9,92.54ZM34.66,71a29.81,29.81,0,0,0,3.44,8.49l.3-.24a29.46,29.46,0,0,1-3.74-9c-.79.08-1.42.14-1.75.14-1.65,0-9-1.38-9-3v.75c0,1.65,7.31,3,9,3C33.24,71.18,33.87,71.13,34.66,71Z"/></g></g></svg>