<!--
Asset 1.svg
cml-narrative

Created by Ian Thompson on May 27th 2023
ianthompson@nicelion.com
https://www.nicelion.com

Copyright (c) 2023 Nice Lion Technologies LLC. All Rights Reserved.

-->
<svg xmlns="http://www.w3.org/2000/svg" xmlns:xlink="http://www.w3.org/1999/xlink" viewBox="0 0 127.26 128.65"><defs><style>.cls-1{fill:url(#linear-gradient);}.cls-2{fill:url(#linear-gradient-2);}.cls-3{fill:url(#radial-gradient);}.cls-4{fill:url(#linear-gradient-3);}.cls-5{fill:#fff;}</style><linearGradient id="linear-gradient" x1="63.63" y1="104.59" x2="63.63" y2="130.58" gradientUnits="userSpaceOnUse"><stop offset="0" stop-color="#ff2a00"/><stop offset="0.51" stop-color="#ff6738"/><stop offset="1" stop-color="#ffa671"/></linearGradient><linearGradient id="linear-gradient-2" x1="63.63" y1="132.87" x2="63.63" y2="-5.43" gradientUnits="userSpaceOnUse"><stop offset="0" stop-color="#ff6438"/><stop offset="0.32" stop-color="#f34024"/><stop offset="0.77" stop-color="#e4120a"/><stop offset="1" stop-color="#de0000"/></linearGradient><radialGradient id="radial-gradient" cx="63.42" cy="99.78" r="120.47" gradientUnits="userSpaceOnUse"><stop offset="0.32" stop-color="#960000"/><stop offset="0.51" stop-color="#a80000"/><stop offset="0.9" stop-color="#d60000"/><stop offset="1" stop-color="#e30000"/></radialGradient><linearGradient id="linear-gradient-3" x1="63.63" y1="105.95" x2="63.63" y2="21.43" gradientUnits="userSpaceOnUse"><stop offset="0" stop-color="#f9f8f7"/><stop offset="1" stop-color="#e1dcd0"/></linearGradient></defs><g id="Layer_2" data-name="Layer 2"><g id="Layer_1-2" data-name="Layer 1"><path class="cls-1" d="M115.79,16.85a16.74,16.74,0,0,0-1.87-2.26c-17.78-17.78-82.8-17.78-100.58,0a15.39,15.39,0,0,0-1.77,2.13c-16,20.19-15.41,81.42,1.77,98.6,17.78,17.78,82.8,17.78,100.58,0C131.06,98.18,131.68,37.17,115.79,16.85Z"/><path class="cls-2" d="M115.79,15.6a15.59,15.59,0,0,0-1.87-2.26c-17.78-17.79-82.8-17.79-100.58,0a14.74,14.74,0,0,0-1.77,2.12c-16,20.19-15.41,81.43,1.77,98.6,17.78,17.78,82.8,17.78,100.58,0C131.06,96.92,131.68,35.92,115.79,15.6Z"/><path class="cls-3" d="M115.79,15.6a15.59,15.59,0,0,0-1.87-2.26c-17.78-17.79-82.8-17.79-100.58,0a14.74,14.74,0,0,0-1.77,2.12,33.5,33.5,0,0,0-3.18,5L23.69,75s12.7,27.74,39.41,27.74c27.5,0,40.48-27.74,40.48-27.74l15.35-54.44A32.76,32.76,0,0,0,115.79,15.6Z"/><path class="cls-4" d="M63.63,23A41.33,41.33,0,1,0,105,64.32,41.33,41.33,0,0,0,63.63,23Zm0,76A34.72,34.72,0,1,1,98.35,64.32,34.72,34.72,0,0,1,63.63,99Zm0-41.33a3.3,3.3,0,0,0,3.3-3.3V39.53a3.31,3.31,0,1,0-6.61,0V54.41A3.31,3.31,0,0,0,63.63,57.71ZM79.06,47.07A24.63,24.63,0,0,0,76.37,45a3.31,3.31,0,0,0-3.65,5.52A17.6,17.6,0,0,1,74.65,52a16.53,16.53,0,1,1-22,0,16.82,16.82,0,0,1,2-1.54A3.31,3.31,0,0,0,51,44.91a23.74,23.74,0,0,0-2.82,2.17,23.13,23.13,0,1,0,30.86,0Z"/><path class="cls-5" d="M74.65,52a16.57,16.57,0,0,1,5.49,12c0-.13,0-.26,0-.39a16.47,16.47,0,0,0-7.44-13.8,3.25,3.25,0,0,1-1.44-2.39,3.29,3.29,0,0,0,1.44,3.14A17.6,17.6,0,0,1,74.65,52Zm-7.72,2.41v-.75a3.31,3.31,0,0,1-6.61,0v.75a3.31,3.31,0,0,0,6.61,0ZM52.61,52a16.82,16.82,0,0,1,2-1.54A3.3,3.3,0,0,0,56.1,47.3a3.29,3.29,0,0,1-1.47,2.4,18,18,0,0,0-2,1.55A16.58,16.58,0,0,0,47.1,63.57c0,.13,0,.26,0,.39A16.57,16.57,0,0,1,52.61,52ZM40.49,64.32a23.14,23.14,0,1,0,46.28,0c0-.12,0-.24,0-.36a23.12,23.12,0,0,1-46.24,0C40.5,64.08,40.49,64.2,40.49,64.32ZM105,64a41.32,41.32,0,0,1-82.64,0c0,.13,0,.25,0,.37a41.33,41.33,0,0,0,82.66,0C105,64.2,105,64.08,105,64ZM63.63,29.61A34.72,34.72,0,0,1,98.34,64c0-.13,0-.25,0-.38a34.72,34.72,0,0,0-69.44,0c0,.13,0,.25,0,.38A34.72,34.72,0,0,1,63.63,29.61Z"/></g></g></svg>