<?xml version="1.0" encoding="UTF-8" standalone="no"?>
<!DOCTYPE svg PUBLIC "-//W3C//DTD SVG 1.1//EN" "http://www.w3.org/Graphics/SVG/1.1/DTD/svg11.dtd">
<svg width="100%" height="100%" viewBox="0 0 544 533" version="1.1" xmlns="http://www.w3.org/2000/svg" xmlns:xlink="http://www.w3.org/1999/xlink" xml:space="preserve" xmlns:serif="http://www.serif.com/" style="fill-rule:evenodd;clip-rule:evenodd;stroke-linejoin:round;stroke-miterlimit:2;">
    <g transform="matrix(1,0,0,1,-1822.75,-108.429)">
        <g transform="matrix(4.16667,0,0,4.16667,0,0)">
            <g transform="matrix(1.92608,0,0,1.92608,-268.318,-183.008)">
                <path d="M434.179,141.707C434.179,147.868 432.46,153.501 429.581,158.476C426.612,163.608 422.861,168.517 417.728,171.487C412.753,174.365 406.696,174.913 400.535,174.913C394.374,174.913 388.831,173.477 383.856,170.599C378.723,167.629 373.773,164.005 370.804,158.872C367.925,153.897 366.433,147.868 366.433,141.707C366.433,135.546 368.786,130.015 371.664,125.04C374.634,119.907 378.211,114.899 383.343,111.929C388.318,109.051 394.374,108.527 400.535,108.527C406.696,108.527 412.303,109.828 417.278,112.706C422.41,115.676 426.837,119.675 429.806,124.808C432.685,129.783 434.179,135.546 434.179,141.707Z" style="fill:rgb(243,237,219);fill-rule:nonzero;"/>
                <path d="M388.404,125.189C388.404,125.189 393.794,121.152 397.23,121.311C400.666,121.469 412.068,123.686 416.285,129.069C420.502,134.452 423.001,144.27 421.283,150.92C419.565,157.57 426.593,141.261 421.283,133.186C415.973,125.111 414.879,121.311 406.445,120.519C398.011,119.727 390.827,117.035 388.015,125.269L388.404,125.189Z" style="fill:rgb(246,233,203);fill-rule:nonzero;"/>
                <path d="M385.204,129.069C385.204,129.069 388.015,117.035 405.82,120.361C413.905,121.87 418.94,124.952 422.22,135.403C425.5,145.853 422.22,152.028 422.22,152.028C422.22,152.028 428.155,133.661 415.192,123.211C402.228,112.76 385.204,118.619 385.204,129.069Z" style="fill:rgb(249,245,236);fill-rule:nonzero;"/>
                <path d="M391.165,133.565C391.165,133.565 394.66,130.948 396.887,131.051C399.115,131.154 406.508,132.591 409.242,136.081C411.976,139.572 413.596,145.937 412.483,150.249C411.369,154.561 415.926,143.986 412.483,138.751C409.039,133.515 408.331,131.051 402.862,130.538C397.394,130.024 392.735,128.279 390.913,133.617L391.165,133.565Z" style="fill:rgb(246,233,203);fill-rule:nonzero;"/>
                <path d="M389.09,136.081C389.09,136.081 390.913,128.279 402.457,130.435C407.699,131.414 410.963,133.412 413.09,140.188C415.217,146.964 413.09,150.968 413.09,150.968C413.09,150.968 416.938,139.059 408.533,132.283C400.128,125.507 389.09,129.306 389.09,136.081Z" style="fill:rgb(249,245,236);fill-rule:nonzero;"/>
                <path d="M395.78,139.022C395.78,139.022 397.222,137.942 398.141,137.985C399.06,138.027 402.11,138.62 403.238,140.06C404.366,141.5 405.034,144.126 404.574,145.905C404.115,147.684 405.995,143.321 404.574,141.161C403.154,139.001 402.862,137.985 400.606,137.773C398.349,137.561 396.428,136.841 395.676,139.044L395.78,139.022Z" style="fill:rgb(246,233,203);fill-rule:nonzero;"/>
                <path d="M394.924,140.06C394.924,140.06 395.676,136.841 400.438,137.731C402.601,138.134 403.948,138.959 404.825,141.754C405.703,144.55 404.825,146.201 404.825,146.201C404.825,146.201 406.413,141.288 402.945,138.493C399.478,135.698 394.924,137.265 394.924,140.06Z" style="fill:rgb(249,245,236);fill-rule:nonzero;"/>
                <path d="M387.655,140.268C387.655,140.268 385.064,146.6 390.101,150.774C395.138,154.947 400.535,155.091 402.19,154.875C403.845,154.659 409.026,151.061 409.026,151.061C409.026,151.061 403.989,153.148 402.622,153.364C401.255,153.58 394.419,152.097 392.836,150.968C391.253,149.838 388.592,148.183 388.015,145.233C387.439,142.283 387.777,140.124 387.777,140.124L387.655,140.268Z" style="fill:rgb(246,233,203);fill-rule:nonzero;"/>
                <path d="M388.015,141.131C388.015,141.131 387.727,146.888 393.339,149.766C398.952,152.645 404.421,154.084 407.731,151.781C411.041,149.478 410.322,149.191 410.322,149.191C410.322,149.191 408.4,152.501 405.115,153.652C401.83,154.803 393.627,152.645 390.173,148.471C386.719,144.297 388.015,141.131 388.015,141.131Z" style="fill:rgb(249,245,236);fill-rule:nonzero;"/>
                <path d="M381.446,136.374C381.446,136.374 377.439,150.053 384.129,158.113C389.491,164.574 394.785,164.237 398.033,163.899C398.837,163.816 399.516,163.732 400.04,163.752C402.679,163.851 411.75,159.466 411.75,159.466C411.75,159.466 403.322,161.462 401.132,161.441C400.93,161.439 400.686,161.439 400.406,161.439C397.647,161.441 391.48,161.443 389.526,159.409C387.372,157.168 381.834,151.096 381.754,146.201C381.675,141.307 381.676,136.175 381.676,136.175L381.446,136.374Z" style="fill:rgb(246,233,203);fill-rule:nonzero;"/>
                <path d="M381.25,140.843C381.25,140.843 380.243,147.751 384.129,153.796C388.015,159.84 387.478,159.409 390.913,160.848C394.347,162.287 396.653,161.358 396.653,161.358C396.653,161.358 387.439,156.914 385.424,152.477C383.409,148.039 381.25,140.843 381.25,140.843Z" style="fill:rgb(249,245,236);fill-rule:nonzero;"/>
                <path d="M375.206,133.648C375.206,133.648 370.888,139.692 373.911,147.895C376.933,156.098 379.38,160.272 384.417,162.575C389.454,164.877 396.793,167.612 399.816,167.468C402.838,167.324 412.336,164.877 412.336,164.877C412.336,164.877 404.421,172.361 391.756,168.043C379.092,163.726 371.176,153.22 371.32,144.441C371.464,135.663 375.206,133.648 375.206,133.648Z" style="fill:rgb(246,233,203);fill-rule:nonzero;"/>
                <path d="M377.801,142.571C377.635,142.571 377.501,142.437 377.501,142.271C377.501,142.106 377.635,141.972 377.801,141.972C377.966,141.972 378.101,142.106 378.101,142.271C378.101,142.437 377.966,142.571 377.801,142.571Z" style="fill:rgb(204,186,165);"/>
                <path d="M376.292,145.346L376.162,145.216L376.292,145.086L376.421,145.216L376.292,145.346Z" style="fill:rgb(192,171,149);fill-rule:nonzero;"/>
                <path d="M368.652,145.509L368.587,145.443L368.652,145.378L368.717,145.443L368.652,145.509Z" style="fill:rgb(153,119,94);fill-rule:nonzero;"/>
                <path d="M378.45,134.224C378.344,134.224 378.258,134.139 378.258,134.033C378.258,133.927 378.344,133.841 378.45,133.841C378.556,133.841 378.642,133.927 378.642,134.033C378.642,134.139 378.556,134.224 378.45,134.224Z" style="fill:rgb(152,116,92);fill-rule:nonzero;"/>
                <path d="M378.755,137.379L378.666,137.289L378.755,137.2L378.845,137.289L378.755,137.379Z" style="fill:rgb(212,196,177);fill-rule:nonzero;"/>
                <path d="M382.41,134.609L382.324,134.523L382.41,134.437L382.497,134.523L382.41,134.609Z" style="fill:rgb(169,139,116);fill-rule:nonzero;"/>
                <path d="M373.977,131.43L373.956,131.408L373.977,131.387L373.999,131.408L373.977,131.43Z" style="fill:rgb(184,160,138);fill-rule:nonzero;"/>
                <path d="M375.542,137.158L375.421,137.037L375.542,136.916L375.663,137.037L375.542,137.158Z" style="fill:rgb(205,187,168);fill-rule:nonzero;"/>
                <path d="M369.032,137.809C368.908,137.809 368.807,137.708 368.807,137.584C368.807,137.459 368.908,137.358 369.032,137.358C369.157,137.358 369.258,137.459 369.258,137.584C369.258,137.708 369.157,137.809 369.032,137.809Z" style="fill:rgb(194,173,152);fill-rule:nonzero;"/>
                <path d="M390.298,146.451L390.255,146.408L390.298,146.365L390.341,146.408L390.298,146.451Z" style="fill:rgb(148,111,86);fill-rule:nonzero;"/>
                <path d="M390.952,151.555L390.793,151.396L390.836,151.353C390.897,151.398 390.958,151.443 391.019,151.488L390.952,151.555Z" style="fill:rgb(206,188,168);fill-rule:nonzero;"/>
                <path d="M391.019,151.488C390.958,151.443 390.897,151.398 390.836,151.353L390.952,151.237L391.11,151.396L391.019,151.488Z" style="fill:rgb(209,186,158);fill-rule:nonzero;"/>
                <path d="M382.242,149.112L382.166,149.036L382.242,148.961L382.318,149.036L382.242,149.112Z" style="fill:rgb(168,138,116);fill-rule:nonzero;"/>
                <path d="M390.891,139.158C390.715,139.158 390.572,139.015 390.572,138.839C390.572,138.663 390.715,138.521 390.891,138.521C391.067,138.521 391.21,138.663 391.21,138.839C391.21,139.015 391.067,139.158 390.891,139.158Z" style="fill:rgb(149,113,88);fill-rule:nonzero;"/>
                <path d="M392.156,142.565L392.02,142.429L392.156,142.292L392.292,142.429L392.156,142.565Z" style="fill:rgb(190,168,146);fill-rule:nonzero;"/>
                <path d="M395.344,138.672L395.335,138.663L395.38,138.618C395.368,138.636 395.356,138.654 395.344,138.672Z" style="fill:rgb(168,139,114);fill-rule:nonzero;"/>
                <path d="M395.489,138.817L395.344,138.672C395.356,138.654 395.368,138.636 395.38,138.618L395.489,138.51L395.642,138.663L395.489,138.817Z" style="fill:rgb(169,141,119);fill-rule:nonzero;"/>
                <path d="M386.981,135.332C386.824,135.332 386.697,135.205 386.697,135.048C386.697,134.892 386.824,134.765 386.981,134.765C387.137,134.765 387.264,134.892 387.264,135.048C387.264,135.205 387.137,135.332 386.981,135.332Z" style="fill:rgb(182,157,135);fill-rule:nonzero;"/>
                <path d="M388.334,143.587C388.308,143.486 388.284,143.389 388.261,143.292C388.333,143.315 388.385,143.383 388.385,143.462C388.385,143.511 388.365,143.555 388.334,143.587Z" style="fill:rgb(158,125,100);fill-rule:nonzero;"/>
                <path d="M388.206,143.64C388.108,143.64 388.028,143.56 388.028,143.462C388.028,143.363 388.108,143.284 388.206,143.284C388.226,143.284 388.244,143.287 388.261,143.292C388.284,143.389 388.308,143.486 388.334,143.587C388.301,143.62 388.256,143.64 388.206,143.64Z" style="fill:rgb(160,126,102);fill-rule:nonzero;"/>
                <path d="M382.17,143.042C382.043,143.042 381.94,142.939 381.94,142.812C381.94,142.685 382.043,142.582 382.17,142.582C382.297,142.582 382.4,142.685 382.4,142.812C382.4,142.939 382.297,143.042 382.17,143.042Z" style="fill:rgb(173,144,120);fill-rule:nonzero;"/>
                <path d="M385.002,126.314L384.905,126.217L385.002,126.119L385.1,126.217L385.002,126.314Z" style="fill:rgb(209,192,173);fill-rule:nonzero;"/>
                <path d="M384.548,130.513C384.427,130.513 384.329,130.415 384.329,130.293C384.329,130.172 384.427,130.074 384.548,130.074C384.669,130.074 384.768,130.172 384.768,130.293C384.768,130.415 384.669,130.513 384.548,130.513Z" style="fill:rgb(166,136,113);fill-rule:nonzero;"/>
                <path d="M376.239,127.87L376.115,127.747L376.239,127.624L376.362,127.747L376.239,127.87Z" style="fill:rgb(200,180,159);fill-rule:nonzero;"/>
                <path d="M387.115,118.581C387.02,118.581 386.943,118.504 386.943,118.409C386.943,118.315 387.02,118.238 387.115,118.238C387.21,118.238 387.287,118.315 387.287,118.409C387.287,118.504 387.21,118.581 387.115,118.581Z" style="fill:rgb(150,114,89);fill-rule:nonzero;"/>
                <path d="M385.574,123.319L385.434,123.179L385.574,123.039L385.714,123.179L385.574,123.319Z" style="fill:rgb(167,137,114);fill-rule:nonzero;"/>
                <path d="M391.864,119.561C391.834,119.531 391.816,119.489 391.816,119.444C391.816,119.351 391.891,119.275 391.984,119.275C392.07,119.275 392.141,119.34 392.151,119.423C392.055,119.469 391.959,119.515 391.864,119.561Z" style="fill:rgb(193,172,150);fill-rule:nonzero;"/>
                <path d="M391.984,119.612C391.937,119.612 391.894,119.592 391.864,119.561C391.959,119.515 392.055,119.469 392.151,119.423C392.152,119.43 392.152,119.437 392.152,119.444C392.152,119.536 392.077,119.612 391.984,119.612Z" style="fill:rgb(195,174,157);fill-rule:nonzero;"/>
                <path d="M382.658,115.118L382.591,115.051L382.658,114.984L382.725,115.051L382.658,115.118Z" style="fill:rgb(165,134,110);fill-rule:nonzero;"/>
                <path d="M383.156,122.641C383.014,122.641 382.899,122.526 382.899,122.384C382.899,122.242 383.014,122.127 383.156,122.127C383.298,122.127 383.413,122.242 383.413,122.384C383.413,122.526 383.298,122.641 383.156,122.641Z" style="fill:rgb(197,176,155);fill-rule:nonzero;"/>
                <path d="M377.999,120.356C377.88,120.356 377.783,120.259 377.783,120.14C377.783,120.021 377.88,119.924 377.999,119.924C378.119,119.924 378.215,120.021 378.215,120.14C378.215,120.259 378.119,120.356 377.999,120.356Z" style="fill:rgb(209,191,171);fill-rule:nonzero;"/>
                <path d="M398.865,130.002L398.763,129.9L398.865,129.799L398.966,129.9L398.865,130.002Z" style="fill:rgb(192,170,153);fill-rule:nonzero;"/>
                <path d="M397.022,135.649C396.913,135.649 396.825,135.561 396.825,135.452C396.825,135.343 396.913,135.255 397.022,135.255C397.131,135.255 397.219,135.343 397.219,135.452C397.219,135.561 397.131,135.649 397.022,135.649Z" style="fill:rgb(201,182,161);fill-rule:nonzero;"/>
                <path d="M389.611,133.127L389.496,133.012L389.611,132.897L389.726,133.012L389.611,133.127Z" style="fill:rgb(181,156,133);fill-rule:nonzero;"/>
                <path d="M400.326,121.512L400.302,121.488L400.326,121.464L400.35,121.488L400.326,121.512Z" style="fill:rgb(197,171,142);fill-rule:nonzero;"/>
                <path d="M400.722,127.534C400.577,127.534 400.46,127.416 400.46,127.272C400.46,127.127 400.577,127.01 400.722,127.01C400.867,127.01 400.984,127.127 400.984,127.272C400.984,127.416 400.867,127.534 400.722,127.534Z" style="fill:rgb(198,178,157);fill-rule:nonzero;"/>
                <path d="M405.1,123.091L404.956,122.948L405.096,122.808C405.1,122.809 405.103,122.81 405.106,122.811L405.243,122.948L405.1,123.091Z" style="fill:rgb(167,137,114);fill-rule:nonzero;"/>
                <path d="M405.106,122.811C405.103,122.81 405.1,122.809 405.096,122.808L405.1,122.805L405.106,122.811Z" style="fill:rgb(169,138,111);fill-rule:nonzero;"/>
                <path d="M394.507,119.219C394.407,119.219 394.326,119.138 394.326,119.039C394.326,118.939 394.407,118.859 394.507,118.859C394.606,118.859 394.686,118.939 394.686,119.039C394.686,119.138 394.606,119.219 394.507,119.219Z" style="fill:rgb(212,196,182);fill-rule:nonzero;"/>
                <path d="M396.739,125.687C396.639,125.687 396.559,125.607 396.559,125.507C396.559,125.408 396.639,125.327 396.739,125.327C396.838,125.327 396.919,125.408 396.919,125.507C396.919,125.607 396.838,125.687 396.739,125.687Z" style="fill:rgb(164,132,109);fill-rule:nonzero;"/>
                <path d="M390.425,125.138L390.351,125.064L390.425,124.99L390.498,125.064L390.425,125.138Z" style="fill:rgb(198,178,157);fill-rule:nonzero;"/>
                <path d="M401.467,151.423L401.407,151.363L401.467,151.303L401.527,151.363L401.467,151.423Z" style="fill:rgb(168,139,114);fill-rule:nonzero;"/>
                <path d="M402.276,155.61C402.101,155.61 401.959,155.468 401.959,155.293C401.959,155.118 402.101,154.977 402.276,154.977C402.45,154.977 402.592,155.118 402.592,155.293C402.592,155.468 402.45,155.61 402.276,155.61Z" style="fill:rgb(148,111,86);fill-rule:nonzero;"/>
                <path d="M395.276,153.436L395.14,153.3L395.276,153.163L395.412,153.3L395.276,153.436Z" style="fill:rgb(160,125,100);fill-rule:nonzero;"/>
                <path d="M403.111,143.954L403.045,143.889L403.111,143.823L403.176,143.889L403.111,143.954Z" style="fill:rgb(162,130,106);fill-rule:nonzero;"/>
                <path d="M404.908,147.395C404.787,147.395 404.689,147.298 404.689,147.177C404.689,147.056 404.787,146.959 404.908,146.959C405.028,146.959 405.126,147.056 405.126,147.177C405.126,147.298 405.028,147.395 404.908,147.395Z" style="fill:rgb(153,119,94);fill-rule:nonzero;"/>
                <path d="M407.938,143.438L407.885,143.385L407.938,143.332L407.991,143.385L407.938,143.438Z" style="fill:rgb(202,183,162);fill-rule:nonzero;"/>
                <path d="M399.662,140.634C399.558,140.634 399.475,140.55 399.475,140.447C399.475,140.344 399.558,140.26 399.662,140.26C399.765,140.26 399.849,140.344 399.849,140.447C399.849,140.55 399.765,140.634 399.662,140.634Z" style="fill:rgb(151,116,91);fill-rule:nonzero;"/>
                <path d="M401.111,147.787L401.023,147.699L401.111,147.61L401.199,147.699L401.111,147.787Z" style="fill:rgb(206,189,168);fill-rule:nonzero;"/>
                <path d="M396.234,145.879L396.134,145.778L396.234,145.678L396.334,145.778L396.234,145.879Z" style="fill:rgb(198,178,157);fill-rule:nonzero;"/>
                <path d="M416.209,154.652C416.112,154.652 416.034,154.574 416.034,154.477C416.034,154.38 416.112,154.302 416.209,154.302C416.306,154.302 416.384,154.38 416.384,154.477C416.384,154.574 416.306,154.652 416.209,154.652Z" style="fill:rgb(153,119,94);fill-rule:nonzero;"/>
                <path d="M415.909,159.081L415.802,158.974L415.909,158.867L416.016,158.974L415.909,159.081Z" style="fill:rgb(149,113,88);fill-rule:nonzero;"/>
                <path d="M408.316,158.286L408.284,158.254L408.316,158.223L408.347,158.254L408.316,158.286Z" style="fill:rgb(193,172,150);fill-rule:nonzero;"/>
                <path d="M417.657,147.103C417.504,147.103 417.38,146.979 417.38,146.826C417.38,146.673 417.504,146.549 417.657,146.549C417.81,146.549 417.934,146.673 417.934,146.826C417.934,146.979 417.81,147.103 417.657,147.103Z" style="fill:rgb(151,116,91);fill-rule:nonzero;"/>
                <path d="M417.755,151.978L417.666,151.889L417.755,151.8L417.843,151.889L417.755,151.978Z" style="fill:rgb(169,139,116);fill-rule:nonzero;"/>
                <path d="M421.197,147.735C421.074,147.735 420.974,147.635 420.974,147.512C420.974,147.389 421.074,147.289 421.197,147.289C421.32,147.289 421.42,147.389 421.42,147.512C421.42,147.635 421.32,147.735 421.197,147.735Z" style="fill:rgb(182,156,134);fill-rule:nonzero;"/>
                <path d="M413.766,146.013C413.738,146.013 413.71,146.009 413.684,146.001C413.703,145.821 413.72,145.639 413.735,145.456C413.745,145.455 413.756,145.454 413.766,145.454C413.838,145.454 413.903,145.481 413.953,145.525C413.947,145.672 413.94,145.816 413.932,145.959C413.886,145.993 413.828,146.013 413.766,146.013ZM414.034,145.814C414.034,145.758 414.033,145.702 414.031,145.645C414.041,145.673 414.046,145.703 414.046,145.734C414.046,145.762 414.042,145.789 414.034,145.814Z" style="fill:rgb(181,155,133);fill-rule:nonzero;"/>
                <path d="M413.684,146.001C413.57,145.966 413.487,145.859 413.487,145.734C413.487,145.59 413.596,145.471 413.735,145.456C413.72,145.639 413.703,145.821 413.684,146.001Z" style="fill:rgb(183,153,127);fill-rule:nonzero;"/>
                <path d="M413.932,145.959C413.94,145.816 413.947,145.672 413.953,145.525C413.988,145.557 414.016,145.598 414.031,145.645C414.033,145.702 414.034,145.758 414.034,145.814C414.017,145.873 413.98,145.924 413.932,145.959Z" style="fill:rgb(183,158,138);fill-rule:nonzero;"/>
                <path d="M414.32,150.638L414.16,150.478L414.32,150.318L414.481,150.478L414.32,150.638Z" style="fill:rgb(158,125,100);fill-rule:nonzero;"/>
                <path d="M408.954,150.018L408.816,149.88L408.954,149.742L409.092,149.88L408.954,150.018Z" style="fill:rgb(201,182,161);fill-rule:nonzero;"/>
                <path d="M411.148,135.04C411.072,134.934 410.995,134.828 410.915,134.723C410.943,134.709 410.974,134.7 411.008,134.7C411.118,134.7 411.207,134.789 411.207,134.899C411.207,134.954 411.185,135.004 411.148,135.04Z" style="fill:rgb(211,194,175);fill-rule:nonzero;"/>
                <path d="M411.008,135.098C410.899,135.098 410.81,135.009 410.81,134.899C410.81,134.823 410.852,134.757 410.915,134.723C410.995,134.828 411.072,134.934 411.148,135.04C411.112,135.076 411.063,135.098 411.008,135.098Z" style="fill:rgb(213,198,184);fill-rule:nonzero;"/>
                <path d="M411.174,138.328C411.068,138.328 410.982,138.242 410.982,138.137C410.982,138.031 411.068,137.946 411.174,137.946C411.279,137.946 411.365,138.031 411.365,138.137C411.365,138.242 411.279,138.328 411.174,138.328Z" style="fill:rgb(152,116,91);fill-rule:nonzero;"/>
                <path d="M403.597,138.751L403.523,138.677L403.597,138.602L403.671,138.677L403.597,138.751Z" style="fill:rgb(161,129,104);fill-rule:nonzero;"/>
                <path d="M411.382,126.285C411.247,126.285 411.138,126.176 411.138,126.042C411.138,125.907 411.247,125.798 411.382,125.798C411.517,125.798 411.626,125.907 411.626,126.042C411.626,126.176 411.517,126.285 411.382,126.285Z" style="fill:rgb(164,132,107);fill-rule:nonzero;"/>
                <path d="M412.534,130.596L412.412,130.473L412.534,130.35L412.657,130.473L412.534,130.596Z" style="fill:rgb(184,159,137);fill-rule:nonzero;"/>
                <path d="M417.013,127.538L416.944,127.468L417.013,127.399L417.083,127.468L417.013,127.538Z" style="fill:rgb(173,143,116);fill-rule:nonzero;"/>
                <path d="M407.202,125.096L407.065,124.959L407.202,124.822L407.339,124.959L407.202,125.096Z" style="fill:rgb(171,143,119);fill-rule:nonzero;"/>
                <path d="M409.268,131.59L409.176,131.498L409.268,131.406L409.36,131.498L409.268,131.59Z" style="fill:rgb(166,136,112);fill-rule:nonzero;"/>
                <path d="M403.668,129.123L403.578,129.033L403.668,128.943L403.759,129.033L403.668,129.123Z" style="fill:rgb(181,156,134);fill-rule:nonzero;"/>
                <path d="M424.033,137.964L423.998,137.929L424.033,137.893L424.068,137.929L424.033,137.964Z" style="fill:rgb(171,142,118);fill-rule:nonzero;"/>
                <path d="M423.264,144.832L423.132,144.7L423.264,144.567L423.396,144.7L423.264,144.832Z" style="fill:rgb(209,192,171);fill-rule:nonzero;"/>
                <path d="M416.896,142.869L416.746,142.718L416.896,142.568L417.047,142.718L416.896,142.869Z" style="fill:rgb(201,182,161);fill-rule:nonzero;"/>
                <path d="M424.341,132.132L424.218,132.009L424.341,131.885L424.465,132.009L424.341,132.132Z" style="fill:rgb(209,194,174);fill-rule:nonzero;"/>
                <path d="M424.864,135.751L424.818,135.706L424.864,135.661L424.909,135.706L424.864,135.751Z" style="fill:rgb(173,146,122);fill-rule:nonzero;"/>
                <path d="M429.483,133.719C429.393,133.719 429.319,133.646 429.319,133.555C429.319,133.465 429.393,133.391 429.483,133.391C429.574,133.391 429.647,133.465 429.647,133.555C429.647,133.646 429.574,133.719 429.483,133.719Z" style="fill:rgb(151,115,91);fill-rule:nonzero;"/>
                <path d="M420.581,129.617C420.536,129.535 420.491,129.454 420.444,129.372C420.526,129.406 420.584,129.486 420.584,129.58C420.584,129.593 420.583,129.605 420.581,129.617Z" style="fill:rgb(151,115,90);fill-rule:nonzero;"/>
                <path d="M420.359,129.805C420.235,129.805 420.135,129.704 420.135,129.58C420.135,129.456 420.235,129.355 420.359,129.355C420.39,129.355 420.418,129.361 420.444,129.372C420.491,129.454 420.536,129.535 420.581,129.617C420.564,129.723 420.471,129.805 420.359,129.805Z" style="fill:rgb(151,115,91);fill-rule:nonzero;"/>
                <path d="M423.075,135.619C422.918,135.619 422.79,135.491 422.79,135.334C422.79,135.176 422.918,135.048 423.075,135.048C423.233,135.048 423.361,135.176 423.361,135.334C423.361,135.491 423.233,135.619 423.075,135.619Z" style="fill:rgb(156,122,97);fill-rule:nonzero;"/>
                <path d="M416.202,134.476C416.058,134.476 415.94,134.359 415.94,134.214C415.94,134.069 416.058,133.952 416.202,133.952C416.347,133.952 416.465,134.069 416.465,134.214C416.465,134.359 416.347,134.476 416.202,134.476Z" style="fill:rgb(208,190,170);fill-rule:nonzero;"/>
                <path d="M424.836,154.129C424.809,154.129 424.781,154.124 424.755,154.111C424.659,154.067 424.617,153.952 424.661,153.856C424.694,153.785 424.764,153.744 424.836,153.744C424.864,153.744 424.891,153.75 424.917,153.762C425.014,153.806 425.056,153.921 425.011,154.017C424.978,154.088 424.909,154.129 424.836,154.129Z" style="fill:rgb(161,127,102);fill-rule:nonzero;"/>
                <path d="M423.299,159.408C423.256,159.408 423.213,159.399 423.172,159.38C423.02,159.31 422.955,159.13 423.025,158.979C423.076,158.869 423.185,158.804 423.299,158.804C423.341,158.804 423.385,158.813 423.426,158.832C423.577,158.902 423.643,159.081 423.573,159.233C423.522,159.343 423.413,159.408 423.299,159.408Z" style="fill:rgb(171,142,118);fill-rule:nonzero;"/>
                <path d="M428.489,148.916L428.448,148.806L428.558,148.765L428.599,148.875L428.489,148.916Z" style="fill:rgb(164,132,109);fill-rule:nonzero;"/>
                <path d="M428.217,153.867C428.186,153.867 428.153,153.86 428.122,153.846C428.009,153.793 427.96,153.659 428.012,153.545C428.05,153.463 428.132,153.414 428.218,153.414C428.249,153.414 428.282,153.421 428.313,153.435C428.426,153.488 428.475,153.622 428.423,153.735C428.385,153.818 428.303,153.867 428.217,153.867Z" style="fill:rgb(162,130,105);fill-rule:nonzero;"/>
                <path d="M418.756,154.79L418.687,154.721L418.756,154.652L418.825,154.721L418.756,154.79Z" style="fill:rgb(184,159,136);fill-rule:nonzero;"/>
                <path d="M427.29,144.832L427.242,144.702L427.373,144.654L427.421,144.784L427.29,144.832Z" style="fill:rgb(173,144,120);fill-rule:nonzero;"/>
                <path d="M424.67,152.673L424.641,152.594L424.72,152.565L424.749,152.644L424.67,152.673Z" style="fill:rgb(209,192,171);fill-rule:nonzero;"/>
                <path d="M394.372,111.664C394.206,111.664 394.071,111.529 394.071,111.363C394.071,111.197 394.206,111.062 394.372,111.062C394.538,111.062 394.673,111.197 394.673,111.363C394.673,111.529 394.538,111.664 394.372,111.664Z" style="fill:rgb(159,125,100);fill-rule:nonzero;"/>
                <path d="M394.568,117.4C394.407,117.4 394.277,117.269 394.277,117.108C394.277,116.947 394.407,116.816 394.568,116.816C394.73,116.816 394.86,116.947 394.86,117.108C394.86,117.269 394.73,117.4 394.568,117.4Z" style="fill:rgb(161,129,104);fill-rule:nonzero;"/>
                <path d="M386.385,114.974C386.258,114.974 386.155,114.871 386.155,114.745C386.155,114.618 386.258,114.515 386.385,114.515C386.511,114.515 386.614,114.618 386.614,114.745C386.614,114.871 386.511,114.974 386.385,114.974Z" style="fill:rgb(153,117,93);fill-rule:nonzero;"/>
                <path d="M378.067,163.317L377.956,163.205L378.067,163.094L378.178,163.205L378.067,163.317Z" style="fill:rgb(168,139,114);fill-rule:nonzero;"/>
                <path d="M402.852,116.202C402.674,116.202 402.529,116.057 402.529,115.879C402.529,115.7 402.674,115.555 402.852,115.555C403.031,115.555 403.176,115.7 403.176,115.879C403.176,116.057 403.031,116.202 402.852,116.202Z" style="fill:rgb(152,116,92);fill-rule:nonzero;"/>
                <path d="M410.498,156.388C410.364,156.388 410.256,156.28 410.256,156.146C410.256,156.013 410.364,155.905 410.498,155.905C410.631,155.905 410.74,156.013 410.74,156.146C410.74,156.28 410.631,156.388 410.498,156.388Z" style="fill:rgb(151,115,91);fill-rule:nonzero;"/>
                <path d="M399.83,115.879C399.651,115.879 399.506,115.734 399.506,115.555C399.506,115.376 399.651,115.231 399.83,115.231C400.009,115.231 400.154,115.376 400.154,115.555C400.154,115.734 400.009,115.879 399.83,115.879Z" style="fill:rgb(192,170,149);fill-rule:nonzero;"/>
                <path d="M375.12,157.641L374.958,157.479L375.12,157.316L375.283,157.479L375.12,157.641Z" style="fill:rgb(151,115,90);fill-rule:nonzero;"/>
                <path d="M373.866,162.95L373.731,162.815L373.866,162.68L374.001,162.815L373.866,162.95Z" style="fill:rgb(171,141,117);fill-rule:nonzero;"/>
                <path d="M376.379,152.306L376.308,152.235L376.379,152.164L376.45,152.235L376.379,152.306Z" style="fill:rgb(189,167,145);fill-rule:nonzero;"/>
                <path d="M376.155,156.414C376.06,156.414 375.984,156.337 375.984,156.243C375.984,156.148 376.06,156.071 376.155,156.071C376.25,156.071 376.327,156.148 376.327,156.243C376.327,156.337 376.25,156.414 376.155,156.414Z" style="fill:rgb(200,176,147);fill-rule:nonzero;"/>
                <path d="M381.826,152.386C381.734,152.386 381.66,152.312 381.66,152.22C381.66,152.129 381.734,152.055 381.826,152.055C381.917,152.055 381.991,152.129 381.991,152.22C381.991,152.312 381.917,152.386 381.826,152.386Z" style="fill:rgb(199,172,144);fill-rule:nonzero;"/>
                <path d="M372.211,149.965C372.07,149.963 371.956,149.848 371.956,149.707C371.956,149.62 371.998,149.544 372.064,149.497C372.111,149.653 372.16,149.809 372.211,149.965Z" style="fill:rgb(153,119,94);fill-rule:nonzero;"/>
                <path d="M372.213,149.965L372.211,149.965C372.16,149.809 372.111,149.653 372.064,149.497C372.106,149.467 372.158,149.449 372.213,149.449C372.356,149.449 372.471,149.565 372.471,149.707C372.471,149.849 372.356,149.965 372.213,149.965Z" style="fill:rgb(153,119,93);fill-rule:nonzero;"/>
                <path d="M373.888,154.586L373.728,154.425L373.888,154.265L374.048,154.425L373.888,154.586Z" style="fill:rgb(199,179,158);fill-rule:nonzero;"/>
                <path d="M422.859,163.971C422.73,163.971 422.626,163.867 422.626,163.738C422.626,163.61 422.73,163.506 422.859,163.506C422.987,163.506 423.091,163.61 423.091,163.738C423.091,163.867 422.987,163.971 422.859,163.971Z" style="fill:rgb(189,166,144);fill-rule:nonzero;"/>
                <path d="M388.161,162.429L388.133,162.4L388.161,162.372L388.189,162.4L388.161,162.429Z" style="fill:rgb(189,166,144);fill-rule:nonzero;"/>
                <path d="M387.045,169.038C386.893,169.038 386.769,168.914 386.769,168.762C386.769,168.61 386.893,168.486 387.045,168.486C387.198,168.486 387.321,168.61 387.321,168.762C387.321,168.914 387.198,169.038 387.045,169.038Z" style="fill:rgb(150,114,90);fill-rule:nonzero;"/>
                <path d="M381.147,165.595L381.102,165.551L381.147,165.506L381.192,165.551L381.147,165.595Z" style="fill:rgb(163,129,105);fill-rule:nonzero;"/>
                <path d="M389.68,156.632C389.583,156.632 389.504,156.553 389.504,156.456C389.504,156.359 389.583,156.28 389.68,156.28C389.778,156.28 389.856,156.359 389.856,156.456C389.856,156.553 389.778,156.632 389.68,156.632Z" style="fill:rgb(197,175,155);fill-rule:nonzero;"/>
                <path d="M390.477,160.512C390.31,160.512 390.175,160.377 390.175,160.211C390.175,160.045 390.31,159.91 390.477,159.91C390.643,159.91 390.778,160.045 390.778,160.211C390.778,160.377 390.643,160.512 390.477,160.512Z" style="fill:rgb(161,129,106);fill-rule:nonzero;"/>
                <path d="M394.759,157.498L394.638,157.377L394.759,157.255L394.881,157.377L394.759,157.498Z" style="fill:rgb(156,122,97);fill-rule:nonzero;"/>
                <path d="M385.118,154.016L385.009,153.907L385.118,153.798L385.227,153.907L385.118,154.016Z" style="fill:rgb(192,170,153);fill-rule:nonzero;"/>
                <path d="M386.333,158.723L386.282,158.672L386.333,158.621L386.384,158.672L386.333,158.723Z" style="fill:rgb(200,176,147);fill-rule:nonzero;"/>
                <path d="M379.985,159.421C379.852,159.28 379.722,159.135 379.593,158.987C379.648,158.913 379.735,158.865 379.833,158.865C379.998,158.865 380.132,158.999 380.132,159.164C380.132,159.273 380.073,159.369 379.985,159.421Z" style="fill:rgb(161,129,104);fill-rule:nonzero;"/>
                <path d="M379.833,159.462C379.669,159.462 379.535,159.328 379.535,159.164C379.535,159.097 379.557,159.036 379.593,158.987C379.722,159.135 379.852,159.28 379.985,159.421C379.941,159.447 379.889,159.462 379.833,159.462Z" style="fill:rgb(162,128,101);fill-rule:nonzero;"/>
                <path d="M406.86,116.384L406.804,116.328L406.86,116.273L406.916,116.328L406.86,116.384Z" style="fill:rgb(193,172,150);fill-rule:nonzero;"/>
                <path d="M407.852,119.676C407.707,119.676 407.59,119.559 407.59,119.414C407.59,119.27 407.707,119.152 407.852,119.152C407.996,119.152 408.113,119.27 408.113,119.414C408.113,119.559 407.996,119.676 407.852,119.676Z" style="fill:rgb(196,176,159);fill-rule:nonzero;"/>
                <path d="M399.602,120.404C399.451,120.404 399.329,120.282 399.329,120.131C399.329,119.98 399.451,119.858 399.602,119.858C399.753,119.858 399.875,119.98 399.875,120.131C399.875,120.282 399.753,120.404 399.602,120.404Z" style="fill:rgb(197,172,143);fill-rule:nonzero;"/>
                <path d="M410.512,117.389C410.333,117.389 410.188,117.244 410.188,117.065C410.188,116.887 410.333,116.742 410.512,116.742C410.69,116.742 410.835,116.887 410.835,117.065C410.835,117.244 410.69,117.389 410.512,117.389Z" style="fill:rgb(181,155,133);fill-rule:nonzero;"/>
                <path d="M408.25,112.437L408.228,112.415L408.25,112.394L408.271,112.415L408.25,112.437Z" style="fill:rgb(196,175,154);fill-rule:nonzero;"/>
                <path d="M415.146,118.524C415.044,118.524 414.961,118.441 414.961,118.339C414.961,118.236 415.044,118.153 415.146,118.153C415.248,118.153 415.331,118.236 415.331,118.339C415.331,118.441 415.248,118.524 415.146,118.524Z" style="fill:rgb(195,174,153);fill-rule:nonzero;"/>
                <path d="M391.179,173.341C391.086,173.341 391.01,173.265 391.01,173.172C391.01,173.079 391.086,173.003 391.179,173.003C391.272,173.003 391.348,173.079 391.348,173.172C391.348,173.265 391.272,173.341 391.179,173.341Z" style="fill:rgb(209,192,173);fill-rule:nonzero;"/>
                <path d="M406.093,111.966L406.011,111.884L406.093,111.802L406.175,111.884L406.093,111.966Z" style="fill:rgb(201,182,161);fill-rule:nonzero;"/>
                <path d="M400.878,112.911C400.763,112.911 400.671,112.819 400.671,112.705C400.671,112.591 400.763,112.498 400.878,112.498C400.992,112.498 401.084,112.591 401.084,112.705C401.084,112.819 400.992,112.911 400.878,112.911Z" style="fill:rgb(194,172,152);fill-rule:nonzero;"/>
                <path d="M421.289,120.788L421.186,120.685L421.289,120.582L421.392,120.685L421.289,120.788Z" style="fill:rgb(200,181,160);fill-rule:nonzero;"/>
                <path d="M421.184,125.918C421.03,125.918 420.905,125.793 420.905,125.639C420.905,125.485 421.03,125.36 421.184,125.36C421.338,125.36 421.463,125.485 421.463,125.639C421.463,125.793 421.338,125.918 421.184,125.918Z" style="fill:rgb(177,149,126);fill-rule:nonzero;"/>
                <path d="M412.865,123.325L412.759,123.219L412.865,123.113L412.971,123.219L412.865,123.325Z" style="fill:rgb(183,153,127);fill-rule:nonzero;"/>
                <path d="M426.201,127.292L426.081,127.172L426.201,127.052L426.321,127.172L426.201,127.292Z" style="fill:rgb(173,144,120);fill-rule:nonzero;"/>
                <path d="M421.823,116.634L421.786,116.597L421.823,116.561L421.859,116.597L421.823,116.634Z" style="fill:rgb(212,196,177);fill-rule:nonzero;"/>
                <path d="M418.748,117.543C418.616,117.543 418.51,117.436 418.51,117.305C418.51,117.173 418.616,117.066 418.748,117.066C418.88,117.066 418.987,117.173 418.987,117.305C418.987,117.436 418.88,117.543 418.748,117.543Z" style="fill:rgb(186,162,141);fill-rule:nonzero;"/>
                <path d="M413.731,116.202L413.656,116.128L413.731,116.053L413.806,116.128L413.731,116.202Z" style="fill:rgb(201,182,161);fill-rule:nonzero;"/>
                <path d="M400.784,167.366C400.67,167.366 400.578,167.274 400.578,167.161C400.578,167.048 400.67,166.956 400.784,166.956C400.897,166.956 400.989,167.048 400.989,167.161C400.989,167.274 400.897,167.366 400.784,167.366Z" style="fill:rgb(196,173,153);fill-rule:nonzero;"/>
                <path d="M399.809,172.572L399.72,172.483L399.809,172.394L399.898,172.483L399.809,172.572Z" style="fill:rgb(171,142,118);fill-rule:nonzero;"/>
                <path d="M393.821,171.448L393.781,171.408L393.821,171.368L393.861,171.408L393.821,171.448Z" style="fill:rgb(163,131,107);fill-rule:nonzero;"/>
                <path d="M401.167,161.441L401.132,161.441C401.026,161.44 400.907,161.439 400.779,161.439C400.789,161.274 400.926,161.144 401.093,161.144C401.259,161.144 401.395,161.272 401.407,161.435C401.321,161.439 401.241,161.441 401.167,161.441Z" style="fill:rgb(188,165,143);fill-rule:nonzero;"/>
                <path d="M401.093,161.774C400.919,161.774 400.778,161.633 400.778,161.459C400.778,161.452 400.778,161.446 400.779,161.439C400.907,161.439 401.026,161.44 401.132,161.441L401.167,161.441C401.241,161.441 401.321,161.439 401.407,161.435C401.408,161.443 401.408,161.451 401.408,161.459C401.408,161.633 401.267,161.774 401.093,161.774Z" style="fill:rgb(190,164,136);fill-rule:nonzero;"/>
                <path d="M402.409,165.689L402.279,165.559L402.409,165.429L402.539,165.559L402.409,165.689Z" style="fill:rgb(181,156,134);fill-rule:nonzero;"/>
                <path d="M405.665,160.784C405.657,160.763 405.653,160.74 405.653,160.716C405.653,160.604 405.743,160.514 405.855,160.514C405.964,160.514 406.052,160.6 406.057,160.707C405.926,160.733 405.795,160.759 405.665,160.784Z" style="fill:rgb(157,123,98);fill-rule:nonzero;"/>
                <path d="M405.855,160.918C405.767,160.918 405.693,160.863 405.665,160.784C405.795,160.759 405.926,160.733 406.057,160.707L406.057,160.716C406.057,160.828 405.967,160.918 405.855,160.918Z" style="fill:rgb(157,123,97);fill-rule:nonzero;"/>
                <path d="M397.293,157.131L397.134,156.972L397.293,156.812L397.452,156.972L397.293,157.131Z" style="fill:rgb(197,176,156);fill-rule:nonzero;"/>
                <path d="M399.17,164.954L399.147,164.931L399.17,164.908L399.193,164.931L399.17,164.954Z" style="fill:rgb(209,192,171);fill-rule:nonzero;"/>
                <path d="M393.121,163.842L393.095,163.816L393.121,163.791L393.146,163.816L393.121,163.842Z" style="fill:rgb(160,126,99);fill-rule:nonzero;"/>
                <path d="M413.927,171.166L413.792,171.031L413.927,170.897L414.061,171.031L413.927,171.166Z" style="fill:rgb(167,137,114);fill-rule:nonzero;"/>
                <path d="M430.839,134.98L430.781,134.923L430.839,134.865L430.896,134.923L430.839,134.98Z" style="fill:rgb(176,150,126);fill-rule:nonzero;"/>
                <path d="M425.948,121.286L425.79,121.129L425.948,120.971L426.105,121.129L425.948,121.286Z" style="fill:rgb(209,192,173);fill-rule:nonzero;"/>
                <path d="M414.327,164.939C414.174,164.939 414.049,164.815 414.049,164.662C414.049,164.509 414.174,164.385 414.327,164.385C414.48,164.385 414.604,164.509 414.604,164.662C414.604,164.815 414.48,164.939 414.327,164.939Z" style="fill:rgb(164,132,107);fill-rule:nonzero;"/>
                <path d="M415.113,168.339C414.999,168.339 414.906,168.246 414.906,168.132C414.906,168.018 414.999,167.925 415.113,167.925C415.228,167.925 415.32,168.018 415.32,168.132C415.32,168.246 415.228,168.339 415.113,168.339Z" style="fill:rgb(168,139,114);fill-rule:nonzero;"/>
                <path d="M419.38,165.352L419.229,165.2L419.38,165.049L419.532,165.2L419.38,165.352Z" style="fill:rgb(164,132,109);fill-rule:nonzero;"/>
                <path d="M412.086,163.069L412.019,163.002L412.086,162.935L412.153,163.002L412.086,163.069Z" style="fill:rgb(154,121,96);fill-rule:nonzero;"/>
                <path d="M412.347,169.378C412.25,169.378 412.172,169.299 412.172,169.203C412.172,169.106 412.25,169.028 412.347,169.028C412.443,169.028 412.522,169.106 412.522,169.203C412.522,169.299 412.443,169.378 412.347,169.378Z" style="fill:rgb(194,173,151);fill-rule:nonzero;"/>
                <path d="M406.865,168.696L406.775,168.606L406.865,168.516L406.955,168.606L406.865,168.696Z" style="fill:rgb(190,168,146);fill-rule:nonzero;"/>
            </g>
        </g>
    </g>
</svg>
