<?xml version="1.0" encoding="UTF-8" standalone="no"?>
<!DOCTYPE svg PUBLIC "-//W3C//DTD SVG 1.1//EN" "http://www.w3.org/Graphics/SVG/1.1/DTD/svg11.dtd">
<svg width="100%" height="100%" viewBox="0 0 532 530" version="1.1" xmlns="http://www.w3.org/2000/svg" xmlns:xlink="http://www.w3.org/1999/xlink" xml:space="preserve" xmlns:serif="http://www.serif.com/" style="fill-rule:evenodd;clip-rule:evenodd;stroke-linejoin:round;stroke-miterlimit:2;">
    <g transform="matrix(1,0,0,1,-2916.96,-654.658)">
        <g transform="matrix(4.16667,0,0,4.16667,0,0)">
            <g transform="matrix(1,0,0,1,18.5273,-4.69141)">
                <path d="M684.893,209.767C685.233,208.907 685.83,208.08 685.431,207.922C685.032,207.763 684.432,208.333 684.092,209.192C683.751,210.052 683.799,210.877 684.197,211.035C684.598,211.193 684.553,210.626 684.893,209.767Z" style="fill:rgb(192,57,38);fill-rule:nonzero;"/>
                <path d="M716.766,276.568C717.108,276.557 717.142,276.054 717.128,275.711C717.059,273.816 714.672,274.526 713.259,274.204C712.985,274.214 712.682,274.121 712.402,274.13C710.55,274.199 716.288,276.585 716.766,276.568Z" style="fill:rgb(192,57,38);fill-rule:nonzero;"/>
                <path d="M710.714,267.907C710.203,267.865 709.917,268.614 710.027,269.115C710.431,270.95 713.826,270.657 715.5,272.029C722.557,277.814 720.643,275.313 717.504,272.383C715.481,270.497 711.427,267.966 710.714,267.907Z" style="fill:rgb(192,57,38);fill-rule:nonzero;"/>
                <path d="M801.359,253.375C801.668,252.597 801.553,251.821 801.102,251.643C800.651,251.464 800.037,251.951 799.729,252.728C799.421,253.506 798.4,255.203 798.85,255.381C799.3,255.56 801.052,254.152 801.359,253.375Z" style="fill:rgb(192,57,38);fill-rule:nonzero;"/>
                <path d="M800.997,193.457C798.032,188.484 796.73,182.907 792.554,179.05C786.343,173.313 786.952,172.865 785.381,172.242C784.67,171.96 784.286,172.126 784.293,172.464C784.354,175.286 789.622,174.114 792.789,183.002C793.872,186.039 794.009,190.476 797.494,195.157C798.032,195.879 798.565,196.495 799.356,196.808C799.775,196.974 801.463,197.474 801.632,197.052C802.159,195.718 801.61,194.483 800.997,193.457Z" style="fill:rgb(192,57,38);fill-rule:nonzero;"/>
                <path d="M804.708,220.448C803.131,213.289 802.644,205.698 803.002,200.132C801.8,196.609 800.278,193.232 798.272,189.975C795.344,187.289 792.153,184.832 788.568,182.616C784.004,179.488 779.618,173.288 775.339,171.592C771.68,170.142 767.54,172.011 764.716,170.893C764.061,170.633 764.023,170.402 764.334,169.621C764.646,168.833 765.271,168.172 765.582,167.386C766.066,166.166 764.256,164.78 761.866,163.422C755.104,161.656 744.942,164.671 738.209,165.239C734.373,165.561 730.236,159.126 729.704,163.121C729.226,166.707 735.664,168.999 745.669,167.08C746.369,167.077 747.071,167.076 747.676,167.314C747.988,167.438 748.26,167.574 748.137,167.885C747.33,169.923 739.125,172.27 732.266,169.553C731.047,169.07 729.925,168.357 728.737,167.887C727.178,167.268 719.581,167.121 719.049,167.168C717.59,167.255 715.699,167.889 714.043,168.417C708.859,171.455 704.657,175.838 700.452,180.298C697.782,183.131 695.296,186.199 693.091,189.519C692.06,194.442 688.753,199.17 689.207,204.4C693.142,199.013 693.917,191.86 698.653,187.045C698.398,189.491 697.676,191.789 696.783,194.045C695.773,196.592 694.547,199.082 693.523,201.662C690.709,208.768 689.132,217.577 689.769,222.461C690.328,226.735 687.879,225.189 687.756,217.539C688.171,214.015 688.867,209.82 687.76,210.002C686.485,210.211 686.022,218.576 685.254,218.271C683.494,217.574 684.976,214.264 683.815,212.813L683.616,212.695C683.139,214.934 682.787,217.147 682.607,219.267C682.088,225.399 683.896,232.135 685.112,238.012C685.291,238.878 685.477,239.732 685.668,240.579C685.881,240.923 686.065,241.286 686.21,241.618C688.384,248.985 690.836,250.116 692.492,256.189C696.097,264.106 702.401,270.662 710.168,273.738C710.703,273.951 711.19,274.3 710.69,273.149C709.251,270.486 701.124,271.299 697.894,260.976C699.412,262.224 701.148,263.285 703.18,264.09C708.373,266.146 709.982,262.073 713.142,267.225C716.717,272.649 721.286,278.104 727.334,280.5C730.429,281.726 736.219,287.19 742.349,288.319C749.668,289.666 755.876,288.957 764.122,284.162C765.279,283.488 764.055,281.734 758.852,284.476C755.511,286.236 753.369,283.69 748.897,282.762C743.727,280.714 758.728,281.423 761.801,280.497C766.533,278.941 770.642,276.796 775.85,275.772C776.396,275.694 782.436,272.348 781.627,274.394L781.225,275.364C780.57,277.017 772.043,279.753 773.794,281.238C774.808,282.735 782.013,276.67 789.278,272.056C793.227,269.548 795.048,264.926 797.03,260.641C797.496,257.933 792.385,261.74 797.071,253.576C797.9,252.131 800.195,249.871 799.121,248.942C798.456,248.365 794.568,254.715 796.285,247.157C797.288,242.736 800.518,244.027 801.688,241.07C802.938,236.686 800.581,239.029 804.093,229.239C804.155,229.531 804.19,229.852 804.184,230.223C804.188,231.512 803.749,232.624 804.063,233.778C805.942,238.122 802.685,242.998 804.32,244.17C804.543,244.259 804.987,244.434 805.076,244.212C808.112,236.547 807.222,228.077 804.708,220.448Z" style="fill:rgb(207,64,39);fill-rule:nonzero;"/>
                <path d="M770.329,167.766C770.374,167.34 769.666,166.916 768.746,166.818C767.826,166.722 767.045,166.989 766.999,167.416C766.954,167.844 767.663,168.268 768.583,168.364C769.502,168.461 770.283,168.193 770.329,167.766Z" style="fill:rgb(192,57,38);fill-rule:nonzero;"/>
                <path d="M771.695,165.369C771.949,165.022 768.665,164.191 767.919,163.644C767.173,163.099 766.123,160.833 764.81,162.63C763.996,163.741 766.255,164.354 767.001,164.9C767.748,165.445 771.443,165.714 771.695,165.369Z" style="fill:rgb(192,57,38);fill-rule:nonzero;"/>
                <path d="M688.757,250.942C689.136,250.74 685.727,246.12 685.053,244.582C684.379,243.047 683.852,238.85 681.889,239.896C680.674,240.544 683.006,243.778 683.68,245.312C684.354,246.849 688.378,251.143 688.757,250.942Z" style="fill:rgb(192,57,38);fill-rule:nonzero;"/>
                <path d="M808.299,221.747C806.459,220.724 805.717,217.873 806.039,214.968C806.361,212.065 806.039,204.156 806.039,204.156C806.039,204.156 811.203,223.359 808.299,221.747Z" style="fill:rgb(192,57,38);fill-rule:nonzero;"/>
                <path d="M695.404,182.045C695.21,180.933 696.148,179.659 697.471,178.813C698.792,177.966 701.981,175.16 701.981,175.16C701.981,175.16 695.712,183.803 695.404,182.045Z" style="fill:rgb(192,57,38);fill-rule:nonzero;"/>
                <path d="M804.708,220.448C803.131,213.289 802.644,205.698 803.002,200.132C801.8,196.609 800.278,193.232 798.272,189.975C795.344,187.289 792.153,184.832 788.568,182.616C784.004,179.488 779.618,173.288 775.339,171.592C771.68,170.142 767.54,172.011 764.716,170.893C764.061,170.633 764.023,170.402 764.334,169.621C764.646,168.833 765.271,168.172 765.582,167.386C766.066,166.166 764.256,164.78 761.866,163.422C755.104,161.656 744.942,164.671 738.209,165.239C734.373,165.561 730.236,159.126 729.704,163.121C729.226,166.707 735.664,168.999 745.669,167.08C746.369,167.077 747.071,167.076 747.676,167.314C747.988,167.438 748.26,167.574 748.137,167.885C747.709,168.967 745.196,170.136 741.907,170.587C742.98,170.523 744.063,170.486 745.153,170.486C774.513,170.486 793.564,194.636 793.564,223.828C793.564,253.02 775.157,272.239 745.798,272.239C716.438,272.239 696.418,253.666 696.418,224.473C696.418,197.146 712.851,173.534 739.599,170.773C737.24,170.833 734.672,170.505 732.266,169.553C731.047,169.07 729.925,168.357 728.737,167.887C727.178,167.268 719.581,167.121 719.049,167.168C717.59,167.255 715.699,167.889 714.043,168.417C708.859,171.455 704.657,175.838 700.452,180.298C697.782,183.131 695.296,186.199 693.091,189.519C692.06,194.442 688.753,199.17 689.207,204.4C693.142,199.013 693.917,191.86 698.653,187.045C698.398,189.491 697.676,191.789 696.783,194.045C695.773,196.592 694.547,199.082 693.523,201.662C690.709,208.768 689.132,217.577 689.769,222.461C690.328,226.735 687.879,225.189 687.756,217.539C688.171,214.015 688.867,209.82 687.76,210.002C686.485,210.211 686.022,218.576 685.254,218.271C683.494,217.574 684.976,214.264 683.815,212.813L683.616,212.695C683.139,214.934 682.787,217.147 682.607,219.267C682.088,225.399 683.896,232.135 685.112,238.012C685.291,238.878 685.477,239.732 685.668,240.579C685.881,240.923 686.065,241.286 686.21,241.618C688.384,248.985 690.836,250.116 692.492,256.189C696.097,264.106 702.401,270.662 710.168,273.738C710.703,273.951 711.19,274.3 710.69,273.149C709.251,270.486 701.124,271.299 697.894,260.976C699.412,262.224 701.148,263.285 703.18,264.09C708.373,266.146 709.982,262.073 713.142,267.225C716.717,272.649 721.286,278.104 727.334,280.5C730.429,281.726 736.219,287.19 742.349,288.319C749.668,289.666 755.876,288.957 764.122,284.162C765.279,283.488 764.055,281.734 758.852,284.476C755.511,286.236 753.369,283.69 748.897,282.762C743.727,280.714 758.728,281.423 761.801,280.497C766.533,278.941 770.642,276.796 775.85,275.772C776.396,275.694 782.436,272.348 781.627,274.394L781.225,275.364C780.57,277.017 772.043,279.753 773.794,281.238C774.808,282.735 782.013,276.67 789.278,272.056C793.227,269.548 795.048,264.926 797.03,260.641C797.496,257.933 792.385,261.74 797.071,253.576C797.9,252.131 800.195,249.871 799.121,248.942C798.456,248.365 794.568,254.715 796.285,247.157C797.288,242.736 800.518,244.027 801.688,241.07C802.938,236.686 800.581,239.029 804.093,229.239C804.155,229.531 804.19,229.852 804.184,230.223C804.188,231.512 803.749,232.624 804.063,233.778C805.942,238.122 802.685,242.998 804.32,244.17C804.543,244.259 804.987,244.434 805.076,244.212C808.112,236.547 807.222,228.077 804.708,220.448Z" style="fill:rgb(192,57,38);fill-rule:nonzero;"/>
                <path d="M739.021,263.203L738.359,263.506C725.048,256.607 715.166,243.504 709.063,229.912C708.096,227.653 707.826,225.081 706.857,222.499C706.032,224.89 705.675,227.346 705.675,229.816C705.675,237.014 708.71,244.34 712.074,250.587C707.059,245.572 698.822,234.005 697.601,234.005C694.933,234.005 702.886,260.583 728.692,267.721L729.291,267.672L724.521,269.863C727.126,270.774 729.781,271.1 732.469,271.1C736.441,271.1 740.482,270.389 744.524,269.812C753.045,268.108 745.95,265.512 739.021,263.203Z" style="fill:rgb(192,57,38);fill-rule:nonzero;"/>
                <path d="M710.416,229.017L709.824,228.592C709.238,213.611 715.741,198.542 724.537,186.517C726.022,184.557 728.124,183.051 729.89,180.933C727.404,181.398 725.092,182.301 722.944,183.523C716.688,187.083 711.822,193.343 708.056,199.356C709.935,192.517 715.916,179.637 715.311,178.576C713.991,176.258 694.824,196.313 701.382,222.273L701.72,222.77L697.457,219.707C697.951,222.421 698.982,224.892 700.311,227.227C702.276,230.68 704.893,233.84 707.393,237.068C713.088,243.632 711.834,236.181 710.416,229.017Z" style="fill:rgb(192,57,38);fill-rule:nonzero;"/>
                <path d="M758.076,190.547L758.758,190.292C771.543,198.123 780.465,211.898 785.582,225.892C786.386,228.214 786.473,230.8 787.253,233.444C788.246,231.118 788.778,228.693 788.955,226.229C789.468,219.05 786.965,211.526 784.055,205.055C788.698,210.416 796.089,222.542 797.308,222.628C799.969,222.819 793.933,195.741 768.701,186.778L768.101,186.784L773.016,184.94C770.482,183.844 767.856,183.33 765.176,183.139C761.214,182.854 757.133,183.275 753.059,183.563C744.44,184.653 751.33,187.749 758.076,190.547Z" style="fill:rgb(192,57,38);fill-rule:nonzero;"/>
                <path d="M748.057,194.781C751.432,198.332 754.285,202.406 757.095,206.426C754.438,203.323 749.715,197.888 747.016,200.848C731.355,218.018 720.221,205.188 734.26,182.435C713.927,197.201 724.094,239.561 715.121,217.878C706.941,239.846 726.976,252.688 739.466,255.816C742.998,257.817 746.648,259.672 750.478,261.347C756.846,263.894 774.924,258.981 774.924,238.066C774.924,220.595 761.92,204.77 748.057,194.781Z" style="fill:rgb(192,57,38);fill-rule:nonzero;"/>
                <path d="M772.263,217.776C772.219,218.238 772.202,218.708 772.202,219.184C772.202,221.325 772.565,223.58 772.565,225.733C772.565,230.911 769.575,233.125 768.896,233.125C768.411,233.125 767.963,232.356 767.664,232.057C766.609,237.068 757.584,241.795 754.459,241.795C751.698,241.795 748.807,240.593 746.122,239.803C750.053,242.686 764.065,245.602 756.045,248.275C755.734,248.32 755.423,248.339 755.112,248.339C753.729,248.339 752.346,247.944 750.962,247.55L744.185,246.823C747.33,248.171 750.736,248.893 754.161,248.893C767.626,248.893 769.655,241.492 771.295,236.899C771.743,237.569 771.983,238.862 772.209,238.862L772.263,238.835C774.523,235.358 775.16,231.381 775.16,227.352C775.16,222.712 775.129,218.85 772.263,217.776Z" style="fill:rgb(207,64,39);fill-rule:nonzero;"/>
            </g>
        </g>
    </g>
</svg>
