<?xml version="1.0" encoding="UTF-8" standalone="no"?>
<!DOCTYPE svg PUBLIC "-//W3C//DTD SVG 1.1//EN" "http://www.w3.org/Graphics/SVG/1.1/DTD/svg11.dtd">
<svg width="100%" height="100%" viewBox="0 0 598 603" version="1.1" xmlns="http://www.w3.org/2000/svg" xmlns:xlink="http://www.w3.org/1999/xlink" xml:space="preserve" xmlns:serif="http://www.serif.com/" style="fill-rule:evenodd;clip-rule:evenodd;stroke-linejoin:round;stroke-miterlimit:2;">
    <g transform="matrix(1,0,0,1,-564.055,-712.716)">
        <g transform="matrix(4.16667,0,0,4.16667,0,0)">
            <g transform="matrix(1,0,0,1,-1.54205,7.80555)">
                <g transform="matrix(1,0,0,1,-75.4219,19.8594)">
                    <path d="M355.636,217.49C355.636,210.288 355.776,201.842 353.853,195.274C351.887,188.557 348.178,179.828 344.499,174.079C339.15,165.72 334.522,161.677 326.345,156.166C320.4,152.161 313.508,148.793 306.496,146.726C300.155,144.858 292.219,143.387 285.285,143.387C274.015,143.388 262.967,145.16 253.484,149.873C244.002,154.586 238.719,156.65 227.505,169.4C222.868,174.673 220.468,181.469 217.823,188.12C214.484,196.515 212.337,205.621 212.337,215.23C212.337,222.628 213.216,230.775 215.241,237.5C217.289,244.297 222.092,250.754 225.892,256.542C231.595,265.229 237.471,272.662 246.225,278.165C257.15,285.035 270.191,287.848 283.986,287.848C292.164,287.848 301.196,288.8 308.515,286.234C316.9,283.295 325.753,277.072 332.398,271.388C340.164,264.744 347.668,258.206 352.085,248.796C356.525,239.342 355.636,228.661 355.636,217.49Z" style="fill:rgb(253,236,173);fill-rule:nonzero;"/>
                </g>
                <g transform="matrix(1,0,0,1,-75.4219,19.8594)">
                    <path d="M353.723,221.594C354.139,214.574 354.766,206.35 353.272,199.837C351.744,193.176 348.634,184.452 345.382,178.635C340.653,170.178 336.376,165.969 328.725,160.124C323.163,155.875 316.639,152.193 309.924,149.773C303.852,147.583 296.202,145.689 289.442,145.288C278.459,144.636 267.586,145.723 258.07,149.768C248.556,153.812 243.286,155.519 231.617,167.297C226.792,172.167 224.059,178.653 221.095,184.982C217.354,192.97 214.733,201.722 214.177,211.088C213.748,218.3 214.132,226.292 215.717,232.964C217.319,239.708 221.627,246.279 224.996,252.141C230.05,260.938 235.347,268.525 243.562,274.396C253.813,281.724 266.36,285.223 279.806,286.021C287.779,286.496 296.527,287.947 303.809,285.871C312.153,283.492 321.143,277.938 327.948,272.784C335.905,266.757 343.596,260.819 348.446,251.903C353.322,242.945 353.075,232.483 353.723,221.594Z" style="fill:rgb(253,188,82);fill-rule:nonzero;"/>
                </g>
                <g transform="matrix(1,0,0,1,-75.4219,19.8594)">
                    <path d="M352.915,221.526C353.328,214.587 353.948,206.459 352.471,200.021C350.961,193.436 347.886,184.813 344.672,179.064C339.998,170.704 335.77,166.544 328.206,160.767C322.71,156.567 316.262,152.928 309.624,150.535C303.622,148.371 296.061,146.5 289.38,146.103C278.522,145.458 267.777,146.533 258.371,150.531C248.966,154.529 243.757,156.215 232.224,167.856C227.453,172.671 224.752,179.081 221.823,185.337C218.125,193.233 215.535,201.884 214.984,211.142C214.561,218.27 214.941,226.169 216.507,232.764C218.091,239.43 222.349,245.926 225.678,251.72C230.675,260.416 235.911,267.914 244.029,273.717C254.162,280.961 266.564,284.419 279.856,285.209C287.736,285.677 296.382,287.112 303.58,285.058C311.826,282.708 320.713,277.219 327.44,272.123C335.305,266.166 342.907,260.297 347.702,251.484C352.52,242.63 352.276,232.289 352.915,221.526Z" style="fill:rgb(229,127,56);fill-rule:nonzero;"/>
                </g>
                <g transform="matrix(1,0,0,1,-75.4219,19.8594)">
                    <path d="M351.907,213.636C351.528,206.786 351.218,198.745 349.042,192.6C346.819,186.314 342.831,178.207 339.031,172.932C333.505,165.263 328.89,161.662 320.821,156.851C314.957,153.354 308.225,150.513 301.446,148.916C295.316,147.472 287.691,146.491 281.097,146.855C270.377,147.448 259.962,149.715 251.192,154.697C242.421,159.678 237.504,161.919 227.51,174.637C223.376,179.895 221.451,186.485 219.285,192.95C216.55,201.11 214.988,209.884 215.492,219.024C215.881,226.06 217.147,233.763 219.427,240.052C221.731,246.41 226.64,252.298 230.559,257.604C236.439,265.565 242.419,272.326 251.035,277.101C261.788,283.06 274.338,285.049 287.459,284.325C295.238,283.894 303.878,284.325 310.704,281.498C318.525,278.262 326.619,271.878 332.639,266.122C339.678,259.393 346.468,252.781 350.176,243.599C353.901,234.373 352.495,224.262 351.907,213.636Z" style="fill:rgb(254,229,164);fill-rule:nonzero;"/>
                </g>
                <g transform="matrix(1,0,0,1,-75.4219,19.8594)">
                    <path d="M290.596,182.249C293.42,179.424 297.241,178.926 300.563,177.597C308.663,173.547 313.03,176.995 320.356,169.669C321.903,168.122 323.063,166.347 323.723,164.468C322.897,163.775 322.058,163.097 321.207,162.44L321.111,162.367C320.738,162.08 320.362,161.798 319.985,161.52L319.789,161.375C319.403,161.092 319.016,160.814 318.627,160.542L318.548,160.485C318.127,160.192 317.707,159.906 317.287,159.627L317.108,159.512C316.767,159.288 316.425,159.069 316.084,158.855C315.965,158.78 315.844,158.706 315.724,158.632C315.428,158.451 315.134,158.273 314.838,158.1C314.719,158.03 314.601,157.959 314.482,157.891C314.08,157.659 313.679,157.433 313.278,157.217C307.743,154.245 300.697,153.21 294.697,151.967C285.692,150.099 277.364,149.124 268.441,151.159C257.306,153.697 247.386,160.097 238.753,168.729C233.635,173.848 227.388,178.903 224.413,185.089C224.21,185.512 224.013,185.945 223.821,186.385C223.744,186.564 223.67,186.749 223.594,186.931C223.485,187.191 223.375,187.45 223.271,187.715C223.178,187.953 223.088,188.196 222.997,188.437C222.918,188.648 222.837,188.858 222.761,189.071C222.659,189.353 222.562,189.639 222.465,189.925C222.406,190.098 222.347,190.271 222.289,190.446C222.184,190.768 222.081,191.094 221.98,191.42C221.939,191.556 221.897,191.692 221.856,191.829C221.747,192.191 221.641,192.556 221.538,192.923C221.512,193.018 221.485,193.114 221.459,193.21C221.347,193.615 221.239,194.021 221.135,194.43L221.098,194.58C220.985,195.028 220.876,195.477 220.77,195.929C252.391,200.967 289.603,183.242 290.596,182.249Z" style="fill:rgb(253,236,173);fill-rule:nonzero;"/>
                </g>
                <g transform="matrix(1,0,0,1,-75.4219,19.8594)">
                    <path d="M271.38,205.777C268.95,209.49 259.367,220.006 265.583,226.223C266.735,227.375 268.25,228.118 269.665,228.761C304.468,241.254 323.738,233.248 325.314,232.914C331.119,231.614 338.16,231.724 344.81,231.34C347.205,223.617 349.116,215.27 348.217,207.507C347.503,201.334 345.069,195.551 342.563,189.734C339.894,183.539 336.372,177.56 331.727,172.231C329.519,175.753 326.971,179.659 322.409,184.221C307.288,199.342 289.809,194.972 271.38,205.777Z" style="fill:rgb(253,236,173);fill-rule:nonzero;"/>
                </g>
                <g transform="matrix(1,0,0,1,-75.4219,19.8594)">
                    <path d="M297.739,189.06C303.055,187.397 308.536,186.899 313.022,183.743C311.693,182.746 310.364,183.411 309.035,183.743C297.739,187.397 285.945,188.893 275.978,195.538C277.473,195.039 278.802,194.042 280.297,193.544C286.443,192.049 292.091,191.053 297.739,189.06Z" style="fill:rgb(253,236,173);fill-rule:nonzero;"/>
                </g>
                <g transform="matrix(1,0,0,1,-75.4219,19.8594)">
                    <path d="M320.949,246.916C326.528,244.626 331.699,240.951 337.247,240.917C336.53,243.018 335.015,243.32 333.66,243.983C321.746,248.714 310.418,256.165 298.265,256.639C299.849,256.029 301.522,256.085 303.106,255.475C309.353,252.366 314.912,249.102 320.949,246.916Z" style="fill:rgb(253,236,173);fill-rule:nonzero;"/>
                </g>
                <g transform="matrix(1,0,0,1,-75.4219,19.8594)">
                    <path d="M254.305,216.9C253.693,219.737 254.928,225.944 255.206,228.787C255.999,228.441 257.015,226.625 257.206,225.937C258.45,219.878 259.199,219.957 260.861,212.98C257.074,215.354 254.852,213.828 254.305,216.9Z" style="fill:rgb(253,236,173);fill-rule:nonzero;"/>
                </g>
                <g transform="matrix(1,0,0,1,-75.4219,19.8594)">
                    <path d="M251.559,263.479C254.69,262.476 281.295,260.443 284.616,260.323L257.372,270.29C259.332,266.199 248.143,264.451 251.559,263.479Z" style="fill:rgb(253,236,173);fill-rule:nonzero;"/>
                </g>
                <g transform="matrix(1,0,0,1,-75.4219,19.8594)">
                    <path d="M263.327,244.9C265.404,242.823 264.865,241.495 263.79,240.42C261.079,237.711 255.329,233.809 251.344,229.824C243.609,222.09 246.088,219.399 251.643,213.844C252.963,212.523 254.362,211.221 255.711,209.873C274.324,191.26 249.663,203.962 220.827,207.166C222.164,213.402 220.513,219.34 218.379,225.179C218.661,228.74 219.309,232.272 220.576,235.782C221.179,237.455 221.937,239.032 222.812,240.538C234.723,244.491 257.997,250.23 263.327,244.9Z" style="fill:rgb(253,236,173);fill-rule:nonzero;"/>
                </g>
                <g transform="matrix(1,0,0,1,-75.4219,19.8594)">
                    <path d="M309.699,245.538C308.039,245.871 306.377,246.203 304.717,246.535C294.085,245.538 283.952,242.383 273.32,241.386C273.32,243.298 276.352,244.002 272.323,248.03C264.005,254.526 254.044,257.66 243.836,259.041C284.972,255.584 311.775,247.298 319.017,244.882C315.973,245.614 312.837,245.129 309.699,245.538Z" style="fill:rgb(253,236,173);fill-rule:nonzero;"/>
                </g>
                <g transform="matrix(1,0,0,1,-75.4219,19.8594)">
                    <path d="M270.865,275.973C279.444,277.858 287.502,278.778 296.067,277.108C302.294,275.895 308.203,272.403 313.884,269.308C319.021,266.509 324,264.281 328.34,259.942C332.714,255.568 336.294,250.743 339.097,245.589C316.061,260.329 280.647,270.27 263.979,274.402C266.305,274.989 268.633,275.483 270.865,275.973Z" style="fill:rgb(253,236,173);fill-rule:nonzero;"/>
                </g>
                <g transform="matrix(1,0,0,1,-75.4219,19.8594)">
                    <path d="M287.374,195.017C286.918,195.017 286.551,194.077 286.551,192.917C286.551,192.715 286.562,192.429 286.583,192.095C286.741,192.059 286.899,192.023 287.056,191.987C287.05,192.177 287.047,192.339 287.047,192.459C287.047,193.263 287.192,193.915 287.374,193.915C287.553,193.915 287.7,193.263 287.7,192.459C287.7,192.31 287.695,192.095 287.685,191.843C287.837,191.808 287.988,191.773 288.139,191.738C288.176,192.225 288.196,192.646 288.196,192.917C288.196,194.077 287.828,195.017 287.374,195.017ZM286.755,190.234C286.905,188.991 287.126,187.836 287.374,187.836C287.592,187.836 287.791,188.744 287.938,189.815C287.814,189.858 287.69,189.901 287.566,189.944C287.512,189.372 287.445,188.938 287.374,188.938C287.295,188.938 287.224,189.445 287.168,190.085C287.03,190.134 286.891,190.184 286.755,190.234Z" style="fill:rgb(255,209,123);fill-rule:nonzero;"/>
                </g>
                <g transform="matrix(1,0,0,1,-75.4219,19.8594)">
                    <path d="M286.583,192.095C286.617,191.552 286.676,190.881 286.755,190.234C286.891,190.184 287.03,190.134 287.168,190.085C287.113,190.707 287.073,191.454 287.056,191.987C286.899,192.023 286.741,192.059 286.583,192.095ZM287.685,191.843C287.664,191.281 287.622,190.538 287.566,189.944C287.69,189.901 287.814,189.858 287.938,189.815C288.025,190.45 288.095,191.143 288.139,191.738C287.988,191.773 287.837,191.808 287.685,191.843Z" style="fill:rgb(255,212,128);fill-rule:nonzero;"/>
                </g>
                <g transform="matrix(1,0,0,1,-75.4219,19.8594)">
                    <path d="M287.374,193.915C287.192,193.915 287.047,193.263 287.047,192.459C287.047,192.339 287.05,192.177 287.056,191.987C287.266,191.939 287.476,191.891 287.685,191.843C287.695,192.095 287.7,192.31 287.7,192.459C287.7,193.263 287.553,193.915 287.374,193.915ZM287.168,190.085C287.224,189.445 287.295,188.938 287.374,188.938C287.445,188.938 287.512,189.372 287.566,189.944C287.433,189.991 287.3,190.038 287.168,190.085Z" style="fill:rgb(243,179,110);fill-rule:nonzero;"/>
                </g>
                <g transform="matrix(1,0,0,1,-75.4219,19.8594)">
                    <path d="M287.056,191.987C287.073,191.454 287.113,190.707 287.168,190.085C287.3,190.038 287.433,189.991 287.566,189.944C287.622,190.538 287.664,191.281 287.685,191.843C287.476,191.891 287.266,191.939 287.056,191.987Z" style="fill:rgb(243,181,115);fill-rule:nonzero;"/>
                </g>
                <g transform="matrix(1,0,0,1,-75.4219,19.8594)">
                    <path d="M305.528,178.557C305.073,178.557 304.705,177.617 304.705,176.456C304.705,176.334 304.709,176.18 304.717,176.003C304.88,175.959 305.042,175.916 305.202,175.876C305.202,175.921 305.201,175.962 305.201,176C305.201,176.804 305.347,177.455 305.528,177.455C305.708,177.455 305.854,176.804 305.854,176C305.854,175.923 305.852,175.829 305.85,175.722C306.007,175.687 306.162,175.654 306.317,175.622C306.338,175.961 306.349,176.252 306.349,176.456C306.349,177.617 305.982,178.557 305.528,178.557Z" style="fill:rgb(255,209,123);fill-rule:nonzero;"/>
                </g>
                <g transform="matrix(1,0,0,1,-75.4219,19.8594)">
                    <path d="M304.717,176.003C304.784,174.511 305.121,171.376 305.528,171.376C305.902,171.376 306.217,174.036 306.317,175.622C306.162,175.654 306.007,175.687 305.85,175.722C305.826,174.703 305.691,172.478 305.528,172.478C305.355,172.478 305.215,174.95 305.202,175.876C305.042,175.916 304.88,175.959 304.717,176.003Z" style="fill:rgb(255,212,128);fill-rule:nonzero;"/>
                </g>
                <g transform="matrix(1,0,0,1,-75.4219,19.8594)">
                    <path d="M305.528,177.455C305.347,177.455 305.201,176.804 305.201,176C305.201,175.962 305.202,175.921 305.202,175.876C305.42,175.821 305.636,175.77 305.85,175.722C305.852,175.829 305.854,175.923 305.854,176C305.854,176.804 305.708,177.455 305.528,177.455Z" style="fill:rgb(243,179,110);fill-rule:nonzero;"/>
                </g>
                <g transform="matrix(1,0,0,1,-75.4219,19.8594)">
                    <path d="M305.202,175.876C305.215,174.95 305.355,172.478 305.528,172.478C305.691,172.478 305.826,174.703 305.85,175.722C305.636,175.77 305.42,175.821 305.202,175.876Z" style="fill:rgb(243,181,115);fill-rule:nonzero;"/>
                </g>
                <g transform="matrix(1,0,0,1,-75.4219,19.8594)">
                    <path d="M260.747,173.796C260.292,173.796 259.924,172.856 259.924,171.696C259.924,170.536 260.292,166.615 260.747,166.615C261.202,166.615 261.569,170.536 261.569,171.696C261.569,172.856 261.202,173.796 260.747,173.796ZM260.747,167.717C260.566,167.717 260.42,170.435 260.42,171.239C260.42,172.043 260.566,172.695 260.747,172.695C260.928,172.695 261.073,172.043 261.073,171.239C261.073,170.435 260.928,167.717 260.747,167.717Z" style="fill:rgb(255,212,128);fill-rule:nonzero;"/>
                </g>
                <g transform="matrix(1,0,0,1,-75.4219,19.8594)">
                    <path d="M260.747,172.695C260.566,172.695 260.42,172.043 260.42,171.239C260.42,170.435 260.566,167.717 260.747,167.717C260.928,167.717 261.073,170.435 261.073,171.239C261.073,172.043 260.928,172.695 260.747,172.695Z" style="fill:rgb(243,181,115);fill-rule:nonzero;"/>
                </g>
                <g transform="matrix(1,0,0,1,-75.4219,19.8594)">
                    <path d="M228.149,213.817C227.694,213.817 227.327,212.877 227.327,211.717C227.327,210.557 227.694,206.636 228.149,206.636C228.604,206.636 228.972,210.557 228.972,211.717C228.972,212.877 228.604,213.817 228.149,213.817ZM228.149,207.738C227.968,207.738 227.823,210.455 227.823,211.26C227.823,212.064 227.968,212.715 228.149,212.715C228.329,212.715 228.476,212.064 228.476,211.26C228.476,210.455 228.329,207.738 228.149,207.738Z" style="fill:rgb(255,212,128);fill-rule:nonzero;"/>
                </g>
                <g transform="matrix(1,0,0,1,-75.4219,19.8594)">
                    <path d="M228.149,212.715C227.968,212.715 227.823,212.064 227.823,211.26C227.823,210.455 227.968,207.738 228.149,207.738C228.329,207.738 228.476,210.455 228.476,211.26C228.476,212.064 228.329,212.715 228.149,212.715Z" style="fill:rgb(243,181,115);fill-rule:nonzero;"/>
                </g>
                <g transform="matrix(1,0,0,1,-75.4219,19.8594)">
                    <path d="M253.969,261.099C253.514,261.099 253.146,260.159 253.146,258.999C253.146,258.792 253.158,258.496 253.18,258.151C253.339,258.134 253.492,258.118 253.651,258.1C253.645,258.277 253.643,258.428 253.643,258.542C253.643,259.346 253.788,259.997 253.969,259.997C254.15,259.997 254.295,259.346 254.295,258.542C254.295,258.414 254.291,258.238 254.284,258.032C254.44,258.015 254.591,257.998 254.746,257.981C254.775,258.399 254.791,258.758 254.791,258.999C254.791,260.159 254.424,261.099 253.969,261.099ZM253.256,257.193C253.398,255.682 253.664,253.918 253.969,253.918C254.248,253.918 254.495,255.398 254.643,256.809C254.506,256.849 254.369,256.888 254.231,256.927C254.171,255.979 254.076,255.02 253.969,255.02C253.856,255.02 253.757,256.082 253.698,257.074C253.551,257.114 253.403,257.154 253.256,257.193Z" style="fill:rgb(255,209,123);fill-rule:nonzero;"/>
                </g>
                <g transform="matrix(1,0,0,1,-75.4219,19.8594)">
                    <path d="M253.18,258.151C253.198,257.86 253.224,257.533 253.256,257.193C253.403,257.154 253.551,257.114 253.698,257.074C253.676,257.446 253.66,257.808 253.651,258.1C253.492,258.118 253.339,258.134 253.18,258.151ZM254.284,258.032C254.274,257.712 254.255,257.32 254.231,256.927C254.369,256.888 254.506,256.849 254.643,256.809C254.686,257.218 254.721,257.621 254.746,257.981C254.591,257.998 254.44,258.015 254.284,258.032Z" style="fill:rgb(255,212,128);fill-rule:nonzero;"/>
                </g>
                <g transform="matrix(1,0,0,1,-75.4219,19.8594)">
                    <path d="M253.969,259.997C253.788,259.997 253.643,259.346 253.643,258.542C253.643,258.428 253.645,258.277 253.651,258.1C253.861,258.078 254.075,258.055 254.284,258.032C254.291,258.238 254.295,258.414 254.295,258.542C254.295,259.346 254.15,259.997 253.969,259.997ZM253.698,257.074C253.757,256.082 253.856,255.02 253.969,255.02C254.076,255.02 254.171,255.979 254.231,256.927C254.053,256.977 253.876,257.026 253.698,257.074Z" style="fill:rgb(243,179,110);fill-rule:nonzero;"/>
                </g>
                <g transform="matrix(1,0,0,1,-75.4219,19.8594)">
                    <path d="M253.651,258.1C253.66,257.808 253.676,257.446 253.698,257.074C253.876,257.026 254.053,256.977 254.231,256.927C254.255,257.32 254.274,257.712 254.284,258.032C254.075,258.055 253.861,258.078 253.651,258.1Z" style="fill:rgb(243,181,115);fill-rule:nonzero;"/>
                </g>
                <g transform="matrix(1,0,0,1,-75.4219,19.8594)">
                    <path d="M313.596,258.482C313.743,257.41 313.942,256.5 314.162,256.5C314.35,256.5 314.523,257.171 314.661,258.039C314.542,258.089 314.427,258.137 314.308,258.187C314.264,257.836 314.214,257.602 314.162,257.602C314.102,257.602 314.047,257.894 313.999,258.315C313.863,258.372 313.732,258.426 313.596,258.482Z" style="fill:rgb(255,209,123);fill-rule:nonzero;"/>
                </g>
                <g transform="matrix(1,0,0,1,-75.4219,19.8594)">
                    <path d="M314.162,263.681C313.706,263.681 313.338,262.741 313.338,261.581C313.338,260.98 313.437,259.637 313.596,258.482C313.732,258.426 313.863,258.372 313.999,258.315C313.901,259.178 313.835,260.583 313.835,261.123C313.835,261.928 313.981,262.58 314.162,262.58C314.341,262.58 314.487,261.928 314.487,261.123C314.487,260.555 314.414,259.032 314.308,258.187C314.427,258.137 314.542,258.089 314.661,258.039C314.857,259.271 314.983,260.901 314.983,261.581C314.983,262.741 314.616,263.681 314.162,263.681Z" style="fill:rgb(255,212,128);fill-rule:nonzero;"/>
                </g>
                <g transform="matrix(1,0,0,1,-75.4219,19.8594)">
                    <path d="M313.999,258.315C314.047,257.894 314.102,257.602 314.162,257.602C314.214,257.602 314.264,257.836 314.308,258.187C314.207,258.229 314.101,258.273 313.999,258.315Z" style="fill:rgb(243,179,110);fill-rule:nonzero;"/>
                </g>
                <g transform="matrix(1,0,0,1,-75.4219,19.8594)">
                    <path d="M314.162,262.58C313.981,262.58 313.835,261.928 313.835,261.123C313.835,260.583 313.901,259.178 313.999,258.315C314.101,258.273 314.207,258.229 314.308,258.187C314.414,259.032 314.487,260.555 314.487,261.123C314.487,261.928 314.341,262.58 314.162,262.58Z" style="fill:rgb(243,181,115);fill-rule:nonzero;"/>
                </g>
                <g transform="matrix(1,0,0,1,-75.4219,19.8594)">
                    <path d="M330.779,217.464C330.324,217.464 329.957,216.524 329.957,215.364C329.957,214.203 330.324,210.283 330.779,210.283C331.234,210.283 331.602,214.203 331.602,215.364C331.602,216.524 331.234,217.464 330.779,217.464ZM330.779,211.385C330.599,211.385 330.453,214.102 330.453,214.906C330.453,215.711 330.599,216.362 330.779,216.362C330.959,216.362 331.106,215.711 331.106,214.906C331.106,214.102 330.959,211.385 330.779,211.385Z" style="fill:rgb(255,212,128);fill-rule:nonzero;"/>
                </g>
                <g transform="matrix(1,0,0,1,-75.4219,19.8594)">
                    <path d="M330.779,216.362C330.599,216.362 330.453,215.711 330.453,214.906C330.453,214.102 330.599,211.385 330.779,211.385C330.959,211.385 331.106,214.102 331.106,214.906C331.106,215.711 330.959,216.362 330.779,216.362Z" style="fill:rgb(243,181,115);fill-rule:nonzero;"/>
                </g>
                <g transform="matrix(1,0,0,1,-75.4219,19.8594)">
                    <path d="M295.845,234.23C295.391,234.23 295.022,233.291 295.022,232.131C295.022,230.97 295.391,227.05 295.845,227.05C296.3,227.05 296.667,230.97 296.667,232.131C296.667,233.291 296.3,234.23 295.845,234.23ZM295.845,228.152C295.664,228.152 295.519,230.869 295.519,231.672C295.519,232.477 295.664,233.129 295.845,233.129C296.026,233.129 296.171,232.477 296.171,231.672C296.171,230.869 296.026,228.152 295.845,228.152Z" style="fill:rgb(255,212,128);fill-rule:nonzero;"/>
                </g>
                <g transform="matrix(1,0,0,1,-75.4219,19.8594)">
                    <path d="M295.845,233.129C295.664,233.129 295.519,232.477 295.519,231.672C295.519,230.869 295.664,228.152 295.845,228.152C296.026,228.152 296.171,230.869 296.171,231.672C296.171,232.477 296.026,233.129 295.845,233.129Z" style="fill:rgb(243,181,115);fill-rule:nonzero;"/>
                </g>
                <g transform="matrix(1,0,0,1,-75.4219,19.8594)">
                    <path d="M264.62,224.063C264.165,224.063 263.796,223.124 263.796,221.963C263.796,220.804 264.165,216.883 264.62,216.883C265.074,216.883 265.441,220.804 265.441,221.963C265.441,223.124 265.074,224.063 264.62,224.063ZM264.62,217.985C264.439,217.985 264.293,220.702 264.293,221.506C264.293,222.31 264.439,222.962 264.62,222.962C264.8,222.962 264.945,222.31 264.945,221.506C264.945,220.702 264.8,217.985 264.62,217.985Z" style="fill:rgb(255,212,128);fill-rule:nonzero;"/>
                </g>
                <g transform="matrix(1,0,0,1,-75.4219,19.8594)">
                    <path d="M264.62,222.962C264.439,222.962 264.293,222.31 264.293,221.506C264.293,220.702 264.439,217.985 264.62,217.985C264.8,217.985 264.945,220.702 264.945,221.506C264.945,222.31 264.8,222.962 264.62,222.962Z" style="fill:rgb(243,181,115);fill-rule:nonzero;"/>
                </g>
            </g>
        </g>
    </g>
</svg>
