<?xml version="1.0" encoding="UTF-8" standalone="no"?>
<!DOCTYPE svg PUBLIC "-//W3C//DTD SVG 1.1//EN" "http://www.w3.org/Graphics/SVG/1.1/DTD/svg11.dtd">
<svg width="100%" height="100%" viewBox="0 0 520 521" version="1.1" xmlns="http://www.w3.org/2000/svg" xmlns:xlink="http://www.w3.org/1999/xlink" xml:space="preserve" xmlns:serif="http://www.serif.com/" style="fill-rule:evenodd;clip-rule:evenodd;stroke-linejoin:round;stroke-miterlimit:2;">
    <g transform="matrix(1,0,0,1,-2200.94,-646.848)">
        <g transform="matrix(4.16667,0,0,4.16667,0,0)">
            <g transform="matrix(1,0,0,1,138.434,-5.62109)">
                <path d="M502.875,216.32C500.953,212.141 499.317,207.684 499.386,203.192C499.404,201.916 499.563,200.636 499.888,199.36C500.555,201.223 502.159,202.406 502.365,204.031C503.286,211.255 503.988,214.096 503.988,214.096C503.966,215.551 502.892,215.255 502.875,216.32ZM497.874,237.393C499.079,232.788 500.109,227.957 499.975,222.466C500.859,222.99 500.741,224.591 501.114,225.561C501.268,226.49 501.339,227.417 501.324,228.334C501.273,231.653 500.12,234.825 497.874,237.393ZM487.534,250.147C487.537,249.931 487.546,249.713 487.556,249.496L487.591,249.52C487.918,246.686 488.536,243.859 489.287,240.998C490.876,236.002 492.975,231.636 493.001,229.85C493.004,229.659 492.972,229.039 492.866,228.373C493.374,226.464 493.846,224.518 494.244,222.528C495.542,230.252 494.603,236.744 493.693,241.731C491.703,244.602 490.521,248.106 487.534,250.147ZM488.043,216.559C489.274,217.617 489.632,220.989 491.215,221.067C491.148,222.892 490.977,224.625 490.736,226.264C483.144,225.301 486.283,215.646 488.043,216.559ZM482.174,195.421C479.358,195.378 475.234,190.348 474.774,189.943C474.774,189.943 460.897,184.827 457.058,181.798C456.814,181.583 454.857,179.002 452.098,176.553C449.911,176.114 447.41,175.826 444.496,175.782C438.957,175.697 433.527,176.947 428.823,180.133C428.263,180.539 427.711,180.945 427.176,181.346C427.711,180.911 428.263,180.511 428.823,180.133C433.623,176.646 439.173,173.184 445.022,173.271C446.076,173.287 447.139,173.426 448.209,173.694L448.053,173.606L443.534,172.093C445.067,172.211 446.599,172.789 448.053,173.606L448.606,173.791C448.473,173.754 448.342,173.726 448.209,173.694C449.604,174.496 450.924,175.511 452.098,176.553C460.947,178.325 464.576,182.586 468.851,183.366C474.842,184.057 481.337,192.942 483.272,194.938C482.904,195.296 482.538,195.427 482.174,195.421ZM450.927,258.979C450.235,258.979 444.528,257.066 439.992,253.437C437.617,251.774 434.529,252.724 432.391,251.537C431.633,251.051 430.903,250.531 430.202,249.977C427.131,247.891 423.409,244.569 421.941,239.186L422.527,239.846C421.906,238.271 421.465,236.621 421.228,234.911C421.042,232.498 419.987,229.941 419.987,227.466C419.987,225.159 421.29,223.344 421.29,219.547C421.29,218.68 421.011,217.745 421.909,217.745C422.453,217.745 423.129,219.533 423.129,220.422C423.366,226.36 422.891,236.811 426.929,241.561C433.342,249.636 440.468,253.2 450.205,257C450.847,257.213 453.29,258.979 450.927,258.979ZM447.663,271.788C445.557,273.146 443.297,273.285 440.994,273.25C440.226,273.24 439.455,273.207 438.682,273.195C437.599,273.334 436.593,273.395 435.59,273.38C427.216,273.254 425.361,265.847 419.075,262.395C423.983,264.633 429.533,265.333 434.442,267.573C439.73,269.778 452.223,267.364 447.663,271.788ZM409.771,210.942C408.837,213.647 408.506,216.453 408.463,219.301C408.4,223.401 408.919,227.583 409.036,231.658C408.531,231.139 406.224,227.355 406.126,233.812C406.091,236.147 406.348,238.431 407.193,240.524C407.711,241.507 402.3,234.638 402.367,230.141C402.382,229.148 402.548,228.14 402.925,227.241C406.082,222.654 406.167,217.095 408.403,212.186C408.643,211.724 409.404,211.447 409.771,210.942C409.839,210.746 409.901,210.551 409.976,210.356C409.973,210.585 409.893,210.776 409.771,210.942ZM512.267,212.583C512.051,205.738 505.452,201.473 503.108,195.486C502.224,193.689 502.857,191.317 501.059,190.1C498.064,187.674 495.979,185.263 492.374,183.423C489.8,182.292 488.711,178.64 485.555,178.594C484.545,178.579 483.509,178.848 482.543,178.834C479.376,178.787 476.994,172.783 472.598,169.14C469.007,166.11 466.797,168.671 462.881,167.422C456.769,167.026 454.56,160.932 450.262,160.867C440.167,160.714 437.899,167.729 422.404,169.57C414.948,171.893 418.636,175.901 412.908,179.541C409.165,179.485 409.55,183.737 406.694,183.694C405.995,183.684 405.702,183.003 405.003,182.992C395.737,187.885 398.28,188.271 396.385,195.357C394.763,199.952 389.85,204.197 389.792,208.758C389.775,210.21 391.142,209.179 392.342,209.197C395.799,209.249 396.435,212.801 396.394,216.134C396.332,220.96 390.375,222.034 390.258,231.594C390.178,237.871 393.057,240.969 393.037,242.652C393.023,243.684 392.616,244.817 392.602,245.94C392.56,249.318 397.201,251.262 399.584,254.018C406.688,262.23 405.138,268.416 416.292,271.825C416.21,278.45 427.64,284.451 431.62,284.511C434.763,284.558 434.286,283.56 434.296,282.807C436.926,282.053 439.966,280.646 442.766,280.687C448.337,280.773 447.015,285.632 453.743,285.733C456.923,285.782 460.118,284.598 463.3,284.437C464.619,284.457 465.93,285.108 467.249,285.128C469.079,285.155 484.821,277.811 490.448,265.212C490.711,264.465 491.408,263.305 492.516,263.322C494.246,263.348 493.964,265.886 496.09,265.918C502.241,266.01 507.553,252.864 508.501,247.932C509.5,243.973 510.383,233.104 512.245,233.133C512.498,233.137 512.793,233.21 513.073,233.214C513.822,233.225 514.382,232.309 514.393,231.485C514.393,231.485 512.727,223.807 512.267,212.583Z" style="fill:rgb(254,218,124);fill-rule:nonzero;"/>
                <path d="M447.663,271.788C445.557,273.146 443.297,273.285 440.994,273.25C440.226,273.24 439.455,273.207 438.682,273.195C437.599,273.334 436.593,273.395 435.59,273.38C427.216,273.254 425.361,265.847 419.075,262.395C423.983,264.633 429.533,265.333 434.442,267.573C439.73,269.778 452.223,267.364 447.663,271.788ZM506.626,219.231C503.072,221.009 505.77,232.84 502.082,239.929C499.609,243.817 496.334,248.859 491.673,248.859C490.912,248.859 490.206,248.657 489.535,248.303C488.958,248.992 488.308,249.619 487.534,250.147C487.537,249.931 487.546,249.713 487.556,249.496L487.591,249.52C487.683,248.724 487.803,247.93 487.936,247.135C484.392,243.84 481.373,236.616 475.075,232.61C468.513,228.571 461.445,227.561 454.63,224.28C446.995,220.463 441.072,216.562 435.306,216.562C429.125,216.562 424.735,220.2 424.735,226.332C424.735,231.8 429.249,238.336 429.249,240.994C429.249,241.899 428.917,242.66 428.391,243.3C434.43,250.165 441.2,253.485 450.205,257C450.847,257.213 453.29,258.979 450.927,258.979C450.235,258.979 444.528,257.066 439.992,253.437C437.617,251.774 434.529,252.724 432.391,251.537C431.633,251.051 430.903,250.531 430.202,249.977C428.551,248.855 426.713,247.371 425.137,245.405C423.501,246.024 421.864,246.264 421.26,246.264C419.046,246.264 416.974,245.139 414.781,245.139C408.728,245.139 405.778,251.196 405.778,257.434C405.778,260.135 406.313,263.025 407.247,265.934C409.044,268.372 411.489,270.356 416.292,271.825C416.21,278.45 427.64,284.451 431.62,284.511C434.763,284.558 434.286,283.56 434.296,282.807C436.926,282.053 439.966,280.646 442.766,280.687C448.337,280.773 447.015,285.632 453.743,285.733C456.923,285.782 460.118,284.598 463.3,284.437C464.619,284.457 465.93,285.108 467.249,285.128C469.079,285.155 484.821,277.811 490.448,265.212C490.711,264.465 491.408,263.305 492.516,263.322C494.246,263.348 493.964,265.886 496.09,265.918C502.241,266.01 507.553,252.864 508.501,247.932C509.5,243.973 510.383,233.104 512.245,233.133C512.498,233.137 512.793,233.21 513.073,233.214C513.822,233.225 514.382,232.309 514.393,231.485C514.393,231.485 513.253,226.224 512.599,218.052C510.466,218.174 508.319,218.329 506.626,219.231Z" style="fill:rgb(255,205,106);fill-rule:nonzero;"/>
                <path d="M478.192,190.195C478.457,189.878 479.233,188.376 478.883,188.211C478.726,188.137 477.772,188.441 477.26,189.055C476.543,189.909 476.564,191.197 477.106,192.205C477.319,192.665 476.779,193.312 477.384,193.776C477.774,193.96 478.647,194.034 478.975,193.641C479.131,193.453 478.074,190.935 478.192,190.195Z" style="fill:rgb(254,218,124);fill-rule:nonzero;"/>
                <path d="M468.663,184.682C468.313,184.495 466.772,184.206 466.703,184.718C466.673,184.948 467.17,186.002 467.847,186.364C468.788,186.87 469.95,186.26 470.738,185.124C471.106,184.65 471.817,185.032 472.099,184.064C472.173,183.494 472.037,182.372 471.603,182.141C471.398,182.028 469.36,184.493 468.663,184.682Z" style="fill:rgb(254,218,124);fill-rule:nonzero;"/>
                <path d="M461.071,180.872C460.757,179.954 459.122,176.184 458.809,176.291C458.668,176.34 458.754,178.059 459.363,179.838C460.212,182.316 461.824,184.724 463.249,185.979C463.889,186.594 464.529,188.466 465.296,188.617C465.645,188.496 466.001,187.585 465.612,186.449C465.426,185.906 461.958,182.411 461.071,180.872Z" style="fill:rgb(254,218,124);fill-rule:nonzero;"/>
                <path d="M459.316,201.594C459.521,201.415 460.129,200.379 459.87,200.094C459.753,199.967 459.035,199.864 458.638,200.211C458.087,200.695 458.08,201.852 458.468,202.966C458.619,203.459 458.202,203.824 458.648,204.479C458.936,204.793 459.588,205.201 459.841,204.979C459.961,204.873 459.216,202.209 459.316,201.594Z" style="fill:rgb(255,205,106);fill-rule:nonzero;"/>
                <path d="M466.729,204.935C466.895,205.151 467.893,205.822 468.193,205.581C468.327,205.473 468.475,204.761 468.153,204.344C467.704,203.764 466.55,203.686 465.414,204.003C464.912,204.123 464.573,203.684 463.893,204.089C463.56,204.359 463.113,204.983 463.319,205.248C463.418,205.376 466.123,204.796 466.729,204.935Z" style="fill:rgb(255,205,106);fill-rule:nonzero;"/>
                <path d="M483.105,207.432C483.227,206.926 483.368,204.713 482.993,204.626C482.825,204.588 482.081,205.323 481.847,206.302C481.521,207.662 482.015,209.312 482.875,210.416C483.235,210.931 482.99,211.959 483.706,212.339C484.124,212.434 484.935,212.213 485.083,211.588C485.154,211.291 483.274,208.427 483.105,207.432Z" style="fill:rgb(255,205,106);fill-rule:nonzero;"/>
                <path d="M447.472,198.576C447.755,198.654 448.57,198.526 448.429,198.116C448.364,197.926 447.729,197.062 447.164,196.748C446.158,196.19 445.461,197.081 445.51,198.768C445.489,199.506 444.199,199.396 444.794,200.831C445.231,201.535 446.267,202.491 446.794,202.319C447.019,202.245 447.119,198.965 447.472,198.576Z" style="fill:rgb(255,205,106);fill-rule:nonzero;"/>
                <path d="M447.392,185.111C447.508,185.583 448.239,186.932 448.599,186.691C448.768,186.58 449.282,185.511 449.229,184.568C449.134,182.887 447.629,181.746 445.763,181.855C444.914,181.834 444.11,179.689 442.922,180.703C442.445,181.44 442.113,183.177 442.687,184.048C442.931,184.419 446.699,184.531 447.392,185.111Z" style="fill:rgb(255,205,106);fill-rule:nonzero;"/>
                <path d="M420.502,210.076C420.653,210.097 421.079,209.9 421.096,209.618C421.105,209.483 420.981,208.796 420.733,208.455C420.108,207.6 419.01,208.525 418.546,210.799C418.288,211.762 415.117,212.995 416.48,214.396C417.232,214.628 418.551,214.304 419.148,213.624C419.366,213.375 420.177,210.483 420.502,210.076Z" style="fill:rgb(255,205,106);fill-rule:nonzero;"/>
                <path d="M437.577,250.431C437.57,249.982 434.078,239.351 433.214,238.362C432.756,237.835 433.052,244.229 432.063,244.365C429.611,244.704 434.88,251.813 439.056,255.318C440.131,256.29 440.676,258.865 441.78,258.613C442.108,258.306 442.313,257.379 442.024,256.563C441.899,256.207 438.48,252.072 437.577,250.431Z" style="fill:rgb(255,205,106);fill-rule:nonzero;"/>
                <path d="M419.973,221.175C419.987,220.688 419.646,219.191 419.235,219.328C419.043,219.39 418.259,220.281 418.058,221.204C417.699,222.849 418.842,224.352 420.668,224.748C421.48,224.996 421.679,227.278 423.095,226.621C423.752,226.039 424.539,224.456 424.22,223.462C424.085,223.039 420.484,221.921 419.973,221.175Z" style="fill:rgb(255,205,106);fill-rule:nonzero;"/>
                <path d="M421.157,228.252C420.676,228.323 419.263,228.925 419.47,229.307C419.565,229.483 420.581,230.097 421.526,230.131C423.207,230.194 424.484,228.802 424.549,226.934C424.651,226.092 426.86,225.491 425.961,224.213C425.274,223.669 423.575,223.177 422.654,223.666C422.261,223.875 421.799,227.617 421.157,228.252Z" style="fill:rgb(255,205,106);fill-rule:nonzero;"/>
                <path d="M421.9,237.776C420.909,236.523 417.226,232.904 416.839,233.507C416.658,233.784 417.24,236.551 418.837,239.037C421.683,243.465 426.688,246.603 430.491,246.484C432.335,246.62 437.421,252.333 438.358,249.775C438.218,247.88 436.193,243.343 433.601,240.998C432.494,239.998 424.288,239.364 421.9,237.776Z" style="fill:rgb(255,205,106);fill-rule:nonzero;"/>
                <path d="M420.939,233.309C421.428,232.205 422.478,227.959 421.727,227.841C421.4,227.786 419.66,229.045 418.751,230.789C417.35,233.484 417.35,237.645 418.741,241.54C419.409,243.712 417.892,247.638 419.916,250.524C421.366,251.774 424.702,252.11 425.491,248.983C425.841,247.598 420.911,235.805 420.939,233.309Z" style="fill:rgb(255,205,106);fill-rule:nonzero;"/>
                <path d="M470.479,236.034C470.54,238.583 471.851,246.863 472.903,245.655C473.361,245.137 474.835,240.049 474.916,235.767C475.265,217.185 462.735,208.655 460.956,208.422C458.282,209.227 456.165,210.04 457.11,216.163C457.528,218.881 468.943,232.25 470.479,236.034Z" style="fill:rgb(255,205,106);fill-rule:nonzero;"/>
                <path d="M430.55,193.19C432.198,193.479 437.691,193.7 437.049,192.869C436.775,192.506 433.691,190.905 430.95,190.303C419.043,187.69 411.947,194.652 411.568,195.765C411.743,197.588 411.994,199.054 416.053,199.233C417.854,199.314 427.919,193.692 430.55,193.19Z" style="fill:rgb(255,205,106);fill-rule:nonzero;"/>
                <path d="M440.143,207.962C441.606,208.77 452.941,211.857 452.603,210.862C452.461,210.43 450.066,207.914 447.667,206.454C437.257,200.115 428.284,204.393 427.564,205.323C427.137,207.104 424.365,206.474 428.146,207.962C429.823,208.623 429.567,205.436 440.143,207.962Z" style="fill:rgb(255,205,106);fill-rule:nonzero;"/>
                <path d="M491.896,251.187C490.554,252.258 483.079,261.789 484.128,261.858C484.582,261.893 487.871,260.606 490.193,258.904C500.273,251.52 500.03,241.349 499.473,240.304C498.016,239.204 499.729,236.824 496.814,239.825C495.52,241.156 498.548,242.156 491.896,251.187Z" style="fill:rgb(254,218,124);fill-rule:nonzero;"/>
                <path d="M471.236,189.811C473.381,191.863 478.198,200.806 478.787,199.194C479.044,198.494 479.358,193.913 478.773,190.924C476.235,177.958 459.155,181.536 457.82,182.708C455.685,185.679 465.917,184.724 471.236,189.811Z" style="fill:rgb(255,205,106);fill-rule:nonzero;"/>
                <path d="M500.749,206.491C500.422,203.282 501.76,192.331 500.63,193.33C500.138,193.761 497.755,197.511 496.681,200.483C492.026,213.385 504.165,221.727 505.541,221.608C508.265,220.472 501.563,214.447 500.749,206.491Z" style="fill:rgb(255,205,106);fill-rule:nonzero;"/>
                <path d="M500.56,201.077C501.87,204.024 504.005,214.85 504.767,213.548C505.102,212.985 506.2,208.679 506.295,205.521C506.706,191.811 492.576,187.658 491.304,188.199C489.071,190.127 497.313,193.767 500.56,201.077Z" style="fill:rgb(255,205,106);fill-rule:nonzero;"/>
                <path d="M465.739,271.966C462.362,273.716 450.021,277.165 451.481,277.886C452.114,278.203 460.907,280.031 464.491,279.824C480.05,278.925 481.156,261.746 480.57,260.383C478.431,258.085 474.111,267.626 465.739,271.966Z" style="fill:rgb(254,218,124);fill-rule:nonzero;"/>
                <path d="M430.036,234.618C428.611,232.159 425.295,223.484 424.961,224.39C424.814,224.783 424.421,230.512 424.873,232.949C426.835,243.522 437.98,246.081 438.804,245.83C440.091,244.632 433.573,240.716 430.036,234.618Z" style="fill:rgb(254,218,124);fill-rule:nonzero;"/>
                <path d="M438.837,186.088C440.483,186.377 445.977,186.598 445.335,185.766C445.061,185.404 441.978,183.802 439.235,183.2C427.331,180.588 420.233,187.549 419.855,188.662C420.029,190.486 420.28,191.952 424.339,192.131C426.141,192.212 436.205,186.589 438.837,186.088Z" style="fill:rgb(255,205,106);fill-rule:nonzero;"/>
                <path d="M418.051,193.426C420.119,192.625 426.504,189.115 425.206,188.609C424.647,188.386 420.051,188.682 416.527,189.876C401.227,195.065 397.941,207.825 398.275,209.348C399.722,211.296 401.009,212.791 405.739,210.213C407.839,209.071 415.409,195.798 418.051,193.426Z" style="fill:rgb(255,205,106);fill-rule:nonzero;"/>
                <path d="M408.769,249.527C407.286,247.879 401.738,243.156 401.727,244.549C401.717,245.15 403.623,249.342 405.992,252.212C416.272,264.674 429.369,263.217 430.674,262.363C431.983,260.318 432.922,258.586 428.834,255.078C427.02,253.521 411.924,251.156 408.769,249.527Z" style="fill:rgb(254,218,124);fill-rule:nonzero;"/>
                <path d="M415.123,241.389C414.863,239.829 413.337,234.857 412.796,235.691C412.559,236.048 412.097,239.303 412.421,241.938C413.825,253.382 422.265,257.53 423.376,257.518C424.949,256.79 426.179,256.107 425.066,252.428C424.571,250.795 416.396,243.579 415.123,241.389Z" style="fill:rgb(254,218,124);fill-rule:nonzero;"/>
                <path d="M432.977,229.957C432.304,222.71 443.126,230.601 451.942,232.588C460.759,234.573 468.988,237.723 472.298,244.33C475.607,250.938 482.142,257.511 469.29,262.049C463.774,263.995 460.262,262.473 454.144,254.648C448.024,246.824 434.478,246.125 432.977,229.957Z" style="fill:rgb(254,218,124);fill-rule:nonzero;"/>
                <path d="M438.337,224.061C436.946,222.281 439.3,218.946 444.818,221.225C450.336,223.507 465.371,231.386 467.688,233.145C470.004,234.904 445.381,233.063 438.337,224.061Z" style="fill:rgb(254,218,124);fill-rule:nonzero;"/>
                <path d="M432.996,262.271C431.789,260.847 433.286,256.997 437.661,257.935C442.033,258.873 454.093,263.071 455.998,264.257C457.903,265.441 439.1,269.479 432.996,262.271Z" style="fill:rgb(254,218,124);fill-rule:nonzero;"/>
            </g>
        </g>
    </g>
</svg>
