<?xml version="1.0" encoding="UTF-8" standalone="no"?>
<!DOCTYPE svg PUBLIC "-//W3C//DTD SVG 1.1//EN" "http://www.w3.org/Graphics/SVG/1.1/DTD/svg11.dtd">
<svg width="100%" height="100%" viewBox="0 0 497 443" version="1.1" xmlns="http://www.w3.org/2000/svg" xmlns:xlink="http://www.w3.org/1999/xlink" xml:space="preserve" xmlns:serif="http://www.serif.com/" style="fill-rule:evenodd;clip-rule:evenodd;stroke-linejoin:round;stroke-miterlimit:2;">
    <g transform="matrix(1,0,0,1,-742.285,-2562.69)">
        <g transform="matrix(4.16667,0,0,4.16667,0,0)">
            <g transform="matrix(1,0,0,1,-360.828,290.484)">
                <path d="M582.818,402.589L581.146,403.15L582.613,408.37L585.126,407.527L582.818,402.589Z" style="fill:rgb(166,92,66);fill-rule:nonzero;"/>
                <path d="M579.987,383.838L579.079,384.143L580.782,389.678L582.146,389.221L579.987,383.838Z" style="fill:rgb(114,53,33);fill-rule:nonzero;"/>
                <path d="M603.161,390.652L601.172,391.318L603.065,397.97L606.056,396.968L603.161,390.652Z" style="fill:rgb(151,165,69);fill-rule:nonzero;"/>
                <path d="M602.352,391.022L600.624,389.829L596.434,395.335L599.028,397.127L602.352,391.022Z" style="fill:rgb(151,165,69);fill-rule:nonzero;"/>
                <path d="M603.288,388.901L602.061,390.605L607.479,394.908L609.325,392.351L603.288,388.901Z" style="fill:rgb(151,165,69);fill-rule:nonzero;"/>
                <path d="M600.844,386.11L599.936,386.414L601.638,391.95L603.001,391.493L600.844,386.11Z" style="fill:rgb(151,165,69);fill-rule:nonzero;"/>
                <path d="M558.484,389.929L557.174,389.11L554.276,393.304L556.246,394.536L558.484,389.929Z" style="fill:rgb(151,165,69);fill-rule:nonzero;"/>
                <path d="M557.893,389.641L557.764,388.1L552.67,388.296L552.861,390.609L557.893,389.641Z" style="fill:rgb(151,165,69);fill-rule:nonzero;"/>
                <path d="M559.54,389.181L557.996,389.282L558.083,394.377L560.404,394.231L559.54,389.181Z" style="fill:rgb(151,165,69);fill-rule:nonzero;"/>
                <path d="M559.983,386.485L559.385,386.111L557.032,389.671L557.93,390.233L559.983,386.485Z" style="fill:rgb(151,165,69);fill-rule:nonzero;"/>
                <path d="M582.94,346.722L584.234,345.88L581.659,341.481L579.71,342.748L582.94,346.722Z" style="fill:rgb(151,165,69);fill-rule:nonzero;"/>
                <path d="M583.447,346.308L584.9,346.842L586.875,342.142L584.695,341.338L583.447,346.308Z" style="fill:rgb(151,165,69);fill-rule:nonzero;"/>
                <path d="M583.169,347.995L583.73,346.552L579.074,344.477L578.229,346.644L583.169,347.995Z" style="fill:rgb(151,165,69);fill-rule:nonzero;"/>
                <path d="M585.429,349.537L586.019,349.151L583.786,345.516L582.898,346.091L585.429,349.537Z" style="fill:rgb(151,165,69);fill-rule:nonzero;"/>
                <path d="M622.14,332.012L623.436,331.169L620.86,326.771L618.91,328.038L622.14,332.012Z" style="fill:rgb(151,165,69);fill-rule:nonzero;"/>
                <path d="M622.649,331.597L624.102,332.133L626.076,327.43L623.896,326.627L622.649,331.597Z" style="fill:rgb(151,165,69);fill-rule:nonzero;"/>
                <path d="M622.37,333.285L622.933,331.84L618.274,329.769L617.428,331.935L622.37,333.285Z" style="fill:rgb(151,165,69);fill-rule:nonzero;"/>
                <path d="M624.629,334.827L625.221,334.44L622.987,330.805L622.1,331.38L624.629,334.827Z" style="fill:rgb(151,165,69);fill-rule:nonzero;"/>
                <path d="M604.901,335.818L604.649,336.741L612.183,338.937L612.56,337.55L604.901,335.818Z" style="fill:rgb(114,53,33);fill-rule:nonzero;"/>
                <path d="M561.951,372.59L560.171,370.749L557.269,373.052L559.943,375.821L561.951,372.59Z" style="fill:rgb(166,92,66);fill-rule:nonzero;"/>
                <path d="M594.701,372.601C594.406,371.722 593.613,371.193 592.928,371.422C592.243,371.652 591.929,372.552 592.223,373.432C592.518,374.314 593.311,374.841 593.996,374.611C594.682,374.382 594.995,373.484 594.701,372.601Z" style="fill:rgb(252,183,81);fill-rule:nonzero;"/>
                <path d="M635.721,368.315C635.163,366.651 633.762,365.624 632.587,366.017C631.411,366.412 630.913,368.076 631.471,369.741C632.027,371.402 633.43,372.431 634.604,372.037C635.778,371.644 636.278,369.979 635.721,368.315Z" style="fill:rgb(252,183,81);fill-rule:nonzero;"/>
                <path d="M618.731,354.502C618.452,353.673 617.61,353.204 616.854,353.458C616.097,353.712 615.709,354.592 615.985,355.422C616.264,356.253 617.104,356.721 617.862,356.467C618.619,356.214 619.01,355.333 618.731,354.502Z" style="fill:rgb(230,84,60);fill-rule:nonzero;"/>
                <path d="M609.837,409.691C609.559,408.861 608.719,408.393 607.961,408.646C607.203,408.9 606.815,409.78 607.094,410.611C607.372,411.442 608.211,411.909 608.969,411.655C609.726,411.401 610.116,410.522 609.837,409.691Z" style="fill:rgb(230,84,60);fill-rule:nonzero;"/>
                <path d="M574.727,359.591C574.449,358.762 573.61,358.295 572.852,358.549C572.096,358.803 571.706,359.681 571.984,360.511C572.263,361.343 573.104,361.812 573.861,361.558C574.619,361.304 575.006,360.423 574.727,359.591Z" style="fill:rgb(230,84,60);fill-rule:nonzero;"/>
                <path d="M553.423,410.665C553.144,409.833 552.304,409.365 551.547,409.619C550.788,409.872 550.4,410.752 550.679,411.584C550.957,412.414 551.797,412.881 552.556,412.628C553.313,412.375 553.701,411.496 553.423,410.665Z" style="fill:rgb(128,66,57);fill-rule:nonzero;"/>
                <path d="M615.158,374.416C614.88,373.585 614.039,373.115 613.281,373.37C612.524,373.623 612.135,374.505 612.414,375.335C612.691,376.164 613.532,376.633 614.29,376.379C615.048,376.126 615.435,375.246 615.158,374.416Z" style="fill:rgb(128,66,57);fill-rule:nonzero;"/>
                <path d="M580.112,325.673C579.833,324.841 578.993,324.376 578.236,324.629C577.479,324.883 577.09,325.761 577.368,326.592C577.646,327.424 578.487,327.894 579.244,327.64C580.002,327.386 580.391,326.504 580.112,325.673Z" style="fill:rgb(128,66,57);fill-rule:nonzero;"/>
                <path d="M569.909,402.974C569.352,401.311 567.95,400.282 566.775,400.676C565.602,401.07 565.102,402.736 565.659,404.398C566.216,406.062 567.618,407.092 568.794,406.698C569.969,406.305 570.466,404.637 569.909,402.974Z" style="fill:rgb(252,183,81);fill-rule:nonzero;"/>
                <path d="M569.938,346.323C569.563,345.199 568.502,344.539 567.571,344.851C566.643,345.162 566.196,346.326 566.572,347.451C566.949,348.575 568.008,349.234 568.936,348.923C569.867,348.611 570.315,347.447 569.938,346.323Z" style="fill:rgb(252,183,81);fill-rule:nonzero;"/>
                <path d="M546.749,364.73C546.405,363.705 545.494,363.084 544.712,363.347C543.926,363.609 543.574,364.654 543.917,365.679C544.262,366.708 545.172,367.329 545.957,367.065C546.74,366.803 547.093,365.759 546.749,364.73Z" style="fill:rgb(252,183,81);fill-rule:nonzero;"/>
                <path d="M539.071,349.479C538.864,349.873 539.009,350.352 539.393,350.547C539.778,350.747 540.257,350.588 540.46,350.195C540.664,349.801 540.519,349.321 540.137,349.125C539.753,348.927 539.276,349.085 539.071,349.479Z" style="fill:rgb(114,53,33);fill-rule:nonzero;"/>
                <path d="M559.602,352.548C559.477,352.791 559.566,353.088 559.804,353.211C560.042,353.333 560.338,353.234 560.464,352.991C560.592,352.748 560.503,352.452 560.264,352.329C560.025,352.208 559.729,352.304 559.602,352.548Z" style="fill:rgb(114,53,33);fill-rule:nonzero;"/>
                <path d="M653.341,345.723C652.527,345.142 651.396,345.329 650.811,346.144C650.229,346.957 650.416,348.088 651.229,348.666C652.043,349.246 653.174,349.06 653.759,348.246C654.34,347.432 654.154,346.305 653.341,345.723Z" style="fill:rgb(114,53,33);fill-rule:nonzero;"/>
                <path d="M591.338,415.309C592.503,414.905 593.229,413.577 592.961,412.342C592.69,411.108 591.53,410.439 590.363,410.845C589.2,411.251 588.471,412.58 588.742,413.814C589.01,415.046 590.173,415.715 591.338,415.309Z" style="fill:rgb(114,53,33);fill-rule:nonzero;"/>
                <path d="M652.852,352.383C652.581,352.189 652.204,352.252 652.01,352.524C651.815,352.793 651.877,353.171 652.148,353.362C652.418,353.56 652.798,353.497 652.993,353.225C653.185,352.953 653.124,352.579 652.852,352.383Z" style="fill:rgb(114,53,33);fill-rule:nonzero;"/>
                <path d="M655.137,330.466C655.315,330.087 655.162,329.639 654.792,329.467C654.422,329.292 653.975,329.457 653.796,329.835C653.613,330.216 653.765,330.662 654.137,330.837C654.506,331.01 654.953,330.847 655.137,330.466Z" style="fill:rgb(114,53,33);fill-rule:nonzero;"/>
                <path d="M618.251,429.757C618.113,429.359 617.703,429.186 617.332,429.368C616.963,429.548 616.775,430.018 616.912,430.414C617.051,430.814 617.463,430.986 617.832,430.806C618.201,430.622 618.391,430.155 618.251,429.757Z" style="fill:rgb(114,53,33);fill-rule:nonzero;"/>
                <path d="M580.007,430.689C580.338,430.915 580.796,430.786 581.023,430.403C581.257,430.019 581.172,429.529 580.84,429.305C580.509,429.081 580.055,429.209 579.822,429.593C579.591,429.975 579.674,430.468 580.007,430.689Z" style="fill:rgb(114,53,33);fill-rule:nonzero;"/>
                <path d="M642.38,384.519C643.402,385.221 644.805,384.961 645.516,383.932C646.23,382.909 645.98,381.506 644.96,380.807C643.943,380.102 642.543,380.367 641.828,381.392C641.118,382.417 641.367,383.818 642.38,384.519Z" style="fill:rgb(114,53,33);fill-rule:nonzero;"/>
                <path d="M636.304,392.385C636.901,392.797 637.719,392.644 638.133,392.045C638.55,391.444 638.402,390.629 637.81,390.218C637.215,389.811 636.397,389.96 635.982,390.559C635.565,391.16 635.71,391.976 636.304,392.385Z" style="fill:rgb(114,53,33);fill-rule:nonzero;"/>
                <path d="M572.159,415.152C572.499,415.389 572.966,415.299 573.204,414.957C573.44,414.615 573.355,414.148 573.019,413.915C572.681,413.681 572.211,413.769 571.975,414.109C571.737,414.452 571.818,414.92 572.159,415.152Z" style="fill:rgb(114,53,33);fill-rule:nonzero;"/>
                <path d="M619.141,396.6C619.715,396.996 620.502,396.847 620.906,396.272C621.305,395.692 621.164,394.904 620.592,394.509C620.019,394.116 619.23,394.264 618.832,394.84C618.428,395.415 618.568,396.204 619.141,396.6Z" style="fill:rgb(114,53,33);fill-rule:nonzero;"/>
                <path d="M646.232,383.033C646.401,383.148 646.635,383.104 646.753,382.934C646.871,382.764 646.832,382.53 646.66,382.412C646.492,382.295 646.258,382.339 646.14,382.508C646.021,382.681 646.061,382.915 646.232,383.033Z" style="fill:rgb(114,53,33);fill-rule:nonzero;"/>
                <path d="M647.369,339.737C647.533,339.349 647.352,338.912 646.976,338.757C646.595,338.601 646.159,338.79 645.998,339.18C645.837,339.567 646.014,340.008 646.392,340.159C646.772,340.315 647.21,340.125 647.369,339.737Z" style="fill:rgb(114,53,33);fill-rule:nonzero;"/>
                <path d="M654.157,326.066C653.885,325.871 653.51,325.934 653.315,326.204C653.12,326.477 653.184,326.852 653.454,327.047C653.725,327.241 654.104,327.179 654.294,326.906C654.49,326.633 654.427,326.259 654.157,326.066Z" style="fill:rgb(114,53,33);fill-rule:nonzero;"/>
                <path d="M584.532,387.695C584.5,388.032 584.746,388.323 585.077,388.346C585.404,388.371 585.698,388.122 585.726,387.783C585.754,387.447 585.512,387.157 585.182,387.135C584.852,387.11 584.563,387.36 584.532,387.695Z" style="fill:rgb(114,53,33);fill-rule:nonzero;"/>
                <path d="M566.769,369.876C566.68,370.882 567.408,371.755 568.398,371.829C569.388,371.904 570.26,371.148 570.347,370.141C570.434,369.136 569.705,368.262 568.716,368.187C567.727,368.117 566.855,368.872 566.769,369.876Z" style="fill:rgb(114,53,33);fill-rule:nonzero;"/>
                <path d="M622.015,390.202C621.926,391.207 622.656,392.083 623.644,392.155C624.632,392.231 625.505,391.474 625.591,390.467C625.681,389.461 624.949,388.588 623.961,388.514C622.972,388.443 622.102,389.197 622.015,390.202Z" style="fill:rgb(114,53,33);fill-rule:nonzero;"/>
                <path d="M559.518,412.723C559.467,413.308 559.893,413.819 560.47,413.862C561.047,413.903 561.554,413.462 561.604,412.878C561.655,412.29 561.23,411.781 560.655,411.735C560.077,411.694 559.57,412.135 559.518,412.723Z" style="fill:rgb(114,53,33);fill-rule:nonzero;"/>
                <path d="M579.566,404.502C579.537,404.835 579.779,405.129 580.107,405.151C580.438,405.176 580.729,404.925 580.758,404.59C580.787,404.255 580.544,403.963 580.212,403.94C579.885,403.914 579.594,404.168 579.566,404.502Z" style="fill:rgb(114,53,33);fill-rule:nonzero;"/>
                <path d="M573.315,399.287C573.284,399.62 573.529,399.912 573.859,399.937C574.188,399.961 574.479,399.71 574.507,399.372C574.537,399.038 574.293,398.747 573.965,398.724C573.636,398.697 573.345,398.95 573.315,399.287Z" style="fill:rgb(114,53,33);fill-rule:nonzero;"/>
                <path d="M586.722,426.692C586.521,426.855 586.468,427.154 586.6,427.359C586.733,427.562 587.003,427.593 587.202,427.425C587.398,427.262 587.455,426.961 587.323,426.758C587.192,426.555 586.922,426.525 586.722,426.692Z" style="fill:rgb(114,53,33);fill-rule:nonzero;"/>
                <path d="M569.874,415.797C569.858,415.965 569.981,416.112 570.146,416.123C570.31,416.135 570.455,416.009 570.472,415.842C570.486,415.674 570.361,415.528 570.198,415.516C570.033,415.503 569.888,415.63 569.874,415.797Z" style="fill:rgb(114,53,33);fill-rule:nonzero;"/>
                <path d="M554.354,384.588C554.326,384.925 554.567,385.216 554.897,385.239C555.227,385.266 555.517,385.012 555.547,384.676C555.576,384.344 555.332,384.051 555.003,384.025C554.675,384.002 554.383,384.254 554.354,384.588Z" style="fill:rgb(114,53,33);fill-rule:nonzero;"/>
                <path d="M594.079,423.173C593.815,423.395 593.743,423.794 593.92,424.064C594.097,424.337 594.454,424.376 594.72,424.157C594.987,423.935 595.06,423.538 594.884,423.265C594.706,422.994 594.348,422.953 594.079,423.173Z" style="fill:rgb(114,53,33);fill-rule:nonzero;"/>
                <path d="M620.31,343.796C620.43,343.395 620.206,342.976 619.813,342.864C619.42,342.75 619.004,342.984 618.884,343.385C618.764,343.789 618.987,344.204 619.38,344.317C619.771,344.431 620.19,344.197 620.31,343.796Z" style="fill:rgb(114,53,33);fill-rule:nonzero;"/>
                <path d="M598.441,410.587C598.811,410.388 598.99,409.914 598.844,409.53C598.695,409.145 598.271,408.995 597.905,409.193C597.536,409.391 597.355,409.865 597.504,410.249C597.652,410.634 598.073,410.786 598.441,410.587Z" style="fill:rgb(114,53,33);fill-rule:nonzero;"/>
                <path d="M630.169,347.628C630.268,347.219 630.025,346.814 629.625,346.722C629.23,346.628 628.823,346.885 628.724,347.29C628.629,347.701 628.869,348.103 629.269,348.199C629.669,348.29 630.071,348.034 630.169,347.628Z" style="fill:rgb(114,53,33);fill-rule:nonzero;"/>
                <path d="M612.596,333.061C612.716,332.662 612.496,332.244 612.101,332.129C611.711,332.016 611.292,332.25 611.171,332.649C611.053,333.054 611.274,333.469 611.666,333.584C612.06,333.697 612.476,333.465 612.596,333.061Z" style="fill:rgb(114,53,33);fill-rule:nonzero;"/>
                <path d="M634.908,398.96C635.278,398.762 635.454,398.287 635.307,397.903C635.158,397.519 634.738,397.368 634.369,397.567C633.997,397.767 633.82,398.237 633.97,398.624C634.119,399.007 634.535,399.161 634.908,398.96Z" style="fill:rgb(114,53,33);fill-rule:nonzero;"/>
                <path d="M628.576,330.225C628.699,329.823 628.475,329.406 628.083,329.292C627.686,329.177 627.271,329.411 627.152,329.813C627.033,330.215 627.253,330.632 627.648,330.745C628.041,330.861 628.458,330.626 628.576,330.225Z" style="fill:rgb(114,53,33);fill-rule:nonzero;"/>
                <path d="M623.329,402.205C623.698,402.006 623.876,401.532 623.729,401.15C623.58,400.765 623.16,400.612 622.792,400.811C622.423,401.01 622.243,401.483 622.393,401.866C622.54,402.254 622.961,402.404 623.329,402.205Z" style="fill:rgb(114,53,33);fill-rule:nonzero;"/>
                <path d="M584.828,413.433C585.192,413.234 585.374,412.759 585.226,412.375C585.079,411.988 584.658,411.84 584.289,412.039C583.92,412.239 583.74,412.71 583.888,413.096C584.036,413.48 584.457,413.63 584.828,413.433Z" style="fill:rgb(114,53,33);fill-rule:nonzero;"/>
                <path d="M630.984,410.198C630.769,410.375 630.708,410.701 630.852,410.922C630.998,411.142 631.29,411.173 631.505,410.996C631.722,410.816 631.779,410.494 631.636,410.27C631.494,410.054 631.201,410.019 630.984,410.198Z" style="fill:rgb(114,53,33);fill-rule:nonzero;"/>
                <path d="M546,373.212C546.118,372.808 545.898,372.391 545.506,372.276C545.111,372.164 544.692,372.4 544.577,372.8C544.455,373.203 544.678,373.62 545.07,373.733C545.465,373.849 545.882,373.612 546,373.212Z" style="fill:rgb(114,53,33);fill-rule:nonzero;"/>
                <path d="M657.076,335.442C657.438,334.239 656.769,332.987 655.592,332.645C654.408,332.308 653.162,333.008 652.802,334.211C652.441,335.415 653.105,336.671 654.286,337.01C655.466,337.351 656.715,336.648 657.076,335.442Z" style="fill:rgb(114,53,33);fill-rule:nonzero;"/>
                <path d="M541.264,354.122C541.24,354.395 541.44,354.631 541.706,354.651C541.975,354.67 542.212,354.466 542.233,354.194C542.257,353.92 542.06,353.684 541.791,353.662C541.524,353.644 541.288,353.849 541.264,354.122Z" style="fill:rgb(114,53,33);fill-rule:nonzero;"/>
                <path d="M656.61,356.765C656.688,357.173 657.073,357.437 657.481,357.355C657.891,357.273 658.153,356.876 658.078,356.468C658,356.061 657.613,355.798 657.204,355.876C656.799,355.96 656.533,356.357 656.61,356.765Z" style="fill:rgb(114,53,33);fill-rule:nonzero;"/>
                <path d="M643.354,340.199C643.149,339.841 642.691,339.718 642.337,339.929C641.979,340.14 641.859,340.601 642.068,340.961C642.275,341.321 642.731,341.442 643.088,341.231C643.443,341.019 643.563,340.56 643.354,340.199Z" style="fill:rgb(114,53,33);fill-rule:nonzero;"/>
                <path d="M653.608,356.826C653.419,356.454 652.971,356.313 652.604,356.503C652.235,356.696 652.091,357.15 652.281,357.519C652.47,357.888 652.919,358.034 653.285,357.841C653.653,357.653 653.798,357.196 653.608,356.826Z" style="fill:rgb(114,53,33);fill-rule:nonzero;"/>
            </g>
        </g>
    </g>
</svg>
