<?xml version="1.0" encoding="UTF-8" standalone="no"?>
<!DOCTYPE svg PUBLIC "-//W3C//DTD SVG 1.1//EN" "http://www.w3.org/Graphics/SVG/1.1/DTD/svg11.dtd">
<svg width="100%" height="100%" viewBox="0 0 456 418" version="1.1" xmlns="http://www.w3.org/2000/svg" xmlns:xlink="http://www.w3.org/1999/xlink" xml:space="preserve" xmlns:serif="http://www.serif.com/" style="fill-rule:evenodd;clip-rule:evenodd;stroke-linecap:round;stroke-linejoin:round;stroke-miterlimit:1.5;">
    <g transform="matrix(1,0,0,1,-2102.93,-2531.43)">
        <g transform="matrix(4.16667,0,0,4.16667,0,0)">
            <g>
                <g transform="matrix(0.342999,0,0,0.342999,-187.057,-322.502)">
                    <path d="M2039.02,2868.81C2051.09,2868.81 2060.89,2878.61 2060.89,2890.68C2060.89,2902.76 2051.09,2912.56 2039.02,2912.56C2026.94,2912.56 2017.14,2902.76 2017.14,2890.68C2017.14,2878.61 2026.94,2868.81 2039.02,2868.81ZM2039.02,2877.91C2045.52,2877.91 2050.79,2883.18 2050.79,2889.68C2050.79,2896.18 2045.52,2901.46 2039.02,2901.46C2032.52,2901.46 2027.24,2896.18 2027.24,2889.68C2027.24,2883.18 2032.52,2877.91 2039.02,2877.91Z" style="fill:url(#_Radial1);stroke:rgb(43,43,43);stroke-width:0.7px;"/>
                </g>
                <g transform="matrix(0.313947,0.0791163,-0.0791163,0.313947,124.174,-403.293)">
                    <path d="M2039.02,2868.81C2051.09,2868.81 2060.89,2878.61 2060.89,2890.68C2060.89,2902.76 2051.09,2912.56 2039.02,2912.56C2026.94,2912.56 2017.14,2902.76 2017.14,2890.68C2017.14,2878.61 2026.94,2868.81 2039.02,2868.81ZM2039.02,2877.91C2045.52,2877.91 2050.79,2883.18 2050.79,2889.68C2050.79,2896.18 2045.52,2901.46 2039.02,2901.46C2032.52,2901.46 2027.24,2896.18 2027.24,2889.68C2027.24,2883.18 2032.52,2877.91 2039.02,2877.91Z" style="fill:url(#_Radial2);stroke:rgb(43,43,43);stroke-width:0.74px;"/>
                </g>
                <g transform="matrix(-0.0649888,0.336786,-0.336786,-0.0649888,1666.4,170.15)">
                    <path d="M2039.02,2868.81C2051.09,2868.81 2060.89,2878.61 2060.89,2890.68C2060.89,2902.76 2051.09,2912.56 2039.02,2912.56C2026.94,2912.56 2017.14,2902.76 2017.14,2890.68C2017.14,2878.61 2026.94,2868.81 2039.02,2868.81ZM2039.02,2877.91C2045.52,2877.91 2050.79,2883.18 2050.79,2889.68C2050.79,2896.18 2045.52,2901.46 2039.02,2901.46C2032.52,2901.46 2027.24,2896.18 2027.24,2889.68C2027.24,2883.18 2032.52,2877.91 2039.02,2877.91Z" style="fill:url(#_Radial3);stroke:rgb(43,43,43);stroke-width:0.7px;"/>
                </g>
                <g transform="matrix(-0.0503982,-0.319815,0.319815,-0.0503982,-299.827,1485.64)">
                    <path d="M2039.02,2868.81C2051.09,2868.81 2060.89,2878.61 2060.89,2890.68C2060.89,2902.76 2051.09,2912.56 2039.02,2912.56C2026.94,2912.56 2017.14,2902.76 2017.14,2890.68C2017.14,2878.61 2026.94,2868.81 2039.02,2868.81ZM2039.02,2877.91C2045.52,2877.91 2050.79,2883.18 2050.79,2889.68C2050.79,2896.18 2045.52,2901.46 2039.02,2901.46C2032.52,2901.46 2027.24,2896.18 2027.24,2889.68C2027.24,2883.18 2032.52,2877.91 2039.02,2877.91Z" style="fill:url(#_Radial4);stroke:rgb(43,43,43);stroke-width:0.74px;"/>
                </g>
                <g transform="matrix(0.178025,0.270424,-0.270424,0.178025,966.053,-382.402)">
                    <path d="M2039.02,2868.81C2051.09,2868.81 2060.89,2878.61 2060.89,2890.68C2060.89,2902.76 2051.09,2912.56 2039.02,2912.56C2026.94,2912.56 2017.14,2902.76 2017.14,2890.68C2017.14,2878.61 2026.94,2868.81 2039.02,2868.81ZM2039.02,2877.91C2045.52,2877.91 2050.79,2883.18 2050.79,2889.68C2050.79,2896.18 2045.52,2901.46 2039.02,2901.46C2032.52,2901.46 2027.24,2896.18 2027.24,2889.68C2027.24,2883.18 2032.52,2877.91 2039.02,2877.91Z" style="fill:url(#_Radial5);stroke:rgb(43,43,43);stroke-width:0.74px;"/>
                </g>
                <g transform="matrix(-0.280757,0.197038,-0.197038,-0.280757,1706.2,1029.4)">
                    <path d="M2039.02,2868.81C2051.09,2868.81 2060.89,2878.61 2060.89,2890.68C2060.89,2902.76 2051.09,2912.56 2039.02,2912.56C2026.94,2912.56 2017.14,2902.76 2017.14,2890.68C2017.14,2878.61 2026.94,2868.81 2039.02,2868.81ZM2039.02,2877.91C2045.52,2877.91 2050.79,2883.18 2050.79,2889.68C2050.79,2896.18 2045.52,2901.46 2039.02,2901.46C2032.52,2901.46 2027.24,2896.18 2027.24,2889.68C2027.24,2883.18 2032.52,2877.91 2039.02,2877.91Z" style="fill:url(#_Radial6);stroke:rgb(43,43,43);stroke-width:0.7px;"/>
                </g>
                <g transform="matrix(-0.280757,0.197038,-0.197038,-0.280757,1669.33,1037.87)">
                    <path d="M2039.02,2868.81C2051.09,2868.81 2060.89,2878.61 2060.89,2890.68C2060.89,2902.76 2051.09,2912.56 2039.02,2912.56C2026.94,2912.56 2017.14,2902.76 2017.14,2890.68C2017.14,2878.61 2026.94,2868.81 2039.02,2868.81ZM2039.02,2877.91C2045.52,2877.91 2050.79,2883.18 2050.79,2889.68C2050.79,2896.18 2045.52,2901.46 2039.02,2901.46C2032.52,2901.46 2027.24,2896.18 2027.24,2889.68C2027.24,2883.18 2032.52,2877.91 2039.02,2877.91Z" style="fill:url(#_Radial7);stroke:rgb(43,43,43);stroke-width:0.7px;"/>
                </g>
                <g transform="matrix(-0.280757,0.197038,-0.197038,-0.280757,1724.33,1071.38)">
                    <path d="M2039.02,2868.81C2051.09,2868.81 2060.89,2878.61 2060.89,2890.68C2060.89,2902.76 2051.09,2912.56 2039.02,2912.56C2026.94,2912.56 2017.14,2902.76 2017.14,2890.68C2017.14,2878.61 2026.94,2868.81 2039.02,2868.81ZM2039.02,2877.91C2045.52,2877.91 2050.79,2883.18 2050.79,2889.68C2050.79,2896.18 2045.52,2901.46 2039.02,2901.46C2032.52,2901.46 2027.24,2896.18 2027.24,2889.68C2027.24,2883.18 2032.52,2877.91 2039.02,2877.91Z" style="fill:url(#_Radial8);stroke:rgb(43,43,43);stroke-width:0.7px;"/>
                </g>
                <g transform="matrix(-0.302425,0.115589,-0.115589,-0.302425,1502.45,1271.59)">
                    <path d="M2039.02,2868.81C2051.09,2868.81 2060.89,2878.61 2060.89,2890.68C2060.89,2902.76 2051.09,2912.56 2039.02,2912.56C2026.94,2912.56 2017.14,2902.76 2017.14,2890.68C2017.14,2878.61 2026.94,2868.81 2039.02,2868.81ZM2039.02,2877.91C2045.52,2877.91 2050.79,2883.18 2050.79,2889.68C2050.79,2896.18 2045.52,2901.46 2039.02,2901.46C2032.52,2901.46 2027.24,2896.18 2027.24,2889.68C2027.24,2883.18 2032.52,2877.91 2039.02,2877.91Z" style="fill:url(#_Radial9);stroke:rgb(43,43,43);stroke-width:0.74px;"/>
                </g>
                <g transform="matrix(-0.140273,-0.313005,0.313005,-0.140273,-100.371,1692.88)">
                    <path d="M2039.02,2868.81C2051.09,2868.81 2060.89,2878.61 2060.89,2890.68C2060.89,2902.76 2051.09,2912.56 2039.02,2912.56C2026.94,2912.56 2017.14,2902.76 2017.14,2890.68C2017.14,2878.61 2026.94,2868.81 2039.02,2868.81ZM2039.02,2877.91C2045.52,2877.91 2050.79,2883.18 2050.79,2889.68C2050.79,2896.18 2045.52,2901.46 2039.02,2901.46C2032.52,2901.46 2027.24,2896.18 2027.24,2889.68C2027.24,2883.18 2032.52,2877.91 2039.02,2877.91Z" style="fill:url(#_Radial10);stroke:rgb(43,43,43);stroke-width:0.7px;"/>
                </g>
                <g transform="matrix(0.224972,0.232829,-0.232829,0.224972,762.43,-510.322)">
                    <path d="M2039.02,2868.81C2051.09,2868.81 2060.89,2878.61 2060.89,2890.68C2060.89,2902.76 2051.09,2912.56 2039.02,2912.56C2026.94,2912.56 2017.14,2902.76 2017.14,2890.68C2017.14,2878.61 2026.94,2868.81 2039.02,2868.81ZM2039.02,2877.91C2045.52,2877.91 2050.79,2883.18 2050.79,2889.68C2050.79,2896.18 2045.52,2901.46 2039.02,2901.46C2032.52,2901.46 2027.24,2896.18 2027.24,2889.68C2027.24,2883.18 2032.52,2877.91 2039.02,2877.91Z" style="fill:url(#_Radial11);stroke:rgb(43,43,43);stroke-width:0.74px;"/>
                </g>
                <g transform="matrix(-0.301066,-0.119084,0.119084,-0.301066,817.798,1765.36)">
                    <path d="M2039.02,2868.81C2051.09,2868.81 2060.89,2878.61 2060.89,2890.68C2060.89,2902.76 2051.09,2912.56 2039.02,2912.56C2026.94,2912.56 2017.14,2902.76 2017.14,2890.68C2017.14,2878.61 2026.94,2868.81 2039.02,2868.81ZM2039.02,2877.91C2045.52,2877.91 2050.79,2883.18 2050.79,2889.68C2050.79,2896.18 2045.52,2901.46 2039.02,2901.46C2032.52,2901.46 2027.24,2896.18 2027.24,2889.68C2027.24,2883.18 2032.52,2877.91 2039.02,2877.91Z" style="fill:url(#_Radial12);stroke:rgb(43,43,43);stroke-width:0.74px;"/>
                </g>
                <g transform="matrix(0.342999,0,0,0.342999,-128.09,-349.209)">
                    <path d="M2039.02,2868.81C2051.09,2868.81 2060.89,2878.61 2060.89,2890.68C2060.89,2902.76 2051.09,2912.56 2039.02,2912.56C2026.94,2912.56 2017.14,2902.76 2017.14,2890.68C2017.14,2878.61 2026.94,2868.81 2039.02,2868.81ZM2039.02,2877.91C2045.52,2877.91 2050.79,2883.18 2050.79,2889.68C2050.79,2896.18 2045.52,2901.46 2039.02,2901.46C2032.52,2901.46 2027.24,2896.18 2027.24,2889.68C2027.24,2883.18 2032.52,2877.91 2039.02,2877.91Z" style="fill:url(#_Radial13);stroke:rgb(43,43,43);stroke-width:0.7px;"/>
                </g>
                <g transform="matrix(0.313947,0.0791163,-0.0791163,0.313947,195.423,-424.062)">
                    <path d="M2039.02,2868.81C2051.09,2868.81 2060.89,2878.61 2060.89,2890.68C2060.89,2902.76 2051.09,2912.56 2039.02,2912.56C2026.94,2912.56 2017.14,2902.76 2017.14,2890.68C2017.14,2878.61 2026.94,2868.81 2039.02,2868.81ZM2039.02,2877.91C2045.52,2877.91 2050.79,2883.18 2050.79,2889.68C2050.79,2896.18 2045.52,2901.46 2039.02,2901.46C2032.52,2901.46 2027.24,2896.18 2027.24,2889.68C2027.24,2883.18 2032.52,2877.91 2039.02,2877.91Z" style="fill:url(#_Radial14);stroke:rgb(43,43,43);stroke-width:0.74px;"/>
                </g>
                <g transform="matrix(0.313947,0.0791163,-0.0791163,0.313947,178.614,-426.476)">
                    <path d="M2039.02,2868.81C2051.09,2868.81 2060.89,2878.61 2060.89,2890.68C2060.89,2902.76 2051.09,2912.56 2039.02,2912.56C2026.94,2912.56 2017.14,2902.76 2017.14,2890.68C2017.14,2878.61 2026.94,2868.81 2039.02,2868.81ZM2039.02,2877.91C2045.52,2877.91 2050.79,2883.18 2050.79,2889.68C2050.79,2896.18 2045.52,2901.46 2039.02,2901.46C2032.52,2901.46 2027.24,2896.18 2027.24,2889.68C2027.24,2883.18 2032.52,2877.91 2039.02,2877.91Z" style="fill:url(#_Radial15);stroke:rgb(43,43,43);stroke-width:0.74px;"/>
                </g>
                <g transform="matrix(0.313947,0.0791163,-0.0791163,0.313947,190.291,-403.653)">
                    <path d="M2039.02,2868.81C2051.09,2868.81 2060.89,2878.61 2060.89,2890.68C2060.89,2902.76 2051.09,2912.56 2039.02,2912.56C2026.94,2912.56 2017.14,2902.76 2017.14,2890.68C2017.14,2878.61 2026.94,2868.81 2039.02,2868.81ZM2039.02,2877.91C2045.52,2877.91 2050.79,2883.18 2050.79,2889.68C2050.79,2896.18 2045.52,2901.46 2039.02,2901.46C2032.52,2901.46 2027.24,2896.18 2027.24,2889.68C2027.24,2883.18 2032.52,2877.91 2039.02,2877.91Z" style="fill:url(#_Radial16);stroke:rgb(43,43,43);stroke-width:0.74px;"/>
                </g>
                <g transform="matrix(0.313947,0.0791163,-0.0791163,0.313947,148.355,-368.401)">
                    <path d="M2039.02,2868.81C2051.09,2868.81 2060.89,2878.61 2060.89,2890.68C2060.89,2902.76 2051.09,2912.56 2039.02,2912.56C2026.94,2912.56 2017.14,2902.76 2017.14,2890.68C2017.14,2878.61 2026.94,2868.81 2039.02,2868.81ZM2039.02,2877.91C2045.52,2877.91 2050.79,2883.18 2050.79,2889.68C2050.79,2896.18 2045.52,2901.46 2039.02,2901.46C2032.52,2901.46 2027.24,2896.18 2027.24,2889.68C2027.24,2883.18 2032.52,2877.91 2039.02,2877.91Z" style="fill:url(#_Radial17);stroke:rgb(43,43,43);stroke-width:0.74px;"/>
                </g>
                <g transform="matrix(-0.0649888,0.336786,-0.336786,-0.0649888,1693.06,124.889)">
                    <path d="M2039.02,2868.81C2051.09,2868.81 2060.89,2878.61 2060.89,2890.68C2060.89,2902.76 2051.09,2912.56 2039.02,2912.56C2026.94,2912.56 2017.14,2902.76 2017.14,2890.68C2017.14,2878.61 2026.94,2868.81 2039.02,2868.81ZM2039.02,2877.91C2045.52,2877.91 2050.79,2883.18 2050.79,2889.68C2050.79,2896.18 2045.52,2901.46 2039.02,2901.46C2032.52,2901.46 2027.24,2896.18 2027.24,2889.68C2027.24,2883.18 2032.52,2877.91 2039.02,2877.91Z" style="fill:url(#_Radial18);stroke:rgb(43,43,43);stroke-width:0.7px;"/>
                </g>
                <g transform="matrix(-0.0503982,-0.319815,0.319815,-0.0503982,-248.07,1482.75)">
                    <path d="M2039.02,2868.81C2051.09,2868.81 2060.89,2878.61 2060.89,2890.68C2060.89,2902.76 2051.09,2912.56 2039.02,2912.56C2026.94,2912.56 2017.14,2902.76 2017.14,2890.68C2017.14,2878.61 2026.94,2868.81 2039.02,2868.81ZM2039.02,2877.91C2045.52,2877.91 2050.79,2883.18 2050.79,2889.68C2050.79,2896.18 2045.52,2901.46 2039.02,2901.46C2032.52,2901.46 2027.24,2896.18 2027.24,2889.68C2027.24,2883.18 2032.52,2877.91 2039.02,2877.91Z" style="fill:url(#_Radial19);stroke:rgb(43,43,43);stroke-width:0.74px;"/>
                </g>
                <g transform="matrix(0.178025,0.270424,-0.270424,0.178025,1012.75,-383.616)">
                    <path d="M2039.02,2868.81C2051.09,2868.81 2060.89,2878.61 2060.89,2890.68C2060.89,2902.76 2051.09,2912.56 2039.02,2912.56C2026.94,2912.56 2017.14,2902.76 2017.14,2890.68C2017.14,2878.61 2026.94,2868.81 2039.02,2868.81ZM2039.02,2877.91C2045.52,2877.91 2050.79,2883.18 2050.79,2889.68C2050.79,2896.18 2045.52,2901.46 2039.02,2901.46C2032.52,2901.46 2027.24,2896.18 2027.24,2889.68C2027.24,2883.18 2032.52,2877.91 2039.02,2877.91Z" style="fill:url(#_Radial20);stroke:rgb(43,43,43);stroke-width:0.74px;"/>
                </g>
                <g transform="matrix(0.230851,-0.227001,0.227001,0.230851,-541.089,492.967)">
                    <path d="M2039.02,2868.81C2051.09,2868.81 2060.89,2878.61 2060.89,2890.68C2060.89,2902.76 2051.09,2912.56 2039.02,2912.56C2026.94,2912.56 2017.14,2902.76 2017.14,2890.68C2017.14,2878.61 2026.94,2868.81 2039.02,2868.81ZM2039.02,2877.91C2045.52,2877.91 2050.79,2883.18 2050.79,2889.68C2050.79,2896.18 2045.52,2901.46 2039.02,2901.46C2032.52,2901.46 2027.24,2896.18 2027.24,2889.68C2027.24,2883.18 2032.52,2877.91 2039.02,2877.91Z" style="fill:url(#_Radial21);stroke:rgb(43,43,43);stroke-width:0.74px;"/>
                </g>
                <g transform="matrix(-0.00253948,-0.323752,0.323752,-0.00253948,-391.777,1366.83)">
                    <path d="M2039.02,2868.81C2051.09,2868.81 2060.89,2878.61 2060.89,2890.68C2060.89,2902.76 2051.09,2912.56 2039.02,2912.56C2026.94,2912.56 2017.14,2902.76 2017.14,2890.68C2017.14,2878.61 2026.94,2868.81 2039.02,2868.81ZM2039.02,2877.91C2045.52,2877.91 2050.79,2883.18 2050.79,2889.68C2050.79,2896.18 2045.52,2901.46 2039.02,2901.46C2032.52,2901.46 2027.24,2896.18 2027.24,2889.68C2027.24,2883.18 2032.52,2877.91 2039.02,2877.91Z" style="fill:url(#_Radial22);stroke:rgb(43,43,43);stroke-width:0.74px;"/>
                </g>
            </g>
        </g>
    </g>
    <defs>
        <radialGradient id="_Radial1" cx="0" cy="0" r="1" gradientUnits="userSpaceOnUse" gradientTransform="matrix(21.6834,-0.00211418,0.00211418,21.6834,2039.4,2890.76)"><stop offset="0" style="stop-color:rgb(86,86,86);stop-opacity:1"/><stop offset="0.44" style="stop-color:rgb(98,98,98);stop-opacity:1"/><stop offset="1" style="stop-color:rgb(42,42,42);stop-opacity:1"/></radialGradient>
        <radialGradient id="_Radial2" cx="0" cy="0" r="1" gradientUnits="userSpaceOnUse" gradientTransform="matrix(21.6834,-0.00211418,0.00211418,21.6834,2039.4,2890.76)"><stop offset="0" style="stop-color:rgb(86,86,86);stop-opacity:1"/><stop offset="0.44" style="stop-color:rgb(98,98,98);stop-opacity:1"/><stop offset="1" style="stop-color:rgb(42,42,42);stop-opacity:1"/></radialGradient>
        <radialGradient id="_Radial3" cx="0" cy="0" r="1" gradientUnits="userSpaceOnUse" gradientTransform="matrix(21.6834,-0.00211418,0.00211418,21.6834,2039.4,2890.76)"><stop offset="0" style="stop-color:rgb(86,86,86);stop-opacity:1"/><stop offset="0.44" style="stop-color:rgb(98,98,98);stop-opacity:1"/><stop offset="1" style="stop-color:rgb(42,42,42);stop-opacity:1"/></radialGradient>
        <radialGradient id="_Radial4" cx="0" cy="0" r="1" gradientUnits="userSpaceOnUse" gradientTransform="matrix(21.6834,-0.00211418,0.00211418,21.6834,2039.4,2890.76)"><stop offset="0" style="stop-color:rgb(86,86,86);stop-opacity:1"/><stop offset="0.44" style="stop-color:rgb(98,98,98);stop-opacity:1"/><stop offset="1" style="stop-color:rgb(42,42,42);stop-opacity:1"/></radialGradient>
        <radialGradient id="_Radial5" cx="0" cy="0" r="1" gradientUnits="userSpaceOnUse" gradientTransform="matrix(21.6834,-0.00211418,0.00211418,21.6834,2039.4,2890.76)"><stop offset="0" style="stop-color:rgb(86,86,86);stop-opacity:1"/><stop offset="0.44" style="stop-color:rgb(98,98,98);stop-opacity:1"/><stop offset="1" style="stop-color:rgb(42,42,42);stop-opacity:1"/></radialGradient>
        <radialGradient id="_Radial6" cx="0" cy="0" r="1" gradientUnits="userSpaceOnUse" gradientTransform="matrix(21.6834,-0.00211418,0.00211418,21.6834,2039.4,2890.76)"><stop offset="0" style="stop-color:rgb(86,86,86);stop-opacity:1"/><stop offset="0.44" style="stop-color:rgb(98,98,98);stop-opacity:1"/><stop offset="1" style="stop-color:rgb(42,42,42);stop-opacity:1"/></radialGradient>
        <radialGradient id="_Radial7" cx="0" cy="0" r="1" gradientUnits="userSpaceOnUse" gradientTransform="matrix(21.6834,-0.00211418,0.00211418,21.6834,2039.4,2890.76)"><stop offset="0" style="stop-color:rgb(86,86,86);stop-opacity:1"/><stop offset="0.44" style="stop-color:rgb(98,98,98);stop-opacity:1"/><stop offset="1" style="stop-color:rgb(42,42,42);stop-opacity:1"/></radialGradient>
        <radialGradient id="_Radial8" cx="0" cy="0" r="1" gradientUnits="userSpaceOnUse" gradientTransform="matrix(21.6834,-0.00211418,0.00211418,21.6834,2039.4,2890.76)"><stop offset="0" style="stop-color:rgb(86,86,86);stop-opacity:1"/><stop offset="0.44" style="stop-color:rgb(98,98,98);stop-opacity:1"/><stop offset="1" style="stop-color:rgb(42,42,42);stop-opacity:1"/></radialGradient>
        <radialGradient id="_Radial9" cx="0" cy="0" r="1" gradientUnits="userSpaceOnUse" gradientTransform="matrix(21.6834,-0.00211418,0.00211418,21.6834,2039.4,2890.76)"><stop offset="0" style="stop-color:rgb(86,86,86);stop-opacity:1"/><stop offset="0.44" style="stop-color:rgb(98,98,98);stop-opacity:1"/><stop offset="1" style="stop-color:rgb(42,42,42);stop-opacity:1"/></radialGradient>
        <radialGradient id="_Radial10" cx="0" cy="0" r="1" gradientUnits="userSpaceOnUse" gradientTransform="matrix(21.6834,-0.00211418,0.00211418,21.6834,2039.4,2890.76)"><stop offset="0" style="stop-color:rgb(86,86,86);stop-opacity:1"/><stop offset="0.44" style="stop-color:rgb(98,98,98);stop-opacity:1"/><stop offset="1" style="stop-color:rgb(42,42,42);stop-opacity:1"/></radialGradient>
        <radialGradient id="_Radial11" cx="0" cy="0" r="1" gradientUnits="userSpaceOnUse" gradientTransform="matrix(21.6834,-0.00211418,0.00211418,21.6834,2039.4,2890.76)"><stop offset="0" style="stop-color:rgb(86,86,86);stop-opacity:1"/><stop offset="0.44" style="stop-color:rgb(98,98,98);stop-opacity:1"/><stop offset="1" style="stop-color:rgb(42,42,42);stop-opacity:1"/></radialGradient>
        <radialGradient id="_Radial12" cx="0" cy="0" r="1" gradientUnits="userSpaceOnUse" gradientTransform="matrix(21.6834,-0.00211418,0.00211418,21.6834,2039.4,2890.76)"><stop offset="0" style="stop-color:rgb(86,86,86);stop-opacity:1"/><stop offset="0.44" style="stop-color:rgb(98,98,98);stop-opacity:1"/><stop offset="1" style="stop-color:rgb(42,42,42);stop-opacity:1"/></radialGradient>
        <radialGradient id="_Radial13" cx="0" cy="0" r="1" gradientUnits="userSpaceOnUse" gradientTransform="matrix(21.6834,-0.00211418,0.00211418,21.6834,2039.4,2890.76)"><stop offset="0" style="stop-color:rgb(86,86,86);stop-opacity:1"/><stop offset="0.44" style="stop-color:rgb(98,98,98);stop-opacity:1"/><stop offset="1" style="stop-color:rgb(42,42,42);stop-opacity:1"/></radialGradient>
        <radialGradient id="_Radial14" cx="0" cy="0" r="1" gradientUnits="userSpaceOnUse" gradientTransform="matrix(21.6834,-0.00211418,0.00211418,21.6834,2039.4,2890.76)"><stop offset="0" style="stop-color:rgb(86,86,86);stop-opacity:1"/><stop offset="0.44" style="stop-color:rgb(98,98,98);stop-opacity:1"/><stop offset="1" style="stop-color:rgb(42,42,42);stop-opacity:1"/></radialGradient>
        <radialGradient id="_Radial15" cx="0" cy="0" r="1" gradientUnits="userSpaceOnUse" gradientTransform="matrix(21.6834,-0.00211418,0.00211418,21.6834,2039.4,2890.76)"><stop offset="0" style="stop-color:rgb(86,86,86);stop-opacity:1"/><stop offset="0.44" style="stop-color:rgb(98,98,98);stop-opacity:1"/><stop offset="1" style="stop-color:rgb(42,42,42);stop-opacity:1"/></radialGradient>
        <radialGradient id="_Radial16" cx="0" cy="0" r="1" gradientUnits="userSpaceOnUse" gradientTransform="matrix(21.6834,-0.00211418,0.00211418,21.6834,2039.4,2890.76)"><stop offset="0" style="stop-color:rgb(86,86,86);stop-opacity:1"/><stop offset="0.44" style="stop-color:rgb(98,98,98);stop-opacity:1"/><stop offset="1" style="stop-color:rgb(42,42,42);stop-opacity:1"/></radialGradient>
        <radialGradient id="_Radial17" cx="0" cy="0" r="1" gradientUnits="userSpaceOnUse" gradientTransform="matrix(21.6834,-0.00211418,0.00211418,21.6834,2039.4,2890.76)"><stop offset="0" style="stop-color:rgb(86,86,86);stop-opacity:1"/><stop offset="0.44" style="stop-color:rgb(98,98,98);stop-opacity:1"/><stop offset="1" style="stop-color:rgb(42,42,42);stop-opacity:1"/></radialGradient>
        <radialGradient id="_Radial18" cx="0" cy="0" r="1" gradientUnits="userSpaceOnUse" gradientTransform="matrix(21.6834,-0.00211418,0.00211418,21.6834,2039.4,2890.76)"><stop offset="0" style="stop-color:rgb(86,86,86);stop-opacity:1"/><stop offset="0.44" style="stop-color:rgb(98,98,98);stop-opacity:1"/><stop offset="1" style="stop-color:rgb(42,42,42);stop-opacity:1"/></radialGradient>
        <radialGradient id="_Radial19" cx="0" cy="0" r="1" gradientUnits="userSpaceOnUse" gradientTransform="matrix(21.6834,-0.00211418,0.00211418,21.6834,2039.4,2890.76)"><stop offset="0" style="stop-color:rgb(86,86,86);stop-opacity:1"/><stop offset="0.44" style="stop-color:rgb(98,98,98);stop-opacity:1"/><stop offset="1" style="stop-color:rgb(42,42,42);stop-opacity:1"/></radialGradient>
        <radialGradient id="_Radial20" cx="0" cy="0" r="1" gradientUnits="userSpaceOnUse" gradientTransform="matrix(21.6834,-0.00211418,0.00211418,21.6834,2039.4,2890.76)"><stop offset="0" style="stop-color:rgb(86,86,86);stop-opacity:1"/><stop offset="0.44" style="stop-color:rgb(98,98,98);stop-opacity:1"/><stop offset="1" style="stop-color:rgb(42,42,42);stop-opacity:1"/></radialGradient>
        <radialGradient id="_Radial21" cx="0" cy="0" r="1" gradientUnits="userSpaceOnUse" gradientTransform="matrix(21.6834,-0.00211418,0.00211418,21.6834,2039.4,2890.76)"><stop offset="0" style="stop-color:rgb(86,86,86);stop-opacity:1"/><stop offset="0.44" style="stop-color:rgb(98,98,98);stop-opacity:1"/><stop offset="1" style="stop-color:rgb(42,42,42);stop-opacity:1"/></radialGradient>
        <radialGradient id="_Radial22" cx="0" cy="0" r="1" gradientUnits="userSpaceOnUse" gradientTransform="matrix(21.6834,-0.00211418,0.00211418,21.6834,2039.4,2890.76)"><stop offset="0" style="stop-color:rgb(86,86,86);stop-opacity:1"/><stop offset="0.44" style="stop-color:rgb(98,98,98);stop-opacity:1"/><stop offset="1" style="stop-color:rgb(42,42,42);stop-opacity:1"/></radialGradient>
    </defs>
</svg>
