<?xml version="1.0" encoding="UTF-8" standalone="no"?>
<!DOCTYPE svg PUBLIC "-//W3C//DTD SVG 1.1//EN" "http://www.w3.org/Graphics/SVG/1.1/DTD/svg11.dtd">
<svg width="100%" height="100%" viewBox="0 0 506 517" version="1.1" xmlns="http://www.w3.org/2000/svg" xmlns:xlink="http://www.w3.org/1999/xlink" xml:space="preserve" xmlns:serif="http://www.serif.com/" style="fill-rule:evenodd;clip-rule:evenodd;stroke-linejoin:round;stroke-miterlimit:2;">
    <g transform="matrix(1,0,0,1,-1028.93,-1842.99)">
        <g transform="matrix(4.16667,0,0,4.16667,0,0)">
            <g transform="matrix(1,0,0,1,-601.539,130.187)">
                <path d="M939.252,334.9C934.625,329.867 927.278,329.175 921.973,334.123C921.83,334.255 921.691,334.389 921.559,334.526L922.16,335.056C926.726,331.201 934.595,331.203 939.114,336.118C939.219,336.232 939.318,336.35 939.418,336.467L940.063,335.875C939.809,335.542 939.542,335.215 939.252,334.9Z" style="fill:rgb(222,82,110);fill-rule:nonzero;"/>
                <path d="M939.371,335.167C934.744,330.135 927.24,329.545 922.092,334.39C921.949,334.523 921.812,334.657 921.678,334.794L922.28,335.324C926.846,331.468 934.714,331.47 939.233,336.385C939.339,336.5 939.437,336.617 939.538,336.734L940.182,336.141C939.929,335.81 939.662,335.482 939.371,335.167Z" style="fill:rgb(164,59,80);fill-rule:nonzero;"/>
                <path d="M939.162,335.422C934.269,330.645 926.81,330.354 922.496,334.77C922.362,334.909 922.232,335.051 922.107,335.195L922.735,335.692C927.412,331.202 934.744,331.797 939.521,336.791L940.024,336.351C939.753,336.032 939.47,335.721 939.162,335.422Z" style="fill:rgb(243,184,195);fill-rule:nonzero;"/>
                <path d="M922.514,335.486L922.735,335.692C927.412,331.202 934.744,331.797 939.521,336.791L939.723,336.616C934.348,331.619 927.155,331.161 922.514,335.486Z" style="fill:rgb(222,82,110);fill-rule:nonzero;"/>
                <path d="M934.72,333.541C934.479,333.438 934.237,333.344 933.993,333.258C934.231,333.336 934.468,333.422 934.702,333.514L934.72,333.541Z" style="fill:rgb(249,220,226);fill-rule:nonzero;"/>
                <path d="M927.081,331.51L926.981,331.357C928.046,331.015 929.134,330.848 930.218,330.848C931.239,330.848 932.256,330.996 933.242,331.286L933.361,331.468C932.354,331.195 931.321,331.057 930.286,331.057C929.21,331.057 928.133,331.206 927.081,331.51Z" style="fill:rgb(238,99,138);fill-rule:nonzero;"/>
                <path d="M933.853,332.218C932.633,331.833 931.382,331.64 930.149,331.64C929.21,331.64 928.282,331.752 927.386,331.977L927.081,331.51C928.133,331.206 929.21,331.057 930.286,331.057C931.321,331.057 932.354,331.195 933.361,331.468L933.853,332.218Z" style="fill:rgb(206,73,101);fill-rule:nonzero;"/>
                <path d="M934.622,333.392C933.114,332.818 931.573,332.53 930.067,332.53C929.329,332.53 928.599,332.599 927.885,332.738L927.386,331.977C928.282,331.752 929.21,331.64 930.149,331.64C931.382,331.64 932.633,331.833 933.853,332.218L934.622,333.392Z" style="fill:rgb(250,202,212);fill-rule:nonzero;"/>
                <path d="M934.702,333.514C934.468,333.422 934.231,333.336 933.993,333.258C932.787,332.834 931.543,332.619 930.311,332.619C929.525,332.619 928.743,332.707 927.98,332.884L927.885,332.738C928.599,332.599 929.329,332.53 930.067,332.53C931.573,332.53 933.114,332.818 934.622,333.392L934.702,333.514Z" style="fill:rgb(238,99,138);fill-rule:nonzero;"/>
                <path d="M862.53,401.282C861.314,408.009 865.198,414.282 872.348,415.524C872.539,415.558 872.728,415.587 872.919,415.61L872.978,414.81C867.147,413.499 862.397,407.226 863.585,400.656C863.613,400.503 863.646,400.353 863.68,400.203L862.818,400.047C862.707,400.45 862.608,400.86 862.53,401.282Z" style="fill:rgb(222,82,110);fill-rule:nonzero;"/>
                <path d="M862.673,401.025C861.455,407.752 865.517,414.088 872.488,415.267C872.68,415.3 872.869,415.329 873.06,415.353L873.119,414.554C867.288,413.243 862.538,406.97 863.725,400.401C863.753,400.247 863.787,400.097 863.819,399.947L862.959,399.791C862.848,400.194 862.748,400.604 862.673,401.025Z" style="fill:rgb(164,59,80);fill-rule:nonzero;"/>
                <path d="M863.001,401.038C862.148,407.823 866.422,413.945 872.547,414.715C872.738,414.738 872.931,414.756 873.121,414.768L873.138,413.968C866.734,412.951 862.781,406.748 863.875,399.925L863.221,399.79C863.131,400.199 863.055,400.613 863.001,401.038Z" style="fill:rgb(243,184,195);fill-rule:nonzero;"/>
                <path d="M873.107,414.269L873.138,413.968C866.734,412.951 862.781,406.748 863.875,399.925L863.614,399.87C862.878,407.173 866.856,413.183 873.107,414.269Z" style="fill:rgb(222,82,110);fill-rule:nonzero;"/>
                <path d="M864.384,406.421C864.308,406.199 864.238,405.973 864.174,405.744L864.185,405.716C864.244,405.954 864.311,406.19 864.384,406.421Z" style="fill:rgb(249,220,226);fill-rule:nonzero;"/>
                <path d="M867.119,413.202C865.339,411.955 864.031,410.236 863.279,408.254L863.352,408.049C864.15,410.02 865.456,411.743 867.18,413.031L867.119,413.202Z" style="fill:rgb(238,99,138);fill-rule:nonzero;"/>
                <path d="M867.18,413.031C865.456,411.743 864.15,410.02 863.352,408.049L863.654,407.205C864.411,409.327 865.701,411.168 867.368,412.505L867.18,413.031Z" style="fill:rgb(206,73,101);fill-rule:nonzero;"/>
                <path d="M867.368,412.505C865.701,411.168 864.411,409.327 863.654,407.205L864.125,405.883C864.801,408.19 866.025,410.173 867.673,411.648L867.368,412.505Z" style="fill:rgb(250,202,212);fill-rule:nonzero;"/>
                <path d="M867.673,411.648C866.025,410.173 864.801,408.19 864.125,405.883L864.174,405.744C864.238,405.973 864.308,406.199 864.384,406.421C865.021,408.433 866.175,410.188 867.732,411.483L867.673,411.648Z" style="fill:rgb(238,99,138);fill-rule:nonzero;"/>
                <path d="M933.205,323.8C926.995,320.942 919.95,323.137 916.962,329.749C916.883,329.926 916.806,330.102 916.737,330.281L917.496,330.537C920.221,325.219 927.481,322.186 933.548,324.977C933.688,325.042 933.825,325.112 933.963,325.181L934.328,324.387C933.966,324.178 933.594,323.979 933.205,323.8Z" style="fill:rgb(222,82,110);fill-rule:nonzero;"/>
                <path d="M933.419,324.001C927.208,321.142 920.058,323.493 917.177,329.949C917.097,330.127 917.021,330.303 916.951,330.481L917.709,330.738C920.435,325.419 927.695,322.386 933.761,325.178C933.902,325.243 934.039,325.313 934.177,325.382L934.542,324.586C934.181,324.378 933.807,324.18 933.419,324.001Z" style="fill:rgb(164,59,80);fill-rule:nonzero;"/>
                <path d="M933.324,324.316C926.967,321.796 919.972,324.405 917.697,330.143C917.627,330.323 917.56,330.505 917.5,330.686L918.272,330.903C920.855,324.956 927.85,322.676 934.184,325.44L934.476,324.841C934.103,324.651 933.723,324.473 933.324,324.316Z" style="fill:rgb(243,184,195);fill-rule:nonzero;"/>
                <path d="M917.987,330.798L918.272,330.903C920.855,324.956 927.85,322.676 934.184,325.44L934.3,325.202C927.413,322.665 920.601,325.016 917.987,330.798Z" style="fill:rgb(222,82,110);fill-rule:nonzero;"/>
                <path d="M927.71,324.315C927.962,324.294 928.217,324.282 928.472,324.277L928.499,324.295L928.4,324.295C928.169,324.295 927.938,324.301 927.71,324.315Z" style="fill:rgb(249,220,226);fill-rule:nonzero;"/>
                <path d="M920.668,325.367L920.518,325.265C922.169,323.853 924.16,323.017 926.267,322.784L926.446,322.905C924.339,323.185 922.345,324.02 920.668,325.367Z" style="fill:rgb(238,99,138);fill-rule:nonzero;"/>
                <path d="M921.13,325.68L920.668,325.367C922.345,324.02 924.339,323.185 926.446,322.905L927.188,323.408C924.944,323.611 922.841,324.4 921.13,325.68Z" style="fill:rgb(206,73,101);fill-rule:nonzero;"/>
                <path d="M921.883,326.19L921.13,325.68C922.841,324.4 924.944,323.611 927.188,323.408L928.351,324.195C925.949,324.273 923.723,324.962 921.883,326.19Z" style="fill:rgb(250,202,212);fill-rule:nonzero;"/>
                <path d="M922.028,326.288L921.883,326.19C923.723,324.962 925.949,324.273 928.351,324.195L928.472,324.277C928.217,324.282 927.962,324.294 927.71,324.315C925.623,324.437 923.656,325.116 922.028,326.288Z" style="fill:rgb(238,99,138);fill-rule:nonzero;"/>
                <path d="M892.813,312.251C886.037,311.351 879.953,315.526 879.048,322.725C879.023,322.918 879.002,323.108 878.989,323.299L879.789,323.321C880.825,317.435 886.869,312.395 893.487,313.274C893.642,313.295 893.793,313.322 893.945,313.347L894.061,312.48C893.652,312.388 893.238,312.308 892.813,312.251Z" style="fill:rgb(222,82,110);fill-rule:nonzero;"/>
                <path d="M893.076,312.379C886.299,311.479 880.16,315.834 879.31,322.854C879.287,323.046 879.266,323.237 879.252,323.428L880.053,323.45C881.089,317.563 887.133,312.524 893.75,313.403C893.905,313.424 894.057,313.45 894.207,313.476L894.323,312.608C893.915,312.515 893.501,312.435 893.076,312.379Z" style="fill:rgb(164,59,80);fill-rule:nonzero;"/>
                <path d="M893.079,312.709C886.262,312.175 880.347,316.731 879.864,322.885C879.852,323.079 879.842,323.27 879.838,323.462L880.64,323.441C881.353,316.997 887.364,312.756 894.232,313.53L894.336,312.87C893.923,312.799 893.507,312.742 893.079,312.709Z" style="fill:rgb(243,184,195);fill-rule:nonzero;"/>
                <path d="M880.336,323.425L880.64,323.441C881.353,316.997 887.364,312.756 894.232,313.53L894.273,313.267C886.944,312.874 881.129,317.13 880.336,323.425Z" style="fill:rgb(222,82,110);fill-rule:nonzero;"/>
                <path d="M881.296,317.445L881.122,317.392C882.284,315.556 883.94,314.17 885.884,313.326L886.091,313.389C884.16,314.277 882.501,315.663 881.296,317.445Z" style="fill:rgb(238,99,138);fill-rule:nonzero;"/>
                <path d="M881.83,317.608L881.296,317.445C882.501,315.663 884.16,314.277 886.091,313.389L886.949,313.65C884.864,314.507 883.087,315.88 881.83,317.608Z" style="fill:rgb(206,73,101);fill-rule:nonzero;"/>
                <path d="M882.7,317.873L881.83,317.608C883.087,315.88 884.864,314.507 886.949,313.65L888.292,314.059C886.019,314.842 884.096,316.158 882.7,317.873Z" style="fill:rgb(250,202,212);fill-rule:nonzero;"/>
                <path d="M887.726,314.359C887.957,314.266 888.193,314.181 888.431,314.102L888.462,314.111C888.212,314.186 887.967,314.268 887.726,314.359Z" style="fill:rgb(249,220,226);fill-rule:nonzero;"/>
                <path d="M882.867,317.924L882.7,317.873C884.096,316.158 886.019,314.842 888.292,314.059L888.431,314.102C888.193,314.181 887.957,314.266 887.726,314.359C885.764,315.091 884.079,316.32 882.867,317.924Z" style="fill:rgb(238,99,138);fill-rule:nonzero;"/>
                <path d="M875.687,336.957C870.451,332.562 863.077,332.822 858.451,338.412C858.327,338.562 858.207,338.711 858.094,338.865L858.758,339.313C862.789,334.901 870.593,333.89 875.708,338.183C875.826,338.283 875.94,338.387 876.055,338.49L876.617,337.82C876.322,337.523 876.016,337.233 875.687,336.957Z" style="fill:rgb(222,82,110);fill-rule:nonzero;"/>
                <path d="M875.84,337.206C870.604,332.812 863.087,333.194 858.604,338.662C858.481,338.811 858.361,338.961 858.247,339.115L858.91,339.563C862.942,335.151 870.746,334.141 875.861,338.432C875.98,338.532 876.093,338.636 876.207,338.739L876.77,338.068C876.476,337.773 876.169,337.482 875.84,337.206Z" style="fill:rgb(164,59,80);fill-rule:nonzero;"/>
                <path d="M875.666,337.486C870.199,333.379 862.763,334.051 859.055,338.986C858.939,339.142 858.828,339.299 858.723,339.458L859.41,339.871C863.471,334.815 870.818,334.461 876.199,338.797L876.639,338.296C876.33,338.015 876.009,337.744 875.666,337.486Z" style="fill:rgb(243,184,195);fill-rule:nonzero;"/>
                <path d="M859.163,339.694L859.41,339.871C863.471,334.815 870.818,334.461 876.199,338.797L876.375,338.599C870.4,334.335 863.209,334.806 859.163,339.694Z" style="fill:rgb(222,82,110);fill-rule:nonzero;"/>
                <path d="M871.018,336.193C870.765,336.122 870.511,336.059 870.257,336.005C870.504,336.052 870.75,336.106 870.997,336.168L871.018,336.193Z" style="fill:rgb(249,220,226);fill-rule:nonzero;"/>
                <path d="M863.181,335.162L863.063,335.024C864.501,334.346 866.034,334.014 867.573,334.014C868.137,334.014 868.702,334.058 869.263,334.147L869.404,334.312C868.873,334.24 868.34,334.204 867.807,334.204C866.228,334.204 864.657,334.522 863.181,335.162Z" style="fill:rgb(238,99,138);fill-rule:nonzero;"/>
                <path d="M863.544,335.586L863.181,335.162C864.657,334.522 866.228,334.204 867.807,334.204C868.34,334.204 868.873,334.24 869.404,334.312L869.988,334.993C869.254,334.862 868.517,334.796 867.788,334.796C866.315,334.796 864.874,335.062 863.544,335.586Z" style="fill:rgb(206,73,101);fill-rule:nonzero;"/>
                <path d="M864.136,336.277L863.544,335.586C864.874,335.062 866.315,334.796 867.788,334.796C868.517,334.796 869.254,334.862 869.988,334.993L870.902,336.058C869.871,335.812 868.842,335.689 867.833,335.689C866.555,335.689 865.309,335.886 864.136,336.277Z" style="fill:rgb(250,202,212);fill-rule:nonzero;"/>
                <path d="M864.25,336.41L864.136,336.277C865.309,335.886 866.555,335.689 867.833,335.689C868.842,335.689 869.871,335.812 870.902,336.058L870.997,336.168C870.75,336.106 870.504,336.052 870.257,336.005C869.477,335.84 868.692,335.758 867.915,335.758C866.654,335.758 865.414,335.975 864.25,336.41Z" style="fill:rgb(238,99,138);fill-rule:nonzero;"/>
                <path d="M929.377,427.579C936.182,426.921 941.164,421.479 940.416,414.261C940.396,414.067 940.374,413.877 940.344,413.687L939.559,413.849C939.882,419.816 935.135,426.092 928.488,426.733C928.334,426.748 928.181,426.756 928.027,426.766L928.11,427.638C928.528,427.635 928.95,427.619 929.377,427.579Z" style="fill:rgb(222,82,110);fill-rule:nonzero;"/>
                <path d="M929.092,427.512C935.897,426.856 940.891,421.225 940.131,414.196C940.109,414.003 940.087,413.812 940.058,413.623L939.272,413.783C939.595,419.75 934.848,426.027 928.203,426.668C928.049,426.682 927.894,426.691 927.742,426.701L927.825,427.571C928.243,427.569 928.665,427.554 929.092,427.512Z" style="fill:rgb(164,59,80);fill-rule:nonzero;"/>
                <path d="M929.015,427.192C935.775,426.169 940.507,420.393 939.584,414.29C939.554,414.099 939.52,413.91 939.479,413.722L938.704,413.923C939.466,420.361 934.57,425.852 927.706,426.654L927.754,427.319C928.171,427.296 928.591,427.256 929.015,427.192Z" style="fill:rgb(243,184,195);fill-rule:nonzero;"/>
                <path d="M939.003,413.871L938.704,413.923C939.466,420.361 934.57,425.852 927.706,426.654L927.724,426.918C934.952,425.643 939.655,420.182 939.003,413.871Z" style="fill:rgb(222,82,110);fill-rule:nonzero;"/>
                <path d="M935.884,424.963L935.668,424.949C937.347,423.646 938.65,421.921 939.421,419.912L939.602,419.925C938.886,421.976 937.586,423.7 935.884,424.963Z" style="fill:rgb(238,99,138);fill-rule:nonzero;"/>
                <path d="M935.668,424.949L934.773,424.888C936.61,423.582 938.03,421.842 938.864,419.875L939.421,419.912C938.65,421.921 937.347,423.646 935.668,424.949Z" style="fill:rgb(206,73,101);fill-rule:nonzero;"/>
                <path d="M933.226,424.783L933.194,424.781C933.421,424.651 933.643,424.515 933.859,424.371C933.653,424.514 933.442,424.652 933.226,424.783Z" style="fill:rgb(249,220,226);fill-rule:nonzero;"/>
                <path d="M934.773,424.888L933.372,424.793C935.408,423.516 936.985,421.8 937.956,419.813L938.864,419.875C938.03,421.842 936.61,423.582 934.773,424.888Z" style="fill:rgb(250,202,212);fill-rule:nonzero;"/>
                <path d="M933.372,424.793L933.226,424.783C933.442,424.652 933.653,424.514 933.859,424.371C935.604,423.214 936.964,421.637 937.781,419.801L937.956,419.813C936.985,421.8 935.408,423.516 933.372,424.793Z" style="fill:rgb(238,99,138);fill-rule:nonzero;"/>
                <path d="M946.468,347.631C943.904,343.424 945.228,337.941 949.425,335.385C953.621,332.829 959.101,334.166 961.663,338.375C964.227,342.58 962.902,348.063 958.706,350.62C954.51,353.176 949.03,351.837 946.468,347.631ZM961.449,335.942C957.308,331.601 950.578,331.299 946.421,335.266C942.266,339.232 942.254,345.968 946.398,350.308C950.541,354.65 957.269,354.953 961.427,350.986C965.582,347.019 965.594,340.284 961.449,335.942Z" style="fill:rgb(222,82,110);fill-rule:nonzero;"/>
                <path d="M946.25,347.582C943.688,343.375 945.012,337.893 949.207,335.336C953.403,332.78 958.884,334.118 961.445,338.325C964.01,342.532 962.684,348.014 958.488,350.572C954.293,353.127 948.814,351.789 946.25,347.582ZM960.998,336.246C957.015,332.073 950.55,331.779 946.56,335.589C942.567,339.398 942.56,345.87 946.543,350.042C950.526,354.215 956.99,354.51 960.982,350.7C964.974,346.89 964.98,340.418 960.998,336.246Z" style="fill:rgb(206,69,102);fill-rule:nonzero;"/>
                <path d="M958.274,350.436C954.078,352.992 948.598,351.653 946.035,347.446C943.472,343.24 944.797,337.757 948.992,335.2C953.188,332.644 958.667,333.982 961.231,338.189C963.794,342.396 962.47,347.879 958.274,350.436ZM961.059,336.328C957.387,332.127 951.086,331.626 946.985,335.21C942.883,338.794 942.535,345.105 946.207,349.308C949.879,353.509 956.181,354.01 960.281,350.425C964.383,346.841 964.73,340.53 961.059,336.328Z" style="fill:rgb(176,70,87);fill-rule:nonzero;"/>
                <path d="M958.443,350.614C954.248,353.171 948.769,351.832 946.205,347.625C943.643,343.418 944.967,337.935 949.163,335.378C953.358,332.822 958.838,334.161 961.401,338.368C963.964,342.574 962.641,348.057 958.443,350.614ZM962.04,337.979C959.324,333.521 953.435,332.153 948.886,334.924C944.338,337.696 942.851,343.557 945.566,348.014C948.282,352.472 954.173,353.839 958.721,351.067C963.269,348.296 964.756,342.437 962.04,337.979Z" style="fill:rgb(243,184,195);fill-rule:nonzero;"/>
                <path d="M958.186,350.19C954.223,352.605 949.049,351.34 946.628,347.368C944.208,343.395 945.459,338.217 949.422,335.803C953.384,333.389 958.558,334.653 960.978,338.625C963.399,342.598 962.148,347.775 958.186,350.19ZM961.401,338.368C958.838,334.161 953.358,332.822 949.163,335.378C944.967,337.935 943.643,343.418 946.205,347.625C948.769,351.832 954.248,353.171 958.443,350.614C962.641,348.057 963.964,342.574 961.401,338.368Z" style="fill:rgb(252,221,231);fill-rule:nonzero;"/>
                <path d="M942.092,355.896C939.528,351.689 940.852,346.207 945.049,343.65C949.245,341.094 954.725,342.432 957.287,346.64C959.851,350.846 958.526,356.329 954.33,358.886C950.134,361.442 944.654,360.103 942.092,355.896ZM957.074,344.208C952.932,339.867 946.202,339.564 942.045,343.531C937.89,347.497 937.878,354.233 942.022,358.574C946.166,362.915 952.894,363.219 957.051,359.251C961.206,355.285 961.218,348.549 957.074,344.208Z" style="fill:rgb(222,82,110);fill-rule:nonzero;"/>
                <path d="M941.874,355.848C939.313,351.641 940.636,346.158 944.831,343.601C949.027,341.045 954.508,342.383 957.07,346.59C959.634,350.798 958.309,356.28 954.113,358.837C949.918,361.393 944.438,360.055 941.874,355.848ZM956.622,344.511C952.639,340.338 946.174,340.045 942.184,343.854C938.191,347.664 938.185,354.136 942.168,358.308C946.15,362.481 952.614,362.775 956.606,358.965C960.598,355.155 960.604,348.683 956.622,344.511Z" style="fill:rgb(206,69,102);fill-rule:nonzero;"/>
                <path d="M953.898,358.701C949.702,361.258 944.222,359.918 941.659,355.712C939.096,351.505 940.421,346.022 944.617,343.466C948.813,340.909 954.291,342.247 956.855,346.454C959.418,350.662 958.094,356.145 953.898,358.701ZM956.683,344.593C953.012,340.392 946.71,339.892 942.609,343.475C938.507,347.059 938.159,353.371 941.831,357.573C945.504,361.774 951.806,362.275 955.905,358.691C960.007,355.106 960.354,348.795 956.683,344.593Z" style="fill:rgb(176,70,87);fill-rule:nonzero;"/>
                <path d="M954.067,358.88C949.872,361.436 944.393,360.097 941.83,355.891C939.267,351.683 940.592,346.201 944.787,343.644C948.983,341.088 954.462,342.426 957.025,346.634C959.588,350.84 958.265,356.322 954.067,358.88ZM957.664,346.244C954.948,341.786 949.059,340.419 944.511,343.189C939.962,345.962 938.475,351.822 941.19,356.28C943.906,360.737 949.797,362.104 954.345,359.333C958.894,356.562 960.38,350.702 957.664,346.244Z" style="fill:rgb(243,184,195);fill-rule:nonzero;"/>
                <path d="M953.81,358.455C949.848,360.87 944.673,359.605 942.252,355.633C939.832,351.661 941.083,346.482 945.046,344.068C949.008,341.654 954.182,342.918 956.602,346.891C959.023,350.863 957.772,356.04 953.81,358.455ZM957.025,346.634C954.462,342.426 948.983,341.088 944.787,343.644C940.592,346.201 939.267,351.683 941.83,355.891C944.393,360.097 949.872,361.436 954.067,358.88C958.265,356.322 959.588,350.84 957.025,346.634Z" style="fill:rgb(252,221,231);fill-rule:nonzero;"/>
                <path d="M891.04,346.172C888.477,341.966 889.801,336.483 893.998,333.926C898.193,331.37 903.673,332.708 906.236,336.915C908.799,341.122 907.476,346.604 903.279,349.162C899.083,351.718 893.603,350.379 891.04,346.172ZM906.022,334.484C901.88,330.143 895.151,329.84 890.994,333.807C886.838,337.773 886.827,344.509 890.971,348.85C895.114,353.191 901.842,353.495 906,349.527C910.155,345.561 910.167,338.825 906.022,334.484Z" style="fill:rgb(222,82,110);fill-rule:nonzero;"/>
                <path d="M890.823,346.123C888.261,341.917 889.585,336.434 893.78,333.877C897.977,331.321 903.457,332.659 906.019,336.866C908.583,341.074 907.257,346.556 903.061,349.113C898.866,351.668 893.387,350.33 890.823,346.123ZM905.57,334.787C901.588,330.615 895.123,330.321 891.133,334.13C887.141,337.94 887.134,344.411 891.116,348.584C895.1,352.757 901.563,353.051 905.556,349.241C909.547,345.431 909.553,338.96 905.57,334.787Z" style="fill:rgb(206,69,102);fill-rule:nonzero;"/>
                <path d="M902.847,348.977C898.65,351.534 893.17,350.195 890.608,345.987C888.045,341.781 889.37,336.298 893.565,333.742C897.762,331.185 903.24,332.523 905.804,336.73C908.367,340.937 907.042,346.42 902.847,348.977ZM905.631,334.869C901.96,330.668 895.658,330.168 891.558,333.751C887.456,337.335 887.108,343.647 890.78,347.849C894.452,352.05 900.754,352.552 904.854,348.967C908.956,345.382 909.304,339.071 905.631,334.869Z" style="fill:rgb(176,70,87);fill-rule:nonzero;"/>
                <path d="M903.016,349.156C898.82,351.712 893.342,350.373 890.778,346.166C888.215,341.959 889.54,336.476 893.736,333.92C897.932,331.364 903.411,332.702 905.974,336.91C908.537,341.116 907.213,346.599 903.016,349.156ZM906.613,336.52C903.897,332.062 898.008,330.695 893.459,333.465C888.91,336.238 887.424,342.098 890.14,346.555C892.855,351.013 898.746,352.381 903.293,349.609C907.842,346.838 909.329,340.977 906.613,336.52Z" style="fill:rgb(243,184,195);fill-rule:nonzero;"/>
                <path d="M902.76,348.731C898.796,351.146 893.621,349.881 891.201,345.909C888.781,341.937 890.032,336.758 893.994,334.344C897.956,331.93 903.131,333.194 905.552,337.166C907.972,341.14 906.722,346.316 902.76,348.731ZM905.974,336.91C903.411,332.702 897.932,331.364 893.736,333.92C889.54,336.476 888.215,341.959 890.778,346.166C893.342,350.373 898.82,351.712 903.016,349.156C907.213,346.599 908.537,341.116 905.974,336.91Z" style="fill:rgb(252,221,231);fill-rule:nonzero;"/>
                <path d="M894.443,358.813C891.881,354.606 893.205,349.123 897.4,346.567C901.598,344.011 907.076,345.349 909.64,349.557C912.202,353.763 910.879,359.246 906.683,361.803C902.486,364.359 897.007,363.02 894.443,358.813ZM909.426,347.125C905.283,342.784 898.555,342.481 894.397,346.448C890.242,350.415 890.23,357.15 894.375,361.491C898.518,365.833 905.246,366.136 909.403,362.168C913.559,358.202 913.57,351.466 909.426,347.125Z" style="fill:rgb(222,82,110);fill-rule:nonzero;"/>
                <path d="M894.227,358.765C891.664,354.558 892.988,349.076 897.184,346.519C901.38,343.962 906.86,345.3 909.422,349.507C911.986,353.715 910.66,359.197 906.465,361.754C902.269,364.309 896.79,362.972 894.227,358.765ZM908.974,347.428C904.991,343.256 898.526,342.962 894.536,346.771C890.544,350.581 890.537,357.053 894.519,361.226C898.502,365.398 904.967,365.692 908.959,361.882C912.95,358.073 912.957,351.601 908.974,347.428Z" style="fill:rgb(206,69,102);fill-rule:nonzero;"/>
                <path d="M906.25,361.619C902.054,364.175 896.574,362.836 894.012,358.629C891.447,354.422 892.773,348.939 896.969,346.383C901.165,343.827 906.644,345.165 909.207,349.372C911.771,353.579 910.445,359.062 906.25,361.619ZM909.035,347.511C905.363,343.309 899.061,342.809 894.961,346.393C890.859,349.976 890.512,356.288 894.184,360.49C897.855,364.691 904.157,365.193 908.258,361.608C912.359,358.023 912.707,351.712 909.035,347.511Z" style="fill:rgb(176,70,87);fill-rule:nonzero;"/>
                <path d="M906.42,361.797C902.224,364.354 896.745,363.015 894.182,358.808C891.619,354.601 892.943,349.118 897.14,346.561C901.335,344.005 906.814,345.344 909.377,349.551C911.94,353.758 910.617,359.24 906.42,361.797ZM910.017,349.162C907.301,344.704 901.411,343.336 896.862,346.106C892.313,348.878 890.827,354.739 893.543,359.197C896.259,363.654 902.149,365.022 906.696,362.25C911.245,359.479 912.732,353.619 910.017,349.162Z" style="fill:rgb(243,184,195);fill-rule:nonzero;"/>
                <path d="M906.163,361.372C902.199,363.787 897.025,362.522 894.604,358.55C892.185,354.578 893.435,349.399 897.398,346.985C901.359,344.571 906.534,345.835 908.955,349.807C911.375,353.78 910.125,358.958 906.163,361.372ZM909.377,349.551C906.814,345.344 901.335,344.005 897.14,346.561C892.943,349.118 891.619,354.601 894.182,358.808C896.745,363.015 902.224,364.354 906.42,361.797C910.617,359.24 911.94,353.758 909.377,349.551Z" style="fill:rgb(252,221,231);fill-rule:nonzero;"/>
                <path d="M951.81,403.141C949.248,398.934 950.571,393.451 954.768,390.895C958.964,388.339 964.443,389.678 967.007,393.884C969.569,398.091 968.245,403.574 964.05,406.131C959.854,408.687 954.374,407.348 951.81,403.141ZM966.794,391.453C962.65,387.112 955.921,386.809 951.765,390.776C947.607,394.743 947.598,401.479 951.74,405.819C955.885,410.161 962.613,410.464 966.769,406.496C970.927,402.53 970.936,395.794 966.794,391.453Z" style="fill:rgb(222,82,110);fill-rule:nonzero;"/>
                <path d="M951.936,403.004C949.352,398.775 950.663,393.279 954.863,390.726C959.064,388.175 964.564,389.535 967.149,393.765C969.733,397.994 968.423,403.491 964.222,406.042C960.021,408.594 954.521,407.234 951.936,403.004ZM966.692,391.678C962.684,387.477 956.198,387.162 952.208,390.971C948.216,394.781 948.23,401.274 952.238,405.474C956.246,409.673 962.731,409.989 966.723,406.179C970.714,402.37 970.701,395.877 966.692,391.678Z" style="fill:rgb(206,69,102);fill-rule:nonzero;"/>
                <path d="M963.704,406.58C959.338,408.846 953.873,407.07 951.502,402.614C949.129,398.16 950.746,392.711 955.111,390.444C959.48,388.179 964.942,389.955 967.314,394.411C969.688,398.866 968.07,404.315 963.704,406.58ZM967.235,392.513C963.744,387.978 957.408,386.986 953.085,390.3C948.761,393.613 948.089,399.976 951.581,404.513C955.072,409.047 961.408,410.037 965.732,406.725C970.055,403.411 970.729,397.048 967.235,392.513Z" style="fill:rgb(176,70,87);fill-rule:nonzero;"/>
                <path d="M964.521,406.356C960.285,408.87 954.62,407.338 951.872,402.936C949.121,398.534 950.326,392.927 954.563,390.412C958.8,387.899 964.464,389.431 967.214,393.833C969.964,398.235 968.758,403.842 964.521,406.356ZM967.859,393.451C964.945,388.785 958.859,387.212 954.267,389.938C949.672,392.663 948.313,398.654 951.226,403.319C954.14,407.983 960.226,409.557 964.818,406.832C969.411,404.106 970.772,398.116 967.859,393.451Z" style="fill:rgb(243,184,195);fill-rule:nonzero;"/>
                <path d="M964.988,405.394C961.251,408.164 955.782,407.271 952.773,403.399C949.767,399.529 950.359,394.145 954.096,391.375C957.833,388.605 963.303,389.499 966.31,393.37C969.318,397.24 968.726,402.623 964.988,405.394ZM966.709,393.073C963.523,388.975 957.733,388.029 953.774,390.961C949.817,393.896 949.19,399.597 952.375,403.696C955.56,407.794 961.351,408.74 965.309,405.808C969.267,402.872 969.894,397.173 966.709,393.073Z" style="fill:rgb(252,221,231);fill-rule:nonzero;"/>
                <path d="M877.908,404.6C875.346,400.393 876.669,394.91 880.865,392.354C885.06,389.797 890.541,391.136 893.103,395.343C895.667,399.55 894.342,405.033 890.146,407.589C885.951,410.145 880.471,408.807 877.908,404.6ZM892.892,392.911C888.747,388.57 882.019,388.268 877.861,392.235C873.705,396.202 873.695,402.937 877.838,407.278C881.982,411.62 888.711,411.922 892.866,407.955C897.023,403.988 897.033,397.253 892.892,392.911Z" style="fill:rgb(222,82,110);fill-rule:nonzero;"/>
                <path d="M878.033,404.463C875.449,400.233 876.76,394.737 880.96,392.184C885.161,389.634 890.661,390.994 893.246,395.224C895.83,399.453 894.519,404.949 890.318,407.501C886.118,410.053 880.617,408.693 878.033,404.463ZM892.79,393.136C888.781,388.936 882.295,388.621 878.305,392.43C874.313,396.239 874.327,402.733 878.336,406.932C882.344,411.131 888.829,411.448 892.82,407.638C896.811,403.829 896.798,397.335 892.79,393.136Z" style="fill:rgb(206,69,102);fill-rule:nonzero;"/>
                <path d="M889.801,408.04C885.435,410.304 879.971,408.528 877.6,404.073C875.227,399.618 876.844,394.169 881.209,391.903C885.577,389.638 891.039,391.414 893.412,395.869C895.785,400.325 894.168,405.773 889.801,408.04ZM893.333,393.972C889.841,389.437 883.505,388.445 879.183,391.758C874.858,395.071 874.185,401.435 877.679,405.971C881.169,410.505 887.506,411.496 891.83,408.183C896.152,404.87 896.826,398.507 893.333,393.972Z" style="fill:rgb(176,70,87);fill-rule:nonzero;"/>
                <path d="M890.619,407.815C886.383,410.329 880.717,408.797 877.969,404.394C875.218,399.992 876.423,394.386 880.66,391.871C884.897,389.357 890.56,390.889 893.31,395.292C896.06,399.694 894.855,405.301 890.619,407.815ZM893.957,394.909C891.042,390.244 884.956,388.671 880.364,391.396C875.769,394.122 874.41,400.113 877.323,404.777C880.236,409.442 886.322,411.016 890.916,408.29C895.508,405.564 896.87,399.575 893.957,394.909Z" style="fill:rgb(243,184,195);fill-rule:nonzero;"/>
                <path d="M891.085,406.852C887.349,409.622 881.88,408.73 878.871,404.858C875.863,400.987 876.456,395.604 880.193,392.834C883.931,390.064 889.4,390.958 892.407,394.828C895.415,398.699 894.822,404.083 891.085,406.852ZM892.806,394.532C889.621,390.433 883.831,389.488 879.872,392.42C875.915,395.354 875.287,401.056 878.473,405.154C881.657,409.253 887.448,410.199 891.406,407.267C895.364,404.331 895.992,398.631 892.806,394.532Z" style="fill:rgb(252,221,231);fill-rule:nonzero;"/>
                <path d="M914.859,379.317C912.297,375.11 913.62,369.627 917.816,367.071C922.012,364.515 927.492,365.854 930.056,370.061C932.618,374.268 931.294,379.75 927.099,382.307C922.902,384.863 917.423,383.524 914.859,379.317ZM929.843,367.628C925.698,363.288 918.97,362.985 914.813,366.953C910.656,370.919 910.646,377.655 914.789,381.995C918.934,386.337 925.662,386.64 929.818,382.672C933.976,378.706 933.984,371.97 929.843,367.628Z" style="fill:rgb(222,82,110);fill-rule:nonzero;"/>
                <path d="M914.985,379.181C912.4,374.951 913.712,369.454 917.912,366.902C922.113,364.351 927.613,365.711 930.197,369.941C932.781,374.17 931.471,379.667 927.271,382.218C923.07,384.77 917.568,383.41 914.985,379.181ZM929.741,367.854C925.732,363.653 919.247,363.338 915.257,367.147C911.265,370.957 911.278,377.45 915.287,381.649C919.295,385.849 925.78,386.165 929.771,382.355C933.763,378.546 933.749,372.053 929.741,367.854Z" style="fill:rgb(206,69,102);fill-rule:nonzero;"/>
                <path d="M926.753,382.757C922.387,385.021 916.922,383.246 914.551,378.79C912.178,374.336 913.795,368.887 918.16,366.62C922.528,364.355 927.991,366.131 930.363,370.586C932.737,375.042 931.119,380.491 926.753,382.757ZM930.284,368.689C926.793,364.154 920.457,363.162 916.134,366.476C911.81,369.789 911.137,376.152 914.63,380.688C918.121,385.223 924.457,386.213 928.781,382.901C933.103,379.587 933.777,373.225 930.284,368.689Z" style="fill:rgb(176,70,87);fill-rule:nonzero;"/>
                <path d="M927.57,382.533C923.334,385.046 917.669,383.515 914.92,379.112C912.169,374.71 913.374,369.104 917.611,366.589C921.849,364.075 927.512,365.607 930.263,370.009C933.013,374.412 931.807,380.018 927.57,382.533ZM930.908,369.626C927.994,364.961 921.907,363.389 917.315,366.114C912.721,368.839 911.361,374.83 914.274,379.495C917.188,384.16 923.274,385.733 927.867,383.008C932.46,380.282 933.821,374.292 930.908,369.626Z" style="fill:rgb(243,184,195);fill-rule:nonzero;"/>
                <path d="M928.036,381.57C924.3,384.34 918.831,383.447 915.822,379.576C912.815,375.705 913.407,370.322 917.144,367.552C920.882,364.782 926.352,365.675 929.358,369.546C932.367,373.416 931.774,378.8 928.036,381.57ZM929.757,369.25C926.572,365.151 920.782,364.205 916.823,367.138C912.866,370.072 912.238,375.773 915.424,379.872C918.608,383.971 924.399,384.916 928.357,381.984C932.315,379.049 932.943,373.349 929.757,369.25Z" style="fill:rgb(252,221,231);fill-rule:nonzero;"/>
                <path d="M851.653,390.986C849.09,386.779 850.414,381.296 854.61,378.74C858.806,376.183 864.286,377.522 866.849,381.729C869.412,385.936 868.087,391.419 863.892,393.976C859.696,396.532 854.217,395.193 851.653,390.986ZM866.637,379.297C862.492,374.957 855.764,374.654 851.606,378.621C847.45,382.588 847.439,389.323 851.583,393.664C855.727,398.006 862.456,398.308 866.611,394.341C870.769,390.375 870.778,383.639 866.637,379.297Z" style="fill:rgb(222,82,110);fill-rule:nonzero;"/>
                <path d="M851.778,390.85C849.193,386.62 850.505,381.123 854.705,378.571C858.906,376.02 864.406,377.38 866.991,381.61C869.575,385.839 868.265,391.336 864.063,393.887C859.863,396.439 854.362,395.079 851.778,390.85ZM866.535,379.522C862.526,375.322 856.041,375.007 852.051,378.816C848.059,382.626 848.072,389.119 852.08,393.318C856.089,397.518 862.574,397.834 866.565,394.024C870.557,390.215 870.543,383.722 866.535,379.522Z" style="fill:rgb(206,69,102);fill-rule:nonzero;"/>
                <path d="M863.546,394.426C859.18,396.69 853.716,394.915 851.345,390.459C848.972,386.004 850.589,380.556 854.954,378.289C859.322,376.024 864.784,377.8 867.156,382.255C869.531,386.711 867.912,392.16 863.546,394.426ZM867.078,380.358C863.586,375.823 857.25,374.832 852.928,378.144C848.603,381.458 847.931,387.821 851.424,392.357C854.914,396.892 861.251,397.882 865.574,394.57C869.897,391.256 870.571,384.894 867.078,380.358Z" style="fill:rgb(176,70,87);fill-rule:nonzero;"/>
                <path d="M864.364,394.202C860.128,396.715 854.462,395.183 851.714,390.781C848.963,386.379 850.168,380.772 854.405,378.258C858.643,375.744 864.306,377.276 867.056,381.678C869.807,386.08 868.6,391.687 864.364,394.202ZM867.702,381.295C864.787,376.63 858.701,375.058 854.109,377.783C849.515,380.508 848.155,386.5 851.068,391.164C853.981,395.828 860.068,397.402 864.661,394.676C869.254,391.951 870.615,385.961 867.702,381.295Z" style="fill:rgb(243,184,195);fill-rule:nonzero;"/>
                <path d="M864.83,393.239C861.094,396.009 855.625,395.116 852.616,391.245C849.608,387.374 850.201,381.991 853.938,379.221C857.676,376.451 863.146,377.344 866.152,381.215C869.16,385.085 868.568,390.469 864.83,393.239ZM866.551,380.918C863.366,376.82 857.576,375.874 853.617,378.807C849.66,381.741 849.032,387.442 852.218,391.541C855.402,395.639 861.193,396.585 865.151,393.653C869.109,390.717 869.736,385.018 866.551,380.918Z" style="fill:rgb(252,221,231);fill-rule:nonzero;"/>
                <path d="M900.273,429.882C897.711,425.676 899.034,420.192 903.23,417.636C907.426,415.08 912.906,416.419 915.469,420.625C918.032,424.833 916.707,430.315 912.512,432.872C908.316,435.428 902.837,434.089 900.273,429.882ZM915.257,418.193C911.112,413.853 904.384,413.55 900.227,417.518C896.07,421.484 896.06,428.22 900.203,432.561C904.348,436.902 911.076,437.205 915.231,433.237C919.39,429.271 919.398,422.535 915.257,418.193Z" style="fill:rgb(222,82,110);fill-rule:nonzero;"/>
                <path d="M900.398,429.746C897.814,425.516 899.125,420.019 903.325,417.467C907.526,414.916 913.027,416.276 915.611,420.506C918.195,424.735 916.885,430.232 912.684,432.784C908.484,435.335 902.982,433.975 900.398,429.746ZM915.155,418.418C911.146,414.219 904.661,413.903 900.67,417.712C896.678,421.522 896.692,428.016 900.701,432.215C904.709,436.414 911.194,436.73 915.185,432.92C919.177,429.111 919.163,422.618 915.155,418.418Z" style="fill:rgb(206,69,102);fill-rule:nonzero;"/>
                <path d="M912.166,433.322C907.8,435.587 902.336,433.811 899.965,429.355C897.592,424.901 899.209,419.452 903.574,417.185C907.942,414.92 913.404,416.696 915.777,421.152C918.151,425.607 916.533,431.056 912.166,433.322ZM915.698,419.254C912.206,414.719 905.87,413.727 901.548,417.041C897.224,420.354 896.551,426.717 900.044,431.254C903.534,435.788 909.871,436.778 914.195,433.466C918.518,430.152 919.191,423.79 915.698,419.254Z" style="fill:rgb(176,70,87);fill-rule:nonzero;"/>
                <path d="M912.984,433.098C908.748,435.611 903.082,434.079 900.334,429.677C897.583,425.275 898.788,419.668 903.025,417.154C907.263,414.64 912.926,416.172 915.676,420.574C918.427,424.976 917.221,430.583 912.984,433.098ZM916.322,420.191C913.407,415.526 907.321,413.954 902.729,416.679C898.135,419.404 896.775,425.395 899.688,430.06C902.602,434.725 908.688,436.298 913.281,433.573C917.874,430.847 919.235,424.857 916.322,420.191Z" style="fill:rgb(243,184,195);fill-rule:nonzero;"/>
                <path d="M913.45,432.135C909.714,434.905 904.245,434.012 901.236,430.141C898.228,426.27 898.821,420.887 902.559,418.117C906.296,415.347 911.766,416.24 914.772,420.111C917.78,423.981 917.188,429.365 913.45,432.135ZM915.171,419.814C911.986,415.716 906.196,414.77 902.237,417.703C898.28,420.637 897.652,426.338 900.838,430.437C904.022,434.536 909.813,435.481 913.771,432.549C917.729,429.614 918.357,423.914 915.171,419.814Z" style="fill:rgb(252,221,231);fill-rule:nonzero;"/>
                <path d="M858.46,362.3C855.897,358.094 857.221,352.61 861.417,350.054C865.612,347.498 871.093,348.837 873.656,353.043C876.219,357.25 874.894,362.733 870.699,365.29C866.504,367.846 861.023,366.507 858.46,362.3ZM873.443,350.611C869.299,346.271 862.57,345.968 858.414,349.936C854.257,353.902 854.247,360.638 858.39,364.978C862.534,369.32 869.263,369.622 873.418,365.655C877.576,361.689 877.585,354.953 873.443,350.611Z" style="fill:rgb(222,82,110);fill-rule:nonzero;"/>
                <path d="M858.586,362.164C856.001,357.934 857.313,352.437 861.512,349.885C865.713,347.335 871.214,348.694 873.799,352.924C876.382,357.153 875.072,362.65 870.871,365.201C866.671,367.753 861.17,366.393 858.586,362.164ZM873.342,350.836C869.333,346.636 862.848,346.321 858.857,350.13C854.865,353.94 854.879,360.433 858.888,364.633C862.896,368.832 869.381,369.148 873.372,365.338C877.363,361.529 877.35,355.036 873.342,350.836Z" style="fill:rgb(206,69,102);fill-rule:nonzero;"/>
                <path d="M870.353,365.74C865.986,368.005 860.522,366.229 858.151,361.773C855.778,357.319 857.396,351.87 861.761,349.603C866.129,347.338 871.592,349.114 873.964,353.569C876.338,358.025 874.72,363.474 870.353,365.74ZM873.885,351.672C870.393,347.137 864.057,346.145 859.734,349.458C855.41,352.772 854.737,359.135 858.23,363.671C861.721,368.206 868.058,369.196 872.382,365.884C876.704,362.57 877.378,356.208 873.885,351.672Z" style="fill:rgb(176,70,87);fill-rule:nonzero;"/>
                <path d="M871.171,365.516C866.935,368.029 861.269,366.497 858.521,362.095C855.769,357.693 856.975,352.086 861.212,349.572C865.449,347.058 871.113,348.59 873.863,352.992C876.613,357.394 875.407,363.001 871.171,365.516ZM874.509,352.609C871.594,347.944 865.508,346.371 860.916,349.097C856.321,351.822 854.962,357.813 857.875,362.478C860.789,367.143 866.875,368.716 871.468,365.991C876.06,363.265 877.422,357.275 874.509,352.609Z" style="fill:rgb(243,184,195);fill-rule:nonzero;"/>
                <path d="M871.637,364.553C867.9,367.323 862.432,366.43 859.423,362.558C856.416,358.688 857.008,353.305 860.745,350.535C864.482,347.765 869.952,348.658 872.959,352.529C875.967,356.399 875.375,361.783 871.637,364.553ZM873.357,352.232C870.173,348.134 864.383,347.188 860.424,350.121C856.467,353.055 855.839,358.756 859.024,362.855C862.209,366.954 868,367.899 871.958,364.967C875.916,362.032 876.544,356.332 873.357,352.232Z" style="fill:rgb(252,221,231);fill-rule:nonzero;"/>
            </g>
        </g>
    </g>
</svg>
