<?xml version="1.0" encoding="UTF-8" standalone="no"?>
<!DOCTYPE svg PUBLIC "-//W3C//DTD SVG 1.1//EN" "http://www.w3.org/Graphics/SVG/1.1/DTD/svg11.dtd">
<svg width="100%" height="100%" viewBox="0 0 504 509" version="1.1" xmlns="http://www.w3.org/2000/svg" xmlns:xlink="http://www.w3.org/1999/xlink" xml:space="preserve" xmlns:serif="http://www.serif.com/" style="fill-rule:evenodd;clip-rule:evenodd;stroke-linejoin:round;stroke-miterlimit:2;">
    <g transform="matrix(1,0,0,1,-2593.12,-1865.62)">
        <g transform="matrix(4.16667,0,0,4.16667,0,0)">
            <g transform="matrix(1,0,0,1,391.848,-25.9805)">
                <path d="M308.47,556.43C307.412,555.917 307.61,553.902 306.357,552.901C305.499,552.216 303.933,554.49 302.614,553.935C301.294,553.378 300.235,552.709 300.232,546.203C300.229,539.208 304.619,537.014 307.674,537.68C310.344,538.262 309.509,542.24 311.158,543.439C312.807,544.637 314.687,541.531 317.136,542.354C319.585,543.178 321.76,544.857 319.225,550.694C316.581,556.774 309.975,557.158 308.47,556.43ZM320.442,551.42C323.608,543.792 321.448,541.274 318.603,540.368C315.758,539.46 314.854,540.735 312.948,539.376C311.042,538.015 310.469,534.191 307.363,533.57C303.808,532.858 298.104,536.377 298.369,545.85C298.634,555.32 299.69,556.031 301.223,556.652C302.756,557.273 304.487,554.517 305.478,555.3C306.47,556.08 306.326,557.53 308.072,558.348C309.818,559.165 317.274,559.049 320.442,551.42Z" style="fill:rgb(248,159,124);fill-rule:nonzero;"/>
                <path d="M308.49,556.519C307.441,556.01 307.641,554.019 306.399,553.026C305.548,552.347 303.991,554.594 302.682,554.039C301.372,553.486 300.322,552.822 300.331,546.391C300.34,539.474 304.701,537.316 307.731,537.98C310.381,538.561 309.546,542.493 311.181,543.683C312.816,544.869 314.687,541.804 317.116,542.622C319.545,543.443 321.703,545.108 319.175,550.873C316.542,556.878 309.984,557.243 308.49,556.519ZM320.382,551.595C323.539,544.06 321.398,541.565 318.577,540.661C315.753,539.759 314.853,541.017 312.964,539.668C311.075,538.318 310.513,534.537 307.43,533.915C303.902,533.206 298.234,536.67 298.482,546.035C298.729,555.401 299.777,556.105 301.297,556.723C302.816,557.34 304.54,554.62 305.523,555.395C306.506,556.17 306.36,557.602 308.092,558.414C309.824,559.227 317.226,559.129 320.382,551.595Z" style="fill:rgb(239,54,54);fill-rule:nonzero;"/>
                <path d="M320.382,551.595C321.616,548.651 322.038,546.48 321.929,544.87C321.402,545.277 320.853,545.677 320.285,546.067C320.39,547.233 320.091,548.783 319.175,550.873C316.542,556.878 309.984,557.243 308.49,556.519C307.441,556.01 307.641,554.019 306.399,553.026C305.548,552.347 303.991,554.594 302.682,554.039C302.122,553.803 301.609,553.545 301.206,552.823C300.44,552.852 299.697,552.84 298.979,552.799C299.475,555.854 300.28,556.311 301.297,556.723C302.816,557.34 304.54,554.62 305.523,555.395C306.506,556.17 306.36,557.602 308.092,558.414C309.824,559.227 317.226,559.129 320.382,551.595Z" style="fill:rgb(225,42,43);fill-rule:nonzero;"/>
                <path d="M308.647,555.58C307.71,555.12 307.877,553.352 306.768,552.461C306.005,551.852 304.632,553.841 303.462,553.341C302.293,552.842 301.355,552.246 301.327,546.527C301.295,540.376 305.167,538.48 307.868,539.089C310.228,539.622 309.507,543.113 310.969,544.18C312.432,545.244 314.08,542.529 316.248,543.271C318.415,544.014 320.344,545.507 318.126,550.619C315.817,555.944 309.981,556.231 308.647,555.58ZM319.206,551.267C321.973,544.584 320.053,542.354 317.536,541.535C315.019,540.716 313.407,544.429 311.717,543.219C310.027,542.007 310.261,536.52 307.513,535.951C304.368,535.299 299.406,537.87 299.679,546.2C299.952,554.53 300.609,554.236 301.965,554.794C303.322,555.35 305.586,552.827 306.466,553.522C307.345,554.217 306.758,556.53 308.304,557.264C309.85,557.995 316.439,557.949 319.206,551.267Z" style="fill:rgb(190,32,38);fill-rule:nonzero;"/>
                <path d="M311.801,544.438C312.332,544.535 314.783,542.429 316.489,543.209C318.147,543.967 319.544,544.931 318.998,547.919C319.314,548.543 319.561,549.193 319.742,549.858C321.683,544.266 319.897,542.193 317.536,541.535C315.308,540.914 313.643,543.785 312.338,543.465C312.599,543.564 311.548,544.314 311.801,544.438Z" style="fill:rgb(165,30,34);fill-rule:nonzero;"/>
                <path d="M301.332,547.08C301.33,546.901 301.328,546.717 301.327,546.527C301.295,540.376 305.167,538.48 307.868,539.089C309.386,539.432 309.63,540.997 310,542.355C310.358,542.358 310.718,542.381 311.075,542.423C310.031,540.481 309.851,536.436 307.513,535.951C304.368,535.299 299.406,537.87 299.679,546.2C299.74,548.084 299.822,549.523 299.927,550.635C300.161,549.394 300.629,548.186 301.332,547.08Z" style="fill:rgb(165,30,34);fill-rule:nonzero;"/>
                <path d="M318.126,550.619C315.817,555.944 309.981,556.231 308.647,555.58C307.71,555.12 307.877,553.352 306.768,552.461C306.005,551.852 304.632,553.841 303.462,553.341C302.293,552.842 301.355,552.246 301.327,546.527C301.323,545.792 301.376,545.12 301.475,544.503C301.364,545.149 301.305,545.859 301.309,546.641C301.337,552.359 302.276,552.956 303.445,553.456C304.613,553.955 305.987,551.967 306.749,552.576C307.859,553.465 307.692,555.235 308.629,555.693C309.963,556.347 315.799,556.06 318.109,550.733C318.607,549.583 318.896,548.618 319.019,547.802C318.886,548.594 318.603,549.522 318.126,550.619Z" style="fill:rgb(248,159,124);fill-rule:nonzero;"/>
                <path d="M307.495,536.064C310.243,536.634 310.009,542.122 311.7,543.332C313.389,544.543 315,540.829 317.519,541.65C319.401,542.262 320.95,543.665 320.452,547.128C320.999,543.582 319.44,542.155 317.536,541.535C315.019,540.716 313.407,544.429 311.717,543.219C310.027,542.007 310.261,536.52 307.513,535.951C304.842,535.397 300.862,537.172 299.889,542.822C300.895,537.26 304.842,535.515 307.495,536.064Z" style="fill:rgb(248,159,124);fill-rule:nonzero;"/>
                <path d="M316.304,542.975C314.137,542.233 312.487,544.947 311.026,543.882C309.564,542.817 310.284,539.324 307.923,538.793C305.554,538.258 302.287,539.652 301.539,544.15C302.379,539.889 305.551,538.568 307.868,539.089C310.228,539.622 309.507,543.113 310.969,544.18C312.432,545.244 314.08,542.529 316.248,543.271C317.957,543.856 319.516,544.91 319.012,547.836C319.676,544.683 318.07,543.578 316.304,542.975Z" style="fill:rgb(227,51,50);fill-rule:nonzero;"/>
                <path d="M319.206,551.267C319.837,549.74 320.223,548.451 320.414,547.353C320.208,548.385 319.838,549.579 319.262,550.971C316.494,557.651 309.906,557.698 308.36,556.967C306.814,556.234 307.4,553.921 306.521,553.225C305.642,552.53 303.378,555.055 302.021,554.497C300.665,553.939 300.008,554.232 299.734,545.903C299.693,544.644 299.773,543.517 299.947,542.513C299.735,543.591 299.633,544.814 299.679,546.2C299.952,554.53 300.609,554.236 301.965,554.794C303.322,555.35 305.586,552.827 306.466,553.522C307.345,554.217 306.758,556.53 308.304,557.264C309.85,557.995 316.439,557.949 319.206,551.267Z" style="fill:rgb(227,51,50);fill-rule:nonzero;"/>
                <path d="M312.707,542.498C312.814,542.381 312.799,542.192 312.672,542.075C312.546,541.958 312.355,541.959 312.249,542.074C312.14,542.193 312.155,542.382 312.282,542.499C312.409,542.616 312.599,542.615 312.707,542.498Z" style="fill:rgb(240,73,74);fill-rule:nonzero;"/>
                <path d="M308.144,558.005C308.251,557.889 308.236,557.699 308.109,557.583C307.982,557.466 307.792,557.466 307.685,557.583C307.577,557.699 307.592,557.889 307.719,558.006C307.846,558.123 308.036,558.122 308.144,558.005Z" style="fill:rgb(239,54,54);fill-rule:nonzero;"/>
                <path d="M306.489,554.523C306.597,554.406 306.582,554.217 306.456,554.1C306.329,553.983 306.139,553.983 306.03,554.102C305.923,554.217 305.938,554.407 306.064,554.523C306.191,554.641 306.382,554.641 306.489,554.523Z" style="fill:rgb(239,54,54);fill-rule:nonzero;"/>
                <path d="M311.977,541.173L311.958,540.937L311.722,540.937L311.741,541.173L311.977,541.173Z" style="fill:rgb(240,73,74);fill-rule:nonzero;"/>
                <path d="M312.566,558.207L312.548,557.972L312.31,557.972L312.33,558.207L312.566,558.207Z" style="fill:rgb(240,73,74);fill-rule:nonzero;"/>
                <path d="M315.15,556.89L315.131,556.656L314.896,556.656L314.915,556.891L315.15,556.89Z" style="fill:rgb(240,73,74);fill-rule:nonzero;"/>
                <path d="M318.674,553.349L318.656,553.113L318.42,553.113L318.439,553.35L318.674,553.349Z" style="fill:rgb(240,73,74);fill-rule:nonzero;"/>
                <path d="M320.907,549.465L320.888,549.23L320.652,549.23L320.67,549.465L320.907,549.465Z" style="fill:rgb(240,73,74);fill-rule:nonzero;"/>
                <path d="M321.038,544.366L321.019,544.131L320.783,544.131L320.802,544.366L321.038,544.366Z" style="fill:rgb(240,73,74);fill-rule:nonzero;"/>
                <path d="M320.143,541.908L320.124,541.674L319.888,541.674L319.907,541.908L320.143,541.908Z" style="fill:rgb(240,73,74);fill-rule:nonzero;"/>
                <path d="M317.486,541.223L317.467,540.988L317.231,540.988L317.25,541.223L317.486,541.223Z" style="fill:rgb(240,73,74);fill-rule:nonzero;"/>
                <path d="M300.759,555.835L300.74,555.6L300.503,555.6L300.522,555.835L300.759,555.835Z" style="fill:rgb(240,73,74);fill-rule:nonzero;"/>
                <path d="M301.986,556.443L301.967,556.21L301.73,556.21L301.749,556.444L301.986,556.443Z" style="fill:rgb(240,73,74);fill-rule:nonzero;"/>
                <path d="M302.812,555.334L302.793,555.099L302.557,555.1L302.576,555.335L302.812,555.334Z" style="fill:rgb(240,73,74);fill-rule:nonzero;"/>
                <path d="M299.358,553.132L299.34,552.896L299.104,552.897L299.123,553.133L299.358,553.132Z" style="fill:rgb(240,73,74);fill-rule:nonzero;"/>
                <path d="M299.661,551.388L299.643,551.152L299.406,551.152L299.425,551.388L299.661,551.388Z" style="fill:rgb(240,73,74);fill-rule:nonzero;"/>
                <path d="M299.046,549.645L299.027,549.411L298.792,549.411L298.81,549.645L299.046,549.645Z" style="fill:rgb(240,73,74);fill-rule:nonzero;"/>
                <path d="M299.317,546.022L299.298,545.787L299.063,545.787L299.081,546.022L299.317,546.022Z" style="fill:rgb(240,73,74);fill-rule:nonzero;"/>
                <path d="M299.431,542.145L299.412,541.91L299.176,541.91L299.195,542.145L299.431,542.145Z" style="fill:rgb(240,73,74);fill-rule:nonzero;"/>
                <path d="M300.879,538.519L300.86,538.284L300.624,538.284L300.643,538.52L300.879,538.519Z" style="fill:rgb(240,73,74);fill-rule:nonzero;"/>
                <path d="M299.812,541.517L299.793,541.283L299.557,541.283L299.576,541.517L299.812,541.517Z" style="fill:rgb(240,73,74);fill-rule:nonzero;"/>
                <path d="M314.911,541.07L314.892,540.835L314.656,540.835L314.675,541.07L314.911,541.07Z" style="fill:rgb(240,73,74);fill-rule:nonzero;"/>
                <path d="M310.262,537.474L310.244,537.238L310.008,537.238L310.026,537.474L310.262,537.474Z" style="fill:rgb(240,73,74);fill-rule:nonzero;"/>
                <path d="M309.007,535.109L308.988,534.874L308.752,534.874L308.771,535.109L309.007,535.109Z" style="fill:rgb(240,73,74);fill-rule:nonzero;"/>
                <path d="M310.934,539.789L310.917,539.554L310.68,539.555L310.7,539.79L310.934,539.789Z" style="fill:rgb(240,73,74);fill-rule:nonzero;"/>
                <path d="M312.659,540.007L312.64,539.771L312.404,539.772L312.424,540.007L312.659,540.007Z" style="fill:rgb(240,73,74);fill-rule:nonzero;"/>
                <path d="M307.182,534.688L307.163,534.454L306.927,534.455L306.946,534.689L307.182,534.688Z" style="fill:rgb(240,73,74);fill-rule:nonzero;"/>
                <path d="M304.242,536.038L304.224,535.803L303.987,535.803L304.006,536.038L304.242,536.038Z" style="fill:rgb(240,73,74);fill-rule:nonzero;"/>
                <path d="M304.967,534.683L304.949,534.448L304.713,534.448L304.732,534.683L304.967,534.683Z" style="fill:rgb(240,73,74);fill-rule:nonzero;"/>
                <path d="M249.952,535.137C248.839,535.517 247.563,533.944 245.969,534.113C244.876,534.228 245.363,536.948 244.034,537.48C242.704,538.014 241.481,538.282 236.903,533.66C231.982,528.688 233.56,524.042 236.2,522.366C238.506,520.902 240.712,524.318 242.727,524.011C244.741,523.701 243.894,520.173 246.214,519.036C248.533,517.899 251.261,517.562 253.563,523.494C255.961,529.677 251.534,534.596 249.952,535.137ZM254.939,523.154C251.826,515.506 248.519,515.235 245.858,516.592C243.198,517.946 243.452,519.489 241.142,519.863C238.829,520.238 235.733,517.921 233.088,519.665C230.06,521.658 228.48,528.17 235.33,534.719C242.179,541.266 243.431,541.028 244.956,540.39C246.483,539.754 245.775,536.578 247.03,536.436C248.284,536.295 249.202,537.426 251.018,536.779C252.833,536.132 258.053,530.806 254.939,523.154Z" style="fill:rgb(248,159,124);fill-rule:nonzero;"/>
                <path d="M250.029,535.186C248.925,535.561 247.667,534.006 246.086,534.174C245.003,534.288 245.476,536.98 244.155,537.507C242.835,538.035 241.623,538.302 237.105,533.724C232.248,528.801 233.83,524.199 236.451,522.54C238.744,521.09 240.915,524.473 242.914,524.167C244.911,523.861 244.086,520.366 246.388,519.24C248.692,518.114 251.397,517.782 253.654,523.657C256.006,529.777 251.601,534.649 250.029,535.186ZM255.019,523.321C251.964,515.743 248.689,515.475 246.047,516.818C243.404,518.161 243.651,519.691 241.359,520.061C239.066,520.429 236.008,518.137 233.378,519.863C230.372,521.838 228.779,528.288 235.541,534.771C242.304,541.256 243.544,541.019 245.059,540.388C246.573,539.76 245.885,536.614 247.13,536.474C248.373,536.333 249.277,537.454 251.08,536.813C252.882,536.172 258.074,530.895 255.019,523.321Z" style="fill:rgb(239,54,54);fill-rule:nonzero;"/>
                <path d="M255.019,523.321C253.826,520.36 252.6,518.522 251.39,517.454C251.302,518.113 251.192,518.783 251.063,519.46C251.958,520.217 252.835,521.527 253.654,523.657C256.006,529.777 251.601,534.649 250.029,535.186C248.925,535.561 247.667,534.006 246.086,534.174C245.003,534.288 245.476,536.98 244.155,537.507C243.591,537.732 243.045,537.909 242.252,537.682C241.728,538.24 241.191,538.755 240.651,539.229C243.153,541.053 244.046,540.811 245.059,540.388C246.573,539.76 245.885,536.614 247.13,536.474C248.373,536.333 249.277,537.454 251.08,536.813C252.882,536.172 258.074,530.895 255.019,523.321Z" style="fill:rgb(225,42,43);fill-rule:nonzero;"/>
                <path d="M249.48,534.407C248.491,534.739 247.365,533.364 245.951,533.513C244.98,533.615 245.403,535.995 244.22,536.462C243.038,536.93 241.952,537.166 237.909,533.12C233.561,528.77 234.979,524.699 237.328,523.232C239.381,521.95 241.324,524.939 243.113,524.67C244.902,524.398 244.164,521.308 246.227,520.312C248.289,519.316 250.711,519.019 252.73,524.214C254.834,529.623 250.887,533.933 249.48,534.407ZM253.953,523.915C251.22,517.219 248.287,516.983 245.921,518.173C243.555,519.36 245.021,523.134 242.969,523.46C240.916,523.79 237.223,519.723 234.869,521.251C232.175,522.999 230.456,528.317 236.508,534.047C242.561,539.776 242.821,539.105 244.177,538.548C245.533,537.989 245.368,534.602 246.482,534.477C247.596,534.354 248.806,536.412 250.42,535.845C252.034,535.279 256.685,530.61 253.953,523.915Z" style="fill:rgb(190,32,38);fill-rule:nonzero;"/>
                <path d="M243.886,524.269C244.331,523.964 244.593,520.743 246.355,520.1C248.067,519.47 249.737,519.174 251.45,521.683C252.114,521.902 252.748,522.191 253.343,522.537C250.79,517.196 248.063,516.978 245.921,518.173C243.901,519.298 244.736,522.509 243.584,523.199C243.839,523.087 243.62,524.358 243.886,524.269Z" style="fill:rgb(165,30,34);fill-rule:nonzero;"/>
                <path d="M238.303,533.509C238.175,533.384 238.044,533.255 237.909,533.12C233.561,528.77 234.979,524.699 237.328,523.232C238.648,522.408 239.923,523.35 241.142,524.055C241.398,523.805 241.669,523.568 241.953,523.347C239.845,522.7 236.873,519.951 234.869,521.251C232.175,522.999 230.456,528.317 236.508,534.047C237.876,535.343 238.947,536.308 239.803,537.024C239.097,535.977 238.58,534.79 238.303,533.509Z" style="fill:rgb(165,30,34);fill-rule:nonzero;"/>
                <path d="M252.73,524.214C254.834,529.623 250.887,533.933 249.48,534.407C248.491,534.739 247.365,533.364 245.951,533.513C244.98,533.615 245.403,535.995 244.22,536.462C243.038,536.93 241.952,537.166 237.909,533.12C237.39,532.6 236.955,532.085 236.591,531.576C236.967,532.115 237.425,532.661 237.977,533.213C242.019,537.258 243.105,537.022 244.288,536.556C245.47,536.09 245.047,533.709 246.018,533.606C247.433,533.458 248.559,534.833 249.547,534.5C250.954,534.026 254.901,529.718 252.798,524.308C252.344,523.14 251.869,522.251 251.382,521.584C251.846,522.24 252.297,523.1 252.73,524.214Z" style="fill:rgb(248,159,124);fill-rule:nonzero;"/>
                <path d="M234.936,521.345C237.29,519.816 240.984,523.882 243.036,523.554C245.088,523.227 243.623,519.454 245.99,518.266C247.759,517.377 249.847,517.285 251.928,520.097C249.823,517.191 247.711,517.272 245.921,518.173C243.555,519.36 245.021,523.134 242.969,523.46C240.916,523.79 237.223,519.723 234.869,521.251C232.581,522.736 230.999,526.797 234.281,531.498C231.085,526.837 232.663,522.819 234.936,521.345Z" style="fill:rgb(248,159,124);fill-rule:nonzero;"/>
                <path d="M246.058,520.061C243.996,521.058 244.732,524.147 242.944,524.418C241.156,524.689 239.211,521.699 237.159,522.982C235.1,524.269 233.756,527.557 236.389,531.281C233.988,527.661 235.315,524.491 237.328,523.232C239.381,521.95 241.324,524.939 243.113,524.67C244.902,524.398 244.164,521.308 246.227,520.312C247.854,519.525 249.703,519.179 251.402,521.613C249.657,518.904 247.738,519.249 246.058,520.061Z" style="fill:rgb(227,51,50);fill-rule:nonzero;"/>
                <path d="M253.953,523.915C253.329,522.387 252.695,521.199 252.059,520.283C252.638,521.162 253.216,522.272 253.784,523.665C256.515,530.361 251.865,535.028 250.251,535.595C248.637,536.162 247.427,534.104 246.313,534.228C245.199,534.353 245.364,537.739 244.008,538.298C242.652,538.855 242.391,539.525 236.339,533.797C235.424,532.931 234.689,532.073 234.105,531.236C234.713,532.153 235.501,533.093 236.508,534.047C242.561,539.776 242.821,539.105 244.177,538.548C245.533,537.989 245.368,534.602 246.482,534.477C247.596,534.354 248.806,536.412 250.42,535.845C252.034,535.279 256.685,530.61 253.953,523.915Z" style="fill:rgb(227,51,50);fill-rule:nonzero;"/>
                <path d="M243.166,522.252C243.16,522.094 243.017,521.97 242.844,521.975C242.672,521.982 242.537,522.115 242.542,522.273C242.548,522.433 242.692,522.558 242.864,522.553C243.037,522.546 243.172,522.412 243.166,522.252Z" style="fill:rgb(240,73,74);fill-rule:nonzero;"/>
                <path d="M250.828,536.485C250.823,536.327 250.678,536.203 250.506,536.21C250.334,536.216 250.199,536.35 250.205,536.508C250.21,536.667 250.354,536.791 250.527,536.785C250.699,536.779 250.833,536.644 250.828,536.485Z" style="fill:rgb(239,54,54);fill-rule:nonzero;"/>
                <path d="M247.203,535.175C247.198,535.015 247.054,534.891 246.881,534.896C246.709,534.903 246.574,535.036 246.58,535.195C246.585,535.355 246.729,535.478 246.901,535.473C247.074,535.467 247.21,535.332 247.203,535.175Z" style="fill:rgb(239,54,54);fill-rule:nonzero;"/>
                <path d="M241.714,521.824C241.712,521.735 241.632,521.667 241.537,521.67C241.439,521.673 241.366,521.748 241.368,521.837C241.372,521.924 241.451,521.994 241.547,521.99C241.644,521.988 241.718,521.912 241.714,521.824Z" style="fill:rgb(240,73,74);fill-rule:nonzero;"/>
                <path d="M254.114,533.519C254.111,533.43 254.031,533.361 253.936,533.364C253.839,533.368 253.764,533.442 253.767,533.532C253.77,533.619 253.851,533.688 253.946,533.686C254.042,533.682 254.117,533.606 254.114,533.519Z" style="fill:rgb(240,73,74);fill-rule:nonzero;"/>
                <path d="M255.025,530.765C255.021,530.678 254.942,530.607 254.846,530.61C254.749,530.614 254.675,530.688 254.679,530.778C254.682,530.865 254.761,530.933 254.857,530.931C254.953,530.927 255.027,530.852 255.025,530.765Z" style="fill:rgb(240,73,74);fill-rule:nonzero;"/>
                <path d="M255.039,525.769C255.037,525.681 254.957,525.611 254.86,525.614C254.765,525.618 254.69,525.693 254.693,525.781C254.696,525.869 254.776,525.938 254.872,525.935C254.968,525.931 255.043,525.857 255.039,525.769Z" style="fill:rgb(240,73,74);fill-rule:nonzero;"/>
                <path d="M253.895,521.438C253.893,521.35 253.812,521.282 253.717,521.285C253.621,521.29 253.546,521.363 253.549,521.451C253.551,521.54 253.632,521.608 253.727,521.605C253.824,521.602 253.899,521.527 253.895,521.438Z" style="fill:rgb(240,73,74);fill-rule:nonzero;"/>
                <path d="M250.401,517.722C250.398,517.632 250.318,517.563 250.223,517.566C250.126,517.569 250.052,517.644 250.055,517.732C250.057,517.821 250.138,517.891 250.234,517.887C250.33,517.884 250.404,517.808 250.401,517.722Z" style="fill:rgb(240,73,74);fill-rule:nonzero;"/>
                <path d="M248.038,516.603C248.035,516.516 247.955,516.446 247.859,516.45C247.762,516.454 247.688,516.528 247.691,516.615C247.694,516.705 247.774,516.773 247.87,516.769C247.966,516.767 248.04,516.691 248.038,516.603Z" style="fill:rgb(240,73,74);fill-rule:nonzero;"/>
                <path d="M245.667,517.985C245.664,517.897 245.583,517.829 245.488,517.831C245.393,517.835 245.317,517.91 245.32,517.998C245.324,518.085 245.404,518.154 245.498,518.15C245.595,518.148 245.67,518.074 245.667,517.985Z" style="fill:rgb(240,73,74);fill-rule:nonzero;"/>
                <path d="M244.052,540.138C244.049,540.048 243.968,539.979 243.873,539.983C243.777,539.987 243.702,540.061 243.705,540.149C243.709,540.238 243.789,540.307 243.884,540.303C243.981,540.3 244.055,540.225 244.052,540.138Z" style="fill:rgb(240,73,74);fill-rule:nonzero;"/>
                <path d="M245.352,539.706C245.349,539.619 245.27,539.551 245.173,539.553C245.078,539.556 245.002,539.63 245.006,539.72C245.009,539.807 245.088,539.876 245.185,539.873C245.281,539.869 245.355,539.795 245.352,539.706Z" style="fill:rgb(240,73,74);fill-rule:nonzero;"/>
                <path d="M245.159,538.337C245.156,538.248 245.076,538.18 244.98,538.183C244.884,538.186 244.809,538.261 244.813,538.349C244.816,538.436 244.895,538.506 244.992,538.503C245.088,538.5 245.163,538.424 245.159,538.337Z" style="fill:rgb(240,73,74);fill-rule:nonzero;"/>
                <path d="M241.155,539.199C241.152,539.111 241.073,539.042 240.976,539.045C240.88,539.049 240.806,539.123 240.809,539.212C240.812,539.3 240.892,539.37 240.988,539.366C241.084,539.362 241.159,539.288 241.155,539.199Z" style="fill:rgb(240,73,74);fill-rule:nonzero;"/>
                <path d="M240.143,537.747C240.14,537.659 240.06,537.589 239.964,537.593C239.869,537.596 239.794,537.67 239.797,537.76C239.801,537.847 239.88,537.917 239.976,537.912C240.072,537.909 240.146,537.834 240.143,537.747Z" style="fill:rgb(240,73,74);fill-rule:nonzero;"/>
                <path d="M238.481,536.94C238.479,536.853 238.398,536.784 238.303,536.788C238.206,536.791 238.132,536.865 238.135,536.954C238.138,537.042 238.218,537.111 238.314,537.107C238.409,537.104 238.484,537.028 238.481,536.94Z" style="fill:rgb(240,73,74);fill-rule:nonzero;"/>
                <path d="M236.126,534.175C236.123,534.086 236.044,534.017 235.947,534.021C235.851,534.024 235.776,534.099 235.78,534.187C235.783,534.276 235.862,534.344 235.958,534.341C236.054,534.337 236.129,534.263 236.126,534.175Z" style="fill:rgb(240,73,74);fill-rule:nonzero;"/>
                <path d="M233.48,531.339C233.477,531.251 233.396,531.181 233.3,531.185C233.204,531.188 233.129,531.263 233.133,531.352C233.136,531.439 233.215,531.509 233.313,531.505C233.408,531.502 233.483,531.428 233.48,531.339Z" style="fill:rgb(240,73,74);fill-rule:nonzero;"/>
                <path d="M231.959,527.743C231.956,527.655 231.876,527.585 231.78,527.589C231.684,527.593 231.609,527.667 231.612,527.755C231.616,527.844 231.696,527.912 231.792,527.909C231.888,527.906 231.961,527.83 231.959,527.743Z" style="fill:rgb(240,73,74);fill-rule:nonzero;"/>
                <path d="M233.31,530.624C233.307,530.537 233.227,530.468 233.131,530.471C233.035,530.474 232.96,530.548 232.963,530.638C232.967,530.725 233.046,530.794 233.143,530.79C233.239,530.787 233.313,530.712 233.31,530.624Z" style="fill:rgb(240,73,74);fill-rule:nonzero;"/>
                <path d="M243.728,519.686C243.725,519.6 243.645,519.529 243.55,519.532C243.453,519.536 243.379,519.611 243.381,519.699C243.385,519.787 243.465,519.856 243.561,519.852C243.656,519.85 243.731,519.774 243.728,519.686Z" style="fill:rgb(240,73,74);fill-rule:nonzero;"/>
                <path d="M237.894,520.399C237.891,520.311 237.811,520.241 237.715,520.245C237.619,520.249 237.544,520.322 237.548,520.411C237.551,520.499 237.63,520.568 237.726,520.566C237.823,520.561 237.896,520.488 237.894,520.399Z" style="fill:rgb(240,73,74);fill-rule:nonzero;"/>
                <path d="M235.339,519.6C235.336,519.512 235.256,519.443 235.16,519.447C235.064,519.451 234.988,519.525 234.992,519.614C234.995,519.701 235.076,519.772 235.172,519.767C235.267,519.765 235.343,519.689 235.339,519.6Z" style="fill:rgb(240,73,74);fill-rule:nonzero;"/>
                <path d="M240.001,521.574C239.998,521.485 239.918,521.415 239.822,521.42C239.726,521.423 239.651,521.496 239.655,521.587C239.657,521.673 239.737,521.741 239.835,521.738C239.929,521.735 240.004,521.66 240.001,521.574Z" style="fill:rgb(240,73,74);fill-rule:nonzero;"/>
                <path d="M241.38,520.515C241.377,520.426 241.297,520.357 241.201,520.36C241.106,520.364 241.031,520.438 241.034,520.527C241.037,520.615 241.117,520.686 241.213,520.681C241.309,520.678 241.383,520.603 241.38,520.515Z" style="fill:rgb(240,73,74);fill-rule:nonzero;"/>
                <path d="M233.746,520.587C233.743,520.498 233.662,520.429 233.567,520.433C233.471,520.436 233.397,520.511 233.4,520.6C233.403,520.687 233.483,520.757 233.579,520.754C233.674,520.751 233.748,520.675 233.746,520.587Z" style="fill:rgb(240,73,74);fill-rule:nonzero;"/>
                <path d="M232.604,523.613C232.602,523.524 232.522,523.455 232.426,523.459C232.33,523.462 232.255,523.537 232.258,523.626C232.261,523.714 232.341,523.783 232.438,523.779C232.533,523.775 232.607,523.701 232.604,523.613Z" style="fill:rgb(240,73,74);fill-rule:nonzero;"/>
                <path d="M232.167,522.141C232.164,522.051 232.085,521.982 231.989,521.986C231.893,521.99 231.818,522.063 231.821,522.152C231.825,522.241 231.904,522.311 232.001,522.306C232.096,522.303 232.171,522.228 232.167,522.141Z" style="fill:rgb(240,73,74);fill-rule:nonzero;"/>
                <path d="M318.127,493.145C317.025,493.597 315.642,492.085 314.04,492.351C312.943,492.533 313.599,495.253 312.287,495.869C310.975,496.488 309.754,496.834 304.851,492.437C299.578,487.705 300.895,482.915 303.463,481.063C305.706,479.445 308.14,482.767 310.158,482.334C312.175,481.901 311.107,478.385 313.384,477.098C315.661,475.808 318.397,475.306 321.081,481.163C323.874,487.268 319.695,492.505 318.127,493.145ZM322.45,480.737C318.846,473.193 315.487,473.117 312.879,474.648C310.271,476.177 310.621,477.721 308.307,478.236C305.993,478.753 302.725,476.599 300.156,478.519C297.215,480.716 296.008,487.392 303.324,493.6C310.64,499.807 311.89,499.491 313.393,498.756C314.898,498.019 313.993,494.854 315.252,494.636C316.512,494.416 317.507,495.506 319.303,494.744C321.1,493.98 326.056,488.282 322.45,480.737Z" style="fill:rgb(248,159,124);fill-rule:nonzero;"/>
                <path d="M318.209,493.191C317.116,493.638 315.75,492.14 314.164,492.404C313.075,492.584 313.715,495.277 312.411,495.889C311.109,496.503 309.898,496.845 305.059,492.487C299.853,487.804 301.176,483.058 303.728,481.225C305.957,479.62 308.355,482.91 310.356,482.48C312.357,482.053 311.313,478.569 313.573,477.294C315.834,476.018 318.548,475.518 321.182,481.322C323.926,487.367 319.765,492.556 318.209,493.191ZM322.541,480.9C318.999,473.425 315.673,473.351 313.082,474.866C310.493,476.382 310.833,477.913 308.539,478.423C306.244,478.933 303.015,476.8 300.461,478.701C297.54,480.88 296.317,487.493 303.54,493.641C310.765,499.788 312.004,499.476 313.497,498.747C314.99,498.019 314.106,494.883 315.355,494.668C316.604,494.45 317.585,495.528 319.368,494.772C321.151,494.018 326.083,488.374 322.541,480.9Z" style="fill:rgb(239,54,54);fill-rule:nonzero;"/>
                <path d="M322.541,480.9C321.158,477.98 319.809,476.194 318.521,475.187C318.472,475.859 318.401,476.544 318.311,477.236C319.262,477.945 320.227,479.218 321.182,481.322C323.926,487.367 319.765,492.556 318.209,493.191C317.116,493.638 315.75,492.14 314.164,492.404C313.075,492.584 313.715,495.277 312.411,495.889C311.854,496.153 311.314,496.364 310.498,496.18C310.001,496.776 309.49,497.328 308.973,497.84C311.611,499.534 312.498,499.235 313.497,498.747C314.99,498.019 314.106,494.883 315.355,494.668C316.604,494.45 317.585,495.528 319.368,494.772C321.151,494.018 326.083,488.374 322.541,480.9Z" style="fill:rgb(225,42,43);fill-rule:nonzero;"/>
                <path d="M317.607,492.437C316.627,492.832 315.407,491.51 313.986,491.745C313.012,491.906 313.581,494.286 312.413,494.829C311.247,495.372 310.164,495.677 305.835,491.829C301.18,487.693 302.369,483.495 304.655,481.871C306.653,480.452 308.796,483.358 310.588,482.976C312.379,482.596 311.449,479.517 313.475,478.386C315.499,477.256 317.929,476.812 320.281,481.939C322.732,487.282 319.001,491.872 317.607,492.437ZM321.499,481.565C318.336,474.96 315.357,474.898 313.037,476.241C310.717,477.583 312.425,481.308 310.37,481.764C308.314,482.219 304.338,478.331 302.051,480.016C299.433,481.944 298.014,487.422 304.475,492.851C310.935,498.279 311.157,497.584 312.496,496.939C313.833,496.295 313.462,492.882 314.581,492.688C315.699,492.497 317.046,494.505 318.643,493.834C320.24,493.165 324.662,488.169 321.499,481.565Z" style="fill:rgb(190,32,38);fill-rule:nonzero;"/>
                <path d="M311.346,482.525C311.777,482.19 311.849,478.921 313.591,478.162C315.284,477.425 316.954,477.025 318.836,479.458C319.52,479.642 320.177,479.894 320.801,480.209C317.899,474.964 315.13,474.906 313.037,476.241C311.063,477.499 312.099,480.695 310.976,481.463C311.227,481.333 311.081,482.633 311.346,482.525Z" style="fill:rgb(165,30,34);fill-rule:nonzero;"/>
                <path d="M306.256,492.2C306.12,492.081 305.978,491.958 305.835,491.829C301.18,487.693 302.369,483.495 304.655,481.871C305.941,480.958 307.285,481.834 308.558,482.474C308.803,482.205 309.064,481.95 309.335,481.709C307.167,481.182 303.998,478.582 302.051,480.016C299.433,481.944 298.014,487.422 304.475,492.851C305.935,494.077 307.075,494.991 307.983,495.663C307.206,494.646 306.613,493.477 306.256,492.2Z" style="fill:rgb(165,30,34);fill-rule:nonzero;"/>
                <path d="M320.281,481.939C322.732,487.282 319.001,491.872 317.607,492.437C316.627,492.832 315.407,491.51 313.986,491.745C313.012,491.906 313.581,494.286 312.413,494.829C311.247,495.372 310.164,495.677 305.835,491.829C305.279,491.335 304.808,490.841 304.41,490.349C304.823,490.869 305.318,491.395 305.909,491.92C310.237,495.767 311.321,495.464 312.488,494.92C313.655,494.377 313.085,491.998 314.06,491.836C315.481,491.601 316.702,492.924 317.681,492.527C319.074,491.963 322.806,487.373 320.355,482.03C319.826,480.878 319.293,480.008 318.762,479.362C319.269,479.998 319.777,480.84 320.281,481.939Z" style="fill:rgb(248,159,124);fill-rule:nonzero;"/>
                <path d="M302.125,480.106C304.412,478.421 308.388,482.308 310.443,481.854C312.498,481.4 310.79,477.674 313.111,476.331C314.847,475.328 316.951,475.109 319.224,477.827C316.921,475.017 314.792,475.226 313.037,476.241C310.717,477.583 312.425,481.308 310.37,481.764C308.314,482.219 304.338,478.331 302.051,480.016C299.828,481.653 298.472,485.854 302.071,490.407C298.56,485.888 299.916,481.733 302.125,480.106Z" style="fill:rgb(248,159,124);fill-rule:nonzero;"/>
                <path d="M313.289,478.143C311.264,479.273 312.193,482.354 310.402,482.733C308.611,483.115 306.467,480.209 304.469,481.629C302.464,483.052 301.304,486.457 304.188,490.062C301.545,486.547 302.696,483.265 304.655,481.871C306.653,480.452 308.796,483.358 310.588,482.976C312.379,482.596 311.449,479.517 313.475,478.386C315.071,477.493 316.919,477.031 318.783,479.39C316.856,476.758 314.938,477.222 313.289,478.143Z" style="fill:rgb(227,51,50);fill-rule:nonzero;"/>
                <path d="M321.499,481.565C320.777,480.057 320.065,478.894 319.368,478.007C320.005,478.86 320.655,479.947 321.314,481.322C324.476,487.926 320.055,492.923 318.458,493.591C316.86,494.262 315.514,492.255 314.396,492.446C313.277,492.64 313.647,496.053 312.31,496.698C310.972,497.342 310.749,498.035 304.289,492.608C303.311,491.787 302.518,490.965 301.878,490.154C302.547,491.044 303.399,491.947 304.475,492.851C310.935,498.279 311.157,497.584 312.496,496.939C313.833,496.295 313.462,492.882 314.581,492.688C315.699,492.497 317.046,494.505 318.643,493.834C320.24,493.165 324.662,488.169 321.499,481.565Z" style="fill:rgb(227,51,50);fill-rule:nonzero;"/>
                <path d="M310.497,480.53C310.482,480.37 310.329,480.254 310.155,480.27C309.981,480.287 309.853,480.432 309.868,480.59C309.883,480.751 310.036,480.868 310.21,480.851C310.384,480.835 310.512,480.691 310.497,480.53Z" style="fill:rgb(240,73,74);fill-rule:nonzero;"/>
                <path d="M319.094,494.457C319.079,494.298 318.926,494.18 318.752,494.197C318.579,494.214 318.45,494.356 318.466,494.518C318.48,494.678 318.633,494.793 318.808,494.778C318.981,494.761 319.109,494.617 319.094,494.457Z" style="fill:rgb(239,54,54);fill-rule:nonzero;"/>
                <path d="M315.352,493.348C315.336,493.188 315.184,493.07 315.009,493.088C314.836,493.104 314.707,493.247 314.723,493.408C314.738,493.568 314.891,493.686 315.064,493.669C315.239,493.652 315.368,493.51 315.352,493.348Z" style="fill:rgb(239,54,54);fill-rule:nonzero;"/>
                <path d="M309.004,480.184C308.996,480.095 308.911,480.03 308.814,480.04C308.717,480.049 308.647,480.129 308.655,480.217C308.664,480.306 308.748,480.372 308.845,480.363C308.942,480.354 309.013,480.273 309.004,480.184Z" style="fill:rgb(240,73,74);fill-rule:nonzero;"/>
                <path d="M322.238,491.261C322.229,491.172 322.145,491.106 322.048,491.116C321.951,491.126 321.879,491.206 321.888,491.295C321.896,491.384 321.981,491.448 322.079,491.439C322.175,491.431 322.246,491.35 322.238,491.261Z" style="fill:rgb(240,73,74);fill-rule:nonzero;"/>
                <path d="M322.993,488.423C322.984,488.336 322.9,488.269 322.804,488.279C322.706,488.288 322.635,488.368 322.644,488.457C322.652,488.545 322.736,488.609 322.834,488.601C322.93,488.592 323.001,488.513 322.993,488.423Z" style="fill:rgb(240,73,74);fill-rule:nonzero;"/>
                <path d="M322.708,483.373C322.7,483.284 322.615,483.219 322.518,483.227C322.422,483.237 322.351,483.318 322.359,483.405C322.368,483.495 322.452,483.559 322.549,483.551C322.646,483.542 322.717,483.463 322.708,483.373Z" style="fill:rgb(240,73,74);fill-rule:nonzero;"/>
                <path d="M321.293,479.065C321.285,478.976 321.199,478.912 321.102,478.922C321.006,478.931 320.935,479.01 320.943,479.098C320.951,479.188 321.037,479.253 321.133,479.243C321.23,479.234 321.301,479.155 321.293,479.065Z" style="fill:rgb(240,73,74);fill-rule:nonzero;"/>
                <path d="M317.538,475.516C317.529,475.429 317.444,475.362 317.349,475.372C317.251,475.381 317.18,475.461 317.189,475.55C317.197,475.638 317.282,475.704 317.379,475.694C317.475,475.687 317.546,475.605 317.538,475.516Z" style="fill:rgb(240,73,74);fill-rule:nonzero;"/>
                <path d="M315.081,474.529C315.074,474.441 314.989,474.376 314.892,474.384C314.795,474.394 314.724,474.474 314.733,474.562C314.741,474.652 314.826,474.717 314.923,474.707C315.02,474.697 315.09,474.619 315.081,474.529Z" style="fill:rgb(240,73,74);fill-rule:nonzero;"/>
                <path d="M312.769,476.066C312.76,475.977 312.675,475.914 312.579,475.924C312.482,475.932 312.411,476.012 312.419,476.101C312.428,476.19 312.513,476.255 312.609,476.245C312.706,476.237 312.777,476.157 312.769,476.066Z" style="fill:rgb(240,73,74);fill-rule:nonzero;"/>
                <path d="M312.464,498.554C312.456,498.465 312.371,498.399 312.274,498.409C312.178,498.419 312.106,498.498 312.115,498.587C312.124,498.676 312.208,498.741 312.305,498.732C312.402,498.723 312.474,498.643 312.464,498.554Z" style="fill:rgb(240,73,74);fill-rule:nonzero;"/>
                <path d="M313.753,498.041C313.744,497.951 313.66,497.887 313.563,497.896C313.466,497.905 313.394,497.985 313.403,498.074C313.411,498.162 313.496,498.227 313.593,498.219C313.69,498.21 313.761,498.129 313.753,498.041Z" style="fill:rgb(240,73,74);fill-rule:nonzero;"/>
                <path d="M313.476,496.668C313.467,496.578 313.382,496.514 313.286,496.522C313.189,496.532 313.117,496.611 313.126,496.701C313.134,496.789 313.22,496.854 313.316,496.847C313.413,496.837 313.484,496.757 313.476,496.668Z" style="fill:rgb(240,73,74);fill-rule:nonzero;"/>
                <path d="M309.48,497.779C309.472,497.691 309.387,497.626 309.29,497.635C309.193,497.644 309.123,497.724 309.131,497.813C309.14,497.902 309.224,497.967 309.321,497.957C309.418,497.949 309.489,497.869 309.48,497.779Z" style="fill:rgb(240,73,74);fill-rule:nonzero;"/>
                <path d="M308.37,496.372C308.362,496.283 308.277,496.218 308.18,496.227C308.084,496.236 308.013,496.316 308.021,496.405C308.03,496.494 308.115,496.559 308.211,496.55C308.308,496.541 308.378,496.461 308.37,496.372Z" style="fill:rgb(240,73,74);fill-rule:nonzero;"/>
                <path d="M306.643,495.657C306.634,495.568 306.549,495.504 306.453,495.513C306.355,495.522 306.285,495.602 306.293,495.691C306.302,495.779 306.387,495.846 306.483,495.836C306.58,495.826 306.65,495.746 306.643,495.657Z" style="fill:rgb(240,73,74);fill-rule:nonzero;"/>
                <path d="M304.096,493.002C304.088,492.914 304.003,492.849 303.906,492.858C303.809,492.867 303.739,492.947 303.747,493.035C303.755,493.126 303.84,493.189 303.936,493.18C304.033,493.171 304.104,493.092 304.096,493.002Z" style="fill:rgb(240,73,74);fill-rule:nonzero;"/>
                <path d="M301.251,490.295C301.243,490.207 301.158,490.141 301.06,490.149C300.964,490.159 300.893,490.239 300.901,490.328C300.91,490.417 300.995,490.482 301.092,490.473C301.189,490.464 301.26,490.385 301.251,490.295Z" style="fill:rgb(240,73,74);fill-rule:nonzero;"/>
                <path d="M299.499,486.752C299.49,486.663 299.405,486.597 299.309,486.605C299.212,486.615 299.141,486.695 299.149,486.784C299.158,486.873 299.243,486.938 299.339,486.93C299.436,486.921 299.507,486.84 299.499,486.752Z" style="fill:rgb(240,73,74);fill-rule:nonzero;"/>
                <path d="M301.037,489.584C301.028,489.494 300.944,489.43 300.847,489.438C300.75,489.447 300.679,489.526 300.688,489.617C300.696,489.705 300.78,489.769 300.877,489.761C300.974,489.752 301.045,489.673 301.037,489.584Z" style="fill:rgb(240,73,74);fill-rule:nonzero;"/>
                <path d="M310.912,477.904C310.903,477.814 310.818,477.751 310.722,477.759C310.624,477.769 310.553,477.849 310.563,477.937C310.57,478.025 310.655,478.092 310.752,478.082C310.849,478.072 310.92,477.992 310.912,477.904Z" style="fill:rgb(240,73,74);fill-rule:nonzero;"/>
                <path d="M305.057,478.974C305.048,478.885 304.963,478.818 304.867,478.828C304.771,478.838 304.7,478.918 304.707,479.006C304.717,479.095 304.801,479.161 304.897,479.151C304.995,479.143 305.065,479.062 305.057,478.974Z" style="fill:rgb(240,73,74);fill-rule:nonzero;"/>
                <path d="M302.427,478.32C302.418,478.23 302.333,478.165 302.237,478.175C302.14,478.184 302.068,478.265 302.077,478.354C302.085,478.442 302.171,478.508 302.268,478.498C302.364,478.489 302.435,478.408 302.427,478.32Z" style="fill:rgb(240,73,74);fill-rule:nonzero;"/>
                <path d="M307.257,480.034C307.249,479.944 307.164,479.879 307.068,479.888C306.971,479.897 306.899,479.977 306.908,480.066C306.915,480.155 307,480.221 307.098,480.211C307.195,480.201 307.266,480.122 307.257,480.034Z" style="fill:rgb(240,73,74);fill-rule:nonzero;"/>
                <path d="M308.587,478.882C308.579,478.792 308.495,478.727 308.398,478.737C308.301,478.747 308.23,478.825 308.239,478.915C308.247,479.003 308.332,479.068 308.428,479.061C308.525,479.051 308.596,478.971 308.587,478.882Z" style="fill:rgb(240,73,74);fill-rule:nonzero;"/>
                <path d="M300.875,479.411C300.867,479.322 300.782,479.258 300.686,479.267C300.589,479.276 300.519,479.355 300.527,479.445C300.535,479.534 300.62,479.6 300.717,479.59C300.814,479.58 300.884,479.501 300.875,479.411Z" style="fill:rgb(240,73,74);fill-rule:nonzero;"/>
                <path d="M299.903,482.538C299.895,482.45 299.811,482.385 299.713,482.394C299.616,482.402 299.546,482.482 299.555,482.571C299.563,482.661 299.647,482.726 299.745,482.717C299.841,482.708 299.912,482.629 299.903,482.538Z" style="fill:rgb(240,73,74);fill-rule:nonzero;"/>
                <path d="M299.374,481.076C299.365,480.986 299.281,480.922 299.184,480.931C299.087,480.94 299.017,481.02 299.024,481.109C299.033,481.198 299.118,481.263 299.215,481.254C299.311,481.244 299.383,481.164 299.374,481.076Z" style="fill:rgb(240,73,74);fill-rule:nonzero;"/>
                <path d="M299.965,517.99C298.692,518.477 296.936,518.209 296.869,518.965C296.803,519.722 298.282,518.462 300.106,520.482C300.419,520.829 299.965,517.99 299.965,517.99Z" style="fill:rgb(175,174,53);fill-rule:nonzero;"/>
                <path d="M281.086,519.855C282.09,518.931 283.821,518.529 283.603,517.803C283.384,517.076 282.169,518.912 280.679,517.567C280.332,517.256 281.086,519.855 281.086,519.855Z" style="fill:rgb(175,174,53);fill-rule:nonzero;"/>
                <path d="M292.686,529.848C291.012,532.925 286.564,533.646 282.129,528.526C278.723,524.594 279.581,519.571 281.458,518.459C281.458,518.459 277.356,513.84 282.36,510.405C287.163,507.109 291.193,508.137 291.829,511.721C291.829,511.721 295.549,509.263 298.632,510.032C301.24,510.683 300.708,517.279 298.829,518.436C300.3,519.259 303.504,521.822 301.317,525.074C298.774,528.857 296.041,530.936 292.686,529.848ZM301.155,518.308C303.251,516.619 302.689,509.368 299.369,508.6C296.169,507.859 292.728,510.172 292.728,510.172C291.975,505.933 286.757,504.423 281.076,508.322C275.157,512.386 279.665,518.154 279.665,518.154C277.445,519.472 276.43,525.413 280.46,530.066C285.706,536.123 291.096,535.015 293.078,531.374C296.891,532.611 300.35,530.746 302.921,526.481C304.96,523.105 302.728,518.834 301.155,518.308Z" style="fill:rgb(196,196,58);fill-rule:nonzero;"/>
                <path d="M302.024,522.39C302.139,523.206 301.966,524.108 301.317,525.074C298.774,528.857 296.041,530.936 292.686,529.848C291.012,532.925 286.564,533.646 282.129,528.526C280.911,527.121 280.247,525.577 279.97,524.12C279.176,523.764 278.423,523.363 277.72,522.925C277.707,525.142 278.464,527.762 280.46,530.066C285.706,536.123 291.096,535.015 293.078,531.374C296.891,532.611 300.35,530.746 302.921,526.481C303.944,524.789 303.892,522.87 303.388,521.313C302.962,521.691 302.507,522.05 302.024,522.39Z" style="fill:rgb(175,174,53);fill-rule:nonzero;"/>
                <path d="M292.495,529.338C290.965,532.151 286.903,532.811 282.855,528.134C279.746,524.541 280.531,519.95 282.245,518.933C282.245,518.933 278.501,514.712 283.071,511.573C287.456,508.558 291.136,509.497 291.716,512.772C291.716,512.772 295.114,510.525 297.929,511.229C300.31,511.822 299.563,517.686 298.107,518.908C299.451,519.66 302.374,522.002 300.378,524.975C298.054,528.433 295.559,530.333 292.495,529.338ZM299.04,518.79C300.954,517.246 301.633,510.619 298.603,509.919C295.681,509.241 292.279,511.682 292.279,511.682C291.179,509.514 287.087,506.104 281.897,509.67C276.492,513.384 281.679,518.681 281.679,518.681C279.65,519.884 277.651,525.29 281.33,529.541C286.119,535.076 290.768,533.297 292.578,529.971C296.06,531.1 299.492,530.158 301.842,526.261C303.705,523.173 300.476,519.269 299.04,518.79Z" style="fill:rgb(175,174,53);fill-rule:nonzero;"/>
                <path d="M292.526,529.233C290.963,532.106 286.812,532.78 282.673,528.002C279.494,524.331 280.294,519.642 282.046,518.603C282.046,518.603 278.218,514.293 282.888,511.088C287.371,508.012 291.131,508.97 291.726,512.316C291.726,512.316 295.198,510.021 298.076,510.74C300.51,511.348 300.014,517.503 298.26,518.585C299.633,519.352 302.623,521.744 300.583,524.779C298.208,528.311 295.657,530.251 292.526,529.233ZM299.214,518.462C301.17,516.886 301.862,510.119 298.764,509.402C295.777,508.712 292.3,511.201 292.3,511.201C291.175,508.988 287.518,505.921 282.215,509.561C276.69,513.352 281.467,518.348 281.467,518.348C279.394,519.575 277.353,525.096 281.114,529.437C286.011,535.092 290.762,533.277 292.612,529.881C296.17,531.035 299.679,530.072 302.08,526.094C303.982,522.939 300.681,518.952 299.214,518.462Z" style="fill:rgb(234,230,83);fill-rule:nonzero;"/>
                <path d="M293.933,530.856C293.035,529.831 292.994,527.337 292.262,527.537C291.53,527.737 293.018,529.751 291.637,531.21C291.317,531.548 293.933,530.856 293.933,530.856Z" style="fill:rgb(175,174,53);fill-rule:nonzero;"/>
                <path d="M300.308,517.187C299.257,518.058 296.762,518.027 296.942,518.765C297.122,519.501 299.176,518.071 300.596,519.493C300.924,519.822 300.308,517.187 300.308,517.187Z" style="fill:rgb(196,196,58);fill-rule:nonzero;"/>
                <path d="M291.563,510.153C292.168,511.375 291.247,513.865 292.005,513.86C292.764,513.853 291.844,511.526 293.553,510.472C293.95,510.226 291.563,510.153 291.563,510.153Z" style="fill:rgb(196,196,58);fill-rule:nonzero;"/>
                <path d="M280.427,519.35C281.43,518.426 283.923,518.324 283.705,517.598C283.486,516.871 281.509,518.407 280.019,517.062C279.672,516.751 280.427,519.35 280.427,519.35Z" style="fill:rgb(196,196,58);fill-rule:nonzero;"/>
                <path d="M285.945,506.567C285.81,506.387 283.121,506.769 281.079,508.308C279.037,509.849 278.414,511.964 278.549,512.144C278.685,512.323 279.502,510.313 281.544,508.774C283.586,507.235 286.081,506.747 285.945,506.567Z" style="fill:rgb(217,212,66);fill-rule:nonzero;"/>
                <path d="M342.424,559.944C341.46,560.312 340.129,560.109 340.078,560.683C340.028,561.255 341.149,560.302 342.531,561.832C342.768,562.095 342.424,559.944 342.424,559.944Z" style="fill:rgb(175,174,53);fill-rule:nonzero;"/>
                <path d="M328.12,561.356C328.88,560.656 330.192,560.352 330.026,559.802C329.861,559.251 328.941,560.644 327.81,559.623C327.549,559.387 328.12,561.356 328.12,561.356Z" style="fill:rgb(175,174,53);fill-rule:nonzero;"/>
                <path d="M336.91,568.928C335.64,571.26 332.271,571.807 328.91,567.927C326.329,564.947 326.979,561.141 328.402,560.299C328.402,560.299 325.294,556.799 329.085,554.196C332.724,551.7 335.777,552.477 336.259,555.193C336.259,555.193 339.078,553.331 341.414,553.914C343.39,554.408 342.987,559.405 341.564,560.282C342.678,560.904 345.106,562.848 343.449,565.311C341.522,568.178 339.451,569.753 336.91,568.928ZM343.326,560.183C344.914,558.905 344.487,553.411 341.972,552.828C339.548,552.267 336.941,554.02 336.941,554.02C336.37,550.808 332.417,549.664 328.112,552.619C323.627,555.697 327.043,560.067 327.043,560.067C325.361,561.064 324.592,565.568 327.645,569.094C331.62,573.683 335.704,572.844 337.206,570.084C340.095,571.022 342.715,569.608 344.664,566.378C346.209,563.818 344.518,560.582 343.326,560.183Z" style="fill:rgb(196,196,58);fill-rule:nonzero;"/>
                <path d="M343.984,563.277C344.071,563.895 343.94,564.58 343.449,565.311C341.522,568.178 339.451,569.753 336.91,568.928C335.64,571.26 332.271,571.807 328.91,567.927C327.987,566.861 327.483,565.691 327.274,564.588C326.672,564.318 326.102,564.015 325.569,563.682C325.559,565.363 326.133,567.348 327.645,569.094C331.62,573.683 335.704,572.844 337.206,570.084C340.095,571.022 342.715,569.608 344.664,566.378C345.439,565.095 345.399,563.642 345.018,562.461C344.695,562.748 344.35,563.019 343.984,563.277Z" style="fill:rgb(175,174,53);fill-rule:nonzero;"/>
                <path d="M336.764,568.542C335.605,570.673 332.527,571.175 329.46,567.63C327.104,564.907 327.699,561.43 328.997,560.657C328.997,560.657 326.161,557.46 329.624,555.081C332.947,552.798 335.735,553.508 336.174,555.99C336.174,555.99 338.749,554.288 340.882,554.82C342.686,555.27 342.119,559.713 341.016,560.64C342.035,561.209 344.25,562.983 342.737,565.235C340.976,567.855 339.085,569.296 336.764,568.542ZM341.723,560.55C343.173,559.38 343.688,554.358 341.392,553.828C339.178,553.315 336.601,555.164 336.601,555.164C335.767,553.521 332.667,550.938 328.734,553.639C324.639,556.453 328.568,560.467 328.568,560.467C327.032,561.378 325.517,565.475 328.305,568.696C331.933,572.89 335.456,571.542 336.827,569.02C339.466,569.877 342.066,569.163 343.846,566.21C345.257,563.87 342.811,560.913 341.723,560.55Z" style="fill:rgb(175,174,53);fill-rule:nonzero;"/>
                <path d="M336.788,568.463C335.603,570.639 332.458,571.149 329.322,567.53C326.913,564.747 327.52,561.196 328.847,560.408C328.847,560.408 325.946,557.142 329.485,554.714C332.882,552.384 335.731,553.109 336.182,555.644C336.182,555.644 338.812,553.905 340.993,554.45C342.837,554.911 342.461,559.575 341.132,560.394C342.173,560.975 344.438,562.787 342.893,565.088C341.093,567.764 339.16,569.233 336.788,568.463ZM341.855,560.302C343.337,559.106 343.861,553.979 341.514,553.436C339.251,552.913 336.617,554.799 336.617,554.799C335.764,553.122 332.993,550.799 328.975,553.558C324.789,556.43 328.409,560.214 328.409,560.214C326.837,561.144 325.291,565.327 328.141,568.618C331.852,572.901 335.451,571.526 336.853,568.952C339.549,569.828 342.207,569.099 344.026,566.084C345.468,563.693 342.967,560.673 341.855,560.302Z" style="fill:rgb(234,230,83);fill-rule:nonzero;"/>
                <path d="M337.853,569.693C337.173,568.915 337.142,567.024 336.587,567.177C336.033,567.328 337.16,568.855 336.114,569.961C335.872,570.217 337.853,569.693 337.853,569.693Z" style="fill:rgb(175,174,53);fill-rule:nonzero;"/>
                <path d="M342.684,559.335C341.888,559.994 339.998,559.972 340.133,560.53C340.27,561.089 341.826,560.005 342.902,561.082C343.151,561.332 342.684,559.335 342.684,559.335Z" style="fill:rgb(196,196,58);fill-rule:nonzero;"/>
                <path d="M336.058,554.006C336.517,554.933 335.818,556.818 336.393,556.814C336.968,556.81 336.271,555.046 337.566,554.247C337.867,554.061 336.058,554.006 336.058,554.006Z" style="fill:rgb(196,196,58);fill-rule:nonzero;"/>
                <path d="M327.621,560.974C328.38,560.272 330.27,560.197 330.103,559.646C329.939,559.096 328.44,560.26 327.311,559.241C327.048,559.004 327.621,560.974 327.621,560.974Z" style="fill:rgb(196,196,58);fill-rule:nonzero;"/>
                <path d="M331.801,551.289C331.699,551.152 329.662,551.441 328.114,552.608C326.567,553.774 326.095,555.378 326.197,555.514C326.301,555.65 326.92,554.127 328.467,552.961C330.014,551.795 331.904,551.425 331.801,551.289Z" style="fill:rgb(217,212,66);fill-rule:nonzero;"/>
                <path d="M268.826,563.627C269.946,566.379 268.565,570.894 262.824,571.055C258.414,571.18 255.578,567.921 255.854,566.09C255.854,566.09 250.532,564.178 250.964,559.051C251.377,554.129 256.587,551.278 259.281,552.783C259.281,552.783 264.923,548.129 268.799,552.957C272.676,557.783 272.153,561.486 268.826,563.627ZM270.057,551.51C265.441,545.763 258.726,551.303 258.726,551.303C255.517,549.51 249.315,552.905 248.822,558.765C248.308,564.87 254.645,567.148 254.645,567.148C254.315,569.324 257.691,573.206 262.942,573.057C269.777,572.863 271.423,567.49 270.088,564.214C274.049,561.667 274.672,557.256 270.057,551.51Z" style="fill:rgb(246,148,137);fill-rule:nonzero;"/>
                <path d="M269.017,563.553C270.137,566.305 268.755,570.818 263.015,570.98C258.605,571.106 255.769,567.847 256.045,566.017C256.045,566.017 250.723,564.103 251.155,558.977C251.569,554.055 256.778,551.204 259.472,552.71C259.472,552.71 265.114,548.055 268.991,552.883C272.868,557.711 272.345,561.413 269.017,563.553ZM270.248,551.436C265.632,545.688 258.915,551.228 258.915,551.228C255.708,549.436 249.507,552.832 249.014,558.69C248.499,564.795 254.836,567.074 254.836,567.074C254.507,569.251 257.883,573.132 263.133,572.982C269.968,572.789 271.614,567.416 270.279,564.14C274.242,561.593 274.864,557.183 270.248,551.436Z" style="fill:rgb(217,70,49);fill-rule:nonzero;"/>
                <path d="M268.345,563.221C269.341,565.665 268.113,569.674 263.014,569.818C259.096,569.929 256.579,567.034 256.824,565.41C256.824,565.41 252.097,563.711 252.481,559.156C252.848,554.786 257.475,552.253 259.868,553.591C259.868,553.591 264.879,549.457 268.321,553.743C271.765,558.031 271.301,561.321 268.345,563.221ZM269.439,552.458C265.339,547.354 259.374,552.275 259.374,552.275C256.525,550.683 251.017,553.698 250.578,558.903C250.122,564.324 255.751,566.348 255.751,566.348C255.458,568.282 258.456,571.729 263.12,571.597C269.19,571.425 270.652,566.65 269.466,563.743C272.985,561.479 273.539,557.562 269.439,552.458Z" style="fill:rgb(208,76,53);fill-rule:nonzero;"/>
                <path d="M270.317,551.447C265.702,545.7 258.986,551.242 258.986,551.242C257.672,550.507 255.856,550.644 254.135,551.462C254.76,551.827 255.375,552.237 255.977,552.692C257.264,552.205 258.568,552.177 259.542,552.722C259.542,552.722 265.183,548.067 269.06,552.894C272.936,557.722 272.413,561.426 269.086,563.565C270.128,566.123 269.004,570.204 264.227,570.895C264.103,571.621 263.92,572.316 263.672,572.971C270.11,572.548 271.652,567.35 270.349,564.151C274.31,561.604 274.933,557.194 270.317,551.447Z" style="fill:rgb(186,60,43);fill-rule:nonzero;"/>
                <path d="M268.567,563.324C269.6,565.86 268.326,570.019 263.035,570.17C258.971,570.285 256.355,567.281 256.612,565.595C256.612,565.595 251.707,563.832 252.105,559.106C252.486,554.571 257.286,551.943 259.771,553.331C259.771,553.331 264.97,549.041 268.543,553.491C272.116,557.937 271.633,561.352 268.567,563.324ZM269.702,552.156C265.448,546.858 259.259,551.966 259.259,551.966C256.301,550.313 250.586,553.443 250.131,558.843C249.657,564.469 255.498,566.568 255.498,566.568C255.194,568.576 258.305,572.152 263.144,572.015C269.444,571.836 270.961,566.883 269.73,563.864C273.382,561.517 273.955,557.452 269.702,552.156Z" style="fill:rgb(242,106,84);fill-rule:nonzero;"/>
                <path d="M258.031,552.907C259.17,554.352 258.453,557.735 260.051,557.502C261.066,557.353 260.295,552.183 260.131,551.975C258.625,553.116 258.031,552.907 258.031,552.907Z" style="fill:rgb(208,76,53);fill-rule:nonzero;"/>
                <path d="M258.168,552.896C259.122,554.108 259.022,556.929 259.861,556.745C260.699,556.561 259.347,552.407 260.993,550.841C258.639,552.073 258.168,552.896 258.168,552.896Z" style="fill:rgb(234,97,66);fill-rule:nonzero;"/>
                <path d="M256.659,567.224C257.095,565.435 259.821,563.454 259.031,562.801C258.242,562.147 257.17,565.355 254.486,564.96C253.864,564.869 256.659,567.224 256.659,567.224Z" style="fill:rgb(208,76,53);fill-rule:nonzero;"/>
                <path d="M256.505,567.11C256.87,565.61 259.155,563.952 258.493,563.403C257.831,562.855 256.935,565.543 254.686,565.215C254.165,565.137 256.505,567.11 256.505,567.11Z" style="fill:rgb(234,97,66);fill-rule:nonzero;"/>
                <path d="M269.675,562.274C268.038,562.941 265.071,561.667 264.945,562.668C264.819,563.668 267.765,563.071 268.728,565.602C268.441,563.631 269.675,562.274 269.675,562.274Z" style="fill:rgb(208,76,53);fill-rule:nonzero;"/>
                <path d="M269.695,562.681C268.288,563.097 265.831,562.01 265.697,562.815C265.561,563.621 268.201,563.076 269.002,565.086C269.189,565.551 269.695,562.681 269.695,562.681Z" style="fill:rgb(242,106,84);fill-rule:nonzero;"/>
                <path d="M265.803,569.614C265.041,569.936 264.124,570.14 263.035,570.17C258.971,570.285 256.355,567.281 256.612,565.595C256.612,565.595 251.707,563.832 252.105,559.106C252.459,554.898 256.616,552.334 259.199,553.095C259.379,552.563 259.592,552.046 259.841,551.541C259.471,551.792 259.259,551.966 259.259,551.966C256.301,550.313 250.586,553.443 250.131,558.843C249.657,564.469 255.498,566.568 255.498,566.568C255.194,568.576 258.305,572.152 263.144,572.015C265.218,571.957 266.77,571.378 267.88,570.523C267.169,570.28 266.475,569.977 265.803,569.614Z" style="fill:rgb(234,97,66);fill-rule:nonzero;"/>
                <path d="M275.192,493.01C274.5,496.005 270.64,499.002 265.685,495.718C261.877,493.194 261.422,488.746 262.747,487.362C262.747,487.362 259.383,482.571 262.805,478.49C266.088,474.573 272.196,475.265 273.578,478.144C273.578,478.144 281.126,477.569 281.529,483.964C281.933,490.358 279.283,493.182 275.192,493.01ZM283.456,483.489C282.976,475.875 273.99,476.561 273.99,476.561C272.343,473.131 265.073,472.308 261.163,476.973C257.088,481.832 261.094,487.536 261.094,487.536C259.517,489.181 260.061,494.477 264.592,497.481C270.492,501.392 275.087,497.824 275.911,494.259C280.781,494.463 283.936,491.102 283.456,483.489Z" style="fill:rgb(246,148,137);fill-rule:nonzero;"/>
                <path d="M275.398,493.062C274.706,496.057 270.846,499.053 265.891,495.769C262.084,493.245 261.627,488.798 262.952,487.415C262.952,487.415 259.588,482.623 263.01,478.543C266.294,474.624 272.401,475.316 273.784,478.196C273.784,478.196 281.331,477.62 281.735,484.016C282.139,490.412 279.489,493.233 275.398,493.062ZM283.662,483.54C283.182,475.927 274.196,476.612 274.196,476.612C272.549,473.182 265.279,472.359 261.368,477.024C257.295,481.882 261.299,487.588 261.299,487.588C259.722,489.234 260.267,494.529 264.798,497.533C270.698,501.442 275.293,497.878 276.117,494.308C280.987,494.515 284.142,491.154 283.662,483.54Z" style="fill:rgb(217,70,49);fill-rule:nonzero;"/>
                <path d="M275.027,492.379C274.413,495.04 270.985,497.701 266.584,494.784C263.203,492.544 262.797,488.592 263.974,487.365C263.974,487.365 260.986,483.109 264.025,479.483C266.941,476.004 272.366,476.618 273.594,479.177C273.594,479.177 280.298,478.666 280.656,484.346C281.014,490.024 278.66,492.533 275.027,492.379ZM282.368,483.924C281.94,477.161 273.96,477.77 273.96,477.77C272.498,474.725 266.04,473.993 262.566,478.135C258.949,482.452 262.506,487.519 262.506,487.519C261.104,488.98 261.588,493.683 265.613,496.352C270.853,499.824 274.935,496.656 275.665,493.488C279.991,493.671 282.794,490.687 282.368,483.924Z" style="fill:rgb(208,76,53);fill-rule:nonzero;"/>
                <path d="M283.713,483.592C283.232,475.977 274.248,476.663 274.248,476.663C273.574,475.259 271.955,474.293 270.012,473.961C270.322,474.641 270.598,475.354 270.836,476.098C272.216,476.452 273.336,477.206 273.835,478.248C273.835,478.248 281.382,477.672 281.786,484.066C282.19,490.461 279.54,493.285 275.449,493.112C274.806,495.897 271.424,498.681 266.969,496.419C266.432,496.958 265.861,497.437 265.262,497.844C270.962,501.323 275.364,497.844 276.168,494.36C281.039,494.566 284.193,491.206 283.713,483.592Z" style="fill:rgb(186,60,43);fill-rule:nonzero;"/>
                <path d="M275.153,492.598C274.516,495.36 270.959,498.121 266.392,495.095C262.884,492.769 262.463,488.668 263.684,487.394C263.684,487.394 260.584,482.98 263.737,479.218C266.764,475.607 272.392,476.244 273.666,478.898C273.666,478.898 280.623,478.369 280.993,484.263C281.366,490.155 278.923,492.757 275.153,492.598ZM282.769,483.825C282.327,476.808 274.046,477.44 274.046,477.44C272.528,474.278 265.828,473.519 262.224,477.819C258.47,482.296 262.161,487.556 262.161,487.556C260.707,489.072 261.208,493.952 265.384,496.721C270.822,500.324 275.058,497.036 275.815,493.749C280.305,493.938 283.212,490.842 282.769,483.825Z" style="fill:rgb(242,106,84);fill-rule:nonzero;"/>
                <path d="M272.446,477.505C272.549,479.407 269.926,481.843 271.417,482.597C272.364,483.077 274.796,478.241 274.779,477.967C272.824,478.034 272.446,477.505 272.446,477.505Z" style="fill:rgb(208,76,53);fill-rule:nonzero;"/>
                <path d="M272.568,477.577C272.655,479.171 270.889,481.498 271.707,481.843C272.525,482.187 273.858,477.865 276.185,477.52C273.458,477.161 272.568,477.577 272.568,477.577Z" style="fill:rgb(234,97,66);fill-rule:nonzero;"/>
                <path d="M262.752,488.801C264.188,487.548 267.675,487.494 267.396,486.472C267.118,485.449 264.3,487.525 262.263,485.592C261.79,485.143 262.752,488.801 262.752,488.801Z" style="fill:rgb(208,76,53);fill-rule:nonzero;"/>
                <path d="M262.69,488.613C263.893,487.562 266.815,487.519 266.581,486.662C266.348,485.805 263.987,487.544 262.28,485.924C261.885,485.548 262.69,488.613 262.69,488.613Z" style="fill:rgb(234,97,66);fill-rule:nonzero;"/>
                <path d="M276.716,492.372C274.934,491.96 273.183,489.112 272.48,489.884C271.778,490.656 274.625,491.906 273.932,494.622C274.865,492.783 276.716,492.372 276.716,492.372Z" style="fill:rgb(208,76,53);fill-rule:nonzero;"/>
                <path d="M276.491,492.726C275.053,492.239 273.622,489.856 273.028,490.457C272.433,491.058 274.991,492.171 274.472,494.349C274.352,494.854 276.491,492.726 276.491,492.726Z" style="fill:rgb(242,106,84);fill-rule:nonzero;"/>
                <path d="M269.066,496.274C268.228,496.093 267.332,495.718 266.392,495.095C262.884,492.769 262.463,488.668 263.684,487.394C263.684,487.394 260.584,482.98 263.737,479.218C266.544,475.867 271.591,476.176 273.322,478.359C273.792,478.018 274.282,477.705 274.793,477.427C274.33,477.418 274.046,477.44 274.046,477.44C272.528,474.278 265.828,473.519 262.224,477.819C258.47,482.296 262.161,487.556 262.161,487.556C260.707,489.072 261.208,493.952 265.384,496.721C267.175,497.907 268.832,498.343 270.281,498.281C269.824,497.651 269.418,496.981 269.066,496.274Z" style="fill:rgb(234,97,66);fill-rule:nonzero;"/>
                <path d="M346.702,526.413C341.967,532.26 339.728,533.012 337.564,532.058C336.224,531.469 336.755,528.623 334.569,527.408C333.708,526.93 331.479,528.077 329.431,527.367C326.915,526.494 326.933,524.787 327.943,520.574C328.659,517.582 332.518,511.373 334.507,512.156C339.696,514.197 337.222,517.956 339.192,518.647C341.288,519.382 343.899,516.298 347.41,518.449C348.224,518.947 349.907,522.459 346.702,526.413ZM349.456,516.465C342.183,512.158 341.755,517.308 340.513,515.615C339.084,513.671 340.189,511.632 333.511,508.908C329.748,507.374 326.056,516.85 325.532,520.482C324.817,525.437 325.408,529.056 328.29,530.132C331.795,531.441 332.79,529.217 333.785,529.769C336.311,531.173 334.901,533.068 336.448,533.749C338.951,534.852 343.021,534.064 348.242,527.11C353.858,519.629 350.021,516.8 349.456,516.465Z" style="fill:rgb(234,230,83);fill-rule:nonzero;"/>
                <path d="M346.861,526.769C342.125,532.616 339.887,533.366 337.721,532.413C336.383,531.824 336.913,528.978 334.727,527.764C333.866,527.285 331.637,528.433 329.589,527.722C327.074,526.85 327.091,525.142 328.101,520.929C328.817,517.939 332.676,511.729 334.665,512.511C339.854,514.553 337.379,518.311 339.351,519.003C341.447,519.738 344.058,516.653 347.567,518.804C348.382,519.303 350.065,522.813 346.861,526.769ZM349.615,516.821C342.341,512.515 341.617,517.628 340.374,515.937C338.946,513.993 340.346,511.987 333.67,509.265C329.906,507.729 326.214,517.205 325.69,520.837C324.976,525.794 325.566,529.41 328.449,530.487C331.954,531.798 332.949,529.572 333.943,530.125C336.469,531.528 335.06,533.424 336.607,534.105C339.108,535.207 343.18,534.42 348.4,527.466C354.017,519.985 350.18,517.154 349.615,516.821Z" style="fill:rgb(196,196,58);fill-rule:nonzero;"/>
                <path d="M349.797,516.946C349.388,517.805 348.904,518.645 348.334,519.456L348.19,519.652C348.861,521.03 349.217,523.756 346.807,526.73C342.071,532.577 339.832,533.328 337.667,532.375C336.328,531.785 336.858,528.939 334.673,527.725C333.812,527.247 331.582,528.394 329.535,527.683C327.503,526.979 327.124,525.728 327.585,523.055C326.833,522.326 326.192,521.511 325.664,520.626L325.636,520.8C324.921,525.756 325.511,529.372 328.394,530.449C331.898,531.76 332.894,529.534 333.889,530.087C336.414,531.49 335.004,533.386 336.552,534.067C339.054,535.169 343.124,534.381 348.345,527.428C353.433,520.649 350.763,517.691 349.797,516.946Z" style="fill:rgb(175,173,53);fill-rule:nonzero;"/>
                <path d="M346.015,526.405C341.955,531.394 340.007,532.004 338.1,531.138C336.919,530.602 337.344,528.144 335.415,527.051C334.656,526.62 332.722,527.576 330.92,526.923C328.708,526.12 328.7,524.64 329.524,521.002C330.109,518.421 333.398,513.102 335.149,513.817C339.717,515.683 337.593,519.225 339.326,519.861C341.17,520.536 343.422,517.579 346.523,519.509C347.243,519.955 348.764,523.032 346.015,526.405ZM348.287,517.825C341.864,513.957 340.912,519.686 339.801,518.197C338.525,516.485 340.111,513.465 334.233,510.982C330.919,509.583 327.821,517.736 327.414,520.879C326.858,525.166 327.439,527.839 329.976,528.825C333.059,530.024 334.138,527.303 335.016,527.8C337.245,529.062 335.785,531.967 337.148,532.586C339.352,533.587 342.901,532.977 347.372,527.038C352.181,520.647 348.784,518.124 348.287,517.825Z" style="fill:rgb(234,230,83);fill-rule:nonzero;"/>
                <path d="M346.14,526.833C341.95,531.861 339.94,532.477 337.973,531.604C336.756,531.064 337.193,528.585 335.203,527.482C334.419,527.049 332.424,528.013 330.564,527.353C328.282,526.545 328.274,525.052 329.124,521.386C329.728,518.782 333.122,513.42 334.929,514.141C339.641,516.02 337.451,519.595 339.238,520.235C341.141,520.915 343.465,517.933 346.664,519.879C347.406,520.329 348.975,523.433 346.14,526.833ZM348.483,518.183C341.855,514.282 340.874,520.058 339.729,518.558C338.411,516.83 340.048,513.785 333.983,511.282C330.564,509.871 327.368,518.093 326.948,521.261C326.374,525.584 326.974,528.278 329.59,529.271C332.772,530.481 333.885,527.737 334.792,528.238C337.091,529.511 335.585,532.44 336.991,533.064C339.265,534.073 342.928,533.458 347.54,527.471C352.501,521.027 348.997,518.485 348.483,518.183Z" style="fill:rgb(221,213,72);fill-rule:nonzero;"/>
                <path d="M347.54,524.187C347.299,524.958 346.868,525.779 346.167,526.621C341.977,531.649 339.967,532.266 337.999,531.392C336.782,530.853 337.22,528.373 335.23,527.271C334.446,526.838 332.451,527.8 330.592,527.142C328.494,526.4 328.319,525.072 328.965,522.014C328.275,521.713 327.609,521.394 326.974,521.056C326.401,525.375 327.002,528.067 329.617,529.061C332.798,530.27 333.912,527.525 334.817,528.027C337.118,529.301 335.612,532.228 337.017,532.852C339.292,533.862 342.954,533.247 347.566,527.26C348.631,525.876 349.305,524.673 349.704,523.632C349.014,523.85 348.292,524.035 347.54,524.187Z" style="fill:rgb(234,230,83);fill-rule:nonzero;"/>
                <path d="M333.289,528.867C334.094,528.127 335.236,526.035 336.016,526.377C336.793,526.721 336.168,530.398 336.168,530.398L333.289,528.867Z" style="fill:rgb(175,173,53);fill-rule:nonzero;"/>
                <path d="M341.22,517.761C340.716,518.303 340.059,519.769 339.517,519.58C338.975,519.391 339.202,516.879 339.202,516.879L341.22,517.761Z" style="fill:rgb(196,196,58);fill-rule:nonzero;"/>
                <path d="M300.444,577.298C302.944,584.394 302.411,586.695 300.465,588.04C299.262,588.871 297.116,586.929 294.936,588.154C294.078,588.638 293.888,591.138 292.21,592.511C290.148,594.195 288.703,593.287 285.643,590.219C283.471,588.041 280.202,581.503 281.911,580.219C286.368,576.866 288.273,580.944 289.894,579.628C291.618,578.227 290.358,574.387 294.03,572.523C294.88,572.091 298.753,572.496 300.444,577.298ZM293.413,569.74C285.934,573.681 290.095,576.741 288.004,576.914C285.599,577.112 284.441,575.103 278.623,579.366C275.345,581.769 281.482,589.876 284.302,592.225C288.15,595.43 291.54,596.821 293.968,594.93C296.919,592.63 295.545,590.617 296.537,590.06C299.055,588.642 299.932,590.836 301.322,589.874C303.571,588.32 305.033,584.44 301.845,576.352C298.413,567.647 293.993,569.435 293.413,569.74Z" style="fill:rgb(234,230,83);fill-rule:nonzero;"/>
                <path d="M300.831,577.349C303.33,584.445 302.797,586.746 300.851,588.091C299.647,588.923 297.501,586.979 295.323,588.207C294.464,588.689 294.273,591.188 292.595,592.561C290.535,594.246 289.089,593.339 286.028,590.271C283.857,588.094 280.587,581.554 282.297,580.269C286.754,576.918 288.659,580.995 290.28,579.679C292.004,578.277 290.745,574.438 294.415,572.574C295.267,572.142 299.139,572.548 300.831,577.349ZM293.798,569.792C286.32,573.732 290.296,577.028 288.205,577.201C285.8,577.398 284.826,575.155 279.009,579.417C275.73,581.819 281.869,589.928 284.688,592.275C288.536,595.48 291.926,596.872 294.353,594.981C297.305,592.682 295.931,590.668 296.922,590.109C299.441,588.694 300.317,590.888 301.709,589.927C303.956,588.372 305.419,584.492 302.23,576.403C298.798,567.699 294.379,569.486 293.798,569.792Z" style="fill:rgb(196,196,58);fill-rule:nonzero;"/>
                <path d="M293.999,569.702C294.517,570.5 294.98,571.353 295.372,572.263L295.463,572.488C296.989,572.639 299.497,573.762 300.77,577.375C303.269,584.472 302.736,586.772 300.79,588.117C299.586,588.948 297.44,587.008 295.26,588.231C294.403,588.716 294.212,591.215 292.534,592.587C290.87,593.949 289.606,593.616 287.569,591.823C286.556,592.083 285.525,592.201 284.493,592.186L284.627,592.302C288.476,595.508 291.865,596.899 294.292,595.008C297.244,592.709 295.869,590.694 296.861,590.137C299.379,588.721 300.256,590.915 301.647,589.953C303.896,588.398 305.357,584.519 302.168,576.43C299.06,568.545 295.14,569.269 293.999,569.702Z" style="fill:rgb(175,173,53);fill-rule:nonzero;"/>
                <path d="M300.077,577.879C302.199,583.95 301.699,585.93 299.962,587.1C298.888,587.825 297.016,586.176 295.075,587.246C294.31,587.667 294.111,589.815 292.611,591.008C290.769,592.473 289.503,591.703 286.836,589.097C284.944,587.246 282.135,581.658 283.662,580.541C287.643,577.627 289.55,581.293 290.999,580.148C292.54,578.931 291.2,575.465 294.468,573.833C295.226,573.454 298.643,573.77 300.077,577.879ZM293.958,571.45C287.299,574.895 291.68,578.707 289.83,578.872C287.703,579.062 285.961,576.13 280.768,579.837C277.841,581.927 283.163,588.836 285.626,590.83C288.987,593.549 291.568,594.453 293.737,592.811C296.374,590.811 294.62,588.466 295.504,587.978C297.747,586.741 299.456,589.507 300.697,588.67C302.705,587.316 304.045,583.974 301.327,577.055C298.402,569.61 294.474,571.182 293.958,571.45Z" style="fill:rgb(234,230,83);fill-rule:nonzero;"/>
                <path d="M300.506,577.996C302.596,584.199 302.067,586.234 300.293,587.453C299.197,588.207 297.313,586.535 295.331,587.654C294.551,588.094 294.327,590.298 292.792,591.537C290.908,593.058 289.631,592.282 286.953,589.637C285.052,587.761 282.262,582.06 283.822,580.898C287.893,577.869 289.789,581.607 291.271,580.42C292.848,579.155 291.524,575.614 294.858,573.907C295.63,573.512 299.094,573.799 300.506,577.996ZM294.364,571.469C287.571,575.071 291.978,578.933 290.099,579.123C287.937,579.34 286.201,576.35 280.892,580.207C277.9,582.38 283.229,589.409 285.707,591.426C289.089,594.18 291.699,595.08 293.916,593.373C296.614,591.295 294.858,588.909 295.759,588.4C298.049,587.107 299.755,589.926 301.022,589.054C303.073,587.645 304.468,584.203 301.783,577.138C298.894,569.537 294.891,571.189 294.364,571.469Z" style="fill:rgb(221,213,72);fill-rule:nonzero;"/>
                <path d="M298.987,575.418C299.517,576.027 299.991,576.824 300.341,577.862C302.43,584.066 301.901,586.1 300.126,587.32C299.03,588.074 297.147,586.402 295.167,587.519C294.386,587.96 294.161,590.164 292.626,591.403C290.895,592.801 289.673,592.255 287.405,590.102C286.788,590.533 286.168,590.933 285.547,591.297C288.925,594.047 291.534,594.946 293.751,593.238C296.446,591.162 294.692,588.775 295.593,588.267C297.883,586.975 299.589,589.791 300.856,588.921C302.907,587.512 304.302,584.069 301.617,577.005C300.997,575.373 300.324,574.168 299.646,573.284C299.47,573.985 299.249,574.697 298.987,575.418Z" style="fill:rgb(234,230,83);fill-rule:nonzero;"/>
                <path d="M295.508,590.009C295.299,588.936 294.116,586.868 294.815,586.383C295.516,585.899 298.32,588.358 298.32,588.358L295.508,590.009Z" style="fill:rgb(175,173,53);fill-rule:nonzero;"/>
                <path d="M290.201,577.436C290.398,578.147 291.305,579.477 290.859,579.839C290.414,580.201 288.394,578.693 288.394,578.693L290.201,577.436Z" style="fill:rgb(196,196,58);fill-rule:nonzero;"/>
            </g>
        </g>
    </g>
</svg>
