<?xml version="1.0" encoding="UTF-8" standalone="no"?>
<!DOCTYPE svg PUBLIC "-//W3C//DTD SVG 1.1//EN" "http://www.w3.org/Graphics/SVG/1.1/DTD/svg11.dtd">
<svg width="100%" height="100%" viewBox="0 0 466 421" version="1.1" xmlns="http://www.w3.org/2000/svg" xmlns:xlink="http://www.w3.org/1999/xlink" xml:space="preserve" xmlns:serif="http://www.serif.com/" style="fill-rule:evenodd;clip-rule:evenodd;stroke-linejoin:round;stroke-miterlimit:2;">
    <g transform="matrix(1,0,0,1,-3391.48,-1924.25)">
        <g transform="matrix(4.16667,0,0,4.16667,0,0)">
            <g transform="matrix(1,0,0,1,290.52,-181.238)">
                <path d="M579.923,732.868C579.845,731.112 565.465,726.473 563.466,730.002C562.996,730.829 564.95,741.993 566.075,743.367C566.492,743.875 567.463,743.454 568.371,743.514C569.454,743.584 570.477,744.065 570.779,743.867C571.337,743.504 580.024,735.175 579.923,732.868Z" style="fill:rgb(240,152,45);fill-rule:nonzero;"/>
                <path d="M579.723,732.895C579.649,731.182 565.601,726.66 563.643,730.109C563.185,730.92 565.083,741.827 566.182,743.17C566.589,743.663 567.536,743.252 568.426,743.31C569.483,743.377 570.482,743.849 570.779,743.654C571.321,743.299 579.82,735.152 579.723,732.895Z" style="fill:rgb(250,194,54);fill-rule:nonzero;"/>
                <path d="M579.139,732.81C579.067,731.21 565.973,726.985 564.15,730.2C563.723,730.953 565.414,741.414 566.438,742.666C566.818,743.129 567.791,742.45 568.617,742.505C569.604,742.57 570.246,743.297 570.521,743.116C571.029,742.786 579.232,734.912 579.139,732.81Z" style="fill:rgb(251,238,74);fill-rule:nonzero;"/>
                <path d="M569.394,740.975C570.252,740.959 570.532,736.066 570.171,735.743C569.81,735.422 568.774,740.986 569.394,740.975Z" style="fill:rgb(252,224,72);fill-rule:nonzero;"/>
                <path d="M565.525,735.573C566.329,734.782 564.549,734.569 565.648,733.489C565.845,733.298 566.142,733.252 566.403,733.519C566.518,733.635 566.617,733.781 566.731,733.896C567.024,734.195 567.507,734.099 567.741,733.87C567.938,733.677 568.021,733.312 567.766,733.052C567.425,732.704 567.537,730.91 567.781,730.671C568.292,730.166 568.259,730.711 568.721,730.808C569.291,730.813 569.987,729.537 571.528,730.658C571.837,730.904 572.359,730.734 572.845,730.74C573.156,730.776 573.326,731.089 573.604,731.23C573.718,731.291 574.002,731.325 574.071,731.395L574.087,731.441C574.079,732.269 572.985,733.213 573.793,734.033C573.984,734.227 574.243,734.386 574.447,734.595C575.129,735.288 574.176,735.419 574.775,736.027C574.975,736.232 575.236,736.317 575.428,736.514C575.521,736.608 575.5,736.874 575.572,736.948L575.598,736.966C576.147,737.182 576.706,736.584 577.255,736.045C577.397,735.906 577.674,735.61 578.004,735.225C578.752,734.202 579.237,733.329 579.215,732.811C579.144,731.21 566.038,726.981 564.215,730.198C564.025,730.53 564.248,732.737 564.642,735.214L564.742,735.332C564.95,735.545 565.313,735.782 565.525,735.573Z" style="fill:rgb(252,224,72);fill-rule:nonzero;"/>
                <path d="M573.882,737.032C573.984,737.118 574.196,737.039 574.352,736.852C574.509,736.666 574.551,736.444 574.447,736.357C574.345,736.272 574.134,736.352 573.977,736.538C573.821,736.725 573.78,736.945 573.882,737.032Z" style="fill:rgb(252,224,72);fill-rule:nonzero;"/>
                <path d="M566.474,735.06C566.606,735.026 566.664,734.808 566.606,734.574C566.548,734.337 566.396,734.172 566.264,734.205C566.133,734.237 566.073,734.454 566.131,734.69C566.19,734.925 566.343,735.092 566.474,735.06Z" style="fill:rgb(252,224,72);fill-rule:nonzero;"/>
                <path d="M567.544,739.86C567.675,739.827 567.666,739.336 567.524,738.76C567.382,738.185 567.162,737.745 567.03,737.778C566.898,737.81 566.907,738.302 567.049,738.877C567.191,739.452 567.412,739.892 567.544,739.86Z" style="fill:rgb(252,224,72);fill-rule:nonzero;"/>
                <path d="M574.254,733.644C574.415,733.807 574.773,733.718 575.053,733.442C575.332,733.167 575.428,732.811 575.267,732.647C575.104,732.483 574.748,732.573 574.468,732.848C574.19,733.123 574.094,733.478 574.254,733.644Z" style="fill:rgb(251,238,74);fill-rule:nonzero;"/>
                <path d="M576.847,735.182C576.965,735.302 577.16,735.304 577.28,735.185C577.401,735.066 577.403,734.873 577.284,734.752C577.165,734.632 576.971,734.629 576.852,734.747C576.729,734.866 576.729,735.06 576.847,735.182Z" style="fill:rgb(251,238,74);fill-rule:nonzero;"/>
                <path d="M568.018,742.922C567.865,741.929 567.461,740.725 567.461,740.725L567.74,743.012L568.018,742.922Z" style="fill:rgb(250,194,54);fill-rule:nonzero;"/>
                <path d="M569.122,742.668C569.375,741.149 569.357,739.208 569.357,739.208L568.677,742.665L569.122,742.668Z" style="fill:rgb(250,194,54);fill-rule:nonzero;"/>
                <path d="M569.848,743.209C570.5,741.816 571.013,739.943 571.013,739.943L569.42,743.088L569.848,743.209Z" style="fill:rgb(250,194,54);fill-rule:nonzero;"/>
                <path d="M569.134,732.404C569.084,732.693 568.851,733.512 568.422,732.81C567.993,732.104 567.868,732.006 567.996,731.533C568.123,731.061 568.335,731.138 568.532,731.501C568.729,731.862 569.186,732.076 569.134,732.404Z" style="fill:rgb(252,224,72);fill-rule:nonzero;"/>
                <path d="M614.21,665.413C614.132,663.658 599.752,659.019 597.753,662.549C597.283,663.374 599.236,674.539 600.361,675.913C600.779,676.422 601.751,676 602.659,676.061C603.741,676.131 604.764,676.612 605.066,676.414C605.625,676.051 614.313,667.722 614.21,665.413Z" style="fill:rgb(240,152,45);fill-rule:nonzero;"/>
                <path d="M614.011,665.442C613.936,663.727 599.888,659.207 597.929,662.656C597.472,663.467 599.37,674.373 600.468,675.715C600.875,676.21 601.824,675.798 602.713,675.857C603.771,675.925 604.769,676.394 605.066,676.202C605.609,675.844 614.108,667.698 614.011,665.442Z" style="fill:rgb(250,194,54);fill-rule:nonzero;"/>
                <path d="M613.426,665.355C613.355,663.757 600.26,659.531 598.438,662.747C598.011,663.499 599.7,673.962 600.726,675.212C601.104,675.675 602.078,674.998 602.905,675.052C603.891,675.117 604.531,675.842 604.808,675.662C605.315,675.332 613.518,667.457 613.426,665.355Z" style="fill:rgb(251,238,74);fill-rule:nonzero;"/>
                <path d="M603.68,673.521C604.539,673.506 604.819,668.611 604.457,668.289C604.099,667.968 603.063,673.532 603.68,673.521Z" style="fill:rgb(252,224,72);fill-rule:nonzero;"/>
                <path d="M599.813,668.12C600.616,667.328 598.837,667.117 599.936,666.036C600.132,665.844 600.429,665.798 600.69,666.065C600.805,666.18 600.904,666.328 601.019,666.443C601.311,666.742 601.795,666.645 602.028,666.417C602.224,666.224 602.309,665.858 602.052,665.598C601.712,665.251 601.825,663.456 602.068,663.216C602.578,662.714 602.546,663.258 603.008,663.353C603.578,663.358 604.275,662.084 605.815,663.205C606.125,663.45 606.646,663.28 607.132,663.286C607.443,663.322 607.613,663.635 607.89,663.777C608.005,663.836 608.289,663.871 608.359,663.941L608.374,663.988C608.366,664.816 607.273,665.76 608.08,666.58C608.271,666.775 608.53,666.933 608.733,667.14C609.415,667.835 608.464,667.965 609.063,668.574C609.263,668.778 609.522,668.862 609.715,669.058C609.809,669.155 609.786,669.422 609.859,669.494L609.886,669.512C610.435,669.728 610.992,669.13 611.543,668.592C611.684,668.452 611.961,668.157 612.291,667.772C613.039,666.748 613.525,665.876 613.503,665.357C613.433,663.757 600.326,659.528 598.502,662.745C598.313,663.077 598.535,665.283 598.929,667.76L599.028,667.879C599.236,668.092 599.602,668.327 599.813,668.12Z" style="fill:rgb(252,224,72);fill-rule:nonzero;"/>
                <path d="M608.169,669.579C608.272,669.666 608.482,669.585 608.64,669.398C608.795,669.213 608.838,668.991 608.733,668.904C608.631,668.818 608.419,668.898 608.265,669.084C608.108,669.27 608.066,669.492 608.169,669.579Z" style="fill:rgb(252,224,72);fill-rule:nonzero;"/>
                <path d="M600.762,667.605C600.893,667.573 600.951,667.354 600.893,667.121C600.836,666.883 600.681,666.719 600.551,666.75C600.42,666.783 600.359,667.001 600.419,667.236C600.476,667.472 600.631,667.638 600.762,667.605Z" style="fill:rgb(252,224,72);fill-rule:nonzero;"/>
                <path d="M601.831,672.407C601.963,672.373 601.953,671.881 601.81,671.306C601.669,670.732 601.449,670.291 601.317,670.324C601.185,670.356 601.193,670.849 601.335,671.424C601.477,671.999 601.699,672.437 601.831,672.407Z" style="fill:rgb(252,224,72);fill-rule:nonzero;"/>
                <path d="M608.542,666.19C608.703,666.353 609.06,666.264 609.34,665.989C609.619,665.714 609.715,665.358 609.554,665.194C609.393,665.029 609.035,665.121 608.756,665.395C608.477,665.67 608.38,666.025 608.542,666.19Z" style="fill:rgb(251,238,74);fill-rule:nonzero;"/>
                <path d="M611.134,667.727C611.253,667.847 611.447,667.85 611.567,667.731C611.688,667.612 611.69,667.419 611.572,667.297C611.452,667.178 611.259,667.175 611.138,667.294C611.017,667.412 611.017,667.605 611.134,667.727Z" style="fill:rgb(251,238,74);fill-rule:nonzero;"/>
                <path d="M602.306,675.468C602.15,674.474 601.748,673.27 601.748,673.27L602.027,675.558L602.306,675.468Z" style="fill:rgb(250,194,54);fill-rule:nonzero;"/>
                <path d="M603.409,675.214C603.661,673.695 603.644,671.755 603.644,671.755L602.965,675.211L603.409,675.214Z" style="fill:rgb(250,194,54);fill-rule:nonzero;"/>
                <path d="M604.136,675.757C604.788,674.362 605.3,672.489 605.3,672.489L603.706,675.635L604.136,675.757Z" style="fill:rgb(250,194,54);fill-rule:nonzero;"/>
                <path d="M603.421,664.951C603.372,665.239 603.139,666.057 602.709,665.355C602.28,664.649 602.154,664.552 602.283,664.079C602.41,663.606 602.623,663.685 602.819,664.047C603.017,664.409 603.474,664.622 603.421,664.951Z" style="fill:rgb(252,224,72);fill-rule:nonzero;"/>
                <path d="M565.599,684.107C563.957,683.48 553.989,694.836 556.435,698.072C557.006,698.832 568.027,701.473 569.735,700.984C570.368,700.805 570.368,699.745 570.782,698.936C571.277,697.972 572.126,697.223 572.063,696.866C571.952,696.21 567.758,684.929 565.599,684.107Z" style="fill:rgb(240,152,45);fill-rule:nonzero;"/>
                <path d="M565.545,684.301C563.942,683.688 554.215,694.786 556.602,697.954C557.164,698.694 567.928,701.284 569.596,700.808C570.213,700.633 570.211,699.598 570.618,698.806C571.1,697.86 571.929,697.131 571.867,696.783C571.757,696.141 567.655,685.107 565.545,684.301Z" style="fill:rgb(250,194,54);fill-rule:nonzero;"/>
                <path d="M565.233,684.802C563.738,684.231 554.661,694.574 556.888,697.522C557.408,698.213 567.681,700.816 569.237,700.373C569.811,700.208 569.577,699.047 569.954,698.308C570.406,697.431 571.328,697.129 571.271,696.806C571.171,696.207 567.2,685.552 565.233,684.802Z" style="fill:rgb(251,238,74);fill-rule:nonzero;"/>
                <path d="M568.858,696.99C569.184,696.194 564.805,693.995 564.366,694.198C563.928,694.4 568.623,697.561 568.858,696.99Z" style="fill:rgb(252,224,72);fill-rule:nonzero;"/>
                <path d="M562.365,698.395C561.958,697.342 561.057,698.892 560.502,697.453C560.403,697.198 560.479,696.907 560.827,696.772C560.979,696.713 561.154,696.681 561.305,696.62C561.695,696.472 561.799,695.99 561.682,695.685C561.582,695.428 561.28,695.205 560.94,695.337C560.485,695.512 558.884,694.695 558.76,694.376C558.501,693.708 558.988,693.955 559.26,693.569C559.49,693.048 558.598,691.901 560.237,690.933C560.586,690.747 560.639,690.202 560.835,689.758C560.993,689.486 561.347,689.454 561.586,689.257C561.688,689.175 561.832,688.928 561.924,688.892L561.974,688.897C562.729,689.232 563.162,690.61 564.234,690.195C564.49,690.097 564.737,689.922 565.01,689.817C565.915,689.467 565.657,690.394 566.456,690.086C566.722,689.983 566.903,689.778 567.16,689.68C567.285,689.631 567.521,689.758 567.617,689.721L567.644,689.704C568.06,689.283 567.732,688.534 567.457,687.816C567.386,687.631 567.223,687.26 567.001,686.805C566.359,685.71 565.751,684.918 565.266,684.733C563.769,684.162 554.684,694.512 556.912,697.463C557.141,697.767 559.255,698.44 561.684,699.061L561.832,699.019C562.11,698.912 562.472,698.672 562.365,698.395Z" style="fill:rgb(252,224,72);fill-rule:nonzero;"/>
                <path d="M567.022,691.305C567.143,691.244 567.153,691.019 567.044,690.801C566.935,690.584 566.747,690.456 566.628,690.519C566.508,690.578 566.498,690.805 566.606,691.02C566.717,691.238 566.903,691.363 567.022,691.305Z" style="fill:rgb(252,224,72);fill-rule:nonzero;"/>
                <path d="M562.269,697.319C562.293,697.186 562.115,697.045 561.877,697.005C561.638,696.965 561.425,697.04 561.403,697.174C561.379,697.306 561.555,697.446 561.795,697.488C562.034,697.527 562.247,697.453 562.269,697.319Z" style="fill:rgb(252,224,72);fill-rule:nonzero;"/>
                <path d="M567.101,698.245C567.122,698.11 566.668,697.924 566.083,697.825C565.498,697.727 565.008,697.755 564.985,697.89C564.962,698.021 565.419,698.211 566.002,698.308C566.587,698.406 567.077,698.377 567.101,698.245Z" style="fill:rgb(252,224,72);fill-rule:nonzero;"/>
                <path d="M564.06,689.617C564.274,689.533 564.334,689.17 564.193,688.804C564.053,688.438 563.764,688.209 563.549,688.291C563.333,688.374 563.275,688.739 563.416,689.105C563.557,689.471 563.846,689.699 564.06,689.617Z" style="fill:rgb(251,238,74);fill-rule:nonzero;"/>
                <path d="M566.501,687.847C566.659,687.787 566.738,687.609 566.677,687.452C566.615,687.293 566.438,687.217 566.28,687.276C566.123,687.338 566.044,687.515 566.104,687.673C566.164,687.83 566.342,687.908 566.501,687.847Z" style="fill:rgb(251,238,74);fill-rule:nonzero;"/>
                <path d="M570.099,699.025C569.126,698.772 567.859,698.665 567.859,698.665L570.071,699.315L570.099,699.025Z" style="fill:rgb(250,194,54);fill-rule:nonzero;"/>
                <path d="M570.305,697.91C569.011,697.077 567.223,696.321 567.223,696.321L570.125,698.319L570.305,697.91Z" style="fill:rgb(250,194,54);fill-rule:nonzero;"/>
                <path d="M571.089,697.46C570.07,696.308 568.554,695.094 568.554,695.094L570.808,697.806L571.089,697.46Z" style="fill:rgb(250,194,54);fill-rule:nonzero;"/>
                <path d="M560.89,693.824C561.136,693.984 561.794,694.523 560.979,694.639C560.161,694.752 560.021,694.826 559.638,694.522C559.255,694.218 559.41,694.055 559.822,694.017C560.231,693.98 560.609,693.645 560.89,693.824Z" style="fill:rgb(252,224,72);fill-rule:nonzero;"/>
                <path d="M585.477,646.543C585.306,644.793 570.697,640.933 568.891,644.562C568.466,645.413 571.014,656.457 572.212,657.769C572.654,658.254 573.604,657.781 574.513,657.792C575.597,657.805 576.644,658.231 576.935,658.017C577.476,657.624 585.702,648.841 585.477,646.543Z" style="fill:rgb(240,152,45);fill-rule:nonzero;"/>
                <path d="M585.279,646.581C585.113,644.873 570.843,641.111 569.073,644.662C568.658,645.494 571.14,656.282 572.308,657.564C572.739,658.038 573.666,657.575 574.555,657.587C575.616,657.597 576.64,658.014 576.926,657.804C577.447,657.419 585.498,648.829 585.279,646.581Z" style="fill:rgb(250,194,54);fill-rule:nonzero;"/>
                <path d="M584.692,646.526C584.535,644.933 571.231,641.416 569.585,644.723C569.199,645.499 571.447,655.855 572.538,657.05C572.94,657.491 573.876,656.762 574.706,656.771C575.693,656.783 576.374,657.475 576.64,657.279C577.128,656.923 584.897,648.62 584.692,646.526Z" style="fill:rgb(251,238,74);fill-rule:nonzero;"/>
                <path d="M575.397,655.203C576.255,655.141 576.271,650.239 575.894,649.937C575.516,649.636 574.781,655.247 575.397,655.203Z" style="fill:rgb(252,224,72);fill-rule:nonzero;"/>
                <path d="M571.246,650.017C572.006,649.183 570.216,649.066 571.257,647.927C571.441,647.727 571.735,647.665 572.013,647.917C572.132,648.025 572.24,648.167 572.36,648.276C572.669,648.56 573.146,648.436 573.367,648.195C573.553,647.992 573.618,647.623 573.348,647.378C572.987,647.049 573.005,645.25 573.235,644.999C573.719,644.47 573.716,645.013 574.18,645.086C574.751,645.061 575.378,643.75 576.977,644.787C577.3,645.016 577.81,644.817 578.296,644.795C578.609,644.816 578.795,645.119 579.079,645.245C579.197,645.299 579.483,645.319 579.557,645.386L579.574,645.433C579.609,646.258 578.568,647.259 579.419,648.036C579.621,648.22 579.887,648.363 580.102,648.56C580.818,649.215 579.876,649.397 580.505,649.975C580.717,650.167 580.982,650.238 581.185,650.424C581.284,650.515 581.275,650.78 581.352,650.85L581.379,650.867C581.938,651.053 582.465,650.426 582.983,649.858C583.119,649.711 583.379,649.4 583.686,649C584.38,647.937 584.817,647.041 584.769,646.522C584.611,644.93 571.297,641.408 569.648,644.719C569.479,645.061 569.818,647.253 570.345,649.702L570.449,649.817C570.668,650.017 571.045,650.233 571.246,650.017Z" style="fill:rgb(252,224,72);fill-rule:nonzero;"/>
                <path d="M579.669,651.025C579.776,651.104 579.983,651.015 580.128,650.819C580.273,650.625 580.305,650.401 580.195,650.321C580.09,650.24 579.883,650.331 579.738,650.526C579.592,650.721 579.561,650.943 579.669,651.025Z" style="fill:rgb(252,224,72);fill-rule:nonzero;"/>
                <path d="M572.166,649.451C572.295,649.411 572.343,649.191 572.272,648.96C572.2,648.727 572.039,648.571 571.909,648.609C571.78,648.649 571.732,648.869 571.803,649.102C571.874,649.333 572.035,649.491 572.166,649.451Z" style="fill:rgb(252,224,72);fill-rule:nonzero;"/>
                <path d="M573.49,654.187C573.621,654.148 573.586,653.657 573.411,653.09C573.239,652.524 572.995,652.097 572.865,652.136C572.736,652.176 572.771,652.666 572.943,653.232C573.115,653.801 573.36,654.227 573.49,654.187Z" style="fill:rgb(252,224,72);fill-rule:nonzero;"/>
                <path d="M579.858,647.62C580.028,647.776 580.38,647.667 580.644,647.378C580.909,647.089 580.986,646.727 580.816,646.572C580.646,646.416 580.294,646.527 580.03,646.816C579.766,647.104 579.688,647.467 579.858,647.62Z" style="fill:rgb(251,238,74);fill-rule:nonzero;"/>
                <path d="M582.53,649.017C582.654,649.131 582.848,649.123 582.963,648.998C583.077,648.873 583.068,648.679 582.945,648.564C582.817,648.451 582.625,648.459 582.509,648.585C582.396,648.709 582.404,648.902 582.53,649.017Z" style="fill:rgb(251,238,74);fill-rule:nonzero;"/>
                <path d="M574.128,657.22C573.922,656.235 573.452,655.055 573.452,655.055L573.856,657.325L574.128,657.22Z" style="fill:rgb(250,194,54);fill-rule:nonzero;"/>
                <path d="M575.218,656.906C575.387,655.377 575.267,653.44 575.267,653.44L574.772,656.929L575.218,656.906Z" style="fill:rgb(250,194,54);fill-rule:nonzero;"/>
                <path d="M575.971,657.409C576.549,655.983 576.959,654.084 576.959,654.084L575.537,657.311L575.971,657.409Z" style="fill:rgb(250,194,54);fill-rule:nonzero;"/>
                <path d="M574.679,646.658C574.646,646.951 574.456,647.779 573.991,647.1C573.522,646.419 573.394,646.327 573.496,645.85C573.597,645.369 573.815,645.436 574.031,645.786C574.245,646.138 574.715,646.327 574.679,646.658Z" style="fill:rgb(252,224,72);fill-rule:nonzero;"/>
                <path d="M599.96,732.56C599.289,734.183 610.359,744.466 613.664,742.112C614.438,741.56 617.387,730.617 616.947,728.896C616.785,728.26 615.727,728.23 614.929,727.793C613.979,727.271 613.254,726.402 612.896,726.454C612.236,726.548 600.843,730.425 599.96,732.56Z" style="fill:rgb(240,152,45);fill-rule:nonzero;"/>
                <path d="M600.153,732.617C599.496,734.203 610.315,744.238 613.549,741.937C614.306,741.4 617.196,730.713 616.768,729.03C616.607,728.41 615.573,728.383 614.794,727.954C613.864,727.446 613.157,726.596 612.807,726.647C612.164,726.741 601.019,730.532 600.153,732.617Z" style="fill:rgb(250,194,54);fill-rule:nonzero;"/>
                <path d="M600.644,732.943C600.033,734.423 610.117,743.787 613.127,741.644C613.831,741.142 616.722,730.945 616.322,729.378C616.174,728.798 615.006,729.001 614.278,728.603C613.413,728.128 613.138,727.198 612.813,727.244C612.213,727.331 601.451,730.998 600.644,732.943Z" style="fill:rgb(251,238,74);fill-rule:nonzero;"/>
                <path d="M612.93,729.661C612.144,729.312 609.822,733.629 610.014,734.074C610.203,734.517 613.495,729.913 612.93,729.661Z" style="fill:rgb(252,224,72);fill-rule:nonzero;"/>
                <path d="M614.152,736.192C613.09,736.569 614.613,737.514 613.159,738.028C612.901,738.12 612.612,738.036 612.487,737.683C612.435,737.53 612.406,737.355 612.351,737.2C612.212,736.807 611.732,736.69 611.425,736.8C611.166,736.892 610.934,737.186 611.057,737.531C611.219,737.99 610.357,739.568 610.035,739.683C609.359,739.922 609.619,739.444 609.242,739.161C608.726,738.915 607.557,739.777 606.634,738.11C606.457,737.757 605.913,737.689 605.475,737.479C605.209,737.315 605.186,736.96 604.996,736.714C604.917,736.611 604.673,736.459 604.641,736.366L604.647,736.318C605.005,735.57 606.393,735.18 606.008,734.092C605.917,733.836 605.751,733.584 605.652,733.308C605.328,732.394 606.246,732.676 605.962,731.87C605.865,731.602 605.666,731.414 605.575,731.154C605.529,731.028 605.663,730.798 605.628,730.7L605.612,730.674C605.205,730.245 604.447,730.55 603.722,730.807C603.532,730.874 603.158,731.024 602.697,731.232C601.585,731.845 600.776,732.432 600.578,732.91C599.965,734.391 610.058,743.761 613.067,741.618C613.379,741.396 614.11,739.303 614.8,736.892L614.761,736.741C614.663,736.461 614.433,736.093 614.152,736.192Z" style="fill:rgb(252,224,72);fill-rule:nonzero;"/>
                <path d="M607.195,731.337C607.139,731.216 606.914,731.2 606.692,731.302C606.474,731.404 606.341,731.59 606.399,731.71C606.455,731.831 606.681,731.848 606.899,731.746C607.121,731.642 607.25,731.46 607.195,731.337Z" style="fill:rgb(252,224,72);fill-rule:nonzero;"/>
                <path d="M613.074,736.257C612.941,736.231 612.796,736.404 612.75,736.642C612.702,736.88 612.771,737.094 612.905,737.119C613.036,737.146 613.184,736.977 613.229,736.736C613.276,736.498 613.207,736.283 613.074,736.257Z" style="fill:rgb(252,224,72);fill-rule:nonzero;"/>
                <path d="M614.135,731.455C614.002,731.429 613.802,731.879 613.688,732.461C613.572,733.041 613.587,733.533 613.721,733.558C613.852,733.584 614.054,733.136 614.168,732.555C614.282,731.973 614.266,731.479 614.135,731.455Z" style="fill:rgb(252,224,72);fill-rule:nonzero;"/>
                <path d="M605.425,734.252C605.349,734.034 604.986,733.966 604.617,734.097C604.248,734.227 604.01,734.509 604.086,734.727C604.162,734.943 604.525,735.013 604.896,734.882C605.266,734.75 605.502,734.469 605.425,734.252Z" style="fill:rgb(251,238,74);fill-rule:nonzero;"/>
                <path d="M603.725,731.763C603.668,731.603 603.493,731.519 603.335,731.576C603.175,731.633 603.092,731.808 603.148,731.967C603.206,732.127 603.38,732.211 603.539,732.154C603.699,732.098 603.781,731.922 603.725,731.763Z" style="fill:rgb(251,238,74);fill-rule:nonzero;"/>
                <path d="M614.999,728.478C614.719,729.444 614.575,730.708 614.575,730.708L615.289,728.515L614.999,728.478Z" style="fill:rgb(250,194,54);fill-rule:nonzero;"/>
                <path d="M613.889,728.241C613.021,729.513 612.215,731.277 612.215,731.277L614.294,728.433L613.889,728.241Z" style="fill:rgb(250,194,54);fill-rule:nonzero;"/>
                <path d="M613.462,727.445C612.282,728.433 611.027,729.913 611.027,729.913L613.799,727.737L613.462,727.445Z" style="fill:rgb(250,194,54);fill-rule:nonzero;"/>
                <path d="M609.543,737.54C609.71,737.297 610.268,736.654 610.357,737.473C610.448,738.293 610.521,738.436 610.205,738.81C609.891,739.185 609.73,739.023 609.704,738.613C609.68,738.201 609.355,737.814 609.543,737.54Z" style="fill:rgb(252,224,72);fill-rule:nonzero;"/>
                <path d="M598.725,700.429C598.053,702.052 609.125,712.334 612.429,709.981C613.203,709.43 616.153,698.485 615.712,696.767C615.55,696.129 614.49,696.1 613.693,695.661C612.743,695.14 612.019,694.271 611.661,694.324C611.002,694.416 599.606,698.295 598.725,700.429Z" style="fill:rgb(240,152,45);fill-rule:nonzero;"/>
                <path d="M598.918,700.487C598.26,702.071 609.081,712.107 612.313,709.808C613.071,709.269 615.96,698.582 615.533,696.899C615.374,696.278 614.338,696.252 613.559,695.823C612.629,695.315 611.922,694.465 611.571,694.517C610.927,694.61 599.782,698.4 598.918,700.487Z" style="fill:rgb(250,194,54);fill-rule:nonzero;"/>
                <path d="M599.41,700.811C598.799,702.291 608.882,711.655 611.891,709.513C612.597,709.011 615.486,698.814 615.087,697.247C614.938,696.667 613.771,696.87 613.045,696.473C612.177,695.995 611.903,695.066 611.577,695.113C610.977,695.199 600.215,698.868 599.41,700.811Z" style="fill:rgb(251,238,74);fill-rule:nonzero;"/>
                <path d="M611.694,697.53C610.908,697.183 608.587,701.498 608.779,701.943C608.968,702.387 612.258,697.781 611.694,697.53Z" style="fill:rgb(252,224,72);fill-rule:nonzero;"/>
                <path d="M612.918,704.061C611.854,704.438 613.377,705.384 611.924,705.897C611.666,705.989 611.377,705.903 611.252,705.552C611.198,705.399 611.169,705.224 611.114,705.07C610.975,704.676 610.497,704.561 610.188,704.668C609.929,704.761 609.698,705.055 609.82,705.4C609.982,705.859 609.121,707.438 608.8,707.552C608.124,707.791 608.384,707.312 608.006,707.031C607.49,706.784 606.321,707.645 605.399,705.977C605.222,705.626 604.679,705.558 604.241,705.349C603.975,705.183 603.951,704.83 603.761,704.583C603.681,704.48 603.438,704.328 603.404,704.235L603.411,704.186C603.768,703.439 605.158,703.047 604.772,701.961C604.683,701.705 604.514,701.453 604.418,701.178C604.093,700.261 605.011,700.544 604.726,699.74C604.63,699.471 604.431,699.283 604.338,699.023C604.294,698.897 604.428,698.667 604.392,698.569L604.377,698.542C603.97,698.114 603.211,698.419 602.485,698.676C602.299,698.743 601.922,698.892 601.461,699.102C600.35,699.713 599.54,700.3 599.342,700.778C598.73,702.259 608.821,711.631 611.833,709.486C612.143,709.265 612.876,707.173 613.565,704.762L613.526,704.609C613.426,704.33 613.195,703.962 612.918,704.061Z" style="fill:rgb(252,224,72);fill-rule:nonzero;"/>
                <path d="M605.96,699.206C605.901,699.085 605.678,699.068 605.456,699.172C605.237,699.274 605.105,699.458 605.162,699.579C605.22,699.701 605.445,699.717 605.663,699.614C605.885,699.511 606.017,699.328 605.96,699.206Z" style="fill:rgb(252,224,72);fill-rule:nonzero;"/>
                <path d="M611.839,704.127C611.706,704.1 611.56,704.273 611.514,704.511C611.468,704.749 611.536,704.963 611.669,704.988C611.802,705.015 611.947,704.845 611.994,704.604C612.041,704.367 611.972,704.152 611.839,704.127Z" style="fill:rgb(252,224,72);fill-rule:nonzero;"/>
                <path d="M612.898,699.324C612.767,699.297 612.566,699.747 612.452,700.328C612.338,700.91 612.352,701.402 612.485,701.428C612.618,701.453 612.818,701.004 612.933,700.425C613.046,699.843 613.031,699.35 612.898,699.324Z" style="fill:rgb(252,224,72);fill-rule:nonzero;"/>
                <path d="M604.19,702.12C604.113,701.904 603.751,701.835 603.382,701.965C603.012,702.097 602.773,702.379 602.851,702.596C602.928,702.812 603.289,702.881 603.66,702.751C604.029,702.619 604.266,702.338 604.19,702.12Z" style="fill:rgb(251,238,74);fill-rule:nonzero;"/>
                <path d="M602.49,699.632C602.434,699.472 602.258,699.389 602.099,699.444C601.94,699.502 601.856,699.677 601.912,699.835C601.97,699.996 602.144,700.08 602.304,700.022C602.463,699.967 602.546,699.791 602.49,699.632Z" style="fill:rgb(251,238,74);fill-rule:nonzero;"/>
                <path d="M613.764,696.348C613.481,697.314 613.34,698.576 613.34,698.576L614.054,696.384L613.764,696.348Z" style="fill:rgb(250,194,54);fill-rule:nonzero;"/>
                <path d="M612.655,696.111C611.787,697.381 610.979,699.147 610.979,699.147L613.059,696.303L612.655,696.111Z" style="fill:rgb(250,194,54);fill-rule:nonzero;"/>
                <path d="M612.227,695.314C611.046,696.301 609.791,697.781 609.791,697.781L612.563,695.605L612.227,695.314Z" style="fill:rgb(250,194,54);fill-rule:nonzero;"/>
                <path d="M608.308,705.408C608.474,705.166 609.031,704.523 609.123,705.341C609.213,706.163 609.285,706.305 608.97,706.68C608.654,707.054 608.494,706.894 608.47,706.482C608.445,706.071 608.12,705.683 608.308,705.408Z" style="fill:rgb(252,224,72);fill-rule:nonzero;"/>
                <path d="M523.465,692.584C522.794,694.208 533.865,704.49 537.169,702.138C537.943,701.586 540.894,690.642 540.452,688.922C540.291,688.284 539.231,688.255 538.434,687.818C537.484,687.296 536.76,686.427 536.401,686.479C535.742,686.573 524.348,690.45 523.465,692.584Z" style="fill:rgb(240,152,45);fill-rule:nonzero;"/>
                <path d="M523.658,692.644C523,694.229 533.822,704.265 537.055,701.964C537.811,701.426 540.7,690.737 540.274,689.058C540.114,688.436 539.079,688.408 538.3,687.979C537.369,687.472 536.663,686.622 536.313,686.673C535.668,686.767 524.523,690.557 523.658,692.644Z" style="fill:rgb(250,194,54);fill-rule:nonzero;"/>
                <path d="M524.15,692.969C523.539,694.446 533.622,703.811 536.632,701.669C537.338,701.166 540.227,690.971 539.828,689.403C539.679,688.824 538.511,689.027 537.785,688.629C536.918,688.152 536.644,687.224 536.318,687.27C535.718,687.355 524.956,691.023 524.15,692.969Z" style="fill:rgb(251,238,74);fill-rule:nonzero;"/>
                <path d="M536.435,689.687C535.65,689.338 533.327,693.654 533.519,694.1C533.709,694.543 537,689.937 536.435,689.687Z" style="fill:rgb(252,224,72);fill-rule:nonzero;"/>
                <path d="M537.658,696.218C536.595,696.594 538.118,697.539 536.664,698.055C536.406,698.145 536.118,698.061 535.992,697.709C535.94,697.556 535.91,697.38 535.855,697.227C535.716,696.833 535.237,696.715 534.93,696.824C534.67,696.917 534.438,697.212 534.561,697.557C534.723,698.016 533.862,699.594 533.541,699.707C532.864,699.948 533.124,699.469 532.747,699.186C532.231,698.94 531.063,699.803 530.139,698.136C529.962,697.781 529.419,697.714 528.981,697.505C528.715,697.34 528.692,696.985 528.501,696.74C528.421,696.638 528.179,696.485 528.146,696.392L528.151,696.343C528.509,695.597 529.898,695.204 529.513,694.119C529.423,693.86 529.255,693.609 529.158,693.334C528.834,692.418 529.751,692.702 529.466,691.896C529.37,691.626 529.171,691.44 529.08,691.18C529.035,691.055 529.168,690.823 529.133,690.725L529.118,690.697C528.711,690.271 527.951,690.576 527.227,690.832C527.039,690.898 526.664,691.049 526.203,691.26C525.091,691.869 524.28,692.455 524.081,692.936C523.471,694.416 533.563,703.787 536.573,701.642C536.884,701.423 537.616,699.328 538.306,696.918L538.266,696.767C538.167,696.486 537.936,696.119 537.658,696.218Z" style="fill:rgb(252,224,72);fill-rule:nonzero;"/>
                <path d="M530.701,691.362C530.643,691.241 530.418,691.225 530.196,691.327C529.979,691.431 529.847,691.613 529.903,691.734C529.96,691.857 530.185,691.873 530.404,691.77C530.626,691.669 530.757,691.484 530.701,691.362Z" style="fill:rgb(252,224,72);fill-rule:nonzero;"/>
                <path d="M536.58,696.282C536.446,696.258 536.302,696.43 536.255,696.667C536.208,696.906 536.276,697.119 536.41,697.145C536.543,697.171 536.688,697.001 536.734,696.761C536.781,696.523 536.712,696.308 536.58,696.282Z" style="fill:rgb(252,224,72);fill-rule:nonzero;"/>
                <path d="M537.64,691.48C537.507,691.455 537.307,691.903 537.192,692.484C537.078,693.066 537.093,693.558 537.227,693.584C537.358,693.61 537.559,693.16 537.674,692.581C537.787,691.999 537.771,691.506 537.64,691.48Z" style="fill:rgb(252,224,72);fill-rule:nonzero;"/>
                <path d="M528.93,694.276C528.854,694.061 528.491,693.991 528.123,694.122C527.753,694.253 527.514,694.535 527.592,694.751C527.668,694.968 528.029,695.037 528.399,694.907C528.769,694.777 529.008,694.494 528.93,694.276Z" style="fill:rgb(251,238,74);fill-rule:nonzero;"/>
                <path d="M527.23,691.788C527.174,691.628 526.998,691.546 526.839,691.602C526.68,691.657 526.597,691.833 526.652,691.993C526.711,692.151 526.885,692.237 527.045,692.179C527.204,692.122 527.287,691.947 527.23,691.788Z" style="fill:rgb(251,238,74);fill-rule:nonzero;"/>
                <path d="M538.505,688.503C538.223,689.471 538.08,690.732 538.08,690.732L538.794,688.539L538.505,688.503Z" style="fill:rgb(250,194,54);fill-rule:nonzero;"/>
                <path d="M537.396,688.267C536.526,689.538 535.722,691.304 535.722,691.304L537.799,688.458L537.396,688.267Z" style="fill:rgb(250,194,54);fill-rule:nonzero;"/>
                <path d="M536.969,687.47C535.787,688.457 534.531,689.937 534.531,689.937L537.305,687.763L536.969,687.47Z" style="fill:rgb(250,194,54);fill-rule:nonzero;"/>
                <path d="M533.049,697.565C533.215,697.323 533.773,696.68 533.863,697.499C533.953,698.319 534.026,698.461 533.711,698.835C533.396,699.21 533.235,699.05 533.21,698.639C533.185,698.227 532.861,697.84 533.049,697.565Z" style="fill:rgb(252,224,72);fill-rule:nonzero;"/>
                <path d="M618.007,684.552C617.334,686.176 628.406,696.457 631.711,694.104C632.484,693.553 635.435,682.608 634.994,680.89C634.833,680.253 633.773,680.224 632.976,679.785C632.025,679.265 631.301,678.395 630.943,678.447C630.283,678.54 618.89,682.418 618.007,684.552Z" style="fill:rgb(240,152,45);fill-rule:nonzero;"/>
                <path d="M618.2,684.61C617.542,686.195 628.363,696.232 631.596,693.931C632.354,693.392 635.242,682.706 634.815,681.023C634.656,680.402 633.62,680.376 632.841,679.946C631.911,679.439 631.203,678.589 630.852,678.641C630.209,678.733 619.065,682.524 618.2,684.61Z" style="fill:rgb(250,194,54);fill-rule:nonzero;"/>
                <path d="M618.692,684.936C618.08,686.415 628.164,695.779 631.173,693.636C631.879,693.135 634.769,682.938 634.369,681.37C634.221,680.791 633.051,680.994 632.325,680.597C631.46,680.119 631.185,679.191 630.859,679.237C630.26,679.322 619.496,682.991 618.692,684.936Z" style="fill:rgb(251,238,74);fill-rule:nonzero;"/>
                <path d="M630.977,681.653C630.191,681.306 627.868,685.622 628.06,686.067C628.251,686.511 631.54,681.905 630.977,681.653Z" style="fill:rgb(252,224,72);fill-rule:nonzero;"/>
                <path d="M632.198,688.185C631.135,688.561 632.659,689.507 631.205,690.02C630.948,690.113 630.66,690.028 630.533,689.675C630.479,689.523 630.452,689.348 630.397,689.193C630.258,688.799 629.779,688.683 629.471,688.792C629.212,688.884 628.98,689.178 629.102,689.523C629.264,689.983 628.404,691.561 628.083,691.676C627.405,691.914 627.666,691.437 627.289,691.154C626.773,690.908 625.604,691.769 624.681,690.102C624.504,689.75 623.96,689.683 623.522,689.473C623.256,689.308 623.234,688.953 623.042,688.706C622.963,688.604 622.72,688.452 622.688,688.358L622.693,688.31C623.051,687.562 624.44,687.171 624.055,686.085C623.965,685.829 623.797,685.577 623.699,685.301C623.374,684.385 624.293,684.669 624.007,683.863C623.912,683.595 623.712,683.406 623.621,683.147C623.577,683.021 623.709,682.791 623.674,682.692L623.658,682.666C623.251,682.236 622.492,682.542 621.768,682.8C621.579,682.866 621.205,683.017 620.743,683.225C619.633,683.838 618.822,684.424 618.624,684.902C618.012,686.383 628.104,695.754 631.114,693.611C631.426,693.389 632.158,691.296 632.848,688.885L632.807,688.733C632.709,688.453 632.477,688.086 632.198,688.185Z" style="fill:rgb(252,224,72);fill-rule:nonzero;"/>
                <path d="M625.242,683.329C625.184,683.208 624.96,683.191 624.738,683.295C624.519,683.398 624.387,683.581 624.445,683.703C624.502,683.824 624.727,683.841 624.946,683.738C625.167,683.635 625.299,683.452 625.242,683.329Z" style="fill:rgb(252,224,72);fill-rule:nonzero;"/>
                <path d="M631.122,688.25C630.988,688.225 630.844,688.396 630.796,688.634C630.749,688.872 630.817,689.086 630.951,689.112C631.084,689.14 631.229,688.968 631.275,688.728C631.323,688.491 631.254,688.276 631.122,688.25Z" style="fill:rgb(252,224,72);fill-rule:nonzero;"/>
                <path d="M632.181,683.448C632.049,683.421 631.848,683.872 631.734,684.452C631.62,685.033 631.635,685.526 631.769,685.551C631.899,685.577 632.101,685.127 632.215,684.548C632.328,683.966 632.313,683.473 632.181,683.448Z" style="fill:rgb(252,224,72);fill-rule:nonzero;"/>
                <path d="M623.472,686.244C623.396,686.027 623.033,685.958 622.663,686.088C622.294,686.22 622.056,686.502 622.133,686.719C622.21,686.936 622.571,687.005 622.94,686.874C623.31,686.743 623.549,686.461 623.472,686.244Z" style="fill:rgb(251,238,74);fill-rule:nonzero;"/>
                <path d="M621.771,683.755C621.716,683.597 621.54,683.512 621.381,683.57C621.221,683.626 621.138,683.8 621.194,683.958C621.252,684.119 621.426,684.203 621.587,684.146C621.745,684.09 621.828,683.914 621.771,683.755Z" style="fill:rgb(251,238,74);fill-rule:nonzero;"/>
                <path d="M633.047,680.471C632.765,681.436 632.622,682.7 632.622,682.7L633.334,680.508L633.047,680.471Z" style="fill:rgb(250,194,54);fill-rule:nonzero;"/>
                <path d="M631.936,680.234C631.066,681.504 630.262,683.27 630.262,683.27L632.34,680.427L631.936,680.234Z" style="fill:rgb(250,194,54);fill-rule:nonzero;"/>
                <path d="M631.509,679.438C630.329,680.424 629.072,681.905 629.072,681.905L631.846,679.728L631.509,679.438Z" style="fill:rgb(250,194,54);fill-rule:nonzero;"/>
                <path d="M627.59,689.531C627.756,689.29 628.315,688.646 628.404,689.465C628.495,690.286 628.567,690.428 628.252,690.803C627.936,691.178 627.776,691.017 627.752,690.605C627.725,690.194 627.401,689.808 627.59,689.531Z" style="fill:rgb(252,224,72);fill-rule:nonzero;"/>
                <path d="M532.964,710.346C531.24,710.79 529.643,726.033 533.565,727.28C534.48,727.572 545.154,723.3 546.282,721.895C546.7,721.375 546.078,720.499 545.947,719.587C545.791,718.495 546.058,717.38 545.797,717.121C545.318,716.642 535.233,709.762 532.964,710.346Z" style="fill:rgb(240,152,45);fill-rule:nonzero;"/>
                <path d="M532.94,710.606C531.253,711.035 529.713,725.917 533.546,727.141C534.446,727.427 544.874,723.27 545.977,721.9C546.383,721.392 545.774,720.537 545.644,719.645C545.491,718.581 545.748,717.492 545.493,717.237C545.025,716.771 535.157,710.038 532.94,710.606Z" style="fill:rgb(250,194,54);fill-rule:nonzero;"/>
                <path d="M533.123,711.265C531.573,711.662 530.141,725.35 533.661,726.471C534.486,726.732 544.374,722.921 545.387,721.659C545.763,721.192 544.898,720.381 544.782,719.561C544.642,718.583 545.219,717.808 544.986,717.572C544.557,717.144 535.162,710.742 533.123,711.265Z" style="fill:rgb(251,238,74);fill-rule:nonzero;"/>
                <path d="M543.125,719.119C542.931,718.281 538.085,719.014 537.844,719.435C537.604,719.854 543.263,719.721 543.125,719.119Z" style="fill:rgb(252,224,72);fill-rule:nonzero;"/>
                <path d="M538.636,724.017C537.697,723.394 537.855,725.178 536.571,724.324C536.344,724.174 536.238,723.894 536.444,723.579C536.533,723.446 536.658,723.317 536.748,723.182C536.979,722.832 536.784,722.38 536.512,722.2C536.284,722.048 535.907,722.041 535.706,722.346C535.436,722.751 533.656,723.009 533.372,722.821C532.775,722.426 533.315,722.345 533.313,721.872C533.2,721.312 531.809,720.896 532.589,719.157C532.765,718.803 532.492,718.326 532.396,717.852C532.368,717.539 532.639,717.307 532.722,717.01C532.756,716.883 532.731,716.598 532.786,716.515L532.83,716.492C533.638,716.328 534.787,717.202 535.425,716.243C535.575,716.017 535.677,715.732 535.838,715.488C536.375,714.678 536.7,715.582 537.173,714.873C537.331,714.634 537.362,714.362 537.513,714.132C537.588,714.022 537.851,713.988 537.909,713.902L537.921,713.874C538.019,713.29 537.319,712.868 536.678,712.441C536.512,712.332 536.168,712.121 535.724,711.879C534.566,711.355 533.613,711.062 533.11,711.191C531.557,711.59 530.123,725.287 533.647,726.408C534.009,726.523 536.123,725.85 538.465,724.954L538.56,724.832C538.726,724.587 538.882,724.181 538.636,724.017Z" style="fill:rgb(252,224,72);fill-rule:nonzero;"/>
                <path d="M538.015,716.853C537.982,716.641 537.588,716.521 537.129,716.593C536.674,716.66 536.33,716.89 536.362,717.104C536.396,717.317 536.791,717.433 537.247,717.366C537.702,717.297 538.046,717.068 538.015,716.853Z" style="fill:rgb(252,224,72);fill-rule:nonzero;"/>
                <path d="M534.819,721.866C534.781,721.609 534.533,721.431 534.268,721.472C534.003,721.512 533.817,721.754 533.858,722.01C533.896,722.269 534.144,722.445 534.409,722.405C534.675,722.364 534.859,722.122 534.819,721.866Z" style="fill:rgb(252,224,72);fill-rule:nonzero;"/>
                <path d="M540.106,722.076C540.068,721.819 539.586,721.68 539.029,721.763C538.474,721.847 538.054,722.124 538.092,722.381C538.131,722.639 538.613,722.779 539.171,722.695C539.727,722.611 540.146,722.334 540.106,722.076Z" style="fill:rgb(252,224,72);fill-rule:nonzero;"/>
                <path d="M545.217,718.471C544.79,718.362 543.766,718.257 543.838,718.024C543.912,717.79 545.279,718.058 545.279,718.058L545.217,718.471Z" style="fill:rgb(250,194,54);fill-rule:nonzero;"/>
                <path d="M545.741,720.945C545.347,721.144 544.503,721.734 544.406,721.51C544.309,721.285 545.519,720.595 545.519,720.595L545.741,720.945Z" style="fill:rgb(250,194,54);fill-rule:nonzero;"/>
                <path d="M545.224,719.703C544.783,719.685 542.938,719.825 542.961,719.581C542.986,719.337 545.199,719.289 545.199,719.289L545.224,719.703Z" style="fill:rgb(250,194,54);fill-rule:nonzero;"/>
                <path d="M538.352,657.061C536.629,657.503 535.03,672.745 538.95,673.993C539.867,674.285 550.541,670.012 551.67,668.608C552.087,668.088 551.465,667.212 551.335,666.298C551.179,665.209 551.444,664.094 551.185,663.833C550.705,663.355 540.621,656.477 538.352,657.061Z" style="fill:rgb(240,152,45);fill-rule:nonzero;"/>
                <path d="M538.326,657.317C536.64,657.749 535.102,672.631 538.934,673.852C539.833,674.141 550.261,669.981 551.362,668.613C551.771,668.106 551.161,667.251 551.032,666.358C550.878,665.294 551.136,664.204 550.88,663.951C550.413,663.483 540.545,656.751 538.326,657.317Z" style="fill:rgb(250,194,54);fill-rule:nonzero;"/>
                <path d="M538.512,657.977C536.961,658.377 535.529,672.063 539.048,673.183C539.873,673.445 549.762,669.634 550.773,668.372C551.15,667.905 550.287,667.094 550.169,666.274C550.028,665.297 550.606,664.52 550.374,664.286C549.944,663.858 540.55,657.454 538.512,657.977Z" style="fill:rgb(251,238,74);fill-rule:nonzero;"/>
                <path d="M548.513,665.832C548.318,664.995 543.473,665.728 543.231,666.148C542.991,666.566 548.65,666.433 548.513,665.832Z" style="fill:rgb(252,224,72);fill-rule:nonzero;"/>
                <path d="M544.023,670.729C543.084,670.105 543.242,671.891 541.96,671.038C541.73,670.886 541.625,670.605 541.832,670.292C541.922,670.158 542.046,670.03 542.135,669.895C542.367,669.547 542.172,669.092 541.898,668.912C541.672,668.761 541.295,668.753 541.094,669.057C540.824,669.464 539.044,669.723 538.761,669.533C538.163,669.138 538.7,669.057 538.7,668.586C538.588,668.025 537.196,667.609 537.977,665.87C538.151,665.516 537.879,665.039 537.785,664.564C537.756,664.253 538.026,664.021 538.109,663.723C538.144,663.597 538.118,663.31 538.174,663.228L538.217,663.205C539.026,663.042 540.174,663.916 540.811,662.957C540.964,662.73 541.065,662.444 541.227,662.2C541.763,661.392 542.088,662.297 542.56,661.585C542.72,661.346 542.75,661.076 542.9,660.846C542.975,660.734 543.238,660.702 543.297,660.615L543.309,660.586C543.407,660.002 542.707,659.581 542.066,659.155C541.898,659.045 541.555,658.835 541.11,658.591C539.954,658.069 539.001,657.774 538.497,657.903C536.943,658.303 535.511,672 539.035,673.12C539.396,673.237 541.512,672.563 543.852,671.667L543.949,671.545C544.112,671.299 544.269,670.894 544.023,670.729Z" style="fill:rgb(252,224,72);fill-rule:nonzero;"/>
                <path d="M543.402,663.567C543.37,663.353 542.975,663.234 542.516,663.304C542.061,663.372 541.718,663.602 541.75,663.816C541.783,664.029 542.178,664.147 542.635,664.079C543.091,664.011 543.435,663.78 543.402,663.567Z" style="fill:rgb(252,224,72);fill-rule:nonzero;"/>
                <path d="M540.207,668.578C540.169,668.322 539.921,668.144 539.655,668.186C539.39,668.224 539.206,668.466 539.245,668.724C539.283,668.981 539.53,669.158 539.796,669.117C540.063,669.077 540.246,668.836 540.207,668.578Z" style="fill:rgb(252,224,72);fill-rule:nonzero;"/>
                <path d="M545.494,668.789C545.456,668.532 544.974,668.392 544.416,668.477C543.86,668.56 543.441,668.837 543.479,669.093C543.519,669.352 544.001,669.492 544.558,669.408C545.113,669.324 545.533,669.047 545.494,668.789Z" style="fill:rgb(252,224,72);fill-rule:nonzero;"/>
                <path d="M550.604,665.183C550.179,665.075 549.153,664.97 549.225,664.736C549.299,664.503 550.667,664.771 550.667,664.771L550.604,665.183Z" style="fill:rgb(250,194,54);fill-rule:nonzero;"/>
                <path d="M551.128,667.66C550.734,667.857 549.89,668.447 549.794,668.223C549.697,667.999 550.908,667.308 550.908,667.308L551.128,667.66Z" style="fill:rgb(250,194,54);fill-rule:nonzero;"/>
                <path d="M550.61,666.417C550.17,666.398 548.325,666.537 548.35,666.293C548.373,666.051 550.587,666.002 550.587,666.002L550.61,666.417Z" style="fill:rgb(250,194,54);fill-rule:nonzero;"/>
            </g>
        </g>
    </g>
</svg>
