<?xml version="1.0" encoding="UTF-8" standalone="no"?>
<!DOCTYPE svg PUBLIC "-//W3C//DTD SVG 1.1//EN" "http://www.w3.org/Graphics/SVG/1.1/DTD/svg11.dtd">
<svg width="100%" height="100%" viewBox="0 0 612 614" version="1.1" xmlns="http://www.w3.org/2000/svg" xmlns:xlink="http://www.w3.org/1999/xlink" xml:space="preserve" xmlns:serif="http://www.serif.com/" style="fill-rule:evenodd;clip-rule:evenodd;stroke-linejoin:round;stroke-miterlimit:2;">
    <g transform="matrix(9.21738,0,0,9.21738,-3383.81,-268.856)">
        <g>
            <g>
                <path d="M433.499,62.545C433.499,71.962 431.316,79.483 424.325,86.232C421.533,88.929 417.844,91.237 413.859,92.91C409.549,94.717 404.897,95.781 400.667,95.781C394.007,95.781 387.624,93.569 382.246,89.88C380.453,88.651 378.773,87.258 377.23,85.728C375.688,84.197 374.285,82.53 373.047,80.754C371.809,78.977 370.738,77.091 369.858,75.123C368.1,71.187 367.113,66.921 367.113,62.545C367.113,60.948 367.242,59.456 367.48,58.044C371.719,37.12 393.847,23.106 414.127,31.777C415.432,32.315 416.701,32.944 417.921,33.667C419.763,34.755 421.497,36.054 423.087,37.568C430.464,44.587 433.499,52.546 433.499,62.545Z" style="fill:rgb(248,154,61);fill-rule:nonzero;"/>
                <path d="M428.989,69.405C423.352,85.803 405.649,96.13 389.421,89.491C376.144,83.59 368.768,69.576 371.719,55.561C375.407,42.284 386.471,32.695 400.486,32.695C417.451,32.695 432.203,48.185 429.796,65.223C429.607,66.624 429.337,68.019 428.989,69.405ZM423.09,37.567C421.497,36.055 419.763,34.756 417.921,33.669C416.168,32.807 414.383,32.008 412.554,31.313C399.748,26.794 384.996,29.744 376.144,40.071C368.03,51.135 366.555,65.888 373.194,77.689C378.357,87.278 387.946,91.704 398.121,93.58C400.508,93.895 402.966,93.945 405.484,93.917C407.07,95.39 411.628,93.448 413.523,92.991C413.632,92.965 413.747,92.94 413.857,92.907C417.844,91.235 421.536,88.932 424.322,86.23C429.26,81.47 431.796,76.324 432.862,70.399C433.312,67.929 433.498,65.317 433.498,62.545C433.498,52.548 430.467,44.585 423.09,37.567ZM386.267,87.789C388.109,88.748 390.009,89.545 391.94,90.161C389.964,89.511 388.072,88.718 386.267,87.789Z" style="fill:rgb(252,189,113);fill-rule:nonzero;"/>
                <path d="M429.615,62.584C429.99,74.001 422.614,84.328 413.025,88.754C399.011,94.655 382.783,90.229 374.669,76.952C370.243,68.838 369.506,59.987 373.194,51.135C378.357,40.071 389.421,31.219 401.961,32.695C415.238,34.17 426.302,43.759 428.971,56.26C429.373,58.325 429.591,60.44 429.615,62.584Z" style="fill:rgb(255,220,169);fill-rule:nonzero;"/>
                <path d="M430.147,65.754C429.253,74.739 423.352,81.377 416.713,86.541C406.387,93.917 393.847,93.917 383.521,86.541C375.407,80.64 370.981,71.788 370.981,62.199C370.981,43.759 389.421,29.744 407.124,31.957C419.664,33.432 432.203,45.972 431.036,59.42C430.98,61.483 430.684,63.603 430.147,65.754ZM430.453,47.559C430.033,46.661 429.564,45.779 429.047,44.914C427.507,42.333 425.538,39.899 423.087,37.568C421.497,36.054 419.763,34.755 417.921,33.667C416.166,32.806 414.382,32.009 412.555,31.314C393.847,23.843 374.669,38.596 370.981,57.036C368.768,71.051 376.144,86.541 390.897,90.966C406.387,94.655 421.139,87.278 429.761,75.072C430.886,73.562 431.938,72.008 432.863,70.4C433.223,68.405 433.415,66.324 433.477,64.138C433.491,63.615 433.499,63.083 433.499,62.545C433.499,56.981 432.56,52.048 430.453,47.559Z" style="fill:rgb(248,171,85);fill-rule:nonzero;"/>
                <path d="M429.047,44.914C428.988,44.815 428.929,44.716 428.868,44.618C428.932,44.715 428.992,44.814 429.048,44.913C429.048,44.913 429.048,44.914 429.047,44.914ZM423.548,38.013C423.396,37.864 423.242,37.716 423.087,37.568C422.271,36.791 421.417,36.071 420.531,35.407C421.418,36.071 422.272,36.791 423.09,37.567C423.244,37.715 423.397,37.863 423.548,38.013ZM415.372,32.475C414.443,32.064 413.505,31.675 412.555,31.314C412.551,31.313 412.548,31.311 412.544,31.31C412.547,31.311 412.551,31.312 412.554,31.313C413.505,31.674 414.443,32.064 415.372,32.475ZM391.634,31.219C394.695,29.859 397.913,29.283 401.169,29.283C401.751,29.283 402.334,29.301 402.918,29.337C402.744,29.333 402.57,29.332 402.397,29.332C399.035,29.332 395.755,29.964 392.655,31.115C392.313,31.147 391.973,31.182 391.634,31.219Z" style="fill:rgb(255,220,177);fill-rule:nonzero;"/>
                <path d="M428.834,45.031C428.707,45.031 428.567,44.915 428.414,44.661C421.638,34.542 409.513,30.869 397.903,30.869C396.134,30.869 394.379,30.955 392.655,31.115C395.755,29.964 399.035,29.332 402.397,29.332C402.57,29.332 402.744,29.333 402.918,29.337C406.148,29.534 409.395,30.258 412.544,31.31C412.548,31.311 412.551,31.313 412.555,31.314C413.505,31.675 414.443,32.064 415.372,32.475C416.23,32.855 417.079,33.255 417.921,33.669C418.818,34.198 419.689,34.777 420.531,35.407C421.417,36.071 422.271,36.791 423.087,37.568C423.242,37.716 423.396,37.864 423.548,38.013C423.816,38.279 424.078,38.547 424.329,38.815C426.101,40.642 427.578,42.533 428.798,44.514C428.822,44.548 428.845,44.583 428.868,44.618C428.929,44.716 428.988,44.815 429.047,44.914C428.98,44.99 428.909,45.031 428.834,45.031Z" style="fill:rgb(254,216,170);fill-rule:nonzero;"/>
                <path d="M398.514,92.41C393.651,92.41 388.98,90.905 384.896,88.349C386.734,89.433 388.736,90.318 390.897,90.966C392.808,91.422 394.709,91.708 396.588,91.838C397.762,91.995 398.939,92.073 400.117,92.073C401.314,92.073 402.511,91.992 403.704,91.83C401.962,92.223 400.226,92.41 398.514,92.41Z" style="fill:rgb(255,220,177);fill-rule:nonzero;"/>
                <path d="M391.004,90.084C390.475,89.904 389.947,89.706 389.421,89.491C388.281,88.985 387.184,88.418 386.134,87.796C386.45,87.964 386.767,88.125 387.089,88.281C388.349,88.98 389.658,89.585 391.004,90.084Z" style="fill:rgb(253,212,164);fill-rule:nonzero;"/>
                <path d="M398.947,91.92C398.166,91.92 397.378,91.893 396.588,91.838C392.068,91.235 387.62,89.469 383.521,86.541C381.422,85.015 379.571,83.292 377.979,81.41C380.353,84.061 383.118,86.196 386.134,87.796C387.184,88.418 388.281,88.985 389.421,89.491C389.947,89.706 390.475,89.904 391.004,90.084C393.853,91.14 396.873,91.721 399.97,91.721C401.843,91.721 403.742,91.509 405.651,91.06C405.72,91.092 405.735,91.167 405.539,91.279C403.391,91.699 401.188,91.92 398.947,91.92ZM374.267,77.022C372.126,73.116 370.828,68.745 370.673,64.247C370.982,68.701 372.203,73.089 374.267,77.022Z" style="fill:rgb(255,220,177);fill-rule:nonzero;"/>
                <path d="M387.089,88.281C386.767,88.125 386.45,87.964 386.134,87.796C383.118,86.196 380.353,84.061 377.979,81.41C373.903,76.591 371.527,70.73 371.064,64.469C372.165,74.417 378.527,83.531 387.089,88.281Z" style="fill:rgb(255,228,190);fill-rule:nonzero;"/>
                <path d="M400.117,92.073C398.939,92.073 397.762,91.995 396.588,91.838C397.378,91.893 398.166,91.92 398.947,91.92C401.188,91.92 403.391,91.699 405.539,91.279C405.331,91.398 404.882,91.561 404.006,91.76C403.906,91.784 403.804,91.808 403.704,91.83C402.511,91.992 401.314,92.073 400.117,92.073ZM396.588,91.838C394.709,91.708 392.808,91.422 390.897,90.966C388.736,90.318 386.734,89.433 384.896,88.349C380.506,85.601 376.798,81.638 374.267,77.022C372.203,73.089 370.982,68.701 370.673,64.247C370.616,62.593 370.714,60.92 370.981,59.249C370.841,61.001 370.874,62.748 371.064,64.469C371.527,70.73 373.903,76.591 377.979,81.41C379.571,83.292 381.422,85.015 383.521,86.541C387.62,89.469 392.068,91.235 396.588,91.838Z" style="fill:rgb(254,216,170);fill-rule:nonzero;"/>
                <path d="M431.443,66.875C428.96,75.237 423.454,83.624 415.562,88.434C423.56,85.835 429.873,78.886 431.168,70.578C431.463,68.514 431.536,66.567 431.443,66.875Z" style="fill:rgb(255,228,184);fill-rule:nonzero;"/>
                <path d="M382.25,35.312C376.656,38.168 372.23,44.069 371.492,50.708C375.918,44.807 378.869,37.431 385.991,34.608C388.284,33.441 384.448,34.049 382.25,35.312Z" style="fill:rgb(255,228,184);fill-rule:nonzero;"/>
                <path d="M407.862,90.229C414.99,88.447 421.311,83.436 425.279,76.906C421.549,83.576 415.387,88.492 407.862,90.229Z" style="fill:rgb(254,207,153);fill-rule:nonzero;"/>
                <path d="M428.971,56.26C426.581,45.065 417.46,36.206 406.044,33.417C407.161,33.611 408.261,33.862 409.337,34.17C409.802,34.303 410.26,34.447 410.713,34.603C415.096,36.278 419.047,38.972 422.217,42.366C425.639,46.25 427.997,51.072 428.971,56.26Z" style="fill:rgb(249,162,80);fill-rule:nonzero;"/>
                <path d="M422.217,42.366C419.047,38.972 415.096,36.278 410.713,34.603C415.246,36.169 419.157,38.893 422.217,42.366Z" style="fill:rgb(252,186,114);fill-rule:nonzero;"/>
                <path d="M425.279,76.906C426.302,75.077 427.142,73.115 427.778,71.051C431.466,61.462 428.515,51.135 422.614,43.759C416.919,36.925 408.684,33.609 400.423,33.609C393.486,33.609 386.531,35.947 381.047,40.504C383.459,38.325 386.2,36.486 389.144,35.064C392.729,33.626 396.612,32.938 400.472,32.938C402.347,32.938 404.216,33.1 406.044,33.417C417.46,36.206 426.581,45.065 428.971,56.26C429.373,58.325 429.591,60.44 429.615,62.584C429.472,67.69 427.881,72.625 425.279,76.906Z" style="fill:rgb(254,207,153);fill-rule:nonzero;"/>
                <path d="M379.095,42.284C381.851,38.976 385.33,36.595 389.144,35.064C386.2,36.486 383.459,38.325 381.047,40.504C380.373,41.064 379.722,41.657 379.095,42.284Z" style="fill:rgb(251,174,95);fill-rule:nonzero;"/>
                <path d="M394.778,87.01C394.531,87.01 394.318,86.987 394.143,86.939C390.993,86.071 387.658,85.022 385.037,83.149C383.703,82.195 382.915,80.924 382.142,79.575C381.408,78.294 380.609,77.041 379.712,75.849C378.773,74.6 377.759,73.406 376.638,72.288C375.559,71.212 374.339,70.178 373.802,68.763C373.268,67.354 373.354,65.804 373.414,64.334C373.462,63.138 373.545,61.942 373.713,60.755C374.025,58.565 374.54,56.426 375.384,54.44C375.445,54.781 375.769,54.995 376.134,54.995C376.149,54.995 376.164,54.994 376.18,54.994C376.66,54.97 377.014,54.635 377.332,54.344C377.613,54.088 377.513,53.621 377.23,53.408C377.094,53.306 376.943,53.261 376.793,53.261C376.581,53.261 376.371,53.352 376.207,53.502L376.143,53.56L376.044,53.64L375.986,53.677C375.869,53.688 375.764,53.733 375.674,53.795C376.558,51.917 377.758,50.192 379.4,48.718L379.527,48.567C381.161,46.695 384.157,43.91 387.085,43.91C387.734,43.91 388.38,44.047 389.007,44.361C389.402,44.558 389.649,44.697 389.984,44.697C390.125,44.697 390.281,44.672 390.471,44.618C391.108,44.434 391.707,44.19 392.321,43.948C393.619,43.437 394.994,43.034 396.416,43.034C396.61,43.034 396.805,43.041 397,43.057C400.367,43.329 403.29,44.795 406.023,46.531C407.168,47.259 408.327,47.976 409.484,48.698C409.398,48.798 409.356,48.916 409.327,49.039C409.259,49.316 409.369,49.623 409.372,49.902C409.376,50.242 409.759,50.492 410.105,50.492C410.129,50.492 410.152,50.491 410.175,50.488C410.363,50.469 410.537,50.382 410.656,50.249C410.79,50.1 410.818,49.939 410.816,49.753L410.812,49.696L410.88,49.635L410.911,49.592C412.274,50.451 413.627,51.323 414.942,52.233C416.403,53.244 417.675,54.387 418.171,56.061C418.478,57.099 418.548,58.157 418.629,59.218C418.497,59.364 418.414,59.57 418.352,59.742C418.253,60.016 418.176,60.297 418.099,60.576C418.003,60.929 418.338,61.285 418.703,61.337L418.879,61.342C419.16,62.919 419.653,64.5 420.146,66.086C419.921,65.937 419.681,65.86 419.45,65.86C419.12,65.86 418.811,66.018 418.603,66.344C418.402,66.657 418.631,67.087 418.964,67.225C419.062,67.266 419.159,67.284 419.252,67.284C419.311,67.284 419.368,67.276 419.424,67.263L419.535,67.361L419.63,67.45L419.748,67.566C419.879,67.697 420.01,67.827 420.146,67.953C420.26,68.059 420.412,68.104 420.569,68.104C420.629,68.104 420.691,68.097 420.751,68.084C421.598,71.036 422.141,74.002 421.023,76.979C420.475,78.443 419.68,79.878 418.23,80.76C418.137,80.816 418.021,80.84 417.886,80.84C417.457,80.84 416.844,80.595 416.245,80.351C415.645,80.106 415.059,79.861 414.683,79.861C414.66,79.861 414.637,79.862 414.616,79.864C414.407,79.883 409.098,82.351 403.868,84.381C403.887,84.307 403.892,84.231 403.883,84.155C403.862,83.984 403.767,83.824 403.621,83.715C403.458,83.592 403.284,83.569 403.08,83.569L402.633,83.569C402.454,83.569 402.26,83.688 402.152,83.809C402.028,83.946 401.97,84.127 401.992,84.304C402.013,84.476 402.108,84.635 402.253,84.744C402.354,84.82 402.458,84.858 402.57,84.876C399.371,86.072 396.368,87.01 394.778,87.01ZM397.265,80.702C396.868,80.702 396.584,81.108 396.624,81.437C396.645,81.609 396.74,81.768 396.886,81.878C397.049,82.001 397.223,82.024 397.427,82.024L398.098,82.024C398.495,82.024 398.779,81.618 398.739,81.289C398.718,81.117 398.622,80.958 398.477,80.848C398.313,80.725 398.14,80.702 397.936,80.702L397.265,80.702ZM391.673,80.292C391.495,80.292 391.301,80.411 391.192,80.532C391.069,80.67 391.011,80.851 391.033,81.028C391.054,81.199 391.149,81.359 391.294,81.468C391.458,81.591 391.632,81.615 391.836,81.615L392.283,81.615C392.461,81.615 392.656,81.496 392.764,81.375C392.887,81.237 392.946,81.056 392.924,80.879C392.903,80.708 392.808,80.548 392.662,80.439C392.498,80.316 392.325,80.292 392.121,80.292L391.673,80.292ZM409.901,77.828C409.676,77.828 409.445,77.923 409.309,78.075C409.185,78.212 409.127,78.393 409.149,78.571C409.171,78.756 409.271,78.884 409.41,79.011L409.634,79.215C409.75,79.322 409.905,79.369 410.064,79.369C410.289,79.369 410.52,79.274 410.656,79.122C410.78,78.985 410.838,78.804 410.816,78.626C410.794,78.442 410.694,78.314 410.555,78.186L410.331,77.982C410.215,77.875 410.06,77.828 409.901,77.828ZM384.069,78.04C383.891,78.04 383.697,78.159 383.588,78.28C383.465,78.417 383.407,78.598 383.428,78.775C383.449,78.947 383.544,79.106 383.69,79.215C383.854,79.339 384.028,79.362 384.231,79.362L384.455,79.362C384.633,79.362 384.828,79.243 384.936,79.122C385.059,78.985 385.117,78.804 385.096,78.626C385.075,78.455 384.98,78.295 384.834,78.186C384.67,78.063 384.497,78.04 384.293,78.04L384.069,78.04ZM397.041,77.63C396.106,77.63 396.276,78.952 397.203,78.952C398.138,78.952 397.969,77.63 397.041,77.63ZM384.516,74.149C384.338,74.149 384.144,74.268 384.035,74.389C383.912,74.526 383.854,74.707 383.875,74.885C383.897,75.056 383.992,75.216 384.137,75.325C384.301,75.448 384.475,75.471 384.679,75.471L385.126,75.471C385.304,75.471 385.499,75.352 385.607,75.231C385.73,75.094 385.789,74.913 385.767,74.736C385.746,74.565 385.651,74.405 385.505,74.296C385.341,74.173 385.168,74.149 384.964,74.149L384.516,74.149ZM399.949,71.897C399.659,71.9 399.33,71.974 399.061,72.058C398.586,72.206 398.344,72.729 398.656,73.122C398.86,73.378 399.165,73.415 399.473,73.422C399.495,73.731 399.463,74.047 399.368,74.33C399.252,74.677 399.335,75.047 399.729,75.211C399.817,75.247 399.919,75.265 400.024,75.265C400.306,75.265 400.607,75.134 400.691,74.88C400.964,74.066 400.987,73.242 400.738,72.424L400.712,72.336L400.707,72.316C400.607,72.018 400.366,71.895 400.112,71.895C400.086,71.895 400.059,71.897 400.032,71.899L399.949,71.897ZM416.188,70.875C415.901,70.875 415.572,70.981 415.471,71.259C415.182,72.055 414.978,72.812 414.964,73.656C414.958,73.996 415.357,74.246 415.699,74.246C415.722,74.246 415.745,74.245 415.767,74.243C416.197,74.198 416.402,73.87 416.408,73.507C416.414,73.106 416.5,72.717 416.618,72.333C416.713,72.361 416.81,72.386 416.914,72.395C416.944,72.398 416.973,72.399 417.001,72.399C417.856,72.399 418.044,71.166 417.141,71.082C416.942,71.063 416.557,70.892 416.247,70.877C416.228,70.876 416.208,70.875 416.188,70.875ZM407.776,71.077C407.599,71.078 407.434,71.094 407.264,71.152C406.962,71.256 406.708,71.539 406.693,71.839C406.684,72.024 406.7,72.18 406.823,72.334C406.936,72.476 407.107,72.573 407.297,72.6C407.334,72.606 407.372,72.608 407.41,72.608C407.562,72.608 407.713,72.564 407.837,72.481L407.939,72.4C408.117,72.399 408.311,72.281 408.42,72.16C408.543,72.022 408.601,71.841 408.58,71.664C408.559,71.493 408.463,71.333 408.318,71.224C408.154,71.101 407.981,71.077 407.776,71.077ZM383.398,71.077C382.463,71.077 382.633,72.4 383.56,72.4C384.495,72.4 384.326,71.077 383.398,71.077ZM390.754,70.054C389.819,70.054 389.989,71.376 390.916,71.376L391.165,71.376C392.1,71.376 391.93,70.054 391.002,70.054L390.754,70.054ZM404.714,66.364C404.691,66.364 404.668,66.365 404.645,66.368C404.458,66.387 404.284,66.474 404.164,66.607C404.03,66.757 404.004,66.916 404.004,67.103L404.004,67.717C404.004,68.057 404.394,68.308 404.739,68.308C404.762,68.308 404.785,68.306 404.808,68.304C404.995,68.285 405.169,68.198 405.289,68.064C405.423,67.915 405.449,67.755 405.449,67.569L405.449,66.954C405.449,66.614 405.059,66.364 404.714,66.364ZM398.454,65.535C398.368,65.535 398.281,65.552 398.2,65.59C397.824,65.765 397.458,65.958 397.177,66.252C396.99,66.447 396.907,66.697 396.925,66.954C396.948,67.271 397.212,67.492 397.493,67.634C397.583,67.68 397.681,67.701 397.779,67.701C398.058,67.701 398.341,67.533 398.455,67.304C398.515,67.183 398.529,67.062 398.511,66.948L398.556,66.921L398.679,66.852L398.728,66.829C399.081,66.666 399.296,66.33 399.141,65.968C399.038,65.727 398.745,65.535 398.454,65.535ZM379.372,65.548C378.438,65.548 378.607,66.871 379.535,66.871C380.469,66.871 380.3,65.548 379.372,65.548ZM414.039,64.729C413.782,64.729 413.555,64.743 413.305,64.8C413.045,64.859 412.852,65.009 412.663,65.174C412.376,65.424 412.488,65.901 412.765,66.11C412.902,66.212 413.049,66.257 413.195,66.257C413.376,66.257 413.555,66.188 413.71,66.076L413.734,66.067L413.767,66.065C413.876,66.052 413.986,66.051 414.096,66.051L414.201,66.051C414.598,66.051 414.882,65.646 414.842,65.316C414.795,64.926 414.435,64.729 414.039,64.729ZM393.826,64.778C393.802,64.885 393.776,64.992 393.751,65.098C393.748,65.299 393.748,65.499 393.75,65.699C393.789,65.398 393.828,65.097 393.864,64.796L393.826,64.778ZM387.94,63.292C387.917,63.292 387.894,63.294 387.871,63.296C387.684,63.315 387.509,63.402 387.39,63.536C387.256,63.686 387.23,63.845 387.23,64.031L387.23,64.646C387.23,64.986 387.62,65.236 387.964,65.236C387.988,65.236 388.011,65.235 388.034,65.232C388.221,65.213 388.395,65.126 388.515,64.993C388.649,64.843 388.674,64.684 388.674,64.497L388.674,63.883C388.674,63.543 388.285,63.292 387.94,63.292ZM406.301,62.062C406.022,62.062 405.749,62.215 405.631,62.453C405.464,62.79 405.636,63.176 405.992,63.334C406.486,63.554 406.951,63.594 407.492,63.594C407.888,63.594 408.173,63.188 408.132,62.859C408.085,62.469 407.725,62.272 407.329,62.272L407.21,62.271L406.995,62.255L406.83,62.219L406.592,62.123C406.499,62.081 406.4,62.062 406.301,62.062ZM393.99,60.425C393.963,60.425 393.936,60.426 393.91,60.429C393.723,60.448 393.548,60.536 393.429,60.669C393.295,60.819 393.269,60.978 393.269,61.165L393.269,61.369C393.269,61.533 393.399,61.711 393.531,61.809C393.66,61.907 393.825,61.96 393.992,61.96C394.019,61.96 394.046,61.959 394.072,61.956C394.463,61.956 394.658,61.725 394.688,61.456L394.713,61.22L394.713,61.016C394.713,60.852 394.583,60.675 394.451,60.575C394.322,60.478 394.157,60.425 393.99,60.425ZM376.544,60.425C376.518,60.425 376.491,60.426 376.465,60.429C376.278,60.448 376.103,60.536 375.984,60.669C375.85,60.819 375.824,60.978 375.824,61.165L375.824,61.369C375.824,61.533 375.954,61.711 376.086,61.809C376.215,61.907 376.38,61.96 376.547,61.96C376.574,61.96 376.6,61.959 376.627,61.956C376.814,61.937 376.989,61.849 377.108,61.716C377.242,61.567 377.268,61.407 377.268,61.22L377.268,61.016C377.268,60.852 377.138,60.675 377.006,60.575C376.876,60.478 376.711,60.425 376.544,60.425ZM410.534,60.44C410.261,60.44 410.01,60.553 409.88,60.815C409.732,61.114 409.863,61.588 410.241,61.696C410.504,61.771 410.766,61.825 411.029,61.825C411.225,61.825 411.422,61.795 411.619,61.721C412.074,61.55 412.385,61.164 412.545,60.751C412.677,60.409 412.567,60.029 412.184,59.87C412.094,59.833 411.992,59.814 411.89,59.814C411.609,59.814 411.319,59.95 411.222,60.201L411.168,60.331L411.108,60.44L411.1,60.45L411.047,60.498L411.04,60.501L410.998,60.503L410.988,60.504L410.939,60.497C410.933,60.497 410.816,60.471 410.803,60.471C410.798,60.471 410.807,60.474 410.842,60.484C410.74,60.455 410.636,60.44 410.534,60.44ZM382.059,59.405L382.056,59.405C381.798,59.405 381.55,59.484 381.379,59.67C381.195,59.873 381.192,60.098 381.192,60.345C381.192,60.509 381.321,60.687 381.453,60.786C381.583,60.883 381.748,60.936 381.915,60.936C381.942,60.936 381.968,60.935 381.995,60.932C382.182,60.913 382.356,60.826 382.476,60.692L382.52,60.63L382.699,60.488C382.823,60.35 382.881,60.169 382.859,59.992C382.839,59.821 382.743,59.661 382.598,59.552C382.435,59.429 382.262,59.405 382.059,59.405ZM400.763,58.612L400.586,58.826C400.312,59.088 400.4,59.545 400.688,59.762C400.823,59.864 400.976,59.91 401.129,59.91C401.341,59.91 401.551,59.821 401.71,59.669L401.892,59.447C402.17,59.333 402.351,59.039 402.317,58.763C402.273,58.399 401.934,58.176 401.556,58.176C401.542,58.176 401.528,58.176 401.514,58.177C401.344,58.184 401.139,58.252 401.008,58.355C400.881,58.456 400.81,58.545 400.73,58.66L400.763,58.612ZM387.727,57.149C387.7,57.149 387.674,57.15 387.647,57.153C387.46,57.172 387.286,57.259 387.167,57.392C387.032,57.542 387.007,57.701 387.007,57.888L387.007,58.093C387.007,58.256 387.136,58.434 387.269,58.533C387.398,58.631 387.563,58.684 387.731,58.684C387.757,58.684 387.783,58.682 387.81,58.68C387.997,58.66 388.172,58.573 388.291,58.44C388.425,58.29 388.451,58.131 388.451,57.944L388.451,57.739C388.451,57.576 388.321,57.398 388.189,57.299C388.059,57.202 387.894,57.149 387.727,57.149ZM404.645,55.924C404.249,55.924 403.964,56.33 404.004,56.659C404.052,57.049 404.412,57.246 404.808,57.246L404.929,57.247L405.108,57.263L405.161,57.304C405.281,57.409 405.438,57.456 405.597,57.456C405.819,57.456 406.046,57.365 406.183,57.211C406.448,56.915 406.368,56.525 406.081,56.275C405.682,55.927 405.161,55.924 404.645,55.924ZM413.368,55.31C412.433,55.31 412.603,56.632 413.53,56.632C414.465,56.632 414.296,55.31 413.368,55.31ZM409.422,54.896C409.395,54.896 409.369,54.897 409.342,54.9C409.155,54.919 408.981,55.007 408.861,55.14C408.727,55.29 408.701,55.449 408.701,55.636L408.701,55.84C408.701,56.004 408.831,56.182 408.963,56.281C409.093,56.378 409.258,56.431 409.424,56.431C409.451,56.431 409.478,56.43 409.504,56.427C409.692,56.408 409.866,56.32 409.985,56.187C410.12,56.038 410.145,55.878 410.145,55.692L410.145,55.487C410.145,55.323 410.016,55.146 409.884,55.046C409.754,54.949 409.589,54.896 409.422,54.896ZM391.897,54.695C391.719,54.695 391.524,54.814 391.416,54.935C391.293,55.073 391.235,55.254 391.256,55.431C391.277,55.602 391.373,55.762 391.518,55.871C391.682,55.994 391.855,56.017 392.059,56.017L392.507,56.017C392.685,56.017 392.879,55.899 392.988,55.778C393.111,55.64 393.169,55.459 393.148,55.282C393.127,55.111 393.031,54.951 392.886,54.842C392.722,54.719 392.548,54.695 392.344,54.695L391.897,54.695ZM379.452,53.463C379.425,53.463 379.399,53.464 379.372,53.467C379.185,53.486 379.011,53.573 378.891,53.706C378.757,53.856 378.731,54.015 378.731,54.202L378.731,54.407C378.731,54.57 378.861,54.748 378.993,54.847C379.123,54.945 379.288,54.998 379.455,54.998C379.482,54.998 379.508,54.996 379.535,54.994C379.722,54.974 379.896,54.887 380.016,54.754C380.15,54.604 380.175,54.445 380.175,54.258L380.175,54.054C380.175,53.89 380.046,53.712 379.914,53.613C379.784,53.516 379.619,53.463 379.452,53.463ZM397.041,53.057C396.863,53.057 396.669,53.176 396.56,53.297C396.437,53.434 396.379,53.615 396.4,53.793C396.421,53.964 396.517,54.124 396.662,54.233C396.826,54.356 397,54.379 397.203,54.379L397.427,54.379C397.605,54.379 397.8,54.26 397.908,54.14C398.031,54.002 398.09,53.821 398.068,53.644C398.047,53.473 397.952,53.313 397.806,53.204C397.642,53.081 397.469,53.057 397.265,53.057L397.041,53.057ZM385.634,52.648C385.456,52.648 385.262,52.767 385.154,52.887C385.03,53.025 384.972,53.206 384.994,53.383C385.015,53.554 385.11,53.714 385.256,53.823C385.372,53.91 385.493,53.946 385.626,53.96C385.767,54.094 385.97,54.178 386.172,54.178C386.196,54.178 386.22,54.177 386.244,54.174C386.657,54.132 386.904,53.801 386.885,53.439C386.869,53.128 386.645,52.867 386.346,52.736C386.154,52.652 385.94,52.647 385.732,52.647L385.689,52.647C385.671,52.647 385.653,52.648 385.635,52.648L385.634,52.648ZM406.658,52.238C405.723,52.238 405.893,53.56 406.821,53.56C407.755,53.56 407.586,52.238 406.658,52.238ZM402.26,51.298C402.405,51.545 402.65,51.723 402.94,51.723C403.024,51.723 403.111,51.708 403.201,51.676C403.537,51.556 403.801,51.135 403.614,50.814C403.41,50.465 403.161,50.188 402.762,50.015C402.584,49.938 402.387,49.902 402.188,49.902C401.969,49.902 401.75,49.946 401.555,50.027C401.195,50.177 400.992,50.536 401.142,50.888C401.249,51.138 401.536,51.316 401.827,51.316C401.913,51.316 402,51.301 402.083,51.266L402.171,51.233L402.175,51.233L402.184,51.237L402.22,51.264C402.211,51.258 402.205,51.255 402.203,51.255C402.195,51.255 402.21,51.276 402.228,51.296C402.246,51.317 402.268,51.337 402.275,51.337C402.28,51.337 402.277,51.327 402.26,51.298ZM382.727,49.576C382.549,49.576 382.354,49.695 382.246,49.816C382.123,49.953 382.065,50.134 382.086,50.311C382.107,50.483 382.203,50.642 382.348,50.752C382.512,50.875 382.686,50.898 382.889,50.898L383.113,50.898C383.292,50.898 383.486,50.779 383.594,50.658C383.717,50.521 383.776,50.34 383.754,50.163C383.733,49.991 383.638,49.831 383.492,49.722C383.329,49.599 383.155,49.576 382.951,49.576L382.727,49.576ZM387.259,46.912C387.047,46.912 386.836,46.987 386.719,47.154C386.435,47.557 386.171,48.085 386.437,48.559C386.758,49.131 387.385,49.252 388.034,49.26L388.04,49.26C388.434,49.26 388.714,48.848 388.674,48.525C388.627,48.133 388.271,47.945 387.879,47.938L387.882,47.933C388.056,47.64 388.051,47.292 387.742,47.06C387.614,46.965 387.436,46.912 387.259,46.912ZM393.757,46.902C393.088,46.902 392.728,47.865 393.467,48.181C393.899,48.365 394.379,48.407 394.809,48.59C394.918,48.637 395.022,48.657 395.12,48.657C395.789,48.657 396.149,47.694 395.41,47.379C394.978,47.195 394.498,47.153 394.068,46.969C393.959,46.923 393.854,46.902 393.757,46.902ZM384.149,45.272C384.122,45.272 384.096,45.273 384.069,45.276C383.882,45.295 383.707,45.382 383.588,45.515C383.454,45.665 383.428,45.824 383.428,46.011L383.428,46.421C383.428,46.584 383.558,46.762 383.69,46.861C383.82,46.958 383.985,47.011 384.152,47.011C384.179,47.011 384.205,47.01 384.231,47.007C384.418,46.988 384.593,46.901 384.712,46.768C384.847,46.618 384.872,46.459 384.872,46.272L384.872,45.862C384.872,45.699 384.743,45.521 384.611,45.422C384.481,45.325 384.316,45.272 384.149,45.272ZM400.843,44.047C399.909,44.047 400.078,45.369 401.005,45.369C401.94,45.369 401.771,44.047 400.843,44.047ZM403.242,84.891L402.795,84.891C402.716,84.891 402.641,84.887 402.57,84.876C403,84.715 403.434,84.549 403.868,84.381C403.843,84.479 403.794,84.572 403.723,84.651C403.615,84.772 403.42,84.891 403.242,84.891ZM400.663,58.759C400.687,58.723 400.709,58.691 400.73,58.66L400.663,58.759ZM402.249,51.286L402.22,51.264C402.227,51.269 402.237,51.276 402.249,51.286Z" style="fill:rgb(253,213,160);fill-rule:nonzero;"/>
                <path d="M417.6,71.708C417.497,71.698 417.399,71.674 417.304,71.646C417.186,72.029 417.101,72.419 417.094,72.82C417.088,73.182 416.883,73.511 416.453,73.555C416.098,73.592 415.644,73.332 415.65,72.968C415.664,72.125 415.868,71.368 416.158,70.571C416.265,70.275 416.633,70.175 416.933,70.19C417.243,70.205 417.628,70.376 417.827,70.394C418.76,70.482 418.528,71.795 417.6,71.708ZM414.887,65.364C414.744,65.364 414.596,65.361 414.453,65.378L414.42,65.38L414.396,65.389C414.117,65.591 413.757,65.652 413.451,65.423C413.174,65.214 413.062,64.737 413.349,64.486C413.538,64.322 413.731,64.172 413.991,64.113C414.241,64.056 414.468,64.042 414.725,64.042C415.121,64.042 415.481,64.239 415.528,64.629C415.568,64.958 415.284,65.364 414.887,65.364ZM412.305,61.033C411.845,61.207 411.387,61.14 410.927,61.008C410.549,60.9 410.418,60.427 410.566,60.128C410.744,59.768 411.15,59.689 411.528,59.797C411.4,59.76 411.617,59.809 411.625,59.81L411.674,59.817L411.684,59.816L411.726,59.813L411.733,59.811L411.786,59.762L411.794,59.753L411.855,59.643L411.908,59.514C412.04,59.172 412.533,59.043 412.87,59.183C413.253,59.342 413.363,59.722 413.231,60.063C413.071,60.477 412.76,60.862 412.305,61.033ZM411.342,78.435C411.11,78.694 410.601,78.785 410.32,78.528L410.097,78.323C409.957,78.196 409.857,78.068 409.835,77.883C409.813,77.706 409.871,77.525 409.995,77.387C410.227,77.128 410.736,77.037 411.017,77.294L411.241,77.499C411.38,77.626 411.48,77.754 411.502,77.939C411.524,78.116 411.466,78.297 411.342,78.435ZM409.387,55.153L409.387,54.948C409.387,54.761 409.413,54.602 409.547,54.452C409.667,54.319 409.841,54.232 410.028,54.213C410.221,54.193 410.419,54.246 410.57,54.359C410.702,54.458 410.831,54.636 410.831,54.8L410.831,55.004C410.831,55.191 410.806,55.35 410.672,55.5C410.552,55.633 410.378,55.72 410.191,55.74C409.997,55.759 409.8,55.706 409.649,55.593C409.517,55.494 409.387,55.316 409.387,55.153ZM409.106,71.472C408.998,71.594 408.803,71.712 408.625,71.712L408.523,71.794C408.368,71.897 408.172,71.94 407.983,71.913C407.793,71.885 407.622,71.789 407.509,71.647C407.386,71.492 407.37,71.336 407.379,71.152C407.395,70.851 407.648,70.569 407.95,70.465C408.12,70.406 408.285,70.39 408.463,70.39C408.667,70.39 408.84,70.414 409.004,70.536C409.149,70.646 409.245,70.806 409.266,70.977C409.287,71.154 409.229,71.335 409.106,71.472ZM406.317,61.766C406.477,61.442 406.922,61.277 407.279,61.435L407.516,61.531L407.681,61.568L407.896,61.584L408.015,61.585C408.411,61.585 408.771,61.781 408.819,62.171C408.859,62.501 408.574,62.907 408.178,62.907C407.637,62.907 407.172,62.866 406.678,62.647C406.322,62.489 406.15,62.103 406.317,61.766ZM405.847,56.617L405.794,56.575L405.615,56.56L405.494,56.559C405.098,56.559 404.738,56.362 404.691,55.972C404.65,55.643 404.935,55.236 405.331,55.237C405.848,55.237 406.368,55.24 406.767,55.588C407.054,55.837 407.135,56.228 406.869,56.524C406.632,56.788 406.134,56.868 405.847,56.617ZM406.135,66.881C406.135,67.068 406.109,67.227 405.975,67.377C405.855,67.51 405.681,67.598 405.494,67.617C405.134,67.653 404.691,67.393 404.691,67.03L404.691,66.416C404.691,66.229 404.716,66.07 404.85,65.92C404.97,65.787 405.144,65.699 405.331,65.68C405.691,65.643 406.135,65.904 406.135,66.267L406.135,66.881ZM404.409,83.964C404.301,84.085 404.106,84.204 403.928,84.204L403.481,84.204C403.277,84.204 403.103,84.18 402.939,84.057C402.794,83.948 402.699,83.788 402.678,83.617C402.656,83.44 402.714,83.259 402.838,83.121C402.946,83 403.14,82.881 403.319,82.881L403.766,82.881C403.97,82.881 404.144,82.905 404.307,83.028C404.453,83.137 404.548,83.297 404.569,83.468C404.591,83.645 404.533,83.826 404.409,83.964ZM402.396,58.981C402.123,59.243 401.698,59.318 401.374,59.074C401.086,58.858 400.998,58.401 401.272,58.138L401.449,57.925L401.349,58.071C401.462,57.905 401.533,57.795 401.695,57.668C401.825,57.565 402.03,57.496 402.2,57.489C402.595,57.472 402.957,57.699 403.003,58.076C403.037,58.351 402.856,58.645 402.579,58.76L402.396,58.981ZM401.378,74.193C401.261,74.54 400.741,74.659 400.416,74.524C400.021,74.36 399.938,73.989 400.054,73.643C400.149,73.359 400.181,73.044 400.159,72.734C399.851,72.728 399.546,72.69 399.343,72.435C399.03,72.042 399.273,71.518 399.747,71.371C400.016,71.287 400.345,71.212 400.635,71.209L400.718,71.212C401,71.184 401.283,71.3 401.393,71.629L401.398,71.649L401.424,71.736C401.673,72.554 401.65,73.379 401.378,74.193ZM398.784,81.337L398.113,81.337C397.909,81.337 397.736,81.313 397.572,81.19C397.426,81.081 397.331,80.921 397.31,80.75C397.27,80.42 397.554,80.015 397.951,80.015L398.622,80.015C398.826,80.015 398.999,80.038 399.163,80.161C399.309,80.27 399.404,80.43 399.425,80.601C399.465,80.931 399.181,81.337 398.784,81.337ZM397.727,76.943C398.655,76.943 398.824,78.265 397.89,78.265C396.962,78.265 396.792,76.943 397.727,76.943ZM397.246,52.609C397.355,52.489 397.549,52.37 397.727,52.37L397.951,52.37C398.155,52.37 398.328,52.393 398.492,52.516C398.638,52.625 398.733,52.785 398.754,52.957C398.776,53.133 398.717,53.315 398.594,53.452C398.486,53.573 398.292,53.692 398.113,53.692L397.89,53.692C397.686,53.692 397.512,53.668 397.348,53.545C397.203,53.436 397.107,53.276 397.086,53.105C397.065,52.928 397.123,52.747 397.246,52.609ZM399.827,65.28C399.982,65.643 399.767,65.978 399.414,66.142L399.365,66.165L399.242,66.233L399.197,66.261C399.215,66.375 399.201,66.496 399.141,66.616C398.987,66.926 398.526,67.123 398.179,66.947C397.898,66.804 397.634,66.584 397.611,66.267C397.593,66.01 397.676,65.76 397.863,65.565C398.144,65.271 398.51,65.077 398.886,64.902C399.24,64.738 399.693,64.968 399.827,65.28ZM401.529,43.36C402.457,43.36 402.626,44.682 401.692,44.682C400.764,44.682 400.595,43.36 401.529,43.36ZM403.448,49.328C403.848,49.501 404.096,49.778 404.3,50.127C404.487,50.448 404.223,50.868 403.887,50.988C403.485,51.132 403.133,50.929 402.947,50.61C403.026,50.746 402.79,50.482 402.935,50.598L402.87,50.549L402.861,50.545L402.858,50.546L402.769,50.579C402.408,50.729 401.966,50.524 401.828,50.201C401.678,49.849 401.882,49.489 402.241,49.339C402.612,49.185 403.074,49.166 403.448,49.328ZM407.344,51.551C408.272,51.551 408.441,52.873 407.507,52.873C406.579,52.873 406.41,51.551 407.344,51.551ZM414.054,54.622C414.982,54.622 415.151,55.944 414.216,55.944C413.289,55.944 413.119,54.622 414.054,54.622ZM395.495,47.903C395.065,47.719 394.585,47.677 394.153,47.493C393.306,47.132 393.903,45.919 394.754,46.282C395.184,46.465 395.664,46.507 396.096,46.691C396.943,47.053 396.346,48.266 395.495,47.903ZM395.399,60.533L395.375,60.768C395.344,61.037 395.149,61.269 394.758,61.269C394.565,61.288 394.367,61.235 394.217,61.122C394.085,61.023 393.955,60.845 393.955,60.682L393.955,60.477C393.955,60.29 393.981,60.131 394.115,59.981C394.234,59.848 394.409,59.761 394.596,59.742C394.789,59.722 394.987,59.775 395.137,59.888C395.27,59.987 395.399,60.165 395.399,60.328L395.399,60.533ZM394.436,65.011C394.434,64.811 394.434,64.611 394.437,64.411C394.462,64.304 394.488,64.198 394.512,64.091L394.55,64.108C394.514,64.41 394.475,64.711 394.436,65.011ZM393.674,55.09C393.565,55.211 393.371,55.33 393.193,55.33L392.745,55.33C392.542,55.33 392.368,55.307 392.204,55.184C392.059,55.074 391.963,54.915 391.942,54.743C391.921,54.566 391.979,54.385 392.102,54.248C392.21,54.127 392.405,54.008 392.583,54.008L393.03,54.008C393.234,54.008 393.408,54.031 393.572,54.154C393.717,54.264 393.813,54.423 393.834,54.595C393.855,54.772 393.797,54.953 393.674,55.09ZM393.45,80.687C393.342,80.808 393.147,80.927 392.969,80.927L392.522,80.927C392.318,80.927 392.144,80.904 391.98,80.781C391.835,80.671 391.74,80.512 391.719,80.34C391.697,80.163 391.755,79.982 391.878,79.845C391.987,79.724 392.181,79.605 392.359,79.605L392.807,79.605C393.011,79.605 393.184,79.628 393.348,79.751C393.494,79.861 393.589,80.02 393.61,80.192C393.632,80.369 393.573,80.55 393.45,80.687ZM391.44,69.366L391.689,69.366C392.616,69.366 392.786,70.688 391.851,70.688L391.602,70.688C390.675,70.688 390.505,69.366 391.44,69.366ZM388.72,48.572C388.071,48.565 387.444,48.443 387.123,47.872C386.857,47.398 387.121,46.869 387.405,46.466C387.62,46.162 388.148,46.163 388.428,46.373C388.737,46.605 388.742,46.953 388.568,47.246L388.565,47.25L388.565,47.251C388.957,47.258 389.313,47.446 389.361,47.837C389.4,48.163 389.116,48.577 388.72,48.572ZM389.361,63.81C389.361,63.996 389.335,64.155 389.201,64.305C389.081,64.439 388.907,64.526 388.72,64.545C388.36,64.582 387.917,64.321 387.917,63.958L387.917,63.344C387.917,63.157 387.942,62.998 388.076,62.848C388.196,62.715 388.37,62.628 388.557,62.609C388.917,62.572 389.361,62.832 389.361,63.195L389.361,63.81ZM387.693,57.405L387.693,57.201C387.693,57.014 387.718,56.855 387.853,56.705C387.972,56.572 388.146,56.484 388.334,56.465C388.527,56.446 388.725,56.499 388.875,56.612C389.007,56.711 389.137,56.889 389.137,57.052L389.137,57.257C389.137,57.444 389.111,57.603 388.977,57.753C388.858,57.886 388.683,57.973 388.496,57.992C388.303,58.012 388.105,57.959 387.955,57.846C387.823,57.747 387.693,57.569 387.693,57.405ZM386.93,53.487C386.706,53.51 386.47,53.423 386.312,53.273C386.179,53.259 386.058,53.223 385.942,53.136C385.796,53.027 385.701,52.867 385.68,52.696C385.658,52.519 385.716,52.338 385.84,52.2C385.948,52.079 386.142,51.96 386.321,51.96C386.558,51.96 386.81,51.952 387.032,52.049C387.331,52.179 387.555,52.441 387.571,52.752C387.59,53.114 387.343,53.445 386.93,53.487ZM386.293,74.544C386.185,74.665 385.99,74.784 385.812,74.784L385.365,74.784C385.161,74.784 384.987,74.76 384.823,74.637C384.678,74.528 384.583,74.368 384.562,74.197C384.54,74.02 384.598,73.839 384.722,73.701C384.83,73.581 385.024,73.462 385.203,73.462L385.65,73.462C385.854,73.462 386.027,73.485 386.191,73.608C386.337,73.717 386.432,73.877 386.453,74.049C386.475,74.225 386.416,74.407 386.293,74.544ZM385.622,78.435C385.514,78.556 385.319,78.675 385.141,78.675L384.918,78.675C384.714,78.675 384.54,78.651 384.376,78.528C384.231,78.419 384.135,78.259 384.114,78.088C384.093,77.911 384.151,77.73 384.274,77.592C384.383,77.471 384.577,77.352 384.755,77.352L384.979,77.352C385.183,77.352 385.356,77.376 385.52,77.499C385.666,77.608 385.761,77.768 385.782,77.939C385.804,78.116 385.745,78.297 385.622,78.435ZM384.084,70.39C385.012,70.39 385.181,71.712 384.246,71.712C383.319,71.712 383.149,70.39 384.084,70.39ZM383.206,59.943L383.162,60.005C383.043,60.138 382.868,60.226 382.681,60.245C382.488,60.264 382.29,60.211 382.14,60.098C382.008,59.999 381.878,59.821 381.878,59.658C381.878,59.41 381.882,59.185 382.066,58.983C382.236,58.796 382.484,58.718 382.742,58.718C382.946,58.718 383.12,58.741 383.284,58.864C383.429,58.974 383.525,59.133 383.546,59.305C383.567,59.481 383.509,59.663 383.386,59.8L383.206,59.943ZM382.932,49.128C383.041,49.007 383.235,48.889 383.413,48.889L383.637,48.889C383.841,48.889 384.015,48.912 384.178,49.035C384.324,49.144 384.419,49.304 384.44,49.475C384.462,49.652 384.404,49.833 384.28,49.971C384.172,50.092 383.978,50.211 383.799,50.211L383.576,50.211C383.372,50.211 383.198,50.187 383.034,50.064C382.889,49.955 382.793,49.795 382.772,49.624C382.751,49.447 382.809,49.266 382.932,49.128ZM384.114,45.324C384.114,45.137 384.14,44.978 384.274,44.828C384.394,44.695 384.568,44.607 384.755,44.588C384.948,44.568 385.146,44.622 385.297,44.735C385.429,44.834 385.558,45.012 385.558,45.175L385.558,45.585C385.558,45.771 385.533,45.93 385.398,46.08C385.279,46.213 385.105,46.301 384.918,46.32C384.724,46.34 384.526,46.286 384.376,46.174C384.244,46.074 384.114,45.896 384.114,45.733L384.114,45.324ZM380.862,53.571C380.862,53.758 380.836,53.917 380.702,54.067C380.582,54.2 380.408,54.287 380.221,54.306C380.028,54.326 379.83,54.273 379.679,54.16C379.547,54.061 379.418,53.883 379.418,53.719L379.418,53.515C379.418,53.328 379.443,53.169 379.577,53.019C379.697,52.886 379.871,52.798 380.059,52.779C380.252,52.76 380.449,52.813 380.6,52.926C380.732,53.025 380.862,53.203 380.862,53.366L380.862,53.571ZM380.221,66.183C379.293,66.183 379.124,64.861 380.059,64.861C380.986,64.861 381.156,66.183 380.221,66.183ZM377.954,60.533C377.954,60.72 377.928,60.879 377.794,61.029C377.675,61.162 377.5,61.249 377.313,61.269C377.12,61.288 376.922,61.235 376.772,61.122C376.64,61.023 376.51,60.845 376.51,60.682L376.51,60.477C376.51,60.29 376.536,60.131 376.67,59.981C376.789,59.848 376.964,59.761 377.151,59.742C377.344,59.722 377.542,59.775 377.692,59.888C377.824,59.987 377.954,60.165 377.954,60.328L377.954,60.533ZM421.437,67.397C421.222,67.443 420.99,67.412 420.832,67.266C420.696,67.139 420.565,67.009 420.434,66.879L420.316,66.762L420.221,66.673L420.11,66.576C419.966,66.61 419.81,66.604 419.65,66.537C419.317,66.4 419.089,65.97 419.289,65.657C419.643,65.103 420.286,65.035 420.832,65.399C420.339,63.813 419.846,62.231 419.565,60.655L419.389,60.65C419.024,60.597 418.689,60.241 418.785,59.889C418.862,59.609 418.939,59.329 419.038,59.054C419.1,58.882 419.183,58.676 419.315,58.531C419.234,57.47 419.165,56.411 418.857,55.374C418.361,53.7 417.089,52.557 415.628,51.546C414.313,50.636 412.96,49.764 411.597,48.905L411.566,48.947L411.498,49.008L411.502,49.066C411.504,49.252 411.476,49.413 411.342,49.561C411.223,49.695 411.049,49.782 410.862,49.801C410.499,49.838 410.063,49.577 410.058,49.214C410.055,48.936 409.945,48.628 410.013,48.352C410.043,48.229 410.085,48.11 410.17,48.01C409.013,47.289 407.854,46.572 406.709,45.844C403.976,44.108 401.053,42.641 397.687,42.37C396.056,42.238 394.482,42.68 393.007,43.261C392.393,43.502 391.794,43.746 391.157,43.93C390.516,44.115 390.254,43.954 389.693,43.673C386.237,41.944 382.21,45.593 380.213,47.879L380.086,48.03C378.444,49.504 377.244,51.23 376.36,53.108C376.451,53.045 376.555,53.001 376.672,52.989L376.731,52.953L376.829,52.873L376.894,52.814C377.173,52.559 377.587,52.474 377.916,52.721C378.199,52.934 378.299,53.4 378.018,53.657C377.7,53.948 377.346,54.282 376.866,54.306C376.483,54.325 376.134,54.108 376.071,53.753C375.226,55.738 374.711,57.878 374.4,60.067C374.231,61.254 373.418,61.158 373.369,62.353C373.309,63.823 372.429,66.358 372.963,67.766C373.5,69.182 375.029,73.564 376.109,74.64C377.23,75.758 383.608,83.653 384.942,84.607C387.563,86.48 391.74,87.003 394.891,87.871C398.148,88.769 401.503,87.908 404.901,88.161C407.817,88.378 410.885,87.679 412.679,85.433C413.37,84.567 413.774,83.542 414.185,82.547C414.376,82.083 414.458,81.876 414.67,81.482C414.778,81.282 414.91,81.096 415.044,80.91C414.999,80.972 415.064,80.921 415.161,80.861C415.203,80.856 415.313,80.842 415.527,80.84C415.902,80.834 416.26,80.845 416.634,80.811C417.464,80.738 418.219,80.495 418.916,80.072C420.366,79.191 421.161,77.755 421.71,76.292C422.827,73.315 422.284,70.349 421.437,67.397Z" style="fill:rgb(255,225,176);fill-rule:nonzero;"/>
                <path d="M401.256,29.929C401.256,29.929 400.301,30.482 400.947,31.127C401.592,31.773 401.039,32.326 401.869,32.326C402.699,32.326 403.344,31.127 403.067,30.758C402.791,30.39 403.132,29.56 401.256,29.929Z" style="fill:rgb(255,228,184);fill-rule:nonzero;"/>
                <path d="M405.834,30.482C405.834,30.482 405.004,31.588 406.11,32.049C407.217,32.51 410.167,32.602 413.025,33.985C415.884,35.369 417.451,36.291 417.451,36.291C417.451,36.291 418.172,35.769 417.996,35.384C417.82,35 415.238,31.865 405.834,30.482Z" style="fill:rgb(255,228,184);fill-rule:nonzero;"/>
                <path d="M422.983,40.694C422.522,40.071 419.848,37.789 419.848,37.789C419.848,37.789 419.934,37.203 420.401,37.157C420.869,37.11 422.983,39.425 423.168,40.44C423.352,41.454 422.983,40.694 422.983,40.694Z" style="fill:rgb(255,228,184);fill-rule:nonzero;"/>
                <path d="M372.917,74.831C372.917,74.831 372.917,77.782 373.747,78.796C374.577,79.81 374.946,78.519 374.946,78.519L372.917,74.831Z" style="fill:rgb(255,228,184);fill-rule:nonzero;"/>
                <path d="M375.781,79.5L374.946,80.087C374.946,80.087 379.556,86.725 380.662,86.449C381.769,86.172 381.123,84.881 381.123,84.881L375.781,79.5Z" style="fill:rgb(255,228,184);fill-rule:nonzero;"/>
                <path d="M383.152,86.457C383.152,86.457 381.677,87.555 382.414,87.924C383.152,88.293 385.457,89.86 385.457,89.86L385.826,88.434L383.152,86.457Z" style="fill:rgb(255,228,184);fill-rule:nonzero;"/>
                <path d="M387.393,89.215L387.393,90.598C387.393,90.598 389.514,91.428 390.897,91.796C392.28,92.165 394.954,92.41 394.954,92.41C394.954,92.41 390.897,90.966 389.975,90.598C389.053,90.229 387.393,89.215 387.393,89.215Z" style="fill:rgb(255,228,184);fill-rule:nonzero;"/>
            </g>
        </g>
    </g>
</svg>
