<?xml version="1.0" encoding="UTF-8" standalone="no"?>
<!DOCTYPE svg PUBLIC "-//W3C//DTD SVG 1.1//EN" "http://www.w3.org/Graphics/SVG/1.1/DTD/svg11.dtd">
<svg width="100%" height="100%" viewBox="0 0 610 612" version="1.1" xmlns="http://www.w3.org/2000/svg" xmlns:xlink="http://www.w3.org/1999/xlink" xml:space="preserve" xmlns:serif="http://www.serif.com/" style="fill-rule:evenodd;clip-rule:evenodd;stroke-linejoin:round;stroke-miterlimit:2;">
    <g transform="matrix(1,0,0,1,-971.407,-97.3627)">
        <g transform="matrix(4.16667,0,0,4.16667,0,0)">
            <g>
                <g transform="matrix(1,0,0,1,-75.4219,19.8594)">
                    <path d="M355.636,217.49C355.636,210.288 355.776,201.842 353.853,195.274C351.887,188.557 348.178,179.828 344.499,174.079C339.15,165.72 334.522,161.677 326.345,156.166C320.4,152.161 313.508,148.793 306.496,146.726C300.155,144.858 292.219,143.387 285.285,143.387C274.015,143.388 262.967,145.16 253.484,149.873C244.002,154.586 238.719,156.65 227.505,169.4C222.868,174.673 220.468,181.469 217.823,188.12C214.484,196.515 212.337,205.621 212.337,215.23C212.337,222.628 213.216,230.775 215.241,237.5C217.289,244.297 222.092,250.754 225.892,256.542C231.595,265.229 237.471,272.662 246.225,278.165C257.15,285.035 270.191,287.848 283.986,287.848C292.164,287.848 301.196,288.8 308.515,286.234C316.9,283.295 325.753,277.072 332.398,271.388C340.164,264.744 347.668,258.206 352.085,248.796C356.525,239.342 355.636,228.661 355.636,217.49Z" style="fill:rgb(253,236,173);fill-rule:nonzero;"/>
                </g>
                <g transform="matrix(1,0,0,1,-75.4219,19.8594)">
                    <path d="M353.723,221.594C354.139,214.574 354.766,206.35 353.272,199.837C351.744,193.176 348.634,184.452 345.382,178.635C340.653,170.178 336.376,165.969 328.725,160.124C323.163,155.875 316.639,152.193 309.924,149.773C303.852,147.583 296.202,145.689 289.442,145.288C278.459,144.636 267.586,145.723 258.07,149.768C248.556,153.812 243.286,155.519 231.617,167.297C226.792,172.167 224.059,178.653 221.095,184.982C217.354,192.97 214.733,201.722 214.177,211.088C213.748,218.3 214.132,226.292 215.717,232.964C217.319,239.708 221.627,246.279 224.996,252.141C230.05,260.938 235.347,268.525 243.562,274.396C253.813,281.724 266.36,285.223 279.806,286.021C287.779,286.496 296.527,287.947 303.809,285.871C312.153,283.492 321.143,277.938 327.948,272.784C335.905,266.757 343.596,260.819 348.446,251.903C353.322,242.945 353.075,232.483 353.723,221.594Z" style="fill:rgb(253,188,82);fill-rule:nonzero;"/>
                </g>
                <g transform="matrix(1,0,0,1,-75.4219,19.8594)">
                    <path d="M352.915,221.526C353.328,214.587 353.948,206.459 352.471,200.021C350.961,193.436 347.886,184.813 344.672,179.064C339.998,170.704 335.77,166.544 328.206,160.767C322.71,156.567 316.262,152.928 309.624,150.535C303.622,148.371 296.061,146.5 289.38,146.103C278.522,145.458 267.777,146.533 258.371,150.531C248.966,154.529 243.757,156.215 232.224,167.856C227.453,172.671 224.752,179.081 221.823,185.337C218.125,193.233 215.535,201.884 214.984,211.142C214.561,218.27 214.941,226.169 216.507,232.764C218.091,239.43 222.349,245.926 225.678,251.72C230.675,260.416 235.911,267.914 244.029,273.717C254.162,280.961 266.564,284.419 279.856,285.209C287.736,285.677 296.382,287.112 303.58,285.058C311.826,282.708 320.713,277.219 327.44,272.123C335.305,266.166 342.907,260.297 347.702,251.484C352.52,242.63 352.276,232.289 352.915,221.526Z" style="fill:rgb(229,127,56);fill-rule:nonzero;"/>
                </g>
                <g transform="matrix(1,0,0,1,-75.4219,19.8594)">
                    <path d="M351.907,213.636C351.528,206.786 351.218,198.745 349.042,192.6C346.819,186.314 342.831,178.207 339.031,172.932C333.505,165.263 328.89,161.662 320.821,156.851C314.957,153.354 308.225,150.513 301.446,148.916C295.316,147.472 287.691,146.491 281.097,146.855C270.377,147.448 259.962,149.715 251.192,154.697C242.421,159.678 237.504,161.919 227.51,174.637C223.376,179.895 221.451,186.485 219.285,192.95C216.55,201.11 214.988,209.884 215.492,219.024C215.881,226.06 217.147,233.763 219.427,240.052C221.731,246.41 226.64,252.298 230.559,257.604C236.439,265.565 242.419,272.326 251.035,277.101C261.788,283.06 274.338,285.049 287.459,284.325C295.238,283.894 303.878,284.325 310.704,281.498C318.525,278.262 326.619,271.878 332.639,266.122C339.678,259.393 346.468,252.781 350.176,243.599C353.901,234.373 352.495,224.262 351.907,213.636Z" style="fill:rgb(254,229,164);fill-rule:nonzero;"/>
                </g>
                <g transform="matrix(1,0,0,1,-75.4219,19.8594)">
                    <path d="M290.596,182.249C293.42,179.424 297.241,178.926 300.563,177.597C308.663,173.547 313.03,176.995 320.356,169.669C321.903,168.122 323.063,166.347 323.723,164.468C322.897,163.775 322.058,163.097 321.207,162.44L321.111,162.367C320.738,162.08 320.362,161.798 319.985,161.52L319.789,161.375C319.403,161.092 319.016,160.814 318.627,160.542L318.548,160.485C318.127,160.192 317.707,159.906 317.287,159.627L317.108,159.512C316.767,159.288 316.425,159.069 316.084,158.855C315.965,158.78 315.844,158.706 315.724,158.632C315.428,158.451 315.134,158.273 314.838,158.1C314.719,158.03 314.601,157.959 314.482,157.891C314.08,157.659 313.679,157.433 313.278,157.217C307.743,154.245 300.697,153.21 294.697,151.967C285.692,150.099 277.364,149.124 268.441,151.159C257.306,153.697 247.386,160.097 238.753,168.729C233.635,173.848 227.388,178.903 224.413,185.089C224.21,185.512 224.013,185.945 223.821,186.385C223.744,186.564 223.67,186.749 223.594,186.931C223.485,187.191 223.375,187.45 223.271,187.715C223.178,187.953 223.088,188.196 222.997,188.437C222.918,188.648 222.837,188.858 222.761,189.071C222.659,189.353 222.562,189.639 222.465,189.925C222.406,190.098 222.347,190.271 222.289,190.446C222.184,190.768 222.081,191.094 221.98,191.42C221.939,191.556 221.897,191.692 221.856,191.829C221.747,192.191 221.641,192.556 221.538,192.923C221.512,193.018 221.485,193.114 221.459,193.21C221.347,193.615 221.239,194.021 221.135,194.43L221.098,194.58C220.985,195.028 220.876,195.477 220.77,195.929C252.391,200.967 289.603,183.242 290.596,182.249Z" style="fill:rgb(253,236,173);fill-rule:nonzero;"/>
                </g>
            </g>
            <g transform="matrix(2.21217,0,0,2.21217,-781.617,-41.4092)">
                <path d="M524.802,62.363C524.802,65.029 524.133,67.62 523.448,70.178C522.758,72.76 522.133,75.396 520.963,77.814C520.13,79.536 519.13,81.169 517.99,82.693C516.848,84.217 515.563,85.632 514.156,86.917C501.718,99.273 478.983,97.806 467.47,84.83C465.78,83.009 464.17,80.894 462.79,78.644C461.41,76.394 460.267,74.004 459.53,71.622C458.739,69.062 458.772,66.378 458.781,63.729C458.676,61.709 458.779,59.708 459.069,57.748C461.684,40.1 479.588,25.688 498.233,30.077C499.933,30.445 501.613,30.917 503.279,31.396C509.701,33.244 515.2,37.565 518.898,43.092C522.549,48.554 524.802,55.769 524.802,62.363Z" style="fill:rgb(255,228,184);fill-rule:nonzero;"/>
                <path d="M523.189,64.301C522.253,73.604 519.318,83.872 511.252,89.739C497.318,99.273 478.249,97.073 467.47,84.83C465.78,83.009 464.17,80.894 462.79,78.644C461.41,76.394 460.267,74.004 459.53,71.622C458.739,69.062 458.772,66.378 458.781,63.729C458.65,61.754 458.717,59.809 458.967,57.911C459.717,52.217 462.12,46.944 465.732,42.576C466.936,41.119 468.274,39.763 469.73,38.525C478.983,31.801 490.717,28.134 501.718,32.534C512.719,36.935 521.52,47.202 522.888,59.215C523.111,60.931 523.214,62.639 523.189,64.301Z" style="fill:rgb(250,172,109);fill-rule:nonzero;"/>
                <path d="M476.234,89.168C463.581,82.405 457.714,66.27 462.115,53.069C467.249,38.401 482.65,30.334 497.318,32.534C507.585,34.001 514.919,41.335 519.318,50.136C523.719,60.403 522.987,72.137 515.651,81.671C506.852,92.673 491.451,96.339 479.282,90.666C478.208,90.205 477.189,89.701 476.234,89.168ZM495.117,30.334C484.117,29.601 473.116,33.268 465.782,42.802C456.248,56.003 456.981,74.338 468.715,86.072C478.983,96.339 494.384,97.073 506.852,91.206C517.119,86.072 522.339,75.684 523.607,65.246C525.83,46.948 510.519,32.534 495.117,30.334Z" style="fill:rgb(254,203,146);fill-rule:nonzero;"/>
                <path d="M495.032,31.462C498.051,32.534 499.698,32.441 503.185,33.268C489.25,26.667 470.182,33.268 463.581,47.936C459.915,56.736 459.915,66.27 463.581,75.071C460.648,68.47 459.915,60.403 462.115,53.069C466.515,39.868 478.983,31.801 492.908,31.399C493.621,31.41 494.34,31.432 495.032,31.462ZM523.487,60.78C522.253,56.736 522.253,52.336 520.052,47.936C526.654,60.403 522.253,77.271 511.252,86.072C501.718,93.406 489.984,95.606 478.983,90.472C489.25,95.606 500.985,94.139 510.519,87.539C518.586,81.671 522.253,73.604 523.557,64.755C523.643,63.375 523.619,62.042 523.487,60.78Z" style="fill:rgb(255,228,184);fill-rule:nonzero;"/>
                <path d="M519.028,50.964C514.919,40.601 505.385,34.001 494.384,32.534C485.583,31.801 476.783,35.468 470.182,41.335C479.716,34.001 492.917,30.334 503.918,35.468C522.253,43.535 526.654,69.204 512.719,83.872C519.318,76.538 522.987,66.27 520.792,56.295C520.335,54.495 519.727,52.706 519.028,50.964Z" style="fill:rgb(255,221,166);fill-rule:nonzero;"/>
                <path d="M486.144,91.582C476.783,89.739 468.715,83.138 464.315,74.338C459.915,63.337 462.115,50.136 470.182,41.335C459.181,53.069 458.448,72.137 469.449,83.872C481.183,95.606 500.985,95.606 512.719,83.872C506.118,88.272 498.785,93.406 490.805,92.112C489.243,92.038 487.684,91.862 486.144,91.582Z" style="fill:rgb(255,228,184);fill-rule:nonzero;"/>
                <path d="M520.934,64.481C521.52,56.003 517.853,47.202 511.986,41.335C500.985,31.801 484.85,29.601 473.116,39.135C457.714,50.869 457.714,74.338 473.116,86.072C481.183,91.939 491.451,93.406 500.985,90.472C510.519,86.805 518.586,79.471 520.347,69.002C520.633,67.516 520.83,66.003 520.934,64.481Z" style="fill:rgb(255,220,169);fill-rule:nonzero;"/>
                <path d="M498.307,89.101C497.948,89.101 497.588,89.087 497.231,89.06C493.579,88.781 489.909,87.945 486.408,86.955C483.022,85.997 479.438,84.839 476.621,82.773C475.187,81.721 474.341,80.319 473.51,78.831C472.721,77.418 471.828,76.057 470.899,74.72C469.935,73.333 468.893,72.007 467.595,70.793C466.379,69.656 465.125,68.465 464.548,66.904C463.974,65.35 464.066,63.64 464.13,62.018C464.182,60.699 464.271,59.379 464.452,58.07C464.787,55.655 465.341,53.295 466.248,51.104C466.313,51.48 466.661,51.716 467.053,51.716C467.069,51.716 467.086,51.716 467.103,51.715C467.619,51.688 467.999,51.319 468.341,50.999C468.642,50.715 468.536,50.201 468.231,49.966C468.085,49.853 467.923,49.803 467.762,49.803C467.534,49.803 467.309,49.904 467.133,50.069L467.063,50.134L466.957,50.222L466.895,50.262C466.769,50.275 466.657,50.324 466.559,50.393C467.509,48.321 468.799,46.418 470.564,44.792L470.7,44.625C472.456,42.56 475.675,39.489 478.823,39.489C479.52,39.489 480.214,39.64 480.887,39.985C481.312,40.204 481.577,40.356 481.938,40.356C482.089,40.356 482.257,40.329 482.46,40.269C483.146,40.066 483.79,39.797 484.449,39.531C485.844,38.967 487.321,38.522 488.849,38.522C489.058,38.522 489.267,38.53 489.478,38.547C493.095,38.847 496.237,40.464 499.173,42.38C500.404,43.183 501.65,43.974 502.894,44.77C502.801,44.88 502.756,45.011 502.724,45.146C502.652,45.451 502.77,45.791 502.773,46.098C502.777,46.473 503.189,46.749 503.561,46.749C503.586,46.749 503.612,46.748 503.636,46.745C503.837,46.724 504.025,46.628 504.153,46.481C504.296,46.317 504.327,46.139 504.325,45.934L504.32,45.871L504.394,45.803L504.427,45.756C505.892,46.704 507.345,47.666 508.759,48.67C510.329,49.785 511.696,51.045 512.229,52.893C512.559,54.037 512.633,55.204 512.721,56.375C512.578,56.536 512.49,56.763 512.422,56.953C512.317,57.255 512.234,57.565 512.151,57.873C512.047,58.262 512.409,58.654 512.801,58.713L512.989,58.718C513.291,60.457 513.82,62.202 514.351,63.951C514.11,63.786 513.851,63.702 513.604,63.702C513.249,63.702 512.917,63.876 512.692,64.236C512.477,64.581 512.724,65.055 513.081,65.207C513.185,65.252 513.289,65.272 513.39,65.272C513.453,65.272 513.515,65.264 513.575,65.25L513.695,65.357L513.796,65.455L513.922,65.584C514.064,65.728 514.205,65.871 514.351,66.01C514.473,66.127 514.637,66.177 514.805,66.177C514.87,66.177 514.937,66.169 515,66.155C515.911,69.411 516.495,72.684 515.294,75.968C514.703,77.582 513.851,79.166 512.292,80.138C511.543,80.604 510.732,80.872 509.84,80.953C509.438,80.99 509.053,80.978 508.65,80.984C508.42,80.987 508.302,81.002 508.257,81.008C508.186,81.053 508.131,81.093 508.118,81.093C508.112,81.093 508.116,81.084 508.132,81.062C507.987,81.266 507.846,81.472 507.73,81.693C507.501,82.127 507.414,82.356 507.208,82.867C506.767,83.966 506.332,85.096 505.589,86.051C503.881,88.246 501.099,89.101 498.307,89.101ZM495.53,83.237C495.339,83.237 495.13,83.368 495.013,83.501C494.881,83.653 494.818,83.853 494.842,84.048C494.864,84.237 494.967,84.413 495.123,84.534C495.299,84.669 495.486,84.695 495.705,84.695L496.185,84.695C496.377,84.695 496.586,84.564 496.702,84.431C496.835,84.279 496.897,84.079 496.874,83.884C496.852,83.695 496.749,83.519 496.593,83.398C496.417,83.263 496.23,83.237 496.011,83.237L495.53,83.237ZM489.762,80.074C489.336,80.074 489.03,80.522 489.073,80.885C489.096,81.074 489.198,81.251 489.355,81.371C489.53,81.507 489.717,81.533 489.936,81.533L490.657,81.533C491.083,81.533 491.389,81.085 491.346,80.721C491.324,80.532 491.221,80.356 491.065,80.236C490.889,80.1 490.702,80.074 490.483,80.074L489.762,80.074ZM483.753,79.622C483.561,79.622 483.353,79.753 483.236,79.887C483.104,80.039 483.041,80.238 483.064,80.433C483.087,80.622 483.189,80.799 483.346,80.919C483.522,81.055 483.708,81.081 483.928,81.081L484.408,81.081C484.6,81.081 484.809,80.95 484.925,80.816C485.058,80.664 485.12,80.465 485.097,80.27C485.074,80.081 484.972,79.904 484.816,79.784C484.64,79.648 484.453,79.622 484.234,79.622L483.753,79.622ZM503.342,76.904C503.1,76.904 502.851,77.008 502.705,77.176C502.572,77.328 502.51,77.528 502.533,77.723C502.557,77.927 502.665,78.068 502.814,78.209L503.055,78.434C503.179,78.552 503.346,78.603 503.516,78.603C503.758,78.603 504.007,78.499 504.153,78.332C504.286,78.18 504.348,77.98 504.325,77.785C504.301,77.58 504.193,77.439 504.044,77.299L503.803,77.073C503.679,76.956 503.512,76.904 503.342,76.904ZM475.581,77.137C475.39,77.137 475.181,77.268 475.064,77.402C474.932,77.554 474.869,77.754 474.892,77.949C474.915,78.138 475.017,78.314 475.174,78.434C475.35,78.57 475.536,78.596 475.755,78.596L475.996,78.596C476.188,78.596 476.396,78.465 476.513,78.332C476.645,78.18 476.708,77.98 476.685,77.785C476.662,77.596 476.56,77.42 476.403,77.299C476.227,77.163 476.041,77.137 475.821,77.137L475.581,77.137ZM489.521,76.686C488.517,76.686 488.699,78.144 489.696,78.144C490.701,78.144 490.518,76.686 489.521,76.686ZM476.062,72.846C475.87,72.846 475.661,72.977 475.545,73.11C475.412,73.262 475.35,73.462 475.373,73.657C475.396,73.846 475.498,74.022 475.654,74.143C475.83,74.278 476.017,74.304 476.236,74.304L476.717,74.304C476.909,74.304 477.117,74.173 477.234,74.04C477.366,73.888 477.429,73.688 477.406,73.493C477.383,73.304 477.281,73.128 477.124,73.007C476.948,72.871 476.762,72.846 476.543,72.846L476.062,72.846ZM492.646,70.361C492.335,70.364 491.981,70.447 491.692,70.539C491.182,70.702 490.922,71.279 491.258,71.713C491.476,71.994 491.804,72.036 492.135,72.043C492.159,72.384 492.124,72.732 492.022,73.046C491.898,73.428 491.986,73.836 492.411,74.017C492.505,74.057 492.614,74.077 492.727,74.077C493.03,74.077 493.353,73.932 493.444,73.652C493.737,72.754 493.762,71.845 493.494,70.942L493.467,70.845L493.461,70.823C493.354,70.495 493.095,70.359 492.821,70.359C492.793,70.359 492.764,70.361 492.736,70.364L492.646,70.361ZM510.098,69.234C509.789,69.234 509.436,69.351 509.328,69.657C509.016,70.536 508.797,71.371 508.782,72.301C508.776,72.677 509.204,72.952 509.572,72.952C509.597,72.952 509.621,72.951 509.645,72.949C510.108,72.9 510.327,72.537 510.334,72.137C510.341,71.695 510.433,71.265 510.559,70.843C510.662,70.874 510.767,70.9 510.878,70.911C510.91,70.914 510.941,70.915 510.972,70.915C511.89,70.915 512.091,69.555 511.122,69.462C510.908,69.441 510.494,69.253 510.161,69.236C510.14,69.235 510.119,69.234 510.098,69.234ZM501.058,69.457C500.867,69.457 500.69,69.475 500.508,69.54C500.183,69.654 499.911,69.966 499.894,70.297C499.884,70.501 499.901,70.673 500.033,70.843C500.154,71 500.339,71.107 500.543,71.137C500.583,71.143 500.623,71.146 500.664,71.146C500.828,71.146 500.99,71.097 501.124,71.006L501.232,70.916L501.233,70.916C501.425,70.915 501.633,70.785 501.75,70.651C501.882,70.499 501.945,70.3 501.922,70.104C501.899,69.915 501.797,69.739 501.64,69.619C501.464,69.483 501.278,69.457 501.058,69.457ZM474.86,69.457C473.856,69.457 474.038,70.916 475.035,70.916C476.039,70.916 475.857,69.457 474.86,69.457ZM482.765,68.328C481.76,68.328 481.943,69.786 482.939,69.786L483.207,69.786C484.211,69.786 484.029,68.328 483.032,68.328L482.765,68.328ZM497.768,64.258C497.743,64.258 497.718,64.259 497.694,64.262C497.492,64.283 497.305,64.379 497.177,64.526C497.032,64.692 497.005,64.867 497.005,65.073L497.005,65.751C497.005,66.126 497.423,66.402 497.794,66.402C497.819,66.402 497.844,66.4 497.868,66.398C498.069,66.377 498.257,66.28 498.385,66.133C498.529,65.968 498.557,65.793 498.557,65.587L498.557,64.909C498.557,64.534 498.139,64.258 497.768,64.258ZM491.04,63.343C490.947,63.343 490.854,63.362 490.767,63.404C490.363,63.597 489.97,63.81 489.667,64.134C489.466,64.35 489.378,64.625 489.397,64.908C489.421,65.258 489.705,65.502 490.007,65.659C490.104,65.709 490.209,65.732 490.314,65.732C490.615,65.732 490.919,65.547 491.041,65.294C491.105,65.161 491.12,65.028 491.101,64.902L491.149,64.872L491.282,64.796L491.334,64.771C491.713,64.59 491.945,64.221 491.778,63.821C491.668,63.555 491.353,63.343 491.04,63.343ZM470.534,63.358C469.529,63.358 469.711,64.817 470.708,64.817C471.713,64.817 471.531,63.358 470.534,63.358ZM507.788,62.454C507.512,62.455 507.268,62.47 507,62.533C506.721,62.598 506.513,62.763 506.31,62.945C506.001,63.221 506.121,63.747 506.419,63.977C506.566,64.09 506.724,64.139 506.881,64.139C507.076,64.139 507.269,64.064 507.434,63.94L507.46,63.931L507.461,63.931L507.496,63.928C507.612,63.914 507.731,63.913 507.848,63.913L507.963,63.913C508.389,63.913 508.695,63.465 508.651,63.102C508.6,62.672 508.213,62.454 507.788,62.454ZM486.067,62.508C486.041,62.627 486.013,62.744 485.986,62.862C485.983,63.082 485.983,63.303 485.985,63.524C486.027,63.192 486.068,62.86 486.107,62.528L486.067,62.508ZM479.742,60.869C479.717,60.869 479.692,60.871 479.667,60.873C479.466,60.894 479.279,60.991 479.15,61.138C479.006,61.303 478.978,61.478 478.978,61.684L478.978,62.362C478.978,62.737 479.397,63.013 479.767,63.013C479.792,63.013 479.817,63.012 479.841,63.009C480.043,62.988 480.23,62.892 480.358,62.745C480.503,62.579 480.53,62.404 480.53,62.198L480.53,61.521C480.53,61.145 480.112,60.869 479.742,60.869ZM499.472,59.512C499.173,59.512 498.879,59.68 498.752,59.944C498.573,60.315 498.758,60.741 499.141,60.915C499.672,61.157 500.171,61.202 500.752,61.202C501.178,61.202 501.484,60.754 501.441,60.391C501.39,59.961 501.003,59.744 500.578,59.744L500.45,59.743L500.218,59.725L500.041,59.685L499.786,59.579C499.686,59.533 499.579,59.512 499.472,59.512ZM486.242,57.706C486.214,57.706 486.185,57.708 486.157,57.711C485.955,57.732 485.768,57.828 485.64,57.975C485.495,58.141 485.468,58.316 485.468,58.522L485.468,58.748C485.468,58.928 485.607,59.124 485.749,59.234C485.889,59.341 486.066,59.4 486.246,59.4C486.274,59.4 486.303,59.398 486.331,59.395C486.751,59.395 486.961,59.14 486.993,58.843C487.012,58.761 487.02,58.676 487.02,58.584L487.02,58.358C487.02,58.178 486.88,57.982 486.738,57.872C486.599,57.765 486.421,57.706 486.242,57.706ZM467.495,57.706C467.466,57.706 467.438,57.708 467.409,57.711C467.208,57.732 467.021,57.828 466.892,57.975C466.748,58.141 466.721,58.316 466.721,58.522L466.721,58.748C466.721,58.928 466.86,59.124 467.002,59.234C467.141,59.341 467.319,59.4 467.498,59.4C467.527,59.4 467.555,59.398 467.584,59.395C467.785,59.374 467.972,59.278 468.101,59.131C468.245,58.965 468.272,58.79 468.272,58.584L468.272,58.358C468.272,58.178 468.133,57.982 467.991,57.872C467.852,57.765 467.674,57.706 467.495,57.706ZM504.022,57.722C503.728,57.722 503.459,57.847 503.319,58.137C503.16,58.467 503.3,58.989 503.707,59.108C503.99,59.191 504.271,59.251 504.554,59.251C504.765,59.251 504.976,59.217 505.188,59.136C505.676,58.947 506.011,58.521 506.183,58.066C506.325,57.689 506.206,57.27 505.795,57.094C505.698,57.053 505.589,57.033 505.479,57.033C505.177,57.033 504.865,57.183 504.761,57.459L504.704,57.602L504.639,57.723L504.63,57.733L504.573,57.787L504.565,57.79L504.52,57.792L504.51,57.794L504.457,57.786C504.451,57.785 504.325,57.757 504.311,57.757C504.305,57.757 504.315,57.761 504.353,57.772C504.243,57.74 504.131,57.722 504.022,57.722ZM473.42,56.581L473.418,56.581C473.141,56.581 472.874,56.668 472.691,56.874C472.493,57.097 472.489,57.345 472.489,57.618C472.489,57.798 472.628,57.995 472.77,58.104C472.91,58.212 473.087,58.27 473.267,58.27C473.295,58.27 473.324,58.269 473.352,58.266C473.553,58.245 473.741,58.148 473.869,58.001L473.917,57.933L474.109,57.775C474.242,57.623 474.304,57.424 474.281,57.229C474.259,57.04 474.156,56.863 474,56.743C473.824,56.608 473.638,56.581 473.42,56.581ZM493.521,55.707L493.331,55.942C493.036,56.231 493.131,56.736 493.44,56.975C493.586,57.087 493.751,57.138 493.915,57.138C494.142,57.138 494.369,57.039 494.539,56.872L494.735,56.628C495.033,56.501 495.228,56.177 495.192,55.873C495.144,55.471 494.78,55.225 494.373,55.225C494.358,55.225 494.343,55.225 494.329,55.226C494.145,55.234 493.925,55.31 493.785,55.423C493.645,55.536 493.569,55.636 493.481,55.767L493.521,55.707ZM479.512,54.092C479.484,54.092 479.455,54.094 479.427,54.097C479.226,54.118 479.038,54.214 478.91,54.361C478.766,54.526 478.738,54.702 478.738,54.908L478.738,55.133C478.738,55.314 478.877,55.51 479.019,55.619C479.159,55.727 479.336,55.785 479.516,55.785C479.544,55.785 479.573,55.784 479.601,55.781C479.802,55.76 479.99,55.663 480.118,55.517C480.262,55.351 480.29,55.176 480.29,54.97L480.29,54.744C480.29,54.564 480.15,54.367 480.009,54.258C479.869,54.151 479.692,54.092 479.512,54.092ZM497.693,52.741C497.267,52.741 496.962,53.189 497.005,53.552C497.056,53.983 497.443,54.199 497.868,54.2L497.998,54.201L498.19,54.218L498.248,54.264C498.377,54.379 498.545,54.431 498.716,54.431C498.955,54.431 499.198,54.331 499.346,54.161C499.631,53.834 499.544,53.404 499.237,53.129C498.808,52.744 498.248,52.741 497.694,52.741L497.693,52.741ZM507.067,52.064C506.063,52.064 506.245,53.522 507.242,53.522C508.246,53.522 508.064,52.064 507.067,52.064ZM502.826,51.607C502.798,51.607 502.769,51.609 502.741,51.612C502.54,51.633 502.352,51.729 502.224,51.876C502.08,52.042 502.052,52.217 502.052,52.423L502.052,52.649C502.052,52.829 502.192,53.025 502.333,53.134C502.473,53.242 502.65,53.301 502.83,53.301C502.858,53.301 502.887,53.299 502.915,53.296C503.116,53.275 503.304,53.179 503.432,53.032C503.576,52.866 503.604,52.691 503.604,52.485L503.604,52.259C503.604,52.079 503.465,51.883 503.323,51.773C503.183,51.666 503.006,51.607 502.826,51.607ZM483.993,51.386C483.802,51.386 483.593,51.517 483.477,51.65C483.344,51.802 483.282,52.002 483.305,52.197C483.327,52.386 483.43,52.562 483.586,52.683C483.762,52.818 483.949,52.844 484.168,52.844L484.648,52.844C484.84,52.844 485.049,52.713 485.166,52.58C485.298,52.428 485.36,52.228 485.337,52.033C485.315,51.844 485.212,51.668 485.056,51.547C484.88,51.412 484.693,51.386 484.474,51.386L483.993,51.386ZM470.619,50.026C470.591,50.026 470.562,50.028 470.534,50.03C470.333,50.052 470.145,50.148 470.017,50.295C469.873,50.46 469.845,50.636 469.845,50.842L469.845,51.067C469.845,51.248 469.984,51.444 470.126,51.553C470.266,51.661 470.443,51.719 470.622,51.719C470.651,51.719 470.679,51.718 470.708,51.715C470.909,51.694 471.097,51.597 471.225,51.45C471.369,51.285 471.397,51.11 471.397,50.904L471.397,50.678C471.397,50.498 471.257,50.301 471.116,50.192C470.976,50.084 470.799,50.026 470.619,50.026ZM489.521,49.579C489.33,49.579 489.121,49.71 489.005,49.843C488.872,49.995 488.81,50.195 488.833,50.39C488.855,50.579 488.958,50.755 489.114,50.876C489.29,51.011 489.477,51.037 489.696,51.037L489.936,51.037C490.128,51.037 490.337,50.906 490.453,50.773C490.586,50.621 490.648,50.421 490.625,50.226C490.602,50.037 490.5,49.861 490.344,49.74C490.168,49.604 489.981,49.579 489.762,49.579L489.521,49.579ZM477.367,49.127L477.264,49.127C477.072,49.127 476.863,49.258 476.747,49.391C476.614,49.543 476.552,49.743 476.575,49.938C476.597,50.127 476.7,50.303 476.856,50.424C476.981,50.52 477.111,50.559 477.254,50.575C477.406,50.723 477.624,50.815 477.841,50.815C477.867,50.815 477.893,50.814 477.919,50.811C478.362,50.765 478.627,50.399 478.607,50C478.59,49.657 478.349,49.369 478.028,49.224C477.822,49.132 477.591,49.127 477.367,49.127ZM499.857,48.675C498.852,48.675 499.034,50.134 500.031,50.134C501.036,50.134 500.853,48.675 499.857,48.675ZM495.13,47.638C495.286,47.911 495.549,48.107 495.861,48.107C495.951,48.107 496.045,48.09 496.142,48.055C496.502,47.922 496.786,47.458 496.585,47.105C496.366,46.719 496.099,46.414 495.67,46.223C495.479,46.138 495.266,46.098 495.053,46.098C494.817,46.098 494.581,46.147 494.372,46.236C493.986,46.401 493.767,46.798 493.929,47.186C494.043,47.461 494.352,47.659 494.664,47.659C494.757,47.659 494.851,47.641 494.94,47.603L495.035,47.566L495.038,47.566L495.048,47.571L495.086,47.6C495.077,47.593 495.071,47.591 495.068,47.591C495.06,47.591 495.076,47.613 495.095,47.636C495.115,47.659 495.138,47.682 495.146,47.682C495.151,47.682 495.149,47.67 495.13,47.638ZM474.139,45.738C473.947,45.738 473.739,45.869 473.622,46.003C473.49,46.155 473.427,46.355 473.45,46.55C473.473,46.739 473.575,46.915 473.732,47.035C473.908,47.171 474.094,47.197 474.313,47.197L474.554,47.197C474.745,47.197 474.954,47.066 475.071,46.933C475.203,46.781 475.266,46.581 475.243,46.386C475.22,46.197 475.117,46.021 474.961,45.9C474.785,45.764 474.599,45.738 474.379,45.738L474.139,45.738ZM479.009,42.8C478.781,42.8 478.555,42.883 478.429,43.066C478.123,43.511 477.839,44.094 478.126,44.617C478.471,45.247 479.144,45.381 479.841,45.39L479.849,45.39C480.271,45.39 480.573,44.936 480.53,44.579C480.479,44.147 480.097,43.94 479.675,43.932L479.675,43.931L479.678,43.926C479.866,43.603 479.86,43.22 479.528,42.963C479.391,42.858 479.199,42.8 479.009,42.8ZM485.992,42.789C485.273,42.789 484.886,43.851 485.681,44.199C486.145,44.402 486.661,44.449 487.123,44.651C487.24,44.702 487.352,44.725 487.457,44.725C488.176,44.725 488.563,43.663 487.768,43.315C487.305,43.112 486.788,43.065 486.326,42.863C486.209,42.812 486.097,42.789 485.992,42.789ZM475.667,40.99C475.638,40.99 475.609,40.992 475.581,40.995C475.38,41.016 475.192,41.112 475.064,41.259C474.92,41.424 474.892,41.6 474.892,41.806L474.892,42.258C474.892,42.438 475.032,42.634 475.174,42.743C475.313,42.851 475.491,42.909 475.67,42.909C475.699,42.909 475.727,42.908 475.755,42.905C475.957,42.884 476.144,42.787 476.272,42.64C476.417,42.475 476.444,42.3 476.444,42.094L476.444,41.642C476.444,41.462 476.305,41.266 476.163,41.156C476.023,41.049 475.846,40.99 475.667,40.99ZM493.607,39.639C492.603,39.639 492.785,41.098 493.782,41.098C494.786,41.098 494.604,39.639 493.607,39.639ZM493.414,55.868C493.438,55.832 493.46,55.799 493.481,55.767L493.414,55.868ZM495.118,47.624L495.086,47.6C495.094,47.605 495.105,47.613 495.118,47.624Z" style="fill:rgb(253,212,158);fill-rule:nonzero;"/>
                <path d="M511.815,70.592C511.704,70.581 511.6,70.554 511.497,70.523C511.371,70.946 511.278,71.376 511.271,71.818C511.265,72.218 511.045,72.581 510.582,72.629C510.201,72.669 509.713,72.383 509.719,71.982C509.735,71.052 509.954,70.217 510.265,69.338C510.381,69.01 510.776,68.9 511.098,68.917C511.431,68.934 511.845,69.122 512.06,69.142C513.062,69.239 512.813,70.688 511.815,70.592ZM508.9,63.594C508.746,63.594 508.587,63.59 508.434,63.609L508.398,63.611L508.372,63.621C508.073,63.844 507.685,63.911 507.357,63.658C507.058,63.428 506.938,62.902 507.247,62.625C507.45,62.444 507.658,62.279 507.937,62.213C508.206,62.15 508.45,62.135 508.726,62.135C509.151,62.135 509.538,62.352 509.589,62.782C509.632,63.146 509.326,63.594 508.9,63.594ZM506.125,58.816C505.63,59.007 505.138,58.934 504.645,58.789C504.238,58.669 504.097,58.147 504.256,57.817C504.448,57.42 504.884,57.333 505.29,57.453C505.152,57.412 505.386,57.466 505.394,57.467L505.447,57.474L505.458,57.473L505.503,57.471L505.51,57.468L505.567,57.414L505.576,57.403L505.641,57.283L505.698,57.14C505.841,56.763 506.37,56.621 506.732,56.775C507.144,56.95 507.262,57.37 507.12,57.746C506.948,58.202 506.614,58.628 506.125,58.816ZM505.091,78.012C504.841,78.298 504.293,78.399 503.992,78.115L503.752,77.889C503.602,77.749 503.495,77.608 503.47,77.403C503.447,77.208 503.51,77.009 503.642,76.857C503.892,76.571 504.439,76.47 504.741,76.754L504.981,76.98C505.131,77.12 505.238,77.261 505.262,77.465C505.286,77.661 505.223,77.86 505.091,78.012ZM502.99,52.329L502.99,52.104C502.99,51.898 503.017,51.722 503.161,51.557C503.29,51.41 503.477,51.314 503.678,51.292C503.886,51.271 504.098,51.329 504.26,51.454C504.402,51.563 504.541,51.76 504.541,51.94L504.541,52.166C504.541,52.372 504.514,52.547 504.37,52.712C504.241,52.859 504.054,52.956 503.853,52.977C503.645,52.999 503.432,52.94 503.271,52.815C503.129,52.706 502.99,52.51 502.99,52.329ZM502.687,70.332C502.571,70.465 502.362,70.596 502.17,70.596L502.061,70.686C501.895,70.8 501.684,70.848 501.48,70.818C501.276,70.787 501.092,70.681 500.971,70.524C500.839,70.354 500.821,70.181 500.831,69.978C500.848,69.647 501.12,69.335 501.445,69.22C501.627,69.156 501.805,69.138 501.996,69.138C502.215,69.138 502.402,69.164 502.578,69.299C502.734,69.42 502.836,69.596 502.859,69.785C502.882,69.98 502.82,70.18 502.687,70.332ZM499.69,59.625C499.862,59.268 500.34,59.085 500.723,59.26L500.979,59.366L501.155,59.406L501.387,59.424L501.515,59.424C501.94,59.425 502.327,59.641 502.378,60.072C502.421,60.435 502.116,60.883 501.69,60.883C501.108,60.883 500.609,60.838 500.078,60.596C499.695,60.422 499.511,59.996 499.69,59.625ZM499.185,53.945L499.128,53.899L498.935,53.882L498.805,53.88C498.38,53.88 497.993,53.663 497.942,53.233C497.899,52.87 498.205,52.422 498.631,52.422C499.185,52.422 499.745,52.425 500.174,52.809C500.481,53.084 500.569,53.515 500.284,53.842C500.029,54.133 499.494,54.221 499.185,53.945ZM499.494,65.267C499.494,65.473 499.466,65.649 499.322,65.814C499.194,65.961 499.006,66.057 498.805,66.078C498.419,66.119 497.942,65.832 497.942,65.431L497.942,64.754C497.942,64.548 497.97,64.372 498.114,64.207C498.242,64.06 498.43,63.963 498.631,63.942C499.018,63.902 499.494,64.189 499.494,64.59L499.494,65.267ZM497.64,84.111C497.523,84.245 497.314,84.376 497.123,84.376L496.642,84.376C496.423,84.376 496.236,84.35 496.06,84.214C495.904,84.094 495.801,83.917 495.779,83.728C495.756,83.533 495.818,83.334 495.951,83.182C496.067,83.048 496.276,82.917 496.468,82.917L496.948,82.917C497.168,82.917 497.354,82.943 497.53,83.079C497.687,83.199 497.789,83.376 497.811,83.565C497.835,83.76 497.772,83.959 497.64,84.111ZM495.477,56.552C495.183,56.841 494.726,56.924 494.378,56.655C494.068,56.417 493.974,55.912 494.268,55.623L494.458,55.387L494.352,55.549C494.472,55.365 494.549,55.245 494.722,55.104C494.862,54.99 495.083,54.915 495.266,54.907C495.691,54.888 496.08,55.138 496.129,55.554C496.165,55.858 495.971,56.182 495.672,56.308L495.477,56.552ZM494.382,73.333C494.257,73.716 493.697,73.847 493.348,73.698C492.924,73.517 492.835,73.108 492.96,72.726C493.062,72.413 493.096,72.065 493.073,71.724C492.741,71.717 492.413,71.675 492.195,71.393C491.859,70.96 492.12,70.382 492.629,70.22C492.918,70.127 493.273,70.045 493.583,70.041L493.673,70.044C493.976,70.014 494.28,70.142 494.398,70.504L494.404,70.526L494.432,70.623C494.7,71.525 494.675,72.435 494.382,73.333ZM491.595,81.213L490.874,81.213C490.654,81.213 490.468,81.187 490.292,81.052C490.136,80.931 490.033,80.755 490.011,80.566C489.967,80.203 490.273,79.755 490.699,79.755L491.42,79.755C491.64,79.755 491.826,79.781 492.002,79.916C492.158,80.037 492.261,80.213 492.283,80.402C492.327,80.766 492.021,81.213 491.595,81.213ZM490.459,76.366C491.456,76.366 491.638,77.825 490.633,77.825C489.636,77.825 489.454,76.366 490.459,76.366ZM489.942,49.524C490.058,49.39 490.267,49.259 490.459,49.259L490.699,49.259C490.918,49.259 491.105,49.285 491.281,49.421C491.437,49.541 491.54,49.718 491.562,49.907C491.586,50.102 491.523,50.302 491.391,50.453C491.274,50.587 491.065,50.718 490.874,50.718L490.633,50.718C490.414,50.718 490.227,50.692 490.052,50.556C489.895,50.436 489.793,50.26 489.77,50.071C489.747,49.875 489.81,49.676 489.942,49.524ZM492.716,63.501C492.882,63.901 492.651,64.271 492.272,64.452L492.219,64.477L492.087,64.553L492.038,64.583C492.058,64.709 492.042,64.842 491.978,64.975C491.813,65.317 491.317,65.534 490.944,65.34C490.643,65.183 490.359,64.939 490.335,64.589C490.315,64.306 490.403,64.03 490.605,63.815C490.907,63.491 491.3,63.277 491.705,63.084C492.085,62.903 492.572,63.156 492.716,63.501ZM494.545,39.32C495.542,39.32 495.724,40.779 494.719,40.779C493.722,40.779 493.54,39.32 494.545,39.32ZM496.607,45.904C497.036,46.095 497.303,46.4 497.523,46.785C497.724,47.139 497.44,47.603 497.079,47.736C496.647,47.894 496.268,47.671 496.068,47.319C496.153,47.468 495.9,47.177 496.055,47.305L495.986,47.251L495.976,47.247L495.972,47.247L495.877,47.284C495.489,47.45 495.015,47.224 494.866,46.867C494.705,46.479 494.923,46.082 495.31,45.917C495.708,45.746 496.205,45.725 496.607,45.904ZM500.794,48.356C501.791,48.356 501.973,49.814 500.968,49.814C499.972,49.814 499.789,48.356 500.794,48.356ZM508.005,51.744C509.001,51.744 509.184,53.203 508.179,53.203C507.182,53.203 507,51.744 508.005,51.744ZM488.06,44.332C487.598,44.129 487.082,44.083 486.618,43.88C485.707,43.481 486.349,42.143 487.264,42.544C487.725,42.746 488.242,42.792 488.706,42.995C489.617,43.394 488.975,44.732 488.06,44.332ZM487.957,58.265C487.957,58.357 487.95,58.442 487.931,58.524C487.898,58.821 487.688,59.076 487.268,59.076C487.061,59.098 486.848,59.039 486.687,58.914C486.545,58.805 486.405,58.609 486.405,58.429L486.405,58.203C486.405,57.997 486.433,57.821 486.577,57.656C486.705,57.509 486.893,57.413 487.094,57.391C487.302,57.37 487.514,57.428 487.676,57.553C487.818,57.662 487.957,57.859 487.957,58.039L487.957,58.265ZM486.922,63.205C486.92,62.984 486.921,62.763 486.923,62.542C486.95,62.425 486.978,62.307 487.004,62.189L487.044,62.208C487.006,62.541 486.964,62.873 486.922,63.205ZM486.103,52.261C485.986,52.394 485.778,52.525 485.586,52.525L485.105,52.525C484.886,52.525 484.699,52.499 484.523,52.363C484.367,52.243 484.265,52.067 484.242,51.878C484.219,51.683 484.281,51.483 484.414,51.331C484.53,51.198 484.739,51.066 484.931,51.066L485.412,51.066C485.631,51.066 485.817,51.092 485.993,51.228C486.15,51.349 486.252,51.525 486.275,51.714C486.298,51.909 486.235,52.109 486.103,52.261ZM485.862,80.497C485.746,80.63 485.537,80.761 485.346,80.761L484.865,80.761C484.646,80.761 484.459,80.736 484.283,80.6C484.127,80.479 484.024,80.303 484.002,80.114C483.979,79.919 484.041,79.719 484.174,79.567C484.29,79.434 484.499,79.303 484.69,79.303L485.171,79.303C485.39,79.303 485.577,79.329 485.753,79.464C485.909,79.585 486.012,79.761 486.034,79.95C486.057,80.145 485.995,80.345 485.862,80.497ZM483.702,68.008L483.969,68.008C484.966,68.008 485.148,69.467 484.144,69.467L483.877,69.467C482.88,69.467 482.698,68.008 483.702,68.008ZM480.779,45.07C480.082,45.062 479.408,44.928 479.063,44.297C478.777,43.775 479.061,43.192 479.367,42.747C479.598,42.411 480.164,42.412 480.465,42.644C480.797,42.9 480.803,43.284 480.616,43.607L480.613,43.612L480.612,43.613C481.034,43.62 481.416,43.828 481.468,44.259C481.51,44.619 481.205,45.076 480.779,45.07ZM481.468,61.879C481.468,62.085 481.44,62.26 481.296,62.426C481.168,62.573 480.98,62.669 480.779,62.69C480.392,62.731 479.916,62.443 479.916,62.043L479.916,61.365C479.916,61.159 479.943,60.984 480.088,60.818C480.216,60.671 480.403,60.575 480.604,60.554C480.991,60.513 481.468,60.801 481.468,61.201L481.468,61.879ZM479.675,54.814L479.675,54.588C479.675,54.382 479.703,54.207 479.847,54.042C479.976,53.895 480.163,53.798 480.364,53.777C480.572,53.755 480.784,53.814 480.946,53.939C481.088,54.048 481.227,54.244 481.227,54.424L481.227,54.65C481.227,54.856 481.2,55.032 481.055,55.197C480.927,55.344 480.74,55.44 480.539,55.462C480.331,55.483 480.118,55.425 479.957,55.3C479.815,55.191 479.675,54.994 479.675,54.814ZM478.856,50.492C478.615,50.517 478.361,50.421 478.191,50.256C478.049,50.24 477.918,50.201 477.794,50.105C477.637,49.984 477.535,49.808 477.512,49.619C477.489,49.424 477.552,49.224 477.684,49.072C477.8,48.939 478.009,48.807 478.201,48.808C478.456,48.808 478.727,48.799 478.965,48.905C479.287,49.049 479.528,49.338 479.545,49.681C479.565,50.08 479.299,50.445 478.856,50.492ZM478.171,73.72C478.055,73.854 477.846,73.985 477.654,73.985L477.174,73.985C476.954,73.985 476.768,73.959 476.592,73.823C476.436,73.703 476.333,73.526 476.31,73.337C476.287,73.142 476.35,72.942 476.482,72.791C476.599,72.657 476.808,72.526 476.999,72.526L477.48,72.526C477.699,72.526 477.886,72.552 478.062,72.688C478.218,72.808 478.321,72.984 478.343,73.173C478.366,73.369 478.304,73.568 478.171,73.72ZM477.45,78.012C477.334,78.146 477.125,78.277 476.933,78.277L476.693,78.277C476.474,78.277 476.287,78.251 476.111,78.115C475.955,77.995 475.852,77.818 475.83,77.629C475.807,77.434 475.869,77.234 476.002,77.083C476.118,76.949 476.327,76.818 476.519,76.818L476.759,76.818C476.978,76.818 477.165,76.844 477.341,76.98C477.497,77.1 477.6,77.276 477.622,77.465C477.645,77.661 477.583,77.86 477.45,78.012ZM475.797,69.138C476.794,69.138 476.977,70.596 475.972,70.596C474.975,70.596 474.793,69.138 475.797,69.138ZM474.854,57.613L474.806,57.682C474.678,57.829 474.491,57.925 474.289,57.946C474.082,57.968 473.869,57.909 473.708,57.785C473.566,57.676 473.426,57.479 473.426,57.299C473.427,57.026 473.43,56.778 473.628,56.555C473.811,56.349 474.078,56.262 474.355,56.262C474.574,56.262 474.761,56.288 474.937,56.423C475.093,56.544 475.196,56.72 475.218,56.909C475.242,57.104 475.179,57.304 475.047,57.456L474.854,57.613ZM474.56,45.684C474.676,45.55 474.885,45.419 475.076,45.419L475.317,45.419C475.536,45.419 475.723,45.445 475.899,45.581C476.055,45.701 476.158,45.877 476.18,46.066C476.203,46.262 476.141,46.461 476.008,46.613C475.892,46.747 475.683,46.878 475.491,46.878L475.251,46.878C475.032,46.878 474.845,46.852 474.669,46.716C474.513,46.596 474.41,46.419 474.388,46.23C474.365,46.035 474.427,45.835 474.56,45.684ZM475.83,41.487C475.83,41.281 475.857,41.105 476.002,40.94C476.13,40.793 476.317,40.697 476.519,40.675C476.726,40.654 476.939,40.712 477.1,40.837C477.242,40.946 477.382,41.143 477.382,41.323L477.382,41.775C477.382,41.98 477.354,42.156 477.21,42.321C477.082,42.468 476.894,42.565 476.693,42.586C476.485,42.608 476.273,42.549 476.111,42.424C475.969,42.315 475.83,42.119 475.83,41.938L475.83,41.487ZM472.334,50.584C472.334,50.79 472.307,50.966 472.162,51.131C472.034,51.278 471.847,51.374 471.646,51.395C471.438,51.417 471.225,51.359 471.064,51.234C470.922,51.125 470.783,50.928 470.783,50.748L470.783,50.522C470.783,50.316 470.81,50.141 470.954,49.976C471.083,49.829 471.27,49.732 471.471,49.711C471.679,49.689 471.891,49.748 472.053,49.873C472.195,49.982 472.334,50.178 472.334,50.358L472.334,50.584ZM471.646,64.497C470.649,64.497 470.467,63.039 471.471,63.039C472.468,63.039 472.65,64.497 471.646,64.497ZM469.21,58.265C469.21,58.471 469.182,58.646 469.038,58.811C468.91,58.958 468.722,59.055 468.521,59.076C468.313,59.098 468.101,59.039 467.939,58.914C467.797,58.805 467.658,58.609 467.658,58.429L467.658,58.203C467.658,57.997 467.685,57.821 467.83,57.656C467.958,57.509 468.145,57.413 468.347,57.391C468.554,57.37 468.767,57.428 468.928,57.553C469.07,57.662 469.21,57.859 469.21,58.039L469.21,58.265ZM515.938,65.836C515.708,65.886 515.458,65.853 515.289,65.691C515.143,65.552 515,65.409 514.861,65.265L514.734,65.136L514.632,65.038L514.512,64.93C514.357,64.968 514.19,64.961 514.018,64.888C513.661,64.736 513.414,64.262 513.63,63.916C514.01,63.305 514.702,63.231 515.289,63.632C514.758,61.882 514.229,60.138 513.927,58.399L513.737,58.394C513.346,58.335 512.986,57.943 513.089,57.554C513.172,57.245 513.255,56.936 513.361,56.633C513.427,56.444 513.517,56.216 513.658,56.056C513.57,54.885 513.497,53.718 513.166,52.573C512.633,50.726 511.266,49.465 509.696,48.351C508.283,47.347 506.829,46.385 505.364,45.437L505.331,45.484L505.258,45.551L505.262,45.615C505.265,45.82 505.234,45.997 505.091,46.161C504.962,46.308 504.775,46.405 504.574,46.426C504.184,46.467 503.715,46.179 503.711,45.779C503.707,45.471 503.589,45.132 503.662,44.827C503.694,44.691 503.739,44.56 503.831,44.45C502.587,43.655 501.342,42.863 500.111,42.061C497.174,40.145 494.033,38.528 490.415,38.228C488.663,38.083 486.972,38.571 485.386,39.211C484.727,39.478 484.083,39.747 483.398,39.95C482.71,40.153 482.428,39.976 481.825,39.666C478.111,37.759 473.783,41.784 471.637,44.306L471.501,44.472C469.737,46.099 468.447,48.002 467.497,50.074C467.594,50.005 467.707,49.955 467.832,49.943L467.895,49.902L468.001,49.814L468.07,49.75C468.37,49.468 468.815,49.374 469.169,49.647C469.473,49.881 469.58,50.396 469.278,50.679C468.937,51 468.556,51.369 468.04,51.395C467.629,51.417 467.253,51.176 467.186,50.785C466.278,52.975 465.724,55.335 465.39,57.751C465.209,59.06 465.12,60.38 465.068,61.699C465.004,63.32 464.039,66.442 464.612,67.995C465.189,69.557 467.12,73.939 468.28,75.126C469.485,76.359 470.25,79.054 471.259,80.432C472.223,81.747 486.617,90.665 498.169,88.741C501.263,88.225 504.599,88.21 506.526,85.731C507.269,84.777 507.704,83.646 508.145,82.548C508.351,82.037 508.438,81.808 508.667,81.373C508.783,81.153 508.924,80.947 509.069,80.743C509.02,80.811 509.089,80.755 509.194,80.688C509.24,80.683 509.358,80.668 509.588,80.665C509.99,80.659 510.375,80.67 510.777,80.634C511.669,80.552 512.481,80.285 513.229,79.818C514.788,78.846 515.642,77.263 516.232,75.648C517.432,72.364 516.849,69.092 515.938,65.836Z" style="fill:rgb(255,225,176);fill-rule:nonzero;"/>
            </g>
        </g>
    </g>
</svg>
