<?xml version="1.0" encoding="UTF-8" standalone="no"?>
<!DOCTYPE svg PUBLIC "-//W3C//DTD SVG 1.1//EN" "http://www.w3.org/Graphics/SVG/1.1/DTD/svg11.dtd">
<svg width="100%" height="100%" viewBox="0 0 803 803" version="1.1" xmlns="http://www.w3.org/2000/svg" xmlns:xlink="http://www.w3.org/1999/xlink" xml:space="preserve" xmlns:serif="http://www.serif.com/" style="fill-rule:evenodd;clip-rule:evenodd;stroke-linejoin:round;stroke-miterlimit:2;">
    <g transform="matrix(1,0,0,1,-443.202,-426.337)">
        <path d="M844.628,426.337C1066.18,426.337 1246.06,606.21 1246.06,827.764C1246.06,1049.32 1066.18,1229.19 844.628,1229.19C623.075,1229.19 443.202,1049.32 443.202,827.764C443.202,606.21 623.075,426.337 844.628,426.337ZM844.628,527.09C678.682,527.09 543.955,661.817 543.955,827.764C543.955,993.71 678.682,1128.44 844.628,1128.44C1010.58,1128.44 1145.3,993.71 1145.3,827.764C1145.3,661.817 1010.58,527.09 844.628,527.09Z" style="fill:rgb(255,0,0);"/>
        <g transform="matrix(1.1947,-1.40408,0.761609,0.648037,-793.452,1473.43)">
            <rect x="804.18" y="448.001" width="76.054" height="756.997" style="fill:rgb(255,0,0);"/>
        </g>
    </g>
</svg>
