<?xml version="1.0" encoding="iso-8859-1"?>
<!-- Generator: Adobe Illustrator 21.0.0, SVG Export Plug-In . SVG Version: 6.00 Build 0)  -->
<svg xmlns="http://www.w3.org/2000/svg" xmlns:xlink="http://www.w3.org/1999/xlink" version="1.1" id="Capa_1" x="0px" y="0px" viewBox="0 0 512.022 512.022" style="enable-background:new 0 0 512.022 512.022;" xml:space="preserve" width="512" height="512">
<g>
	
		<ellipse transform="matrix(0.9536 -0.3011 0.3011 0.9536 -4.0519 49.5825)" style="fill:#FF5073;" cx="158.827" cy="37.936" rx="29.763" ry="29.763"/>
	<path style="fill:#EB3D60;" d="M187.209,28.974C182.259,13.3,165.54,4.605,149.865,9.554c-0.692,0.219-1.366,0.468-2.03,0.732   c8.01,3.194,14.575,9.824,17.374,18.689c4.731,14.983-3.009,30.911-17.39,36.612c6.153,2.454,13.159,2.882,19.97,0.732   C183.463,61.369,192.158,44.649,187.209,28.974z"/>
	
		<ellipse transform="matrix(0.1882 -0.9821 0.9821 0.1882 -435.9883 422.0164)" style="fill:#FF5073;" cx="37.289" cy="474.743" rx="29.763" ry="29.763"/>
	<path style="fill:#EB3D60;" d="M42.891,445.512c-5.788-1.109-11.502-0.453-16.598,1.579c13.019,5.165,20.96,18.992,18.227,33.254   c-1.985,10.356-9.117,18.415-18.235,22.051c1.718,0.681,3.521,1.219,5.402,1.579c16.144,3.094,31.739-7.486,34.833-23.63   C69.614,464.201,59.035,448.605,42.891,445.512z"/>
	<polygon style="fill:#FFB429;" points="173.525,365.455 198.809,396.627 238.821,393.47 216.988,427.149 232.355,464.227    193.578,453.87 163.063,479.943 160.93,439.863 126.704,418.898 164.163,404.484  "/>
	<g>
		<polygon style="fill:#F5A40C;" points="238.821,393.47 215.635,395.299 194.988,427.149 207.617,457.62 232.355,464.227     216.988,427.149   "/>
	</g>
	<polygon style="fill:#FFB429;" points="429.158,36.52 424.995,76.44 455.52,102.501 416.268,110.878 400.915,147.962    380.819,113.219 340.806,110.077 367.638,80.229 358.261,41.203 394.941,57.498  "/>
	<g>
		<polygon style="fill:#F5A40C;" points="404.522,51.624 400.995,85.44 427.886,108.398 455.52,102.501 424.995,76.44     429.158,36.52   "/>
	</g>
	<g>
		
			<ellipse transform="matrix(0.4614 -0.8872 0.8872 0.4614 -30.7909 411.8549)" style="fill:#FF5073;" cx="323.806" cy="231.287" rx="29.763" ry="29.763"/>
		<path style="fill:#EB3D60;" d="M337.539,204.881c-7.979-4.149-16.969-4.322-24.72-1.246c0.917,0.367,1.825,0.781,2.72,1.246    c14.584,7.584,20.258,25.555,12.674,40.138c-3.435,6.604-9.002,11.374-15.418,13.92c14.03,5.607,30.299-0.231,37.418-13.92    C357.796,230.435,352.122,212.465,337.539,204.881z"/>
		
			<ellipse transform="matrix(0.4614 -0.8872 0.8872 0.4614 -85.8261 627.7491)" style="fill:#FF5073;" cx="474.098" cy="384.561" rx="29.763" ry="29.763"/>
		<path style="fill:#EB3D60;" d="M487.83,358.155c-7.979-4.149-16.969-4.322-24.72-1.246c0.917,0.367,1.825,0.781,2.72,1.246    c14.584,7.584,20.258,25.555,12.674,40.138c-3.435,6.604-9.002,11.374-15.418,13.92c14.03,5.607,30.299-0.231,37.418-13.92    C508.088,383.709,502.414,365.739,487.83,358.155z"/>
		<g>
			<g>
				<path style="fill:#86DF75;" d="M52.039,324.969c-6.711-2.915-10.301-4.702-12.175-10.401c-1.875-5.7-0.046-9.27,3.625-15.601      c3.993-6.885,8.961-15.453,4.898-27.81c-4.063-12.357-13.148-16.305-20.448-19.477c-6.711-2.916-10.301-4.703-12.176-10.403      c-1.875-5.701-0.046-9.271,3.625-15.602c3.993-6.886,8.961-15.454,4.897-27.812c-1.294-3.935-5.533-6.076-9.467-4.782      c-3.935,1.294-6.076,5.533-4.782,9.468c1.875,5.701,0.046,9.271-3.625,15.602c-3.993,6.886-8.961,15.454-4.897,27.812      c4.063,12.356,13.148,16.304,20.447,19.476c6.712,2.916,10.302,4.703,12.177,10.404c1.875,5.7,0.046,9.27-3.625,15.6      c-3.992,6.886-8.961,15.454-4.897,27.811c4.063,12.355,13.147,16.303,20.447,19.474c6.711,2.916,10.3,4.702,12.175,10.401      c1.874,5.699,0.045,9.267-3.625,15.597c-3.993,6.885-8.962,15.452-4.899,27.808c1.038,3.157,3.972,5.159,7.123,5.159      c0.777,0,1.566-0.121,2.344-0.377c3.935-1.294,6.076-5.533,4.782-9.468c-1.874-5.699-0.045-9.267,3.625-15.597      c3.993-6.885,8.962-15.452,4.899-27.808S59.339,328.14,52.039,324.969z"/>
				<path style="fill:#86DF75;" d="M285.728,74.565c-4.03,4.447-8.039,4.614-15.355,4.558c-7.955-0.068-17.863-0.153-26.599,9.483      c-8.735,9.638-7.679,19.486-6.83,27.4c0.78,7.275,1,11.28-3.03,15.727c-4.03,4.446-8.046,4.62-15.354,4.557      c-7.964-0.067-17.863-0.156-26.598,9.482c-8.735,9.637-7.677,19.485-6.828,27.398c0.781,7.275,1.001,11.278-3.028,15.724      c-4.028,4.445-8.036,4.618-15.351,4.555c-7.961-0.065-17.863-0.157-26.597,9.479c-2.782,3.069-2.549,7.813,0.521,10.595      c1.436,1.301,3.238,1.942,5.034,1.942c2.043,0,4.079-0.83,5.56-2.463c4.029-4.445,8.031-4.615,15.351-4.555      c7.96,0.064,17.863,0.157,26.597-9.48c8.735-9.637,7.677-19.485,6.828-27.398c-0.781-7.275-1.001-11.278,3.028-15.724      c4.029-4.447,8.029-4.621,15.354-4.557c7.951,0.063,17.863,0.155,26.599-9.482s7.679-19.486,6.83-27.4      c-0.78-7.275-1-11.28,3.03-15.726c4.031-4.446,8.042-4.626,15.355-4.558c7.958,0.072,17.864,0.153,26.599-9.483      c2.782-3.069,2.549-7.813-0.521-10.594C293.253,71.262,288.509,71.496,285.728,74.565z"/>
				<path style="fill:#86DF75;" d="M405.37,292.727c-3.957-1.217-8.155,1.006-9.372,4.966c-1.763,5.737-5.317,7.595-11.971,10.642      c-7.236,3.313-16.242,7.438-20.063,19.872c-3.822,12.434,1.313,20.904,5.44,27.71c3.794,6.258,5.691,9.79,3.929,15.526      c-1.763,5.735-5.317,7.593-11.97,10.64c-7.236,3.313-16.242,7.438-20.063,19.871c-3.821,12.433,1.314,20.902,5.441,27.707      c3.794,6.258,5.691,9.789,3.929,15.524c-1.762,5.734-5.316,7.591-11.969,10.637c-7.236,3.313-16.242,7.436-20.063,19.868      c-1.217,3.959,1.006,8.155,4.966,9.372c0.734,0.226,1.476,0.333,2.206,0.333c3.207,0,6.175-2.073,7.167-5.299      c1.762-5.734,5.316-7.591,11.969-10.637c7.236-3.313,16.242-7.436,20.063-19.868c3.821-12.433-1.314-20.902-5.441-27.707      c-3.794-6.258-5.691-9.789-3.929-15.524c1.763-5.735,5.317-7.593,11.97-10.64c7.236-3.313,16.242-7.438,20.063-19.871      c3.821-12.434-1.314-20.903-5.44-27.709c-3.794-6.258-5.691-9.791-3.929-15.527c1.763-5.736,5.317-7.594,11.971-10.641      c7.236-3.314,16.242-7.438,20.063-19.873C411.553,298.14,409.329,293.944,405.37,292.727z"/>
			</g>
		</g>
	</g>
	<g>
		<path style="fill:#1371EF;" d="M451.662,236.502c-2.75-3.098-7.491-3.378-10.588-0.627c-3.097,2.75-3.378,7.49-0.628,10.588    l29.086,32.752c1.482,1.669,3.542,2.52,5.611,2.52c1.771,0,3.549-0.624,4.977-1.893c3.097-2.75,3.378-7.49,0.628-10.588    L451.662,236.502z"/>
		<path style="fill:#1371EF;" d="M263.953,304.154l-43.445,5.586c-4.108,0.528-7.01,4.286-6.482,8.395    c0.487,3.784,3.713,6.545,7.43,6.545c0.318,0,0.641-0.021,0.966-0.063l43.445-5.586c4.108-0.528,7.01-4.286,6.482-8.395    C271.82,306.528,268.069,303.617,263.953,304.154z"/>
		<path style="fill:#ABEEFF;" d="M476.551,498.204l-36.836-23.701c-3.481-2.24-8.124-1.234-10.365,2.249    c-2.241,3.483-1.234,8.125,2.249,10.366l36.836,23.701c1.255,0.808,2.661,1.193,4.051,1.193c2.465,0,4.881-1.215,6.314-3.442    C481.041,505.087,480.034,500.446,476.551,498.204z"/>
		<path style="fill:#ABEEFF;" d="M114.202,269.168c-2.75-3.098-7.491-3.378-10.588-0.627c-3.097,2.75-3.378,7.49-0.628,10.588    l29.086,32.752c1.482,1.669,3.542,2.52,5.611,2.52c1.771,0,3.549-0.624,4.977-1.893c3.097-2.75,3.378-7.49,0.628-10.588    L114.202,269.168z"/>
		<path style="fill:#ABEEFF;" d="M45.88,2.531c-2.75-3.098-7.491-3.378-10.588-0.627L2.54,30.99    c-3.097,2.75-3.378,7.49-0.628,10.588c1.482,1.669,3.542,2.52,5.611,2.52c1.771,0,3.549-0.624,4.977-1.893l32.751-29.086    C48.349,10.369,48.63,5.629,45.88,2.531z"/>
		<path style="fill:#1371EF;" d="M57.534,111.073c-2.75-3.097-7.491-3.378-10.588-0.627c-3.097,2.75-3.378,7.49-0.628,10.588    l29.086,32.752c1.482,1.669,3.542,2.52,5.611,2.52c1.771,0,3.549-0.624,4.977-1.893c3.097-2.75,3.378-7.49,0.628-10.588    L57.534,111.073z"/>
		<path style="fill:#1371EF;" d="M511.502,45.546L495.497,4.772c-1.513-3.855-5.868-5.756-9.722-4.241    c-3.856,1.514-5.755,5.866-4.241,9.722l16.005,40.774c1.16,2.956,3.989,4.762,6.983,4.762c0.912,0,1.839-0.167,2.738-0.521    C511.117,53.754,513.015,49.402,511.502,45.546z"/>
		<path style="fill:#ABEEFF;" d="M483.74,148.756l-41.085,15.188c-3.885,1.437-5.87,5.75-4.434,9.636    c1.119,3.027,3.986,4.901,7.036,4.901c0.864,0,1.742-0.15,2.6-0.467l41.085-15.188c3.885-1.437,5.87-5.75,4.434-9.636    C491.939,149.306,487.624,147.322,483.74,148.756z"/>
	</g>
</g>















</svg>
