<svg xmlns="http://www.w3.org/2000/svg" xmlns:xlink="http://www.w3.org/1999/xlink" viewBox="0 0 1233.93 366.48"><defs><style>.cls-1{isolation:isolate;}.cls-2{fill:url(#linear-gradient);}.cls-3{fill:url(#linear-gradient-2);}.cls-4{fill:url(#radial-gradient);}.cls-5,.cls-7,.cls-9{mix-blend-mode:multiply;opacity:0.68;}.cls-5{fill:url(#radial-gradient-2);}.cls-10,.cls-45,.cls-56,.cls-6,.cls-8{mix-blend-mode:screen;}.cls-6{fill:url(#radial-gradient-3);}.cls-7{fill:url(#radial-gradient-4);}.cls-8{fill:url(#radial-gradient-5);}.cls-9{fill:url(#radial-gradient-6);}.cls-10{fill:url(#radial-gradient-7);}.cls-11{fill:url(#linear-gradient-3);}.cls-12{fill:url(#radial-gradient-8);}.cls-13{fill:url(#radial-gradient-9);}.cls-14{fill:url(#radial-gradient-10);}.cls-15{fill:url(#radial-gradient-11);}.cls-16{fill:url(#radial-gradient-12);}.cls-17{fill:url(#radial-gradient-13);}.cls-18{fill:url(#radial-gradient-14);}.cls-19{fill:url(#radial-gradient-15);}.cls-20{fill:url(#radial-gradient-16);}.cls-21{fill:url(#radial-gradient-17);}.cls-22{fill:url(#radial-gradient-18);}.cls-23{fill:url(#radial-gradient-19);}.cls-24{fill:url(#radial-gradient-20);}.cls-25{fill:url(#radial-gradient-21);}.cls-26{fill:url(#radial-gradient-22);}.cls-27{fill:url(#radial-gradient-23);}.cls-28{fill:url(#radial-gradient-24);}.cls-29{fill:url(#radial-gradient-25);}.cls-30{fill:url(#radial-gradient-26);}.cls-31{fill:url(#radial-gradient-27);}.cls-32{fill:url(#radial-gradient-28);}.cls-33{fill:url(#radial-gradient-29);}.cls-34{fill:url(#radial-gradient-30);}.cls-35{fill:url(#radial-gradient-31);}.cls-36{fill:url(#radial-gradient-32);}.cls-37{fill:url(#radial-gradient-33);}.cls-38{fill:url(#radial-gradient-34);}.cls-39{fill:url(#radial-gradient-35);}.cls-40{fill:url(#radial-gradient-36);}.cls-41{fill:url(#radial-gradient-37);}.cls-42{fill:url(#linear-gradient-4);}.cls-43{fill:url(#linear-gradient-5);}.cls-44,.cls-45{fill:#85ff1b;}.cls-45{opacity:0.78;}.cls-46{fill:url(#linear-gradient-6);}.cls-47{fill:url(#radial-gradient-38);}.cls-48{fill:url(#linear-gradient-7);}.cls-49{fill:url(#linear-gradient-8);}.cls-50{fill:url(#linear-gradient-9);}.cls-51{fill:url(#linear-gradient-10);}.cls-52{fill:url(#linear-gradient-11);}.cls-53{fill:url(#linear-gradient-12);}.cls-54{fill:url(#linear-gradient-13);}.cls-55{fill:#c9fdff;}.cls-56{fill:#999;opacity:0.85;}</style><linearGradient id="linear-gradient" x1="226.21" y1="242.36" x2="1233.93" y2="242.36" gradientUnits="userSpaceOnUse"><stop offset="0" stop-color="#52d2db"/><stop offset="0.17" stop-color="#52cfda"/><stop offset="0.28" stop-color="#51c7d6"/><stop offset="0.37" stop-color="#50b8d0"/><stop offset="0.45" stop-color="#4fa4c8"/><stop offset="0.51" stop-color="#4d8fbf"/><stop offset="0.63" stop-color="#498ab9"/><stop offset="0.79" stop-color="#3d7da8"/><stop offset="0.97" stop-color="#29678d"/><stop offset="1" stop-color="#256388"/></linearGradient><linearGradient id="linear-gradient-2" x1="730.07" y1="123.19" x2="730.07" y2="245.15" gradientUnits="userSpaceOnUse"><stop offset="0" stop-color="#256388"/><stop offset="0.37" stop-color="#215d88"/><stop offset="0.86" stop-color="#154c88"/><stop offset="1" stop-color="#114688"/></linearGradient><radialGradient id="radial-gradient" cx="730.07" cy="176.44" r="362.79" gradientUnits="userSpaceOnUse"><stop offset="0" stop-color="#52d2db"/><stop offset="0.22" stop-color="#52ccd9"/><stop offset="0.51" stop-color="#50bbd2"/><stop offset="0.83" stop-color="#4ea0c6"/><stop offset="1" stop-color="#4d8fbf"/></radialGradient><radialGradient id="radial-gradient-2" cx="968.66" cy="98.29" r="36.3" xlink:href="#radial-gradient"/><radialGradient id="radial-gradient-3" cx="987.34" cy="98.29" r="23.44" xlink:href="#radial-gradient"/><radialGradient id="radial-gradient-4" cx="-1337.55" cy="273.85" r="36.3" gradientTransform="matrix(-1.21, 0, 0, 1.36, -1015.01, -278.59)" xlink:href="#radial-gradient"/><radialGradient id="radial-gradient-5" cx="-1318.87" cy="273.85" r="23.44" gradientTransform="matrix(-1.21, 0, 0, 1.36, -1015.01, -278.59)" xlink:href="#radial-gradient"/><radialGradient id="radial-gradient-6" cx="-1520" cy="1339.92" r="36.3" gradientTransform="translate(-1015.01 2085.28) rotate(180) scale(1.21 1.36)" xlink:href="#radial-gradient"/><radialGradient id="radial-gradient-7" cx="-1501.32" cy="1339.92" r="23.44" gradientTransform="translate(-1015.01 2085.28) rotate(180) scale(1.21 1.36)" xlink:href="#radial-gradient"/><linearGradient id="linear-gradient-3" x1="748.57" y1="-5.11" x2="724.97" y2="207.33" xlink:href="#linear-gradient"/><radialGradient id="radial-gradient-8" cx="368.36" cy="18823.45" r="46.43" gradientTransform="translate(0 -4464.55) scale(1 0.25)" gradientUnits="userSpaceOnUse"><stop offset="0" stop-color="#fff"/><stop offset="1" stop-color="#fee3b2"/></radialGradient><radialGradient id="radial-gradient-9" cx="339.87" cy="139.03" r="93.49" gradientTransform="translate(0 51.77) scale(1 0.86)" xlink:href="#radial-gradient-8"/><radialGradient id="radial-gradient-10" cx="434.12" cy="18823.45" r="46.43" xlink:href="#radial-gradient-8"/><radialGradient id="radial-gradient-11" cx="405.63" cy="139.03" r="93.49" gradientTransform="translate(0 51.77) scale(1 0.86)" xlink:href="#radial-gradient-8"/><radialGradient id="radial-gradient-12" cx="499.89" cy="18823.45" r="46.43" xlink:href="#radial-gradient-8"/><radialGradient id="radial-gradient-13" cx="471.39" cy="139.03" r="93.49" gradientTransform="translate(0 51.77) scale(1 0.86)" xlink:href="#radial-gradient-8"/><radialGradient id="radial-gradient-14" cx="565.65" cy="18823.45" r="46.43" xlink:href="#radial-gradient-8"/><radialGradient id="radial-gradient-15" cx="537.15" cy="139.03" r="93.49" gradientTransform="translate(0 51.77) scale(1 0.86)" xlink:href="#radial-gradient-8"/><radialGradient id="radial-gradient-16" cx="631.41" cy="18823.45" r="46.43" xlink:href="#radial-gradient-8"/><radialGradient id="radial-gradient-17" cx="602.92" cy="139.03" r="93.49" gradientTransform="translate(0 51.77) scale(1 0.86)" xlink:href="#radial-gradient-8"/><radialGradient id="radial-gradient-18" cx="697.17" cy="18823.45" r="46.43" xlink:href="#radial-gradient-8"/><radialGradient id="radial-gradient-19" cx="668.68" cy="139.03" r="93.49" gradientTransform="translate(0 51.77) scale(1 0.86)" xlink:href="#radial-gradient-8"/><radialGradient id="radial-gradient-20" cx="762.93" cy="18823.45" r="46.43" xlink:href="#radial-gradient-8"/><radialGradient id="radial-gradient-21" cx="734.44" cy="139.03" r="93.49" gradientTransform="translate(0 51.77) scale(1 0.86)" xlink:href="#radial-gradient-8"/><radialGradient id="radial-gradient-22" cx="828.7" cy="18823.45" r="46.43" xlink:href="#radial-gradient-8"/><radialGradient id="radial-gradient-23" cx="800.2" cy="139.03" r="93.49" gradientTransform="translate(0 51.77) scale(1 0.86)" xlink:href="#radial-gradient-8"/><radialGradient id="radial-gradient-24" cx="894.46" cy="18823.45" r="46.43" xlink:href="#radial-gradient-8"/><radialGradient id="radial-gradient-25" cx="865.97" cy="139.03" r="93.49" gradientTransform="translate(0 51.77) scale(1 0.86)" xlink:href="#radial-gradient-8"/><radialGradient id="radial-gradient-26" cx="960.22" cy="18823.45" r="46.43" xlink:href="#radial-gradient-8"/><radialGradient id="radial-gradient-27" cx="931.73" cy="139.03" r="93.49" gradientTransform="translate(0 51.77) scale(1 0.86)" xlink:href="#radial-gradient-8"/><radialGradient id="radial-gradient-28" cx="1025.98" cy="18823.45" r="46.43" xlink:href="#radial-gradient-8"/><radialGradient id="radial-gradient-29" cx="997.49" cy="139.03" r="93.49" gradientTransform="translate(0 51.77) scale(1 0.86)" xlink:href="#radial-gradient-8"/><radialGradient id="radial-gradient-30" cx="1091.75" cy="18823.45" r="46.43" gradientTransform="translate(0 -4464.55) scale(1 0.25)" gradientUnits="userSpaceOnUse"><stop offset="0" stop-color="#fff"/><stop offset="0.66" stop-color="#fee3b2"/><stop offset="0.99" stop-color="#fee3b2"/></radialGradient><radialGradient id="radial-gradient-31" cx="1063.25" cy="139.03" r="93.49" gradientTransform="translate(0 51.77) scale(1 0.86)" xlink:href="#radial-gradient-8"/><radialGradient id="radial-gradient-32" cx="299.78" cy="17543.31" r="47.21" gradientTransform="translate(0 -4371.11) scale(1 0.26)" xlink:href="#radial-gradient-8"/><radialGradient id="radial-gradient-33" cx="275.48" cy="123.41" r="68.28" gradientTransform="translate(0 51.77) scale(1 0.86)" xlink:href="#radial-gradient-8"/><radialGradient id="radial-gradient-34" cx="-8575.36" cy="17543.31" r="47.21" gradientTransform="matrix(-1, 0, 0, 0.26, -7414.99, -4371.11)" xlink:href="#radial-gradient-8"/><radialGradient id="radial-gradient-35" cx="-8599.66" cy="123.41" r="68.28" gradientTransform="matrix(-1, 0, 0, 0.86, -7414.99, 51.77)" xlink:href="#radial-gradient-8"/><radialGradient id="radial-gradient-36" cx="25.39" cy="76.61" r="236.17" xlink:href="#linear-gradient"/><radialGradient id="radial-gradient-37" cx="207.73" cy="85.04" r="230.23" xlink:href="#radial-gradient"/><linearGradient id="linear-gradient-4" x1="31.97" y1="183.24" x2="334.52" y2="183.24" xlink:href="#linear-gradient-2"/><linearGradient id="linear-gradient-5" x1="193.08" y1="52.54" x2="193.08" y2="329.23" xlink:href="#linear-gradient"/><linearGradient id="linear-gradient-6" x1="129.76" y1="117.15" x2="285.66" y2="117.15" xlink:href="#linear-gradient"/><radialGradient id="radial-gradient-38" cx="193.08" cy="175.59" r="122.79" xlink:href="#radial-gradient"/><linearGradient id="linear-gradient-7" x1="102.78" y1="244.11" x2="183.83" y2="244.11" xlink:href="#linear-gradient"/><linearGradient id="linear-gradient-8" x1="187.73" y1="155.34" x2="251.68" y2="155.34" xlink:href="#linear-gradient"/><linearGradient id="linear-gradient-9" x1="131.49" y1="285.23" x2="142.26" y2="285.23" xlink:href="#linear-gradient"/><linearGradient id="linear-gradient-10" x1="210.86" y1="210.94" x2="215.7" y2="210.94" xlink:href="#linear-gradient"/><linearGradient id="linear-gradient-11" x1="136.74" y1="191.74" x2="143.31" y2="191.74" xlink:href="#linear-gradient"/><linearGradient id="linear-gradient-12" x1="265.82" y1="86.94" x2="277.34" y2="86.94" xlink:href="#linear-gradient"/><linearGradient id="linear-gradient-13" x1="212.19" y1="42.6" x2="221.52" y2="42.6" xlink:href="#linear-gradient"/></defs><g class="cls-1"><g id="Layer_2" data-name="Layer 2"><g id="Object"><path class="cls-2" d="M1158.64,273.22H301.51a75.39,75.39,0,0,1-75.3-75.3v13.59a75.39,75.39,0,0,0,75.3,75.3h857.13a75.38,75.38,0,0,0,75.29-75.3V197.92A75.38,75.38,0,0,1,1158.64,273.22Z"/><rect class="cls-3" x="254.27" y="123.19" width="951.61" height="121.96" rx="47.24"/><path class="cls-4" d="M1158.64,79.68H301.51A75.38,75.38,0,0,0,226.21,155v42.94a75.39,75.39,0,0,0,75.3,75.3h857.13a75.38,75.38,0,0,0,75.29-75.3V155A75.37,75.37,0,0,0,1158.64,79.68Zm47.24,118.23a47.25,47.25,0,0,1-47.24,47.24H301.51a47.24,47.24,0,0,1-47.24-47.24V155a47.24,47.24,0,0,1,47.24-47.24h857.13A47.25,47.25,0,0,1,1205.88,155Z"/><polygon class="cls-5" points="918.21 107.73 1019.12 88.84 955.57 107.73 918.21 107.73"/><polygon class="cls-6" points="1019.12 88.84 972.32 107.73 955.57 107.73 1019.12 88.84"/><polygon class="cls-7" points="665.04 107.73 542.89 81.97 619.82 107.73 665.04 107.73"/><polygon class="cls-8" points="542.89 81.97 599.55 107.73 619.82 107.73 542.89 81.97"/><polygon class="cls-9" points="885.88 245.15 763.73 270.92 840.65 245.15 885.88 245.15"/><polygon class="cls-10" points="763.73 270.92 820.38 245.15 840.65 245.15 763.73 270.92"/><path class="cls-11" d="M1205.88,155v15.46a47.25,47.25,0,0,0-47.24-47.24H301.51a47.24,47.24,0,0,0-47.24,47.24V155a47.24,47.24,0,0,1,47.24-47.24h857.13A47.25,47.25,0,0,1,1205.88,155Z"/><rect class="cls-12" x="344" y="130.78" width="48.71" height="104.92"/><polygon class="cls-13" points="351.36 137.1 392.72 137.1 392.72 130.78 344 130.78 344 235.7 351.36 235.7 351.36 137.1"/><rect class="cls-14" x="409.77" y="130.78" width="48.71" height="104.92"/><polygon class="cls-15" points="417.12 137.1 458.48 137.1 458.48 130.78 409.77 130.78 409.77 235.7 417.12 235.7 417.12 137.1"/><rect class="cls-16" x="475.53" y="130.78" width="48.71" height="104.92"/><polygon class="cls-17" points="482.88 137.1 524.24 137.1 524.24 130.78 475.53 130.78 475.53 235.7 482.88 235.7 482.88 137.1"/><rect class="cls-18" x="541.29" y="130.78" width="48.71" height="104.92"/><polygon class="cls-19" points="548.64 137.1 590 137.1 590 130.78 541.29 130.78 541.29 235.7 548.64 235.7 548.64 137.1"/><rect class="cls-20" x="607.05" y="130.78" width="48.71" height="104.92"/><polygon class="cls-21" points="614.41 137.1 655.77 137.1 655.77 130.78 607.05 130.78 607.05 235.7 614.41 235.7 614.41 137.1"/><rect class="cls-22" x="672.81" y="130.78" width="48.71" height="104.92"/><polygon class="cls-23" points="680.17 137.1 721.53 137.1 721.53 130.78 672.82 130.78 672.82 235.7 680.17 235.7 680.17 137.1"/><rect class="cls-24" x="738.58" y="130.78" width="48.71" height="104.92"/><polygon class="cls-25" points="745.93 137.1 787.29 137.1 787.29 130.78 738.58 130.78 738.58 235.7 745.93 235.7 745.93 137.1"/><rect class="cls-26" x="804.34" y="130.78" width="48.71" height="104.92"/><polygon class="cls-27" points="811.69 137.1 853.05 137.1 853.05 130.78 804.34 130.78 804.34 235.7 811.69 235.7 811.69 137.1"/><rect class="cls-28" x="870.1" y="130.78" width="48.71" height="104.92"/><polygon class="cls-29" points="877.45 137.1 918.82 137.1 918.82 130.78 870.1 130.78 870.1 235.7 877.45 235.7 877.45 137.1"/><rect class="cls-30" x="935.86" y="130.78" width="48.71" height="104.92"/><polygon class="cls-31" points="943.22 137.1 984.58 137.1 984.58 130.78 935.86 130.78 935.86 235.7 943.22 235.7 943.22 137.1"/><rect class="cls-32" x="1001.63" y="130.78" width="48.71" height="104.92"/><polygon class="cls-33" points="1008.98 137.1 1050.34 137.1 1050.34 130.78 1001.63 130.78 1001.63 235.7 1008.98 235.7 1008.98 137.1"/><rect class="cls-34" x="1067.39" y="130.78" width="48.71" height="104.92"/><polygon class="cls-35" points="1074.74 137.1 1116.1 137.1 1116.1 130.78 1067.39 130.78 1067.39 235.7 1074.74 235.7 1074.74 137.1"/><path class="cls-36" d="M327,130.78h-7.11c-26.09,0-47.25,18.2-47.25,40.64v23.64c0,22.45,21.16,40.64,47.25,40.64H327Z"/><path class="cls-37" d="M280,201.38V177.75c0-22.37,21-40.53,47-40.64v-6.33h-7.11c-26.09,0-47.25,18.2-47.25,40.64v23.64c0,12.84,6.93,24.27,17.73,31.72A37.09,37.09,0,0,1,280,201.38Z"/><path class="cls-38" d="M1133.19,130.78h7.11c26.08,0,47.24,18.2,47.24,40.64v23.64c0,22.45-21.16,40.64-47.24,40.64h-7.11Z"/><path class="cls-39" d="M1180.19,201.38V177.75c0-22.37-21-40.53-47-40.64v-6.33h7.11c26.08,0,47.24,18.2,47.24,40.64v23.64c0,12.84-6.92,24.27-17.72,31.72A37.13,37.13,0,0,0,1180.19,201.38Z"/><path class="cls-40" d="M352.08,111.9a183.8,183.8,0,1,0,14.41,71.34A182.76,182.76,0,0,0,352.08,111.9ZM334,246.91a163.93,163.93,0,1,1,12.87-63.67A163,163,0,0,1,334,246.91Z"/><path class="cls-41" d="M334,119.57a163.93,163.93,0,1,0,12.87,63.67A163,163,0,0,0,334,119.57ZM183.24,334.51A151.27,151.27,0,1,1,334.52,183.24,151.28,151.28,0,0,1,183.24,334.51Z"/><path class="cls-42" d="M334.52,183.24A151.28,151.28,0,1,1,183.24,32,151.28,151.28,0,0,1,334.52,183.24Z"/><path class="cls-43" d="M230,150.48,298,82.4,285.66,52.54H189.72L174,62.39,114,185.81l12.68,24.86,21.92,3.88-60.5,92.76,27,21.92,148.9-148.9-12.37-29.85ZM102.78,316.87l74.95-114.93-48-8.49L189.72,70h95.94L187.73,168h64Z"/><polygon class="cls-44" points="189.72 54.74 285.66 54.74 187.72 152.67 251.68 152.67 102.78 301.57 177.73 186.65 129.76 178.15 189.72 54.74"/><path class="cls-45" d="M285.66,54.74H189.72l-23.47,48.31a292.18,292.18,0,0,0,61.07,10Z"/><polygon class="cls-46" points="195.82 60.07 280.33 60.07 285.66 54.74 189.72 54.74 129.76 178.15 137.76 179.57 195.82 60.07"/><path class="cls-47" d="M230,135.18,298,67.1,285.66,37.25H189.72L174,47.09,114,170.51l12.68,24.86,21.92,3.88L88.13,292l27,21.92L264.05,165l-12.37-29.86ZM102.78,301.57l74.95-114.92-48-8.5,60-123.41h95.94l-97.93,97.93h64Z"/><polygon class="cls-48" points="177.73 186.65 175.25 190.46 102.78 301.57 110.49 293.86 183.83 191.98 177.73 186.65"/><polygon class="cls-49" points="199.15 152.67 187.72 152.67 193.82 158 246.35 158 251.68 152.67 199.15 152.67"/><polygon class="cls-50" points="138.76 290.32 138.76 285.46 131.49 280.13 140.91 280.13 142.26 286.82 138.76 290.32"/><polygon class="cls-51" points="214.55 214.54 213.52 211.01 210.86 207.35 214.55 209.35 215.7 213.38 214.55 214.54"/><polygon class="cls-52" points="137.94 197.36 141.07 195.19 136.74 188.2 141.07 185.37 138.91 188.36 143.31 195.53 142.15 198.11 137.94 197.36"/><polygon class="cls-53" points="277.34 87.79 277.34 83.91 265.82 82.27 273.48 85.03 273.51 91.62 277.34 87.79"/><polygon class="cls-54" points="212.19 37.25 216.85 42.63 214.52 47.96 221.52 42.6 216.85 37.25 212.19 37.25"/><polygon class="cls-55" points="210.86 207.35 212.96 211.33 212.96 212.7 213.28 213.58 213.9 215.14 214.55 214.54 213.52 211.01 210.86 207.35"/><polygon class="cls-55" points="131.49 280.13 133.74 284.47 136.88 284.8 137.49 286.63 136.22 292.86 138.76 290.32 138.76 285.46 131.49 280.13"/><polygon class="cls-55" points="265.82 82.27 269.65 84.6 270.07 86.94 271.98 86.94 271.58 89.1 272.59 92.54 273.51 91.62 273.48 85.03 265.82 82.27"/><polygon class="cls-55" points="214.52 47.96 220.52 44.75 222.77 42.6 218.03 38.6 221.52 42.6 214.52 47.96"/><polygon class="cls-55" points="141.07 185.37 140.02 187.91 140.55 188.47 139.54 189.4 138.91 188.36 141.07 185.37"/><polygon class="cls-55" points="137.95 190.15 138.91 193.47 138.43 194.49 139.2 195.48 136.24 197.06 137.94 197.36 141.07 195.19 137.95 190.15"/><path class="cls-56" d="M239.9,100.5c6.19,2.13,12.42,4.17,18.62,6.11l10.74-10.74q-9.27-3.18-18-6.72Z"/><path class="cls-56" d="M164.48,66.67c4.8,3,9.9,5.86,15.24,8.66l9-18.54c-5.13-3.29-10-6.57-14.58-9.79l-.16.09Z"/><path class="cls-56" d="M172.68,89.81c-6.14-2-11.77-3.8-16.79-5.45l-9.42,19.39c5.43,1.68,11.12,3.34,17,5Z"/><path class="cls-56" d="M232.16,108.23,218,122.38c6.7,1.52,13.47,3,20.26,4.48l13-13Q241.58,111,232.16,108.23Z"/></g></g></g></svg>