<svg xmlns="http://www.w3.org/2000/svg" xmlns:xlink="http://www.w3.org/1999/xlink" viewBox="0 0 383.49 138.96"><defs><style>.cls-1{fill:none;}.cls-2{fill:#38b6ff;}.cls-3{clip-path:url(#clip-path);}.cls-4{clip-path:url(#clip-path-2);}.cls-5{fill:#ff5757;}.cls-6{clip-path:url(#clip-path-3);}.cls-7{clip-path:url(#clip-path-4);}</style><clipPath id="clip-path" transform="translate(0 -0.02)"><rect class="cls-1" x="55.33" y="123.72" width="16" height="15.28"/></clipPath><clipPath id="clip-path-2" transform="translate(0 -0.02)"><rect class="cls-1" y="82.39" width="15.33" height="16"/></clipPath><clipPath id="clip-path-3" transform="translate(0 -0.02)"><rect class="cls-1" x="60.67" y="74.39" width="19.33" height="21.33"/></clipPath><clipPath id="clip-path-4" transform="translate(0 -0.02)"><rect class="cls-1" x="60.67" width="16" height="15.72"/></clipPath></defs><g id="Layer_2" data-name="Layer 2"><g id="Layer_1-2" data-name="Layer 1"><path class="cls-2" d="M30.14,13.43a7.06,7.06,0,1,1-7,7.06,7,7,0,0,1,7-7.06" transform="translate(0 -0.02)"/><g class="cls-3"><path class="cls-2" d="M63.49,124.85a7.07,7.07,0,1,1-7,7.07,7,7,0,0,1,7-7.07" transform="translate(0 -0.02)"/></g><g class="cls-4"><path class="cls-2" d="M7,83.43a7.07,7.07,0,1,1-7,7.06,7,7,0,0,1,7-7.06" transform="translate(0 -0.02)"/></g><path class="cls-5" d="M54,54.86a7.07,7.07,0,1,1-7,7.07,7.06,7.06,0,0,1,7-7.07" transform="translate(0 -0.02)"/><g class="cls-6"><path class="cls-5" d="M70.52,75.63a9.52,9.52,0,1,1-9.47,9.52,9.5,9.5,0,0,1,9.47-9.52" transform="translate(0 -0.02)"/></g><path class="cls-5" d="M30.14,52.41a9.52,9.52,0,1,1-9.48,9.52,9.49,9.49,0,0,1,9.48-9.52" transform="translate(0 -0.02)"/><path class="cls-5" d="M61.05,26.6A8.48,8.48,0,0,1,69.36,35c.16,4.68-3.9,8.22-8.31,8.36-4.65.16-8.17-3.92-8.33-8.36-.15-4.66,3.91-8.2,8.33-8.36,1.48,0,1.49-2.37,0-2.32A10.85,10.85,0,0,0,50.41,35c-.2,6,5,10.5,10.64,10.69,5.92.2,10.44-5,10.63-10.69.2-5.95-5-10.49-10.63-10.68-1.5-.05-1.49,2.28,0,2.32" transform="translate(0 -0.02)"/><path class="cls-5" d="M51.57,98.56a8.47,8.47,0,0,1,8.32,8.36c.15,4.66-3.91,8.21-8.32,8.36-4.65.15-8.17-3.93-8.32-8.36-.16-4.68,3.9-8.21,8.32-8.36,1.48,0,1.49-2.38,0-2.33a10.85,10.85,0,0,0-10.64,10.69c-.2,6,5,10.49,10.64,10.68,5.93.2,10.45-5,10.63-10.68.2-6-5-10.5-10.63-10.69-1.49,0-1.49,2.28,0,2.33" transform="translate(0 -0.02)"/><g class="cls-7"><path class="cls-5" d="M68.36,0a7.35,7.35,0,1,1-7.31,7.35A7.33,7.33,0,0,1,68.36,0" transform="translate(0 -0.02)"/></g><path d="M108.4,83.28c15,0,26.06-6.14,26.06-18.41,0-9.81-5.85-14.79-19.42-16.53l-6.28-.79c-4.33-.58-6.21-1.59-6.21-3.4,0-2.09,2-3.46,5.13-3.46a6.44,6.44,0,0,1,6.78,5.78L130.92,43c-1.16-9.46-10.68-15.3-22.81-15.3-13.5,0-23.82,6.56-23.82,17.68,0,9.46,5.84,14.44,19.49,16.61l6.14.86c4.54.73,6.49,1.81,6.49,3.68,0,2.31-2.74,3.76-7,3.76-4.76,0-8.23-2.46-9.1-6.86L83.64,66.61C84.79,78.37,94.68,83.28,108.4,83.28Z" transform="translate(0 -0.02)"/><path d="M145.65,82.2c5.27,0,9-3.61,9-8.67s-3.75-8.66-9-8.66-9,3.61-9,8.66S140.45,82.2,145.65,82.2Z" transform="translate(0 -0.02)"/><path d="M159.72,81.48h18.7L178.49,67h8.66c13.21,0,21.66-7.29,21.66-18.77s-8.3-18.77-21.45-18.77H159.72ZM178.49,54l-.07-11.54h5.12c4.19,0,6.5,2.09,6.5,5.77S187.73,54,183.54,54Z" transform="translate(0 -0.02)"/><path d="M220.72,82.2c5.27,0,9-3.61,9-8.67s-3.75-8.66-9-8.66-9,3.61-9,8.66S215.52,82.2,220.72,82.2Z" transform="translate(0 -0.02)"/><path d="M262.58,83.28c17.9,0,29.6-11,29.6-27.79s-11.7-27.79-29.6-27.79S233,38.67,233,55.49,244.68,83.28,262.58,83.28Zm0-15.88c-6.57,0-10.83-4.69-10.83-11.91S256,43.58,262.58,43.58s10.83,4.69,10.83,11.91S269.15,67.4,262.58,67.4Z" transform="translate(0 -0.02)"/><path d="M304.45,82.2c5.27,0,9-3.61,9-8.67s-3.75-8.66-9-8.66-9,3.61-9,8.66S299.25,82.2,304.45,82.2Z" transform="translate(0 -0.02)"/><path d="M330.07,81.48h18.77V45.38h13.72V29.5h-46.2V45.38h13.71Z" transform="translate(0 -0.02)"/><path d="M374.47,82.2c5.27,0,9-3.61,9-8.67s-3.75-8.66-9-8.66-9,3.61-9,8.66S369.27,82.2,374.47,82.2Z" transform="translate(0 -0.02)"/><path d="M99.3,98.18a3.5,3.5,0,0,1-1.54,3,7.51,7.51,0,0,1-4.29,1.06c-3.43,0-5.42-1.19-6-3.59l1.83-.37a2.88,2.88,0,0,0,1.38,1.87,5.65,5.65,0,0,0,2.83.59,5.3,5.3,0,0,0,2.83-.63,2.07,2.07,0,0,0,1-1.87,1.81,1.81,0,0,0-.32-1.11,2.26,2.26,0,0,0-.89-.7A5.53,5.53,0,0,0,94.84,96l-1.75-.42a16.69,16.69,0,0,1-2.54-.73A5,5,0,0,1,89.2,94,3,3,0,0,1,88.43,93a3.29,3.29,0,0,1-.27-1.39,3.2,3.2,0,0,1,1.37-2.79,6.9,6.9,0,0,1,4-1,7.47,7.47,0,0,1,3.67.73A4.07,4.07,0,0,1,99,91l-1.9.33a2.49,2.49,0,0,0-1.16-1.62,6.17,6.17,0,0,0-5,.06A1.83,1.83,0,0,0,90,91.45a1.75,1.75,0,0,0,.33,1.09,2.88,2.88,0,0,0,1,.71A17.89,17.89,0,0,0,94,94c.42.09.86.2,1.29.31s.84.22,1.23.35a6.54,6.54,0,0,1,1.1.5,3.39,3.39,0,0,1,.9.73,3,3,0,0,1,.6,1A3.59,3.59,0,0,1,99.3,98.18Z" transform="translate(0 -0.02)"/><path d="M111.3,96.66a6.2,6.2,0,0,1-1.25,4.23,4.61,4.61,0,0,1-3.63,1.4,4.4,4.4,0,0,1-3.58-1.44,6.36,6.36,0,0,1-1.21-4.19q0-5.59,4.86-5.6a4.54,4.54,0,0,1,3.64,1.37A6.4,6.4,0,0,1,111.3,96.66Zm-1.88,0a6.1,6.1,0,0,0-.66-3.25,2.49,2.49,0,0,0-2.23-1,2.56,2.56,0,0,0-2.29,1,5.73,5.73,0,0,0-.71,3.23,6.06,6.06,0,0,0,.69,3.23A2.41,2.41,0,0,0,106.4,101a2.56,2.56,0,0,0,2.32-1A6,6,0,0,0,109.42,96.66Z" transform="translate(0 -0.02)"/><path d="M114.09,102.08V87.25h1.81v14.83Z" transform="translate(0 -0.02)"/><path d="M123.94,102.08h-2.12l-3.94-10.81h1.94l2.37,7c.08.26.31,1,.69,2.35l.35-1.16.38-1.17,2.46-7.06H128Z" transform="translate(0 -0.02)"/><path d="M130,89v-1.7h1.79V89Zm0,13.13V91.27h1.79v10.81Z" transform="translate(0 -0.02)"/><path d="M142,102.08V95.23a5.18,5.18,0,0,0-.21-1.67,1.44,1.44,0,0,0-.66-.83,2.73,2.73,0,0,0-1.36-.28,2.55,2.55,0,0,0-2,.9,3.67,3.67,0,0,0-.75,2.46v6.27h-1.81v-8.5q0-1.89-.06-2.31h1.71v.27c0,.14,0,.31,0,.5s0,.55,0,1.06h0a4.07,4.07,0,0,1,1.44-1.56,3.9,3.9,0,0,1,2-.48,3.38,3.38,0,0,1,2.6.89,4.21,4.21,0,0,1,.84,2.92v7.21Z" transform="translate(0 -0.02)"/><path d="M151.12,106.33a5,5,0,0,1-2.83-.71,3.09,3.09,0,0,1-1.34-2l1.81-.27a1.78,1.78,0,0,0,.78,1.15,2.9,2.9,0,0,0,1.62.41c1.8,0,2.71-1,2.71-3.14v-1.73h0a3.78,3.78,0,0,1-1.42,1.56,3.92,3.92,0,0,1-2.06.52,3.36,3.36,0,0,1-2.94-1.31,7.39,7.39,0,0,1-.94-4.17,7.14,7.14,0,0,1,1-4.2,3.57,3.57,0,0,1,3.07-1.38,3.75,3.75,0,0,1,2,.52,3.61,3.61,0,0,1,1.33,1.48h0c0-.19,0-.53,0-1a4,4,0,0,1,.08-.81h1.71c0,.36-.06,1.1-.06,2.23v8.27Q155.64,106.33,151.12,106.33Zm2.75-9.67a6.24,6.24,0,0,0-.38-2.27,3.18,3.18,0,0,0-1-1.46,2.36,2.36,0,0,0-1.48-.5,2.21,2.21,0,0,0-2,1,6.43,6.43,0,0,0-.62,3.23,6.56,6.56,0,0,0,.58,3.21,2.17,2.17,0,0,0,2,1,2.4,2.4,0,0,0,1.5-.5,3.07,3.07,0,0,0,1-1.44A5.94,5.94,0,0,0,153.87,96.66Z" transform="translate(0 -0.02)"/><path d="M176.4,92.23a4.09,4.09,0,0,1-1.31,3.18,5.09,5.09,0,0,1-3.54,1.17H167.4v5.5h-1.9V88h5.92a5.54,5.54,0,0,1,3.67,1.1A3.88,3.88,0,0,1,176.4,92.23Zm-1.92,0q0-2.73-3.29-2.73H167.4v5.56h3.87Q174.48,95.08,174.48,92.25Z" transform="translate(0 -0.02)"/><path d="M179.44,102.08V93.79c0-.76,0-1.61-.06-2.52h1.7c.06,1.22.09,2,.09,2.21h0a4.14,4.14,0,0,1,1-1.9,2.26,2.26,0,0,1,1.58-.52,3.13,3.13,0,0,1,.73.1v1.65a3.51,3.51,0,0,0-1-.11,1.88,1.88,0,0,0-1.71,1,5.33,5.33,0,0,0-.58,2.75v5.65Z" transform="translate(0 -0.02)"/><path d="M195.91,96.66a6.14,6.14,0,0,1-1.25,4.23,4.61,4.61,0,0,1-3.62,1.4,4.42,4.42,0,0,1-3.59-1.44,6.42,6.42,0,0,1-1.2-4.19c0-3.73,1.61-5.6,4.85-5.6a4.57,4.57,0,0,1,3.65,1.37A6.46,6.46,0,0,1,195.91,96.66Zm-1.87,0a6.09,6.09,0,0,0-.67-3.25,2.49,2.49,0,0,0-2.23-1,2.57,2.57,0,0,0-2.29,1,5.81,5.81,0,0,0-.71,3.23,6.06,6.06,0,0,0,.69,3.23A2.44,2.44,0,0,0,191,101a2.55,2.55,0,0,0,2.31-1A5.86,5.86,0,0,0,194,96.66Z" transform="translate(0 -0.02)"/><path d="M207.85,96.62q0,5.67-4,5.67a4.28,4.28,0,0,1-2-.44,3.25,3.25,0,0,1-1.31-1.46h0c0,.21,0,.53,0,1s0,.66-.06.73h-1.75c0-.36.06-1.1.06-2.23V87.25h1.82v4.23c0,.43,0,.93-.05,1.52h.05a3.1,3.1,0,0,1,1.31-1.48,4.1,4.1,0,0,1,2-.46,3.43,3.43,0,0,1,3,1.39A7.34,7.34,0,0,1,207.85,96.62Zm-1.88.06a6.56,6.56,0,0,0-.6-3.25,2.15,2.15,0,0,0-2-1,2.45,2.45,0,0,0-2.21,1,6.09,6.09,0,0,0-.68,3.29,5.78,5.78,0,0,0,.66,3.14,2.45,2.45,0,0,0,2.21,1,2.13,2.13,0,0,0,2-1A6.7,6.7,0,0,0,206,96.68Z" transform="translate(0 -0.02)"/><path d="M210.64,102.08V87.25h1.81v14.83Z" transform="translate(0 -0.02)"/><path d="M217.12,97.06a4.6,4.6,0,0,0,.77,2.87,2.65,2.65,0,0,0,2.25,1,3.38,3.38,0,0,0,1.87-.45,2.4,2.4,0,0,0,1-1.21l1.58.46c-.64,1.7-2.11,2.56-4.41,2.56a4.57,4.57,0,0,1-3.65-1.44,6.32,6.32,0,0,1-1.25-4.25,6,6,0,0,1,1.25-4.1,4.48,4.48,0,0,1,3.58-1.44q4.77,0,4.77,5.75v.25Zm5.87-1.4a4.15,4.15,0,0,0-.87-2.48,2.71,2.71,0,0,0-2.07-.79,2.61,2.61,0,0,0-2.08.88,3.68,3.68,0,0,0-.83,2.39Z" transform="translate(0 -0.02)"/><path d="M234,102.08V95.23a3.84,3.84,0,0,0-.44-2.17,1.79,1.79,0,0,0-1.54-.61,2.18,2.18,0,0,0-1.83.88,4,4,0,0,0-.67,2.48v6.27h-1.79v-8.5q0-1.89-.06-2.31h1.7v.27c0,.14,0,.31,0,.5s0,.55,0,1.06h0a3.64,3.64,0,0,1,1.33-1.58,3.42,3.42,0,0,1,1.84-.46,3.32,3.32,0,0,1,1.93.5,2.46,2.46,0,0,1,1,1.54h0A3.85,3.85,0,0,1,237,91.54a3.75,3.75,0,0,1,1.94-.48,2.91,2.91,0,0,1,2.37.89,4.51,4.51,0,0,1,.75,2.92v7.21h-1.77V95.23a3.84,3.84,0,0,0-.44-2.17,1.79,1.79,0,0,0-1.54-.61,2.2,2.2,0,0,0-1.85.88,4,4,0,0,0-.65,2.48v6.27Z" transform="translate(0 -0.02)"/><path d="M253.41,99.08a2.72,2.72,0,0,1-1.17,2.37,5.4,5.4,0,0,1-3.23.84,6,6,0,0,1-3.13-.67,3.13,3.13,0,0,1-1.41-2.08l1.6-.31a2,2,0,0,0,.94,1.29,4.25,4.25,0,0,0,2,.39,3.69,3.69,0,0,0,2-.41,1.41,1.41,0,0,0,.65-1.27,1.37,1.37,0,0,0-.44-1,3.36,3.36,0,0,0-1.42-.64l-1.29-.36a9.25,9.25,0,0,1-2.21-.77,3.29,3.29,0,0,1-1-.93,2.41,2.41,0,0,1-.37-1.36,2.62,2.62,0,0,1,1-2.25A5.22,5.22,0,0,1,249,91.1a5.45,5.45,0,0,1,2.83.63,2.9,2.9,0,0,1,1.36,2l-1.63.18a1.58,1.58,0,0,0-.81-1.08,4.21,4.21,0,0,0-3.54,0,1.19,1.19,0,0,0-.58,1.1,1.25,1.25,0,0,0,.22.77,1.92,1.92,0,0,0,.71.5,13.72,13.72,0,0,0,2,.59,11.58,11.58,0,0,1,2,.66,3.36,3.36,0,0,1,1,.69,2.31,2.31,0,0,1,.57.86A2.85,2.85,0,0,1,253.41,99.08Z" transform="translate(0 -0.02)"/><path d="M271.45,96.66a6.14,6.14,0,0,1-1.25,4.23,4.61,4.61,0,0,1-3.62,1.4,4.4,4.4,0,0,1-3.58-1.44,6.36,6.36,0,0,1-1.21-4.19c0-3.73,1.61-5.6,4.85-5.6a4.56,4.56,0,0,1,3.65,1.37A6.46,6.46,0,0,1,271.45,96.66Zm-1.87,0a6.09,6.09,0,0,0-.67-3.25,2.49,2.49,0,0,0-2.23-1,2.58,2.58,0,0,0-2.29,1,5.81,5.81,0,0,0-.71,3.23,6.06,6.06,0,0,0,.69,3.23,2.44,2.44,0,0,0,2.19,1.06,2.55,2.55,0,0,0,2.31-1A5.86,5.86,0,0,0,269.58,96.66Z" transform="translate(0 -0.02)"/><path d="M276.47,92.58v9.5h-1.79v-9.5h-1.52V91.27h1.52V90a3,3,0,0,1,.65-2.13,2.76,2.76,0,0,1,2-.64,6.6,6.6,0,0,1,1.27.1v1.38a4.34,4.34,0,0,0-.81-.09,1.24,1.24,0,0,0-1,.36,1.94,1.94,0,0,0-.32,1.27v1h2.13v1.31Z" transform="translate(0 -0.02)"/><path d="M292.56,89.56v12.52h-1.92V89.56h-4.83V88h11.58v1.56Z" transform="translate(0 -0.02)"/><path d="M308.93,96.66a6.2,6.2,0,0,1-1.25,4.23,4.64,4.64,0,0,1-3.63,1.4,4.4,4.4,0,0,1-3.58-1.44,6.36,6.36,0,0,1-1.21-4.19c0-3.73,1.61-5.6,4.85-5.6a4.56,4.56,0,0,1,3.65,1.37A6.4,6.4,0,0,1,308.93,96.66Zm-1.88,0a6,6,0,0,0-.67-3.25,2.46,2.46,0,0,0-2.22-1,2.59,2.59,0,0,0-2.3,1,5.82,5.82,0,0,0-.7,3.23,6.07,6.07,0,0,0,.68,3.23A2.44,2.44,0,0,0,304,101a2.55,2.55,0,0,0,2.31-1A5.86,5.86,0,0,0,307.05,96.66Z" transform="translate(0 -0.02)"/><path d="M318,102.08V95.23a3.84,3.84,0,0,0-.44-2.17,1.78,1.78,0,0,0-1.54-.61,2.18,2.18,0,0,0-1.83.88,4,4,0,0,0-.67,2.48v6.27h-1.79v-8.5q0-1.89-.06-2.31h1.7v.27c0,.14,0,.31.05.5s0,.55,0,1.06h0a3.64,3.64,0,0,1,1.33-1.58,3.42,3.42,0,0,1,1.84-.46,3.32,3.32,0,0,1,1.93.5,2.46,2.46,0,0,1,1,1.54h0A3.85,3.85,0,0,1,321,91.54a3.75,3.75,0,0,1,1.94-.48,2.91,2.91,0,0,1,2.37.89,4.51,4.51,0,0,1,.75,2.92v7.21h-1.77V95.23a3.84,3.84,0,0,0-.44-2.17,1.78,1.78,0,0,0-1.54-.61,2.2,2.2,0,0,0-1.85.88,4,4,0,0,0-.65,2.48v6.27Z" transform="translate(0 -0.02)"/><path d="M338.47,96.66a6.2,6.2,0,0,1-1.25,4.23,4.63,4.63,0,0,1-3.63,1.4,4.4,4.4,0,0,1-3.58-1.44,6.36,6.36,0,0,1-1.21-4.19c0-3.73,1.61-5.6,4.85-5.6a4.54,4.54,0,0,1,3.65,1.37A6.4,6.4,0,0,1,338.47,96.66Zm-1.88,0a6.1,6.1,0,0,0-.66-3.25,2.49,2.49,0,0,0-2.23-1,2.59,2.59,0,0,0-2.3,1,5.82,5.82,0,0,0-.7,3.23,6.16,6.16,0,0,0,.68,3.23,2.44,2.44,0,0,0,2.19,1.06,2.54,2.54,0,0,0,2.31-1A5.86,5.86,0,0,0,336.59,96.66Z" transform="translate(0 -0.02)"/><path d="M341.3,102.08V93.79c0-.76,0-1.61-.06-2.52H343c.05,1.22.08,2,.08,2.21h0a4.14,4.14,0,0,1,1-1.9,2.26,2.26,0,0,1,1.58-.52,3.13,3.13,0,0,1,.73.1v1.65a3.51,3.51,0,0,0-1-.11,1.86,1.86,0,0,0-1.7,1,5.23,5.23,0,0,0-.59,2.75v5.65Z" transform="translate(0 -0.02)"/><path d="M348.67,102.08V93.79c0-.76,0-1.61-.06-2.52h1.7c.06,1.22.09,2,.09,2.21h0a4.14,4.14,0,0,1,1-1.9,2.26,2.26,0,0,1,1.58-.52,3.13,3.13,0,0,1,.73.1v1.65a3.51,3.51,0,0,0-1-.11,1.88,1.88,0,0,0-1.71,1,5.33,5.33,0,0,0-.58,2.75v5.65Z" transform="translate(0 -0.02)"/><path d="M365.14,96.66a6.14,6.14,0,0,1-1.25,4.23,4.61,4.61,0,0,1-3.62,1.4,4.42,4.42,0,0,1-3.59-1.44,6.42,6.42,0,0,1-1.2-4.19c0-3.73,1.61-5.6,4.85-5.6A4.57,4.57,0,0,1,364,92.43,6.46,6.46,0,0,1,365.14,96.66Zm-1.87,0a6.09,6.09,0,0,0-.67-3.25,2.49,2.49,0,0,0-2.23-1,2.57,2.57,0,0,0-2.29,1,5.81,5.81,0,0,0-.71,3.23,6.06,6.06,0,0,0,.69,3.23,2.44,2.44,0,0,0,2.19,1.06,2.55,2.55,0,0,0,2.31-1A5.86,5.86,0,0,0,363.27,96.66Z" transform="translate(0 -0.02)"/><path d="M378.29,102.08H376.2l-1.89-7.65L374,92.75q-.07.44-.27,1.29t-2,8h-2.08l-3-10.81h1.77l1.83,7.33q.06.25.42,2l.19-.73L373,91.27h1.93l1.88,7.41.48,1.9.29-1.38,2.06-7.93h1.75Z" transform="translate(0 -0.02)"/><path class="cls-2" d="M30.14,13.43a7.06,7.06,0,1,1-7,7.06,7,7,0,0,1,7-7.06" transform="translate(0 -0.02)"/><g class="cls-3"><path class="cls-2" d="M63.49,124.85a7.07,7.07,0,1,1-7,7.07,7,7,0,0,1,7-7.07" transform="translate(0 -0.02)"/></g><g class="cls-4"><path class="cls-2" d="M7,83.43a7.07,7.07,0,1,1-7,7.06,7,7,0,0,1,7-7.06" transform="translate(0 -0.02)"/></g><path class="cls-5" d="M54,54.86a7.07,7.07,0,1,1-7,7.07,7.06,7.06,0,0,1,7-7.07" transform="translate(0 -0.02)"/><g class="cls-6"><path class="cls-5" d="M70.52,75.63a9.52,9.52,0,1,1-9.47,9.52,9.5,9.5,0,0,1,9.47-9.52" transform="translate(0 -0.02)"/></g><path class="cls-5" d="M30.14,52.41a9.52,9.52,0,1,1-9.48,9.52,9.49,9.49,0,0,1,9.48-9.52" transform="translate(0 -0.02)"/><path class="cls-5" d="M61.05,26.6A8.48,8.48,0,0,1,69.36,35c.16,4.68-3.9,8.22-8.31,8.36-4.65.16-8.17-3.92-8.33-8.36-.15-4.66,3.91-8.2,8.33-8.36,1.48,0,1.49-2.37,0-2.32A10.85,10.85,0,0,0,50.41,35c-.2,6,5,10.5,10.64,10.69,5.92.2,10.44-5,10.63-10.69.2-5.95-5-10.49-10.63-10.68-1.5-.05-1.49,2.28,0,2.32" transform="translate(0 -0.02)"/><path class="cls-5" d="M51.57,98.56a8.47,8.47,0,0,1,8.32,8.36c.15,4.66-3.91,8.21-8.32,8.36-4.65.15-8.17-3.93-8.32-8.36-.16-4.68,3.9-8.21,8.32-8.36,1.48,0,1.49-2.38,0-2.33a10.85,10.85,0,0,0-10.64,10.69c-.2,6,5,10.49,10.64,10.68,5.93.2,10.45-5,10.63-10.68.2-6-5-10.5-10.63-10.69-1.49,0-1.49,2.28,0,2.33" transform="translate(0 -0.02)"/><g class="cls-7"><path class="cls-5" d="M68.36,0a7.35,7.35,0,1,1-7.31,7.35A7.33,7.33,0,0,1,68.36,0" transform="translate(0 -0.02)"/></g><path d="M108.4,83.28c15,0,26.06-6.14,26.06-18.41,0-9.81-5.85-14.79-19.42-16.53l-6.28-.79c-4.33-.58-6.21-1.59-6.21-3.4,0-2.09,2-3.46,5.13-3.46a6.44,6.44,0,0,1,6.78,5.78L130.92,43c-1.16-9.46-10.68-15.3-22.81-15.3-13.5,0-23.82,6.56-23.82,17.68,0,9.46,5.84,14.44,19.49,16.61l6.14.86c4.54.73,6.49,1.81,6.49,3.68,0,2.31-2.74,3.76-7,3.76-4.76,0-8.23-2.46-9.1-6.86L83.64,66.61C84.79,78.37,94.68,83.28,108.4,83.28Z" transform="translate(0 -0.02)"/><path d="M145.65,82.2c5.27,0,9-3.61,9-8.67s-3.75-8.66-9-8.66-9,3.61-9,8.66S140.45,82.2,145.65,82.2Z" transform="translate(0 -0.02)"/><path d="M159.72,81.48h18.7L178.49,67h8.66c13.21,0,21.66-7.29,21.66-18.77s-8.3-18.77-21.45-18.77H159.72ZM178.49,54l-.07-11.54h5.12c4.19,0,6.5,2.09,6.5,5.77S187.73,54,183.54,54Z" transform="translate(0 -0.02)"/><path d="M220.72,82.2c5.27,0,9-3.61,9-8.67s-3.75-8.66-9-8.66-9,3.61-9,8.66S215.52,82.2,220.72,82.2Z" transform="translate(0 -0.02)"/><path d="M262.58,83.28c17.9,0,29.6-11,29.6-27.79s-11.7-27.79-29.6-27.79S233,38.67,233,55.49,244.68,83.28,262.58,83.28Zm0-15.88c-6.57,0-10.83-4.69-10.83-11.91S256,43.58,262.58,43.58s10.83,4.69,10.83,11.91S269.15,67.4,262.58,67.4Z" transform="translate(0 -0.02)"/><path d="M304.45,82.2c5.27,0,9-3.61,9-8.67s-3.75-8.66-9-8.66-9,3.61-9,8.66S299.25,82.2,304.45,82.2Z" transform="translate(0 -0.02)"/><path d="M330.07,81.48h18.77V45.38h13.72V29.5h-46.2V45.38h13.71Z" transform="translate(0 -0.02)"/><path d="M374.47,82.2c5.27,0,9-3.61,9-8.67s-3.75-8.66-9-8.66-9,3.61-9,8.66S369.27,82.2,374.47,82.2Z" transform="translate(0 -0.02)"/><path d="M99.3,98.18a3.5,3.5,0,0,1-1.54,3,7.51,7.51,0,0,1-4.29,1.06c-3.43,0-5.42-1.19-6-3.59l1.83-.37a2.88,2.88,0,0,0,1.38,1.87,5.65,5.65,0,0,0,2.83.59,5.3,5.3,0,0,0,2.83-.63,2.07,2.07,0,0,0,1-1.87,1.81,1.81,0,0,0-.32-1.11,2.26,2.26,0,0,0-.89-.7A5.53,5.53,0,0,0,94.84,96l-1.75-.42a16.69,16.69,0,0,1-2.54-.73A5,5,0,0,1,89.2,94,3,3,0,0,1,88.43,93a3.29,3.29,0,0,1-.27-1.39,3.2,3.2,0,0,1,1.37-2.79,6.9,6.9,0,0,1,4-1,7.47,7.47,0,0,1,3.67.73A4.07,4.07,0,0,1,99,91l-1.9.33a2.49,2.49,0,0,0-1.16-1.62,6.17,6.17,0,0,0-5,.06A1.83,1.83,0,0,0,90,91.45a1.75,1.75,0,0,0,.33,1.09,2.88,2.88,0,0,0,1,.71A17.89,17.89,0,0,0,94,94c.42.09.86.2,1.29.31s.84.22,1.23.35a6.54,6.54,0,0,1,1.1.5,3.39,3.39,0,0,1,.9.73,3,3,0,0,1,.6,1A3.59,3.59,0,0,1,99.3,98.18Z" transform="translate(0 -0.02)"/><path d="M111.3,96.66a6.2,6.2,0,0,1-1.25,4.23,4.61,4.61,0,0,1-3.63,1.4,4.4,4.4,0,0,1-3.58-1.44,6.36,6.36,0,0,1-1.21-4.19q0-5.59,4.86-5.6a4.54,4.54,0,0,1,3.64,1.37A6.4,6.4,0,0,1,111.3,96.66Zm-1.88,0a6.1,6.1,0,0,0-.66-3.25,2.49,2.49,0,0,0-2.23-1,2.56,2.56,0,0,0-2.29,1,5.73,5.73,0,0,0-.71,3.23,6.06,6.06,0,0,0,.69,3.23A2.41,2.41,0,0,0,106.4,101a2.56,2.56,0,0,0,2.32-1A6,6,0,0,0,109.42,96.66Z" transform="translate(0 -0.02)"/><path d="M114.09,102.08V87.25h1.81v14.83Z" transform="translate(0 -0.02)"/><path d="M123.94,102.08h-2.12l-3.94-10.81h1.94l2.37,7c.08.26.31,1,.69,2.35l.35-1.16.38-1.17,2.46-7.06H128Z" transform="translate(0 -0.02)"/><path d="M130,89v-1.7h1.79V89Zm0,13.13V91.27h1.79v10.81Z" transform="translate(0 -0.02)"/><path d="M142,102.08V95.23a5.18,5.18,0,0,0-.21-1.67,1.44,1.44,0,0,0-.66-.83,2.73,2.73,0,0,0-1.36-.28,2.55,2.55,0,0,0-2,.9,3.67,3.67,0,0,0-.75,2.46v6.27h-1.81v-8.5q0-1.89-.06-2.31h1.71v.27c0,.14,0,.31,0,.5s0,.55,0,1.06h0a4.07,4.07,0,0,1,1.44-1.56,3.9,3.9,0,0,1,2-.48,3.38,3.38,0,0,1,2.6.89,4.21,4.21,0,0,1,.84,2.92v7.21Z" transform="translate(0 -0.02)"/><path d="M151.12,106.33a5,5,0,0,1-2.83-.71,3.09,3.09,0,0,1-1.34-2l1.81-.27a1.78,1.78,0,0,0,.78,1.15,2.9,2.9,0,0,0,1.62.41c1.8,0,2.71-1,2.71-3.14v-1.73h0a3.78,3.78,0,0,1-1.42,1.56,3.92,3.92,0,0,1-2.06.52,3.36,3.36,0,0,1-2.94-1.31,7.39,7.39,0,0,1-.94-4.17,7.14,7.14,0,0,1,1-4.2,3.57,3.57,0,0,1,3.07-1.38,3.75,3.75,0,0,1,2,.52,3.61,3.61,0,0,1,1.33,1.48h0c0-.19,0-.53,0-1a4,4,0,0,1,.08-.81h1.71c0,.36-.06,1.1-.06,2.23v8.27Q155.64,106.33,151.12,106.33Zm2.75-9.67a6.24,6.24,0,0,0-.38-2.27,3.18,3.18,0,0,0-1-1.46,2.36,2.36,0,0,0-1.48-.5,2.21,2.21,0,0,0-2,1,6.43,6.43,0,0,0-.62,3.23,6.56,6.56,0,0,0,.58,3.21,2.17,2.17,0,0,0,2,1,2.4,2.4,0,0,0,1.5-.5,3.07,3.07,0,0,0,1-1.44A5.94,5.94,0,0,0,153.87,96.66Z" transform="translate(0 -0.02)"/><path d="M176.4,92.23a4.09,4.09,0,0,1-1.31,3.18,5.09,5.09,0,0,1-3.54,1.17H167.4v5.5h-1.9V88h5.92a5.54,5.54,0,0,1,3.67,1.1A3.88,3.88,0,0,1,176.4,92.23Zm-1.92,0q0-2.73-3.29-2.73H167.4v5.56h3.87Q174.48,95.08,174.48,92.25Z" transform="translate(0 -0.02)"/><path d="M179.44,102.08V93.79c0-.76,0-1.61-.06-2.52h1.7c.06,1.22.09,2,.09,2.21h0a4.14,4.14,0,0,1,1-1.9,2.26,2.26,0,0,1,1.58-.52,3.13,3.13,0,0,1,.73.1v1.65a3.51,3.51,0,0,0-1-.11,1.88,1.88,0,0,0-1.71,1,5.33,5.33,0,0,0-.58,2.75v5.65Z" transform="translate(0 -0.02)"/><path d="M195.91,96.66a6.14,6.14,0,0,1-1.25,4.23,4.61,4.61,0,0,1-3.62,1.4,4.42,4.42,0,0,1-3.59-1.44,6.42,6.42,0,0,1-1.2-4.19c0-3.73,1.61-5.6,4.85-5.6a4.57,4.57,0,0,1,3.65,1.37A6.46,6.46,0,0,1,195.91,96.66Zm-1.87,0a6.09,6.09,0,0,0-.67-3.25,2.49,2.49,0,0,0-2.23-1,2.57,2.57,0,0,0-2.29,1,5.81,5.81,0,0,0-.71,3.23,6.06,6.06,0,0,0,.69,3.23A2.44,2.44,0,0,0,191,101a2.55,2.55,0,0,0,2.31-1A5.86,5.86,0,0,0,194,96.66Z" transform="translate(0 -0.02)"/><path d="M207.85,96.62q0,5.67-4,5.67a4.28,4.28,0,0,1-2-.44,3.25,3.25,0,0,1-1.31-1.46h0c0,.21,0,.53,0,1s0,.66-.06.73h-1.75c0-.36.06-1.1.06-2.23V87.25h1.82v4.23c0,.43,0,.93-.05,1.52h.05a3.1,3.1,0,0,1,1.31-1.48,4.1,4.1,0,0,1,2-.46,3.43,3.43,0,0,1,3,1.39A7.34,7.34,0,0,1,207.85,96.62Zm-1.88.06a6.56,6.56,0,0,0-.6-3.25,2.15,2.15,0,0,0-2-1,2.45,2.45,0,0,0-2.21,1,6.09,6.09,0,0,0-.68,3.29,5.78,5.78,0,0,0,.66,3.14,2.45,2.45,0,0,0,2.21,1,2.13,2.13,0,0,0,2-1A6.7,6.7,0,0,0,206,96.68Z" transform="translate(0 -0.02)"/><path d="M210.64,102.08V87.25h1.81v14.83Z" transform="translate(0 -0.02)"/><path d="M217.12,97.06a4.6,4.6,0,0,0,.77,2.87,2.65,2.65,0,0,0,2.25,1,3.38,3.38,0,0,0,1.87-.45,2.4,2.4,0,0,0,1-1.21l1.58.46c-.64,1.7-2.11,2.56-4.41,2.56a4.57,4.57,0,0,1-3.65-1.44,6.32,6.32,0,0,1-1.25-4.25,6,6,0,0,1,1.25-4.1,4.48,4.48,0,0,1,3.58-1.44q4.77,0,4.77,5.75v.25Zm5.87-1.4a4.15,4.15,0,0,0-.87-2.48,2.71,2.71,0,0,0-2.07-.79,2.61,2.61,0,0,0-2.08.88,3.68,3.68,0,0,0-.83,2.39Z" transform="translate(0 -0.02)"/><path d="M234,102.08V95.23a3.84,3.84,0,0,0-.44-2.17,1.79,1.79,0,0,0-1.54-.61,2.18,2.18,0,0,0-1.83.88,4,4,0,0,0-.67,2.48v6.27h-1.79v-8.5q0-1.89-.06-2.31h1.7v.27c0,.14,0,.31,0,.5s0,.55,0,1.06h0a3.64,3.64,0,0,1,1.33-1.58,3.42,3.42,0,0,1,1.84-.46,3.32,3.32,0,0,1,1.93.5,2.46,2.46,0,0,1,1,1.54h0A3.85,3.85,0,0,1,237,91.54a3.75,3.75,0,0,1,1.94-.48,2.91,2.91,0,0,1,2.37.89,4.51,4.51,0,0,1,.75,2.92v7.21h-1.77V95.23a3.84,3.84,0,0,0-.44-2.17,1.79,1.79,0,0,0-1.54-.61,2.2,2.2,0,0,0-1.85.88,4,4,0,0,0-.65,2.48v6.27Z" transform="translate(0 -0.02)"/><path d="M253.41,99.08a2.72,2.72,0,0,1-1.17,2.37,5.4,5.4,0,0,1-3.23.84,6,6,0,0,1-3.13-.67,3.13,3.13,0,0,1-1.41-2.08l1.6-.31a2,2,0,0,0,.94,1.29,4.25,4.25,0,0,0,2,.39,3.69,3.69,0,0,0,2-.41,1.41,1.41,0,0,0,.65-1.27,1.37,1.37,0,0,0-.44-1,3.36,3.36,0,0,0-1.42-.64l-1.29-.36a9.25,9.25,0,0,1-2.21-.77,3.29,3.29,0,0,1-1-.93,2.41,2.41,0,0,1-.37-1.36,2.62,2.62,0,0,1,1-2.25A5.22,5.22,0,0,1,249,91.1a5.45,5.45,0,0,1,2.83.63,2.9,2.9,0,0,1,1.36,2l-1.63.18a1.58,1.58,0,0,0-.81-1.08,4.21,4.21,0,0,0-3.54,0,1.19,1.19,0,0,0-.58,1.1,1.25,1.25,0,0,0,.22.77,1.92,1.92,0,0,0,.71.5,13.72,13.72,0,0,0,2,.59,11.58,11.58,0,0,1,2,.66,3.36,3.36,0,0,1,1,.69,2.31,2.31,0,0,1,.57.86A2.85,2.85,0,0,1,253.41,99.08Z" transform="translate(0 -0.02)"/><path d="M271.45,96.66a6.14,6.14,0,0,1-1.25,4.23,4.61,4.61,0,0,1-3.62,1.4,4.4,4.4,0,0,1-3.58-1.44,6.36,6.36,0,0,1-1.21-4.19c0-3.73,1.61-5.6,4.85-5.6a4.56,4.56,0,0,1,3.65,1.37A6.46,6.46,0,0,1,271.45,96.66Zm-1.87,0a6.09,6.09,0,0,0-.67-3.25,2.49,2.49,0,0,0-2.23-1,2.58,2.58,0,0,0-2.29,1,5.81,5.81,0,0,0-.71,3.23,6.06,6.06,0,0,0,.69,3.23,2.44,2.44,0,0,0,2.19,1.06,2.55,2.55,0,0,0,2.31-1A5.86,5.86,0,0,0,269.58,96.66Z" transform="translate(0 -0.02)"/><path d="M276.47,92.58v9.5h-1.79v-9.5h-1.52V91.27h1.52V90a3,3,0,0,1,.65-2.13,2.76,2.76,0,0,1,2-.64,6.6,6.6,0,0,1,1.27.1v1.38a4.34,4.34,0,0,0-.81-.09,1.24,1.24,0,0,0-1,.36,1.94,1.94,0,0,0-.32,1.27v1h2.13v1.31Z" transform="translate(0 -0.02)"/><path d="M292.56,89.56v12.52h-1.92V89.56h-4.83V88h11.58v1.56Z" transform="translate(0 -0.02)"/><path d="M308.93,96.66a6.2,6.2,0,0,1-1.25,4.23,4.64,4.64,0,0,1-3.63,1.4,4.4,4.4,0,0,1-3.58-1.44,6.36,6.36,0,0,1-1.21-4.19c0-3.73,1.61-5.6,4.85-5.6a4.56,4.56,0,0,1,3.65,1.37A6.4,6.4,0,0,1,308.93,96.66Zm-1.88,0a6,6,0,0,0-.67-3.25,2.46,2.46,0,0,0-2.22-1,2.59,2.59,0,0,0-2.3,1,5.82,5.82,0,0,0-.7,3.23,6.07,6.07,0,0,0,.68,3.23A2.44,2.44,0,0,0,304,101a2.55,2.55,0,0,0,2.31-1A5.86,5.86,0,0,0,307.05,96.66Z" transform="translate(0 -0.02)"/><path d="M318,102.08V95.23a3.84,3.84,0,0,0-.44-2.17,1.78,1.78,0,0,0-1.54-.61,2.18,2.18,0,0,0-1.83.88,4,4,0,0,0-.67,2.48v6.27h-1.79v-8.5q0-1.89-.06-2.31h1.7v.27c0,.14,0,.31.05.5s0,.55,0,1.06h0a3.64,3.64,0,0,1,1.33-1.58,3.42,3.42,0,0,1,1.84-.46,3.32,3.32,0,0,1,1.93.5,2.46,2.46,0,0,1,1,1.54h0A3.85,3.85,0,0,1,321,91.54a3.75,3.75,0,0,1,1.94-.48,2.91,2.91,0,0,1,2.37.89,4.51,4.51,0,0,1,.75,2.92v7.21h-1.77V95.23a3.84,3.84,0,0,0-.44-2.17,1.78,1.78,0,0,0-1.54-.61,2.2,2.2,0,0,0-1.85.88,4,4,0,0,0-.65,2.48v6.27Z" transform="translate(0 -0.02)"/><path d="M338.47,96.66a6.2,6.2,0,0,1-1.25,4.23,4.63,4.63,0,0,1-3.63,1.4,4.4,4.4,0,0,1-3.58-1.44,6.36,6.36,0,0,1-1.21-4.19c0-3.73,1.61-5.6,4.85-5.6a4.54,4.54,0,0,1,3.65,1.37A6.4,6.4,0,0,1,338.47,96.66Zm-1.88,0a6.1,6.1,0,0,0-.66-3.25,2.49,2.49,0,0,0-2.23-1,2.59,2.59,0,0,0-2.3,1,5.82,5.82,0,0,0-.7,3.23,6.16,6.16,0,0,0,.68,3.23,2.44,2.44,0,0,0,2.19,1.06,2.54,2.54,0,0,0,2.31-1A5.86,5.86,0,0,0,336.59,96.66Z" transform="translate(0 -0.02)"/><path d="M341.3,102.08V93.79c0-.76,0-1.61-.06-2.52H343c.05,1.22.08,2,.08,2.21h0a4.14,4.14,0,0,1,1-1.9,2.26,2.26,0,0,1,1.58-.52,3.13,3.13,0,0,1,.73.1v1.65a3.51,3.51,0,0,0-1-.11,1.86,1.86,0,0,0-1.7,1,5.23,5.23,0,0,0-.59,2.75v5.65Z" transform="translate(0 -0.02)"/><path d="M348.67,102.08V93.79c0-.76,0-1.61-.06-2.52h1.7c.06,1.22.09,2,.09,2.21h0a4.14,4.14,0,0,1,1-1.9,2.26,2.26,0,0,1,1.58-.52,3.13,3.13,0,0,1,.73.1v1.65a3.51,3.51,0,0,0-1-.11,1.88,1.88,0,0,0-1.71,1,5.33,5.33,0,0,0-.58,2.75v5.65Z" transform="translate(0 -0.02)"/><path d="M365.14,96.66a6.14,6.14,0,0,1-1.25,4.23,4.61,4.61,0,0,1-3.62,1.4,4.42,4.42,0,0,1-3.59-1.44,6.42,6.42,0,0,1-1.2-4.19c0-3.73,1.61-5.6,4.85-5.6A4.57,4.57,0,0,1,364,92.43,6.46,6.46,0,0,1,365.14,96.66Zm-1.87,0a6.09,6.09,0,0,0-.67-3.25,2.49,2.49,0,0,0-2.23-1,2.57,2.57,0,0,0-2.29,1,5.81,5.81,0,0,0-.71,3.23,6.06,6.06,0,0,0,.69,3.23,2.44,2.44,0,0,0,2.19,1.06,2.55,2.55,0,0,0,2.31-1A5.86,5.86,0,0,0,363.27,96.66Z" transform="translate(0 -0.02)"/><path d="M378.29,102.08H376.2l-1.89-7.65L374,92.75q-.07.44-.27,1.29t-2,8h-2.08l-3-10.81h1.77l1.83,7.33q.06.25.42,2l.19-.73L373,91.27h1.93l1.88,7.41.48,1.9.29-1.38,2.06-7.93h1.75Z" transform="translate(0 -0.02)"/></g></g></svg>