<svg id="Layer_1" data-name="Layer 1" xmlns="http://www.w3.org/2000/svg" xmlns:xlink="http://www.w3.org/1999/xlink" viewBox="0 0 138.97 79.99"><defs><style>.cls-1{fill:none;}.cls-2{fill:#38b6ff;}.cls-3{clip-path:url(#clip-path);}.cls-4{clip-path:url(#clip-path-2);}.cls-5{fill:#ff5757;}.cls-6{clip-path:url(#clip-path-3);}.cls-7{clip-path:url(#clip-path-4);}</style><clipPath id="clip-path" transform="translate(-11.12 -57.74)"><rect class="cls-1" x="134.84" y="66.3" width="15.28" height="16" transform="translate(-0.17 0.33) rotate(-0.13)"/></clipPath><clipPath id="clip-path-2" transform="translate(-11.12 -57.74)"><rect class="cls-1" x="93.63" y="122.39" width="16" height="15.33" transform="translate(-0.3 0.24) rotate(-0.13)"/></clipPath><clipPath id="clip-path-3" transform="translate(-11.12 -57.74)"><rect class="cls-1" x="85.49" y="57.74" width="21.33" height="19.33" transform="translate(-0.16 0.22) rotate(-0.13)"/></clipPath><clipPath id="clip-path-4" transform="translate(-11.12 -57.74)"><rect class="cls-1" x="11.1" y="61.25" width="15.72" height="16" transform="translate(-0.16 0.04) rotate(-0.13)"/></clipPath></defs><path class="cls-2" d="M24.62,107.77a7.06,7.06,0,1,1,7.08,7,7,7,0,0,1-7.08-7" transform="translate(-11.12 -57.74)"/><g class="cls-3"><path class="cls-2" d="M136,74.16a7.07,7.07,0,1,1,7.09,7,7,7,0,0,1-7.09-7" transform="translate(-11.12 -57.74)"/></g><g class="cls-4"><path class="cls-2" d="M94.67,130.71a7.07,7.07,0,1,1,7.08,7,7,7,0,0,1-7.08-7" transform="translate(-11.12 -57.74)"/></g><path class="cls-5" d="M66,83.8a7.06,7.06,0,1,1,7.08,7,7,7,0,0,1-7.08-7" transform="translate(-11.12 -57.74)"/><g class="cls-6"><path class="cls-5" d="M86.72,67.24a9.52,9.52,0,1,1,9.54,9.45,9.5,9.5,0,0,1-9.54-9.45" transform="translate(-11.12 -57.74)"/></g><path class="cls-5" d="M63.6,107.68a9.52,9.52,0,1,1,9.54,9.46,9.49,9.49,0,0,1-9.54-9.46" transform="translate(-11.12 -57.74)"/><path class="cls-5" d="M37.72,76.83a8.48,8.48,0,0,1,8.34-8.34c4.67-.17,8.22,3.89,8.38,8.3.17,4.65-3.9,8.18-8.34,8.34-4.67.17-8.21-3.89-8.38-8.3,0-1.49-2.37-1.49-2.32,0A10.84,10.84,0,0,0,46.11,87.44c6,.19,10.48-5,10.66-10.66.18-5.92-5.05-10.43-10.71-10.6-6-.19-10.48,5-10.66,10.65a1.16,1.16,0,0,0,2.32,0" transform="translate(-11.12 -57.74)"/><path class="cls-5" d="M109.7,86.14A8.48,8.48,0,0,1,118,77.8c4.66-.16,8.21,3.89,8.38,8.3.16,4.65-3.91,8.18-8.34,8.34-4.68.17-8.22-3.88-8.38-8.3-.06-1.48-2.38-1.49-2.33,0a10.85,10.85,0,0,0,10.71,10.61c6,.19,10.48-5,10.66-10.66.19-5.94-5.05-10.44-10.71-10.61-6-.19-10.48,5-10.66,10.66,0,1.49,2.28,1.48,2.33,0" transform="translate(-11.12 -57.74)"/><g class="cls-7"><path class="cls-5" d="M11.12,69.57a7.35,7.35,0,1,1,7.37,7.3,7.33,7.33,0,0,1-7.37-7.3" transform="translate(-11.12 -57.74)"/></g></svg>