<?xml version="1.0" encoding="UTF-8" standalone="no"?>
<!DOCTYPE svg PUBLIC "-//W3C//DTD SVG 1.1//EN" "http://www.w3.org/Graphics/SVG/1.1/DTD/svg11.dtd">
<svg width="100%" height="100%" viewBox="0 0 2555 828" version="1.1" xmlns="http://www.w3.org/2000/svg" xmlns:xlink="http://www.w3.org/1999/xlink" xml:space="preserve" xmlns:serif="http://www.serif.com/" style="fill-rule:evenodd;clip-rule:evenodd;stroke-linejoin:round;stroke-miterlimit:2;">
    <g transform="matrix(1,0,0,1,-1222.84,-2185.01)">
        <path d="M2428.11,2186.03C2457.19,2186.03 2476.28,2185.76 2494.3,2185.52C2616.55,2183.81 2696.08,2182.7 2820.64,2246.47C2936.21,2305.66 3094.61,2389.96 3116.72,2401.74C3297.01,2427.39 3461.81,2421.78 3621.61,2511.35C3739.84,2577.62 3777.15,2598.53 3777.15,2791.11L3777.15,2810.64L3242.53,2810.64L3740.76,2771.58C3738.19,2620.72 3704.16,2601.62 3604.91,2545.99C3454.6,2461.74 3276.6,2463.75 3109.03,2439.92L3103.37,2438.08C3102.86,2437.82 2929.68,2345.46 2805.21,2281.72C2688.04,2221.73 2611.85,2222.79 2494.73,2224.42C2471.3,2224.75 2446.4,2225.09 2428.11,2225.09C2136.84,2225.09 1869.21,2386.26 1602.62,2493.76C2099.27,2216.11 2270.82,2186.03 2428.11,2186.03Z" style="fill:white;fill-rule:nonzero;"/>
        <path d="M2418.83,2329.68L2418.83,2492.01L2995.63,2492.01C3097.7,2492.01 2418.83,2140.6 2418.83,2329.68Z" style="fill:white;"/>
        <path d="M2305.75,2329.68L2305.75,2492.01L2004.88,2492.01C1951.65,2492.01 2305.75,2140.6 2305.75,2329.68Z" style="fill:white;"/>
        <path d="M1818.22,2360.19L1725.08,2283.59L1222.84,2454.17L1431.28,2668.06L1350.4,2500.92L1728.54,2331.25L1818.22,2360.19Z" style="fill:white;"/>
        <path d="M2957.83,2968.72L2957.83,3012.24C2928.25,3011.1 2898.69,3000.51 2873.29,2979.81C2807.53,2926.24 2794.5,2825.29 2844.18,2754.4C2852.26,2742.88 2861.49,2732.87 2871.58,2724.39C2824.81,2792.81 2837.69,2889.27 2900.74,2940.64C2918.22,2954.88 2937.73,2964.16 2957.83,2968.72ZM2957.83,2613.34C2886.66,2617.91 2821.03,2666.22 2793.73,2742.62C2787.68,2759.55 2783.88,2776.83 2782.18,2794.06C2811.37,2715.21 2883.08,2667.97 2957.83,2671.21L2957.83,2613.34ZM2957.83,3012.24L2957.83,2968.72C3010.27,2980.64 3066.75,2960.4 3101.65,2911.84C3096.84,2924.61 3090.42,2936.92 3082.36,2948.43C3051.86,2991.95 3004.83,3014.04 2957.83,3012.24ZM3015.75,2684.17C3108.47,2722.69 3155.05,2834.47 3120.52,2934.63C3129.98,2920.63 3137.92,2905.07 3143.97,2888.14C3181.23,2783.88 3133.04,2666.74 3036.33,2626.56C3010.49,2615.83 2983.79,2611.67 2957.83,2613.34L2957.83,2671.21C2977.16,2672.05 2996.7,2676.26 3015.75,2684.17Z" style="fill:white;"/>
        <path d="M1807.36,2968.72L1807.36,3012.24C1777.78,3011.1 1748.22,3000.51 1722.82,2979.81C1657.07,2926.24 1644.03,2825.29 1693.72,2754.4C1701.8,2742.88 1711.02,2732.87 1721.1,2724.39C1674.35,2792.81 1687.22,2889.27 1750.27,2940.64C1767.75,2954.88 1787.26,2964.16 1807.36,2968.72ZM1807.36,2613.34C1736.19,2617.91 1670.56,2666.22 1643.26,2742.62C1637.21,2759.55 1633.42,2776.83 1631.71,2794.06C1660.9,2715.21 1732.62,2667.97 1807.36,2671.21L1807.36,2613.34ZM1807.36,3012.24L1807.36,2968.72C1859.81,2980.64 1916.29,2960.4 1951.18,2911.84C1946.38,2924.61 1939.96,2936.92 1931.89,2948.43C1901.4,2991.95 1854.36,3014.04 1807.36,3012.24ZM1865.28,2684.17C1958.01,2722.69 2004.58,2834.47 1970.06,2934.63C1979.52,2920.63 1987.46,2905.07 1993.5,2888.14C2030.77,2783.88 1982.57,2666.74 1885.86,2626.56C1860.02,2615.83 1833.32,2611.68 1807.36,2613.34L1807.36,2671.21C1826.7,2672.05 1846.23,2676.26 1865.28,2684.17Z" style="fill:white;"/>
        <path d="M3699.65,2664.96C3680.37,2617.37 3643.78,2596.85 3581.59,2561.99C3542.31,2539.98 3501.15,2523.85 3458.78,2511.63C3458.61,2514.28 3458.51,2516.95 3458.51,2519.65C3458.51,2602.97 3543.51,2670.55 3648.31,2670.55C3666.1,2670.55 3683.32,2668.61 3699.65,2664.96Z" style="fill:white;"/>
        <path d="M2072.46,2788.47L2725.26,2797.55L2413.6,2838.42L2072.46,2788.47Z" style="fill:white;"/>
    </g>
</svg>
